<svg xmlns="http://www.w3.org/2000/svg" viewBox="0 0 520 520" width="100%" height="100%"><defs><style>.cls-1{opacity:.65;}.cls-1,.cls-2,.cls-3,.cls-4,.cls-5,.cls-6,.cls-7{fill:currentColor;stroke-width:0px;}.cls-2{opacity:.35;}.cls-3{opacity:.45;}.cls-4{opacity:.5;}.cls-5{opacity:.55;}.cls-6{opacity:.08;}</style></defs><path class="cls-7" d="m426.14,206.47l-7.19,9.76-1.31,1.8-.68.91-.17.23-.27.31c-.2.2-.38.43-.63.54l-.31.17-.24.11-.47.21-.92.38-1.84.71c-1.23.46-2.46.89-3.69,1.32-2.47.85-4.95,1.64-7.45,2.38-2.21.67-4.44,1.33-6.65,1.96-1.42.4-2.85.8-4.3,1.13-1.45.3-2.91.65-4.43.53-.49-.15-.7-.25-.7-.34,0-.09.21-.21.55-.56.69-.65,1.95-1.49,3.57-1.82,5.73-1.33,11.4-3.09,17.15-4.83,1.71-.53,3.44-1.16,5.14-1.84.85-.34,1.69-.7,2.52-1.07l.59-.28c.12-.05.16-.08.22-.12l.09-.05h.01s-.02-.04.03.02l.14.18.14.18.03.04c.45.61.1.13.19.25l-.09-.12-.35-.49c-.09-.12-.05-.07-.06-.08h0s0-.01,0-.01v-.02c.1-.13.43-.54.7-.89,2.41-3.2,4.79-6.53,7.16-9.81l4.36-6.1c2.2-3.08,4.43-6.16,6.55-9.26,1.66-2.41,3.12-4.87,4.75-7.26.36-.52.71-1.04,1.07-1.57,1.39-1.93,1.94-2.47,2.59-2.64.15-.04.31-.11.43-.11.39,0,.08.95-.75,2.49-2.39,4.62-5.45,9.13-8.47,13.69-2.26,3.38-4.57,6.74-6.95,10.04l-.05-.03Z"/><path class="cls-7" d="m373.53,232.38l-2.91.93c-.35.11-.69.27-1.05.37-1.25.38-2.53.67-3.81.97-.56.13-1.11.32-1.67.46-.72.17-1.45.32-2.2.35-.23,0-.24-.12-.09-.34.15-.21.42-.55.79-.76,1.3-.82,2.73-1.17,4.18-1.54.88-.2,1.73-.57,2.6-.87l2.86-.99c.58-.21,1.17-.42,1.75-.65.88-.34,1.76-.67,2.61-1.08.66-.31,1.24-.76,1.87-1.1.14-.08.27-.17.41-.24.27-.13.45-.19.62-.16.18.05.31.15.46.32.07.07.14.14.2.22.09.13.11.27.07.45-.04.17-.12.4-.3.53-1,.93-2.24,1.52-3.51,2.06-.94.4-1.91.75-2.87,1.11l-.02-.04Z"/><path class="cls-6" d="m239.19,345.1c-44.89,17.7-89.44,61.93-89.44,61.93l4.58,14.26,11.24-6.65s30.39-8.92,27.6-2.07c-7.14,17.55-37.74,19.61-37.74,19.61l.99,8.21s14.98,4.65,60.02,11.29c45.04,6.63,59.2,2.62,62.58-4.11,3.37-6.73-8.07-18.64-12.81-20.53-4.74-1.89,32.38-57.95,36.71-65.9,4.33-7.95-63.74-16.04-63.74-16.04Z"/><path class="cls-6" d="m427.96,343.47c-2.37-6.6-16.19-26.46-35.18-30.98-19-4.5-59.99,5.22-59.99,5.22,0,0,18.41,18.58,20.99,24.96,2.58,6.38-6.02,40.78-10.74,55.74-4.73,14.96-24.89,48.75-24.89,48.75,0,0,35.33-3.33,59.43-13.29,24.1-9.94,40.84-27.09,48.83-45.43,7.99-18.34,3.92-38.37,1.56-44.98Zm-38.23,25.59c-5.27-1.3-17.09,2.24-13.59-10.73,0,0,4.8-13.34,20.65-12.19,13.15.95-1.78,24.22-7.05,22.93Z"/><path class="cls-7" d="m292.4,132.93c2.24,1.85,5,3.04,7.91,3.28,2.45.21,5.19-.51,6.46-2.8.86-1.55-1.51-2.94-2.37-1.39-.06.11-.13.22-.2.32-.14.21.05-.05-.05.06-.07.08-.14.15-.21.22-.02.02-.27.24-.14.13-.19.15-.69.4-.87.46-.21.07-.43.13-.65.17,0,0-.43.07-.19.04-.12.02-.24.03-.36.03-.53.04-1.05.02-1.58-.03-1.92-.18-4.24-1.16-5.81-2.46-.57-.47-1.38-.56-1.94,0-.49.49-.58,1.47,0,1.94h0Z"/><path class="cls-7" d="m306.06,152.84c1.95.92,3.97,1.31,6.11.98,1.8-.27,3.49-1.09,5.03-2.02.63-.39.87-1.23.49-1.88s-1.24-.88-1.88-.49c-1.36.83-2.52,1.42-4.07,1.7-.24.04-.52.08-.91.09-.34,0-.81,0-1.07-.04-.71-.09-1.59-.36-2.31-.7-.67-.32-1.48-.19-1.88.49-.35.6-.18,1.56.49,1.88h0Z"/><path class="cls-7" d="m239.36,347.07c-.55.4-4.05,3.86,4.12,5.81s19.89.23,19.89.23l-24.02-6.05Z"/><path class="cls-4" d="m275.65,454.32l6.1-13.41,13.39,6.07s-3.91,4.38-2.44,7.68c1.47,3.3,15.93,21.51,15.62,23.13-.31,1.61-3.19,4.48-11.3-1.5-8.11-5.98-21.37-21.97-21.37-21.97Z"/><path class="cls-7" d="m286.39,443.42c.73.3,1.47.6,2.22.87.27.1.56.16.83.26.96.36,1.91.72,2.88,1.04.43.15.88.23,1.31.35.56.16,1.12.3,1.65.57.17.08.11.23-.08.38-.19.14-.52.32-.86.31-1.23.03-2.36-.36-3.48-.78-.67-.27-1.41-.39-2.11-.59-.77-.23-1.54-.47-2.3-.73-.47-.15-.94-.32-1.4-.48-.71-.24-1.41-.52-2.13-.72-.55-.17-1.13-.21-1.68-.38-.12-.03-.24-.05-.36-.1-.45-.15-.54-.33-.53-.69,0-.08,0-.16.01-.24.03-.24.3-.42.66-.42.53.02,1.08,0,1.59.14.52.12,1.03.27,1.54.42.76.23,1.51.49,2.27.75v.04Z"/><path class="cls-7" d="m331.39,320.55c-8.13-8.06-39.77-16.53-39.77-16.53l4.1-7.84s37.84,9.34,43.2,12.17c5.36,2.82,8.51,7.5,8.51,7.5l-16.04,4.71Z"/><path class="cls-7" d="m294.86,287.03l-1.16,17.5s38.22,10.36,49.6,22.16c11.38,11.8,14.22,25.52,6.58,52.81-7.64,27.29-29.13,66.88-31.75,67.67-18.73,5.64-58.86-19.75-58.86-19.75,0,0,36.89-57.87,38.21-70.06,0,0-52.45-5.11-63.89-15.84-11.44-10.73-15.58-28.62-13.57-45.67l3.73-11.54s16.72,11.08,37.33,9.36c20.61-1.72,29.66-8.45,29.66-8.45l4.12,1.81Z"/><path class="cls-7" d="m396.38,229.46l-3.18.75c-.38.11-.76.22-1.14.32-1.36.34-2.71.67-4.04,1.08-.59.17-1.17.41-1.74.63-.37.13-.75.26-1.12.39-.37.14-.75.26-1.17.27-.26.02-.22.02-.07-.16.07-.09.17-.23.29-.42.12-.17.3-.3.49-.43l1.08-.62c.37-.19.76-.3,1.14-.45.77-.27,1.56-.51,2.36-.7.96-.23,1.91-.6,2.87-.88l3.18-.89,1.95-.54c.99-.27,1.98-.52,2.94-.84.75-.24,1.44-.61,2.17-.86l.48-.18c.6-.2.83-.18,1.05.03.05.05.11.09.15.14.13.17-.05.43-.46.7-1.2.83-2.61,1.33-4.02,1.79-1.05.35-2.11.64-3.18.9v-.03Z"/><path class="cls-7" d="m395.99,240.65c-2.13,1.56-4.3,2.72-6.48,3.9-.79.43-1.55.91-2.36,1.31-2.84,1.4-5.67,2.76-8.51,4.08-1.26.59-2.49,1.25-3.69,1.92-.78.42-1.51.91-2.31,1.29-.78.41-1.55.82-2.44,1.07-.64.04-.48.15-.26-.35.11-.26.29-.59.5-1.02.23-.39.57-.75.98-1.09.71-.61,1.48-1.1,2.26-1.59.78-.48,1.56-.96,2.35-1.41,1.58-.92,3.19-1.76,4.88-2.47,2-.88,3.94-2.06,5.88-3.13,2.13-1.18,4.26-2.36,6.23-3.71l.9-.63.84-.67c.3-.22.51-.47.77-.7.25-.22.49-.5.73-.79,1.44-1.71,2.8-3.54,3.91-5.48.86-1.51,1.5-3.11,2.08-4.7.12-.35.24-.7.36-1.06.49-1.3.8-1.64,1.65-1.66.19,0,.39-.03.57-.01.61.06.9.8.65,1.89-.74,3.21-2.36,6.27-4.26,9.11-.71,1.06-1.48,2.08-2.29,3.08-.2.25-.41.5-.62.74l-.32.37-.39.39c-.26.25-.52.52-.78.75l-.79.63-.05-.05Z"/><path class="cls-7" d="m425.38,212.76l-3.11,4.73-1.59,2.36-.83,1.19-.44.63-.85.94c-.65.5-1.65.72-1.96.82l-1.39.39-2.75.73-5.48,1.41c-2.66.68-5.3,1.45-7.96,2.1l-11.89,2.87c-.31.04-.61.05-.91.06-.29-.02-.49-.06-.75-.16-.5-.33-.73-.81-.92-1.41-.18-.6-.25-1.3-.31-1.95l-.1-1.13c-.02-.31-.06-.64-.14-.98-.07-.31-.26-.75-.64-.7-.25.08-.38.33-.52.54-.13.23-.24.47-.36.73l-.6,1.41c-.25.59-.51,1.19-.79,1.79-.51,1.01-.97,2.05-2.01,3.05-.26.25-.63.48-1,.64l-.8.29-1.54.55c-2.05.71-4.13,1.35-6.21,1.91-5.34,1.47-10.8,2.49-16.23,2.9-1.71.07-1.55-.18-.24-1,.66-.39,1.58-1.04,2.77-1.49,1.18-.48,2.57-.94,4.1-1.29,2.39-.57,4.76-1.03,7.1-1.65,2.34-.61,4.65-1.3,6.93-2.08.57-.2,1.14-.39,1.71-.6l.85-.31.35-.13s.02,0,.02-.01c.08-.04.38-.38.62-.79.25-.42.5-.91.74-1.43.24-.52.47-1.07.7-1.63l.96-2.34c.46-1.05,1-2.04,1.61-2.64.62-.6,1.17-.89,1.99-.99.44.01.92.08,1.29.28.38.19.68.44.95.75.54.6.93,1.5,1.17,2.58.18.79.29,1.71.37,2.48.02.23.05.58.05.62v.23c.02.15.02.3.07.45.02.1.12.07.19.05.07-.01.15-.04.22-.04l1-.25,1.76-.46c1.17-.31,2.35-.63,3.53-.94,2.36-.63,4.73-1.26,7.08-1.89l10.96-2.9,2.72-.76,1.23-.36c.1-.03.21-.06.29-.11l.19-.23c1.01-1.44,2.08-3.07,3.1-4.64,2.53-3.9,5.05-7.82,7.51-11.77,3.73-5.98,7.49-11.99,11-18.05,2.73-4.71,5.2-9.44,7.7-14.2.54-1.05,1.07-2.08,1.62-3.14,2.09-3.89,2.97-5,4.28-5.38.3-.09.62-.24.88-.24.84-.04.57,1.87-.79,4.85-4.09,8.78-9.15,17.62-14.39,26.38-3.89,6.51-7.93,12.96-12,19.39l-.08-.04Z"/><path class="cls-7" d="m365.7,247.19c.43.54.85,1.07,1.27,1.61.16.19.35.35.51.55.55.69,1.1,1.4,1.65,2.09.25.31.54.57.78.88.16.2.34.37.47.59.12.23.22.48.32.72.06.16-.02.19-.21.2-.19,0-.57.02-.88-.08-.29-.08-.45-.27-.67-.4-.21-.15-.43-.29-.58-.49-.33-.38-.65-.77-.94-1.2-.35-.51-.86-.9-1.28-1.36-.47-.5-.93-1.02-1.39-1.54l-.84-.97c-.43-.48-.83-.99-1.29-1.45-.35-.36-.77-.64-1.16-.97-.09-.07-.18-.13-.26-.21-.29-.29-.25-.5.06-.86.07-.08.14-.17.22-.25.26-.26.61-.33.9-.19.79.45,1.4,1.1,2.02,1.77.44.51.89,1.02,1.34,1.54l-.03.03Z"/><path class="cls-7" d="m358.19,243.95c.5.5.98,1.02,1.44,1.54.17.19.36.36.53.55.58.69,1.13,1.39,1.67,2.1.25.3.48.63.72.94.3.4.59.82.82,1.27.07.14,0,.16-.14.11-.15-.05-.4-.16-.62-.35-.38-.34-.75-.67-1.14-1.01-.33-.38-.65-.76-.97-1.16-.37-.48-.86-.88-1.31-1.31-.49-.47-.99-.93-1.49-1.38-.32-.27-.63-.55-.96-.8-.49-.4-1.02-.75-1.56-1.05-.44-.21-.91-.33-1.36-.47-.1-.03-.2-.06-.3-.08-.36-.13-.42-.28-.31-.76.02-.11.04-.22.07-.32.1-.35.38-.58.71-.54.5.05.96.2,1.41.4.43.24.82.54,1.2.85.54.49,1.09.96,1.61,1.45l-.02.03Z"/><path class="cls-7" d="m310.7,257.72c.57.12,5.96,4.13,3.85,4.25s5.74-2.42,5.74-2.42l-9.59-1.83Z"/><path class="cls-7" d="m278.31,281.55l-4.65-2.09c-.57-.25-1.15-.46-1.72-.72-1.98-.94-3.94-1.93-5.86-3-.85-.47-1.75-.86-2.59-1.34-.54-.3-1.09-.6-1.62-.92-.51-.37-.97-.81-1.46-1.21-.29-.26-.25-.24.1-.2.34.06,1.04.02,1.78.12,2.43.72,4.66,1.76,6.9,2.92,1.32.74,2.81,1.24,4.23,1.84l4.69,2.01,2.9,1.24c1.47.61,2.93,1.28,4.41,1.85,1.15.44,2.3.83,3.44,1.28.25.1.49.2.73.33.89.49,1.11.77,1.11,1.26,0,.11.01.23,0,.33-.06.33-.55.42-1.29.28-2.19-.39-4.31-1.12-6.41-2-1.57-.65-3.14-1.3-4.72-1.95l.02-.05Z"/><path class="cls-7" d="m224.32,282.46c-.15-.88-.23-1.77-.26-2.66-.02-.32-.05-.65-.03-.97.13-1.15.37-2.27.68-3.34.14-.47.21-.96.38-1.42.11-.29.19-.59.32-.87.14-.28.31-.55.51-.79.13-.15.34-.04.56.21.21.25.49.63.5.97,0,.59.12,1.17.03,1.7-.09.53-.2,1.06-.34,1.61-.19.66,0,1.36.07,2.03.07.74.08,1.51.21,2.27.07.47.15.94.28,1.4.19.7.39,1.42.72,2.06.28.5.7.91,1.02,1.36.07.1.17.18.23.29.24.39.14.61-.39,1.05-.12.1-.24.21-.36.3-.42.31-.9.36-1.24.14-.52-.33-.96-.73-1.35-1.19-.33-.48-.6-1.01-.83-1.57-.34-.82-.58-1.69-.78-2.57l.07-.02Z"/><path class="cls-7" d="m343.59,214.96c-1.34,1.06-2.72,2.08-4.11,3.06-.5.37-.99.75-1.51,1.1-1.81,1.23-3.68,2.38-5.57,3.48-.84.5-1.67.99-2.5,1.49-1.09.58-2.16,1.22-3.37,1.57-.38.09-.36,0-.15-.29.2-.33.62-.81,1.21-1.18,1.04-.68,2.08-1.37,3.16-1.98,1.06-.64,2.13-1.28,3.22-1.93,1.3-.77,2.53-1.74,3.76-2.65,1.36-1.01,2.7-2.04,4.01-3.11.8-.67,1.61-1.32,2.39-2.02,1.19-1.03,2.34-2.13,3.43-3.25.84-.88,1.56-1.83,2.32-2.75l.49-.61c.61-.76.88-.96,1.24-.96.08,0,.17-.01.24,0,.23.05.14.48-.22,1.14-1.06,1.96-2.52,3.81-4.15,5.46-1.24,1.2-2.54,2.35-3.87,3.46l-.03-.03Z"/><path class="cls-7" d="m366.19,111.71c.49.34.98.68,1.45,1.06.17.13.37.23.54.37.6.49,1.18,1.01,1.76,1.52.26.22.55.41.78.66.32.3.62.62.86,1.01.07.12,0,.18-.17.21-.17.03-.47.07-.72,0l-.65-.2c-.21-.07-.44-.11-.59-.26-.34-.25-.67-.52-.99-.82-.38-.36-.88-.56-1.33-.84-.5-.3-.99-.61-1.48-.94-.3-.2-.6-.4-.91-.58-.47-.28-.93-.58-1.43-.8-.38-.18-.82-.23-1.21-.38-.09-.03-.18-.05-.26-.09-.31-.15-.35-.31-.22-.74.03-.1.06-.2.09-.29.12-.32.38-.51.66-.5.84-.01,1.58.3,2.28.68.53.27,1.04.59,1.55.9l-.02.04Z"/><path class="cls-7" d="m363.72,114.15c.9.25,1.8.52,2.67.84.32.1.64.2.95.35,1.08.52,2.12,1.1,3.1,1.74.44.27.87.57,1.29.85.26.19.53.39.8.58.25.21.5.43.73.66.15.14.08.18-.11.14-.19-.04-.51-.13-.83-.32-1.13-.67-2.32-1.15-3.49-1.68-.7-.34-1.5-.48-2.27-.67-.84-.21-1.68-.44-2.54-.58-.53-.1-1.06-.18-1.6-.25-.81-.09-1.64-.17-2.45-.16-.64,0-1.26.14-1.88.23-.14.02-.27.06-.41.07-.52.03-.68-.14-.82-.65-.03-.12-.07-.23-.09-.35-.07-.39.14-.74.52-.91,1.15-.43,2.4-.56,3.65-.42.93.09,1.86.29,2.77.49v.05Z"/><path class="cls-7" d="m276.26,199.8s16.68,9.02,16.73,5.44c.03-2.35,4.13,5.07,4.13,5.07,0,0-8.15-1.4-9.48-2.04s-11.38-8.46-11.38-8.46Z"/><path class="cls-7" d="m300.63,197.03s3.44,1.4,2.4,3.01,4.21-.81,4.21-.81l-6.61-2.2Z"/><path class="cls-7" d="m295.17,192.61c-.32-1.28-1.76-3.02-1.17-5.25.49-1.86,3.59-4.18,5.87-4.94s-15.74,2.54-15.74,2.54l11.04,7.64Z"/><path class="cls-7" d="m295.35,119.2c10.21-13.35-5.08-30.18-8.03-28.2,0,0,.32,5.57-1.33,6.85-1.65,1.29-17.22-.16-21.4.53-4.19.69-14.66,4.23-18.65,10.85-3.99,6.61-4.32,11.33-3.37,15.07.96,3.74,2.65,7.74,2.65,7.74,0,0-11.3.44-15.75,6.97-4.46,6.53-7.88,12.69-5.21,19.58s11.37,17.55,19.7,21.4c8.33,3.85,19.09,3.34,22.94,1.07,3.85-2.27,7.77-6.47,7.48-10.32s-.61-5.18-.61-5.18c0,0-8.08,1.75-10.79-3.79s.96-11.82,2.16-11.2c1.2.62,3.83-.87,7.16,1.5,3.32,2.37,9.91,5.4,10.71,3.55s-1.06-5.63-2.81-7.61c-1.76-1.98-6.67-6.78-5.39-10.79,1.27-4.01,5.28-8.34,7.44-9.58,1.19-.69,1.54-.93,13.11-8.41Z"/><path class="cls-7" d="m279.1,451.13c-.79,1.43-1.57,2.85-2.32,4.3-.27.53-.47,1.08-.75,1.61-.99,1.85-1.99,3.68-2.92,5.56-.41.83-.76,1.69-1.1,2.55-.42,1.1-.77,2.23-1.56,3.18-.27.29-.54.12-.83-.33-.32-.47-.61-1.2-.43-1.87.7-2.33,1.69-4.53,2.87-6.67.72-1.28,1.17-2.73,1.77-4.09.66-1.5,1.35-2.98,2.04-4.47l1.28-2.74c.64-1.39,1.32-2.76,1.88-4.17.43-1.1.68-2.25,1.01-3.39.08-.25.12-.51.21-.76.17-.46.36-.75.6-.88.24-.13.62-.2,1.06-.03.2.07.41.13.6.23.31.17.54.43.72.66.08.13.16.21.19.36.03.16.03.32,0,.49-.33,2.06-1.18,4.09-2.09,6.07-.68,1.48-1.43,2.94-2.15,4.41l-.07-.03Z"/><path class="cls-7" d="m307.03,470.82c.63.91,1.26,1.83,1.84,2.85.15.25.29.52.43.78.07.13.14.26.21.41l.27.55c.2.45.33.91.5,1.36.1.45.21.91.22,1.35.09.9-.22,1.7-.7,2.41-.53.67-1.26,1.15-2.08,1.39-.44.06-.86.18-1.33.15-.46-.04-.93,0-1.37-.13-1.01-.18-1.48-.35-2.06-.55-1.63-.6-3.14-1.26-4.55-2.08-2.47-1.47-4.75-3.12-6.9-4.93-2.13-1.82-4.15-3.75-6.08-5.75-1.71-1.78-3.38-3.61-4.91-5.52-1.96-2.44-3.84-5.04-4.92-8.03-.31-.94-.15-.86.52-.31.33.28.85.65,1.36,1.14.51.5,1.1,1.07,1.65,1.75,1.98,2.37,4.02,4.67,6.25,6.8,2.17,2.19,4.45,4.27,6.8,6.3,2.84,2.39,6.12,4.52,9.45,6.12.91.44,1.83.83,2.74,1.12l.62.19c.11.03.23.06.33.08.2.03.41.07.62.03.21-.03.42-.15.5-.35.09-.2.06-.42,0-.63-.02-.11-.06-.21-.1-.32-.02-.05-.04-.11-.06-.16l-.11-.23c-.21-.43-.45-.87-.72-1.3-1.31-2.14-2.91-4.24-4.52-6.3-2.45-3.15-4.99-6.27-7.28-9.66-.86-1.35-1.79-2.65-2.3-4.5-.23-.91-.24-1.9-.1-2.81.15-.91.43-1.75.75-2.52.28-.68.55-1.31.86-1.92,1.16-2.21,1.6-2.69,2.71-2.84.25-.03.51-.1.75-.09.78,0,1.03,1.29.35,3.14-.49,1.35-1.07,2.62-1.41,3.74-.35,1.14-.38,1.96-.15,2.72.23.75.9,1.92,1.62,2.99.73,1.1,1.56,2.21,2.41,3.32,2.55,3.31,5.31,6.61,7.94,10.2l-.07.06Z"/><path class="cls-7" d="m317.34,300.37c2.99.74,5.99,1.55,8.98,2.4,1.09.3,2.21.55,3.29.88,1.92.6,3.82,1.27,5.71,1.99,1.88.75,3.73,1.57,5.54,2.5,1.59.84,3.21,1.71,4.67,2.8,1.82,1.41,3.63,3.18,4.3,5.5.23.7,0,.67-.57.31-.3-.17-.63-.45-1.09-.71-.23-.14-.48-.27-.7-.44-.22-.18-.44-.36-.66-.55-3.2-2.67-7.08-4.62-11.23-6.41-2.48-1.09-5.25-1.74-7.95-2.45-2.97-.8-5.98-1.53-8.99-2.28l-5.57-1.38c-2.82-.69-5.64-1.45-8.45-2.19-2.18-.59-4.37-1.02-6.51-1.8-.47-.18-.94-.33-1.4-.54-.85-.42-1.39-.73-1.69-1.12-.31-.36-.42-.67-.43-1.05,0-.17-.04-.35,0-.5.09-.49.94-.49,2.21-.21,1.84.53,3.75.94,5.67,1.48,1.93.52,3.9,1.04,5.89,1.53,2.97.74,5.98,1.46,9.01,2.16v.08Z"/><path class="cls-7" d="m295.94,293.35c-.07.94-.15,1.88-.22,2.82-.03.35.01.69-.02,1.04-.12,1.23-.41,2.45-.64,3.66-.14.53-.15,1.08-.29,1.61-.13.68-.29,1.36-.64,1.99-.11.19-.35.1-.59-.14-.23-.24-.52-.64-.52-1.02-.1-1.38.08-2.66.36-3.99.16-.8.07-1.65.09-2.49.02-.93.05-1.86.07-2.79.01-.58.02-1.16.04-1.74,0-.88.07-1.78.05-2.67-.02-.69-.13-1.39-.13-2.09,0-.16-.03-.31,0-.47.07-.58.27-.73.91-.74.15,0,.29,0,.44,0,.48.04.85.33.95.73.14.59.26,1.17.33,1.76.04.58,0,1.17-.01,1.78-.04.91-.08,1.84-.12,2.75h-.06Z"/><path class="cls-7" d="m249.67,291.97c3.58.31,7.22.35,10.84.16,1.33-.06,2.64-.26,3.96-.37,4.65-.44,9.33-1.06,13.9-2.17,2.02-.49,4.03-1.11,5.96-1.85,1.24-.47,2.47-.95,3.69-1.46,1.2-.54,2.41-1.04,3.65-1.52.77-.3.83-.07.43.65-.2.36-.5.86-.92,1.39-.43.52-1.03.99-1.73,1.39-1.25.69-2.51,1.33-3.81,1.89-1.32.5-2.65.96-3.99,1.37-2.69.82-5.43,1.43-8.21,1.86-3.32.52-6.74,1.22-10.16,1.54-3.76.36-7.54.48-11.32.34-2.32-.12-4.65-.27-6.96-.6-3.5-.46-6.97-1.27-10.33-2.37-2.6-.88-5.16-1.84-7.56-3.27-.53-.31-1.07-.59-1.56-.98-.46-.36-.82-.67-1.11-.95-.28-.29-.47-.57-.61-.81-.27-.49-.3-.89-.16-1.36.06-.21.1-.44.2-.62.34-.59,1.35-.35,2.57.49,3.75,2.38,7.98,4.28,12.62,5.45,3.42.89,7,1.47,10.61,1.72v.08Z"/><path class="cls-7" d="m313.66,132.72c.04-.53.19-.58-.48-1.29-.22-.22-.5-.38-.76-.6-.89-.81-1.95-1.52-3.01-2.25-.48-.31-.99-.55-1.5-.77-.66-.29-1.35-.46-1.96-.9-.19-.14-.12-.31.13-.51.25-.2.72-.49,1.16-.41,1.53.26,3.08.55,4.41,1.38.77.53,1.71.83,2.56,1.38.46.32.93.61,1.37,1.11.48.51.85,1.25.96,1.94.13.86-.01,1.62-.18,2.31-.29,1.04-.78,1.91-1.17,2.8-.29.69-.5,1.41-.78,2.07-.06.15-.09.3-.17.43-.26.5-.48.53-1.16.37-.15-.04-.31-.06-.46-.1-.51-.12-.81-.58-.76-1.09.07-.75.22-1.41.39-2.05.19-.62.46-1.17.67-1.72.32-.8.6-1.56.66-2.08h.07Z"/><path class="cls-7" d="m249.67,102.11c3.77-2.9,8.32-4.65,12.96-5.25,1.69-.25,3.4-.34,5.08-.29,2.97.17,5.84.77,8.57,1.34,2.73.56,5.4,1.06,7.5.14.93-.38,1.61-1.1,2.02-2.03.41-.94.53-2.06.48-3.19-.07-1.46-.44-2.93-.87-4.38-.45-1.45-1.03-2.86-1.52-4.32-.19-.99-.15-.95.8-.55.48.2,1.05.6,1.69,1.14.6.56,1.13,1.33,1.53,2.23.7,1.61,1.2,3.33,1.4,5.18.18,1.83.12,3.91-.97,5.92-.54.99-1.36,1.88-2.32,2.49-.95.61-1.98,1-2.98,1.17-2.08.32-3.88,0-5.55-.35-2-.44-3.92-.86-5.86-1.14-1.93-.28-3.86-.41-5.75-.38-2.08.02-4.15.33-6.16.88-2.01.53-3.96,1.35-5.76,2.42-2.22,1.31-4.25,2.98-5.88,4.98-2.53,2.99-4.14,6.75-4.52,10.65-.29,3.03.24,6.03,1.22,8.81.23.61.48,1.19.75,1.79.94,2.22,1.22,2.94.83,3.84-.08.2-.12.42-.2.57-.2.45-1.43-.03-2.57-1.73-3.27-5.06-4.26-12.03-2.29-18.31,1.44-4.7,4.53-8.78,8.31-11.71l.06.06Z"/><path class="cls-7" d="m227.14,161.48c1.89,5,5.69,9.37,10.13,12.73,1.63,1.23,3.41,2.26,5.2,3.23,3.16,1.72,6.55,3.07,10.07,3.78,3.51.74,7.18.82,10.65,0,1.53-.39,3.03-.93,4.41-1.7,1.38-.8,2.64-1.66,3.59-2.8.62-.73,1.11-1.56,1.46-2.47.36-.9.61-1.85.72-2.83.13-.98.21-1.98.16-2.99-.06-1.01-.04-2.05-.22-3.08-.21-1.28-.1-1.17.57-.2.31.5.77,1.21,1.23,2.17.43.96.73,2.17.77,3.52.02,2.39-.63,4.91-2.04,7.05-.73,1.04-1.57,2.05-2.6,2.79-1.01.73-2.01,1.32-3.09,1.84-4.31,2.08-9.18,2.53-13.71,1.89-5.43-.79-10.88-2.56-15.6-5.46-5.16-3.18-9.74-7.44-12.83-12.76-.94-1.64-1.7-3.39-2.24-5.21-.54-1.83-.86-3.68-1-5.56-.4-5.69,1.16-11.51,4.43-16.14,1.28-1.79,2.77-3.42,4.51-4.8,1.75-1.34,3.72-2.46,5.9-3.09.96-.27,1.91-.52,2.92-.6,1.87-.16,3.12.01,3.94.3.83.26,1.24.66,1.5,1.16.12.23.29.46.33.66.13.71-1.32.79-3.59.78-3.39.03-6.7,1.27-9.43,3.4-2.73,2.14-4.84,5.18-6.09,8.55-1.88,4.98-1.89,10.79.02,15.79l-.07.03Z"/><path class="cls-7" d="m295.63,191.96c1.55.95,3.18,1.81,4.86,2.62.62.29,1.26.51,1.88.81l3.71,1.86c.42.23.77.47,1.15.7.17.12.4.23.52.35l.26.38.27.37c.1.14,0,.35-.05.48-.14.3-.34.58-.61.85-.49.48-1.23.87-1.94,1.23-.38.16-.77.3-1.17.42-.3.1-.57.16-.86.21-1.45.24-3,.34-4.33-.39-.41-.2-.33-.27.06-.46.19-.09.47-.24.78-.43.16-.09.32-.21.49-.29.17-.07.34-.12.52-.15.63-.13,1.23-.31,1.79-.54.26-.11.6-.26.78-.31,0,0,.02.02.05.02.05,0,.16.01.33-.04.04-.01.1-.03.12-.06.01-.02.02-.04.03-.06.01-.05,0-.1-.02-.16-.03-.08-.12-.15-.22-.23,0-.01-.24-.12-.43-.21l-.59-.25c-.79-.33-1.62-.63-2.41-.99-1.75-.79-3.49-1.66-5.19-2.6-1.05-.58-2.07-1.21-3.08-1.85-1.51-1.02-2.98-2.11-4.36-3.3-.57-.43-1.08-.91-1.63-1.35-.56-.43-1.07-.93-1.55-1.47-.2-.24-.46-.43-.62-.71-.33-.49-.5-.85-.51-1.16-.03-.3.09-.56.3-.83.09-.12.17-.25.26-.34.26-.28,1.01-.21,1.63.28,1.85,1.45,3.43,3.08,5.36,4.52,1.4,1.09,2.92,2.08,4.49,3l-.03.06Z"/><path class="cls-7" d="m284.31,205.26c2,1.33,4.14,2.44,6.37,3.18.82.25,1.66.39,2.48.52l.69.13c.14.03.27.05.41.06.14.02.29,0,.45,0,.08-.02.17-.02.24-.05.03-.06.01-.12,0-.18-.07-.25-.19-.5-.34-.82l-.07-.14-.14-.25c-.1-.18-.19-.37-.29-.55l-.56-1.12c-.65-1.33-1.39-2.63-1.9-4.03-.35-.89-.67-1.8-.88-2.74-.25-.93-.24-1.94-.19-2.89.06-.6.14-.51.4-.05.13.23.33.54.59.9.14.19.28.38.42.57.08.1.14.2.23.3.05.11.12.22.18.33.4.8.87,1.57,1.37,2.32.49.76,1.05,1.48,1.48,2.27.47.78.95,1.56,1.42,2.35.12.2.24.4.36.6l.16.33.3.54c.39.73.82,1.49,1.05,2.17.11.4.19.78.17,1.1-.03.32,0,.63-.25.96-.29.21-.46.5-.89.6-.38.13-.72.31-1.19.35-.45.05-.87.18-1.35.16l-1.42-.02c-.27,0-.4-.02-.56-.05l-.47-.07c-.31-.05-.64-.08-.94-.16-2.7-.61-5.17-1.73-7.47-3.06-1.41-.82-2.74-1.76-4.04-2.72-.95-.78-1.93-1.5-2.81-2.35l-1.36-1.22-1.3-1.26c-1.39-1.26-2.73-2.51-4.07-3.82-.27-.3-.56-.59-.82-.9-.98-1.17-1.08-1.72-.68-2.43.09-.16.16-.34.27-.47.34-.44,1.16-.3,2,.4,2.48,2.1,4.75,4.48,7.22,6.68,1.81,1.65,3.75,3.14,5.78,4.46l-.04.07Z"/><path class="cls-7" d="m222.13,331.16c-1.36-3.06-2.14-6.26-2.67-9.43-.31-1.59-.42-3.19-.6-4.78-.08-1.59-.22-3.19-.21-4.77-.1-6.36.5-12.65,1.52-18.84.71-4.53,1.61-9.02,2.75-13.44,4.09-15.58,10.26-30.48,17.64-44.67,3.27-6.3,6.82-12.5,10.53-18.49,1.21-1.91,2.39-3.85,3.66-5.72,1.24-1.89,2.5-3.78,3.83-5.62l1.98-2.77,2.09-2.68c.71-.88,1.39-1.79,2.12-2.65.74-.85,1.51-1.69,2.31-2.49,2.09-1.93,1.8-1.67.77.54-.51,1.11-1.22,2.69-2.25,4.45-1,1.79-2.19,3.86-3.66,5.97-5.18,7.52-9.97,15.3-14.39,23.29-4.44,7.98-8.53,16.18-12.22,24.61-4.37,10.1-7.82,21.09-10.21,32.06-1.34,6.03-2.34,12.13-2.78,18.27-.26,3.07-.3,6.14-.24,9.2.14,3.05.37,6.11.96,9.08.71,3.66,1.82,7.24,3.74,10.34,1.91,3.12,4.54,5.79,7.54,7.97,2.25,1.69,4.77,3.05,7.35,4.25,2.57,1.23,5.29,2.18,8.02,3.05,5.49,1.69,11.15,2.84,16.83,3.64,8.84,1.26,17.61,1.62,26.46,2.06,1.95.1,3.87.16,5.84.29,7.31.49,9.68,1.09,11.09,2.29.32.27.75.55.92.78.54.79-2.4.85-7.69.59-15.71-.72-32.68-.91-49.42-4.93-6.19-1.53-12.37-3.6-18.07-6.94-5.7-3.24-10.82-8.21-13.63-14.46l.07-.05Z"/><path class="cls-7" d="m338.37,153.33c2.28-6.48,4.6-12.97,7.17-19.38l1.39-3.52c.48-1.17.98-2.33,1.49-3.49,1.89-4.04,3.84-8.08,6.47-11.83.58-.97,1.41-1.82,2.12-2.72l.28-.33c.12-.14.23-.3.38-.44.33-.27.68-.55,1.1-.66.42-.1.84-.17,1.3-.12.4,0,.68.09,1.01.14,2.43.59,4.39,1.65,6.39,2.69,3.49,1.92,6.86,4.03,10.06,6.29,4.08,2.92,8.26,5.89,11.32,9.98.89,1.32.76,1.14-.43.48-.58-.34-1.57-.65-2.53-1.25-.99-.56-2.12-1.24-3.29-2.05-2-1.5-4.04-2.98-6.12-4.38-2.08-1.4-4.2-2.73-6.32-4.06-2.13-1.3-4.29-2.56-6.49-3.58-1.09-.5-2.22-.97-3.21-1.2-.61-.12-.55-.12-.72-.1-.07.02-.09.04-.24.22l-.58.69c-.45.57-.97,1.06-1.38,1.7-.41.62-.83,1.25-1.25,1.88-.43.62-.8,1.29-1.16,1.97l-1.1,2.03c-.71,1.37-1.34,2.81-2.01,4.21-.62,1.43-1.25,2.87-1.87,4.29-2.67,6.31-5.03,12.79-7.31,19.3-1.39,4.02-2.77,8.04-4.16,12.06-1.04,3.05-2.12,6.1-3.27,9.14-.27.76-.59,1.51-.9,2.27-.32.75-.59,1.51-.96,2.26-.68,1.49-1.42,3.01-2.42,4.36-3.01,4.32-7.53,7.2-12.18,9.11-1.03.42-2.04.84-3.1,1.17-3.95,1.24-5.29,1.23-6.33.61-.24-.15-.54-.28-.69-.44-.53-.57.96-1.45,3.71-2.41,4.06-1.46,8.15-3.05,11.54-5.49,1.69-1.22,3.18-2.65,4.37-4.32,1.2-1.65,2.08-3.58,2.92-5.69,2.49-6.24,4.64-12.89,6.89-19.43l.08.02Z"/><path class="cls-7" d="m372.32,175.14c-2.76,5.33-5.68,10.59-8.78,15.73-1.15,1.87-2.22,3.79-3.45,5.6-4.19,6.53-9.2,12.57-14.76,17.96-2.49,2.37-5.08,4.67-7.78,6.76-1.74,1.34-3.55,2.6-5.47,3.68-.95.56-1.94,1.05-2.94,1.51-1.03.41-2.04.84-3.1,1.14-1.31.4-1.17.22-.21-.45,1-.59,2.61-2.03,4.63-3.37,1.79-1.23,3.46-2.6,5.15-3.96,1.69-1.35,3.3-2.82,4.89-4.29,3.13-3.02,6.18-6.14,9.08-9.46,1.75-1.97,3.34-4.14,4.87-6.36,1.51-2.23,2.88-4.61,4.32-6.9,3.06-5.12,6.03-10.31,8.81-15.61,1.71-3.26,3.37-6.55,4.96-9.88,2.42-5.03,4.78-10.13,6.96-15.24,1.7-3.97,3.13-7.96,4.76-11.94.37-.87.71-1.74,1.1-2.61.75-1.61,1.32-2.65,1.85-3.31.56-.65,1.03-.94,1.59-1.07.25-.06.53-.16.74-.16.71.04.52,1.53-.38,3.89-2.61,7.08-5.68,14.54-8.98,21.95-2.45,5.5-5.07,10.97-7.79,16.38l-.08-.03Z"/><path class="cls-7" d="m333,290.8c-3.23,1.17-6.52,2.27-10.12,2.69-.91.09-1.83.14-2.78.08-.93-.05-1.72-.19-2.59-.28-.85-.11-1.7-.19-2.54-.33l-2.52-.45c-1.23-.2-2.44-.45-3.65-.72-1.21-.26-2.43-.5-3.61-.85-8.42-2.29-16.51-5.49-24.34-9.16-3.46-1.65-6.96-3.29-10.33-5.04-2.19-1.09-4.34-2.27-6.45-3.5-2.13-1.2-4.18-2.56-6.14-4.03-1.17-1-.98-.91.3-.54.65.17,1.52.49,2.58.85.53.18,1.11.37,1.7.62.58.26,1.19.54,1.82.85,4.44,2.19,8.83,4.43,13.3,6.54,4.47,2.11,9.01,4.07,13.59,6,5.49,2.29,11.45,4.03,17.35,5.37,1.62.36,3.25.73,4.89.97.82.13,1.64.29,2.46.41l2.47.28c.82.09,1.67.21,2.4.2.77,0,1.55-.06,2.35-.18,1.58-.23,3.18-.61,4.75-1.11,3.88-1.2,7.66-2.86,11.36-4.65,5.61-2.73,11.11-5.81,16.43-9.04,4.13-2.52,8.03-5.23,11.99-7.93.87-.59,1.71-1.2,2.6-1.79,3.3-2.17,4.48-2.66,5.67-2.37.27.07.59.1.79.21.68.37-.38,1.69-2.71,3.41-6.91,5.1-14.5,10.09-22.46,14.6-5.93,3.32-12.03,6.44-18.48,8.96l-.04-.07Z"/><path class="cls-7" d="m306.48,256.89l-1.52-.87-1.47-.94c-.99-.61-1.92-1.29-2.88-1.93-.69-.47-1.4-.92-2.07-1.42-2.35-1.78-4.63-3.63-6.89-5.48-1-.83-2.03-1.61-3.06-2.38-.66-.49-1.34-.95-1.98-1.47-.64-.52-1.26-1.07-1.86-1.64-.37-.36-.21-.48.29-.44.5.05,1.38.18,2.26.6,1.5.81,2.88,1.78,4.28,2.73.69.49,1.39.96,2.05,1.48.65.53,1.3,1.07,1.96,1.61,1.55,1.31,3.33,2.42,5.04,3.56,1.87,1.27,3.77,2.47,5.73,3.57,1.22.65,2.43,1.31,3.7,1.84.94.45,1.93.78,2.9,1.16.98.35,1.99.6,2.99.85.79.13,1.58.22,2.36.3.79.04,1.58.01,2.36.03.34.02.68-.02,1.03-.04,1.28-.04,1.68.15,1.99.9.07.17.16.34.21.51.15.58-.38,1.05-1.41,1.21-3.03.49-6.35.1-9.43-.86-1.15-.33-2.27-.78-3.38-1.22-1.07-.52-2.18-.99-3.2-1.58l.03-.06Z"/><path class="cls-7" d="m375.91,233.73c.63-.87,1.19-2.03,1.68-3.21.48-1.19.92-2.43,1.36-3.69.32-.92.57-1.87.94-2.81.14-.35.28-.69.44-1.05l.12-.26c.05-.12.12-.28.19-.41.13-.28.27-.55.44-.79.65-.99,1.36-1.68,2.36-1.78,1.49,0,2.33,1.29,2.64,2.86.09.37.14.82.17,1.12.02.27.04.53.05.8.02.53.01,1.05,0,1.56-.06,1.57-.17,3.14-.41,4.67-.34,1.94-.71,3.98-2,5.65-.57.41-.46.33-.49-.25-.04-.3-.03-.68-.06-1.13,0-.44-.08-.97.04-1.48.32-1.85.38-3.76.52-5.64.04-.94.05-1.88.02-2.79l-.04-.68c-.02-.21-.05-.51-.03-.48.02-.1.03-.23.02-.39-.01-.19-.12-.44-.33-.46-.27.04-.4.36-.52.61l-.19.45-.24.6-.46,1.24c-.92,2.49-1.78,5.06-3,7.61-.4.78-.82,1.56-1.45,2.3-.67.73-1.3,1.24-1.97,1.79-2.02,1.61-4.22,2.94-6.48,4.14-1.75.92-3.5,1.84-5.42,2.49-.42.15-.83.31-1.28.39-.82.18-1.37.23-1.78.11-.4-.1-.64-.33-.84-.7-.09-.17-.2-.34-.26-.51-.18-.59.41-1.15,1.43-1.45,3.03-1.02,6.1-2.3,9.04-4.06,1.08-.65,2.15-1.35,3.17-2.1.98-.75,2.1-1.59,2.55-2.29l.06.04Z"/><path class="cls-7" d="m385.06,97.22c1.15-.76,2.28-1.37,3.26-2.02.51-.33.87-.6,1.3-1.02.42-.39.8-.81,1.16-1.25.52-.65.89-1.39,1.2-2.09.27-.6.43-1.23.4-1.71,0-.35-.14-.55-.41-.72-.03-.02-.07-.05-.1-.05-.03.01-.07.03-.1.04l-.2.11-.11.06-.25.16-.52.34-2.12,1.37c-1.26.76-2.51,1.56-3.79,2.28-1.62.95-3.44,1.79-5.49,1.76-.65-.07-.51-.29-.06-.6.46-.31,1.12-.94,1.96-1.47.74-.5,1.51-.95,2.29-1.42.77-.48,1.53-1,2.29-1.52.77-.52,1.51-1.07,2.31-1.56.91-.58,1.81-1.15,2.73-1.73l.4-.22c.13-.02.27-.06.4-.07l.39-.03h.01s0,0,0,0v-.08s0,0,0,0h0s0,0,0,0h0s.03,0,.03,0h.05s.1.04.1.04l.21.05c.73.3,1.4.77,1.84,1.45.11.17.2.35.3.54.09.18.14.43.19.59.09.35.1.68.11,1.01-.03,1.3-.43,2.4-.95,3.37-.67,1.28-1.57,2.36-2.56,3.33-1.05,1.03-2.24,1.69-3.3,2.38-.63.4-1.24.79-1.8,1.2-.54.39-1.1.91-1.37,1.29-.03.03-.04.08-.06.11-.12.24-.18.92-.27,1.51-.09.61-.2,1.25-.38,1.88-.35,1.26-.99,2.49-1.89,3.49-1.43,1.52-3.25,2.5-5.12,3.1-.41.11-.82.25-1.24.35-1.57.3-2.1.1-2.48-.61-.09-.17-.19-.33-.25-.5-.17-.58.39-1.13,1.4-1.4.38-.09.74-.21,1.1-.34.36-.13.73-.22,1.08-.36.34-.15.67-.3,1.01-.43.34-.14.61-.34.93-.49,1.19-.7,2.03-1.57,2.49-2.75.23-.55.38-1.18.49-1.9l.17-1.19.05-.34.1-.46c.05-.34.3-.73.43-1.09l.37-.49.31-.35c.21-.22.42-.43.64-.61.43-.38.85-.68,1.27-.99l.04.05Z"/><path class="cls-7" d="m372.6,81.89c.4-1.06.77-2.06,1.31-3.24l.29-.53c.1-.19.2-.35.28-.44l.5-.69,1.01-1.34c1.35-1.77,2.73-3.52,4.16-5.24,1.04-1.25,2.05-2.55,3.19-3.75.44-.46.89-.92,1.37-1.37l.36-.34.47-.42c.4-.36.82-.64,1.22-.96.82-.59,1.64-.95,2.39-1.08.38-.08.74-.04,1.13.04.19.07.38.15.54.29.2.07.3.27.46.39.65.86.88,1.86.73,3.01l-.05.43c-.03.15-.08.3-.12.44-.1.3-.15.59-.28.88-.24.58-.53,1.23-.71,1.52-.83,1.5-1.82,2.81-2.82,4.1-.79,1.01-1.63,1.99-2.33,2.95-.72.98-1.36,2-1.91,3.06-.34.68-.69,1.37-1,2.07-.32.7-.57,1.44-.9,2.15-.66,1.43-1.23,2.93-1.95,4.39-.46.91-.54.74-.64-.17-.11-.91-.33-2.59-.05-4.5.07-.42.14-.85.24-1.27.12-.41.24-.83.38-1.24.28-.82.57-1.66.97-2.45.8-1.57,1.77-3.06,2.85-4.41,1.08-1.35,2.06-2.5,2.99-3.78.46-.63.9-1.26,1.29-1.9.1-.16.19-.32.28-.48l.13-.22.05-.06c.06-.07.12-.16.18-.26.13-.22.25-.56.11-.84-.09-.29-.41-.19-.59-.07-.21.12-.4.28-.58.46l-.3.28-.4.39-.78.8c-.52.54-1.03,1.11-1.54,1.66-1.46,1.61-2.87,3.3-4.25,5.01l-2.04,2.59-.99,1.31c-.15.21-.36.46-.42.62-.09.17-.19.32-.3.59-1.03,2.4-1.96,5.03-2.9,7.58-1.42,3.89-2.92,7.78-4.46,11.62-1.21,2.98-2.32,5.94-3.77,8.82-.33.63-.65,1.25-1.02,1.87-1.47,2.27-2.29,2.8-3.14,2.79-.2,0-.42.02-.58-.02-.27-.08-.31-.4-.18-.88.07-.24.18-.52.33-.83.16-.3.35-.66.55-1.08,1.26-2.39,2.39-4.97,3.51-7.63,1.11-2.65,2.18-5.39,3.21-8.16,1.53-4.12,3-8.28,4.48-12.51l.07.02Z"/><path class="cls-7" d="m395.3,78.88c.18.17.32.39.49.58l.18.31.1.2c.14.27.26.52.38.78.24.51.47,1.02.68,1.54.43,1.02.81,2.06,1.16,3.11.25.77.55,1.52.74,2.31.33,1.4.59,2.83.57,4.35-.01.76-.09,1.55-.36,2.35-.14.4-.33.79-.62,1.17-.34.41-.74.77-1.2.96-.2.11-.41.17-.61.23-.21.07-.42.08-.64.04-.42-.11-.77-.38-1.05-.72-.14-.17-.27-.36-.38-.56-.11-.2-.23-.42-.29-.55-.14-.3-.25-.61-.36-.91-.27-.77-.5-1.54-.67-2.32-.14-.79-.16-1.6-.07-2.42.07-.53.23-.45.57-.09.34.36,1.06.97,1.43,1.76.27.72.5,1.44.79,2.1.14.33.29.65.43.94l.04.1h0s0,.02,0,.02c0,0,0,.02,0,.03,0,.06.07.1.17.06.01.02.08-.09.15-.17.05-.1.12-.2.17-.33.11-.25.19-.55.25-.88.27-1.62-.3-3.54-.84-5.32-.61-1.98-1.37-3.97-2.32-5.81l-.41-.75c-.08-.14-.2-.24-.35-.31-.33-.13-.93-.14-1.5-.05-1.79.31-3.68,1-5.43,1.85-1.36.68-2.59,1.56-3.81,2.42-.27.19-.52.4-.79.59-1.01.68-1.41.74-2.07.26-.15-.11-.32-.2-.45-.33-.45-.4-.3-1.13.42-1.8,2.12-1.95,4.7-3.43,7.54-4.6,1.06-.44,2.17-.79,3.41-.98.62-.1,1.27-.17,2.01-.14.38.03.77.07,1.22.2.23.06.47.17.7.29.25.09.44.27.65.44l-.04.05Z"/><path class="cls-7" d="m395.39,97.63c-.05.4-.11.8-.2,1.21-.02.08-.05.28-.1.43-.05.16-.07.32-.14.46-.13.28-.24.57-.41.81-.23.34-.48.68-.88.83-.71.16-1.49-.02-2.09-.45-.16-.1-.29-.22-.42-.37-.14-.13-.25-.28-.34-.44-.11-.15-.19-.31-.27-.5-.09-.2-.11-.28-.16-.43-.14-.46-.23-.91-.3-1.35-.07-.56-.24-1.12.04-1.68.08-.17.26-.15.53-.03.13.06.3.15.47.26.15.11.25.23.3.37.15.49.32.95.48,1.35.09.19.16.42.2.55-.05.02-.04.12-.04.22.05.28.36.32.54.22.18-.19.27-.25.39-1.09.06-.42.11-.85.12-1.29.02-.66.05-1.34-.05-2-.08-.51-.31-.99-.49-1.46-.04-.1-.1-.2-.13-.31-.1-.39.06-.55.62-.77.13-.05.25-.11.38-.15.43-.15.85-.06,1.1.24.64.9.82,1.94.91,2.98.06.78.04,1.56-.01,2.37h-.06Z"/><path class="cls-7" d="m390.17,87.61c-.33-.07-.83-.07-1.31-.06-.17,0-.33.08-.51.07-.63-.05-1.27-.14-1.89-.14-.28,0-.54.05-.8.1-.17.03-.33.08-.5.11-.17.01-.36-.02-.54-.07-.12-.04-.15-.25-.12-.51.03-.26.12-.63.29-.77.64-.34,1.29-.6,2.01-.62.43.01.82-.28,1.25-.33.47-.08.92-.13,1.45-.19.33-.03.68-.04,1.05-.02.28.02.58.08.87.18.28.1.63.29.87.49.39.32.85.65,1.07,1.32.04.15.1.3.1.47-.03.66-.41.81-1.04.49-.15-.07-.29-.14-.43-.23-.23-.15-.43-.31-.6-.42-.08-.05,0,0-.02-.02,0,0-.01,0-.01,0-.07-.05-.47.02-.6.12-.15.1,0,.02.1-.21v-.03s.01,0,.01,0c.18-.46-.25.63-.2.52h0s0,0,0,0h0s0,0,0,0h0s0-.01,0-.01c0,0,0-.02-.02-.02-.01-.02-.04-.04-.08-.06-.08-.04-.21-.08-.37-.09v-.06Z"/><path class="cls-7" d="m305.05,215.64c.28,2.01.46,4.02.6,6.03.06.73.16,1.46.19,2.19.08,2.58.09,5.16-.02,7.72-.05,1.14-.03,2.28-.04,3.4.03,1.45.02,2.89-.18,4.33-.06.45-.34.39-.65,0-.3-.38-.67-1.08-.76-1.91-.15-1.47-.17-2.94-.24-4.4-.04-1.46-.08-2.93-.02-4.4.07-1.76-.19-3.58-.35-5.37-.18-1.96-.41-3.92-.71-5.87-.2-1.2-.39-2.4-.67-3.58-.18-.9-.4-1.8-.63-2.69-.21-.9-.49-1.77-.79-2.63-.43-1.35-1.17-2.57-1.73-3.84-.14-.28-.3-.53-.43-.82-.47-1.05-.43-1.46.15-1.98.13-.12.26-.25.4-.35.47-.33,1.09-.07,1.58.67,1.54,2.17,2.4,4.81,3.14,7.46.51,1.98.91,4,1.23,6.02h-.06Z"/><path class="cls-7" d="m407.55,199.18c-1.06.43-2.04,1.11-2.96,1.9-.3.32-.54.7-.86,1.02-1.04,1.2-1.91,2.62-2.58,4.17-.22.71-.46,1.43-.51,2.18-.09.96-.23,1.89-.61,2.89-.12.31-.34.28-.67.03-.31-.26-.86-.76-1.1-1.39-.09-.28-.12-.56-.14-.84-.04-.28-.05-.56-.02-.84l.05-.84.15-.83c.19-1.11.59-2.2,1.13-3.2.74-1.16,1.25-2.48,2.14-3.57.92-1.24,2.16-2.22,3.43-3.08l1.27-.65c.41-.23.88-.34,1.32-.52.66-.29,1.38-.36,2.07-.53.7-.09,1.41-.16,2.11-.22.54,0,1.09-.06,1.64-.12.54,0,1.1,0,1.66.02.25,0,.49.02.73.07.88.22,1.08.57.94,1.45-.03.2-.05.41-.1.6-.18.66-.69,1.1-1.25,1.17-.84.03-1.61.11-2.37.07-.38.04-.75.06-1.13.06-.37,0-.74.1-1.11.12-.28,0-.54.08-.81.15-.27.07-.55.1-.81.18-.51.21-1.07.33-1.56.63l-.04-.07Z"/><path class="cls-7" d="m402.8,186.37c-2.36,1.12-4.63,2.53-6.68,4.23-.75.63-1.4,1.34-2.11,2.02-1.23,1.2-2.42,2.45-3.51,3.8-1.08,1.35-2.06,2.79-2.9,4.32-.72,1.36-1.26,2.82-1.72,4.27-.59,1.89-.71,3.81-1.32,5.75-.17.61-.5.55-.95,0-.4-.54-1.28-1.65-1.17-2.93.15-2.23.53-4.49,1.4-6.55.86-2.06,1.99-4,3.35-5.74,1.61-2.09,3.21-4.31,5.16-6.17,2.13-2.04,4.53-3.79,7.08-5.25,1.57-.89,3.21-1.68,4.91-2.31,2.56-.98,5.27-1.59,7.99-1.87,2.1-.24,4.24-.44,6.38-.15.47.04.94.09,1.4.21.86.22,1.4.48,1.72.79.33.3.45.64.47,1.11.01.21.04.43.02.62-.09.65-.91.97-2.05.9-3.42-.05-6.7-.16-10.1.53-2.49.49-4.99,1.3-7.33,2.5l-.05-.08Z"/><path class="cls-7" d="m288.31,126.49c-3.2,1.81-6.46,3.47-8.87,5.66-1.18,1.1-2.11,2.32-2.5,3.68-.24.67-.28,1.4-.31,2.14.04.38.04.75.1,1.14.08.37.13.8.22,1.14.26.99.85,2.01,1.57,2.99.72.99,1.57,1.95,2.44,2.95.77.88,1.57,1.78,2.35,2.78.76,1.02,1.6,2.08,2,3.77.19.83.14,1.91-.32,2.76-.38.85-1.21,1.6-2.08,1.95-1.79.63-3.24.23-4.5-.15-1.27-.42-2.41-1.01-3.5-1.67-.54-.33-1.06-.7-1.57-1.09l-1.36-1.09c-1.65-1.25-3.74-1.87-5.38-1.11-.72.33-1.33.92-1.78,1.66-.44.74-.71,1.67-.86,2.54-.22,1.63.53,3.57,1.61,5.02.36.47.76.9,1.19,1.25.22.18.44.33.67.47l.8.4c1.08.49,2.22.78,3.35.75,1.12-.02,2.21-.37,3.19-.94.49-.28.95-.64,1.36-1.04.41-.4.89-.77,1.19-1.28.32-.63.41-.93.6-.91.14.02.37.42.35,1.24-.05.76-.13,2.1-1.05,3.27-.83,1.2-2.37,2.33-4.32,2.67-1.71.32-3.48.09-5.02-.47-.81-.25-1.47-.63-2.23-1.04-.79-.48-1.45-1.06-2.01-1.69-1.12-1.26-1.95-2.67-2.47-4.27-.26-.8-.44-1.65-.48-2.57-.01-.46,0-.93.08-1.42.07-.46.18-.82.28-1.24.44-1.6,1.32-3.28,2.86-4.48,1.5-1.24,3.6-1.66,5.37-1.4,1.81.24,3.32,1.07,4.6,2.02l.89.72c.23.2.46.39.7.58.48.38,1,.72,1.53,1.05,1.25.75,2.72,1.37,3.9,1.42.6.02.93-.11,1.08-.29.09-.08.18-.27.22-.4.04-.14.03-.31-.02-.53-.1-.46-.45-1.08-.89-1.68-.44-.61-.96-1.22-1.51-1.83-1.09-1.23-2.29-2.48-3.38-3.89-.6-.78-1.18-1.6-1.68-2.51-.5-.89-.93-1.96-1.13-3-.44-2-.43-4.27.37-6.3.8-2.03,2.2-3.67,3.71-4.94,1.51-1.29,3.13-2.33,4.75-3.29,3.99-2.34,8.08-4.3,11.51-7.05,2.6-2.07,4.7-4.61,5.74-7.74,1.13-3.09,1.54-6.44.91-9.62-.94-4.98-4.19-9.15-8.09-12.21-.86-.68-1.76-1.27-2.7-1.85-1.7-1.13-2.88-1.74-3.66-2.26-.79-.52-1.21-.91-1.54-1.46-.15-.24-.38-.48-.48-.7-.16-.36.23-.63,1.14-.67.9-.03,2.26.21,3.83.86,2.35.95,4.51,2.33,6.49,4,1.98,1.66,3.78,3.63,5.23,5.9,1.46,2.26,2.55,4.86,3.09,7.6.51,2.75.5,5.62-.11,8.33-.2,1.01-.51,1.99-.82,2.96l-.55,1.42c-.19.47-.45.97-.68,1.44-.99,1.9-2.33,3.57-3.81,4.98-2.97,2.83-6.36,4.79-9.59,6.65l-.05-.07Z"/><path class="cls-7" d="m312.16,169.85c2.44-3.4,4.11-7.37,4.67-11.55l.09-.57.02-.58.04-1.16c.06-.78-.03-1.54-.04-2.31-.11-2.71-.65-5.4-1.67-7.95-1.02-2.55-2.49-4.96-4.27-7.15-1.57-1.96-3.38-3.75-5.26-5.43-1.22-1.07-2.48-2.09-3.75-3.12-1.22-1.09-2.37-2.28-3.54-3.44-.71-.75-.53-.76.34-.49.87.29,2.53.74,4.25,1.64,2.77,1.95,5.42,4.12,7.88,6.56,2.47,2.43,4.61,5.31,6.16,8.53,1.8,3.85,3.14,8.23,3.07,12.61-.05,4.77-1.32,9.54-3.62,13.68-.33.65-.77,1.24-1.15,1.86l-.59.92c-.21.3-.45.57-.67.86-.45.57-.89,1.15-1.36,1.7l-1.5,1.58c-3.09,3.11-6.84,5.55-10.8,7.28-3.1,1.31-6.26,2.37-9.58,2.96-.73.09-1.45.2-2.2.27-1.38.14-2.3-.04-2.93-.2-.63-.19-.99-.47-1.25-.91-.12-.2-.28-.4-.34-.59-.2-.66.9-1.19,2.75-1.41.69-.04,1.37-.26,2.06-.35.68-.13,1.38-.18,2.05-.36,1.36-.33,2.73-.6,4.05-1.07,1.36-.36,2.64-.97,3.96-1.46,1.25-.65,2.56-1.19,3.75-1.96,3.6-2.13,6.89-4.94,9.29-8.4l.07.04Z"/><path class="cls-7" d="m307.08,446.45c2.01.24,4.02.33,5.91.11,1.89-.22,3.63-.78,4.89-1.78.65-.51,1.08-1.04,1.73-1.99.62-.84,1.21-1.7,1.79-2.59,1.17-1.75,2.27-3.56,3.34-5.39,4.25-7.34,7.92-15.09,11.25-22.95,2.42-5.75,4.55-11.62,6.58-17.51,3.55-10.4,6.62-21,8.41-31.81.87-5.39,1.48-10.86,1.22-16.25-.15-2.67-.46-5.39-1.33-7.79-.87-2.45-2.34-4.7-4.05-6.74-1.53-1.81-3.25-3.49-5.12-5.01-1.84-1.55-3.84-2.93-5.87-4.25-4.09-2.6-8.42-4.85-12.82-6.84-11.37-5.03-23.35-8.79-35.39-11.97-1.88-.46-2.7-.66-2.63-.78.07-.11,1.04-.12,2.7-.01,1.67.11,4.03.36,6.87.75,2.83.44,6.11,1.15,9.62,2.13,3.1.89,6.19,1.81,9.23,2.9,3.04,1.08,6.05,2.27,9.03,3.54,2.98,1.27,5.92,2.66,8.8,4.18,2.88,1.52,5.71,3.17,8.42,5.05,2.71,1.88,5.32,3.94,7.67,6.36,2.34,2.41,4.45,5.17,5.87,8.39.34.81.7,1.61.91,2.48l.36,1.28c.09.42.15.84.23,1.26l.22,1.26.13,1.26c.09.84.17,1.67.18,2.51.15,3.33-.01,6.63-.37,9.89-.83,7.8-2.45,15.58-4.42,23.3-1.99,7.71-4.38,15.36-7.1,22.81-3,8.19-6.38,16.24-10.22,24.08-1.93,3.92-3.97,7.79-6.21,11.56-1.11,1.89-2.3,3.74-3.53,5.57l-.96,1.35c-.33.45-.61.88-1.04,1.39-.82.97-1.83,1.75-2.92,2.33-2.71,1.43-5.65,1.7-8.42,1.66-2.79-.07-5.51-.48-8.18-1.06-5.32-1.17-10.43-2.95-15.42-4.94-7.56-3.05-14.88-6.64-21.97-10.63-.89-.5-1.77-1.01-2.64-1.54-.91-.55-1.62-.96-2.92-1.87l-.41-.33-.33-.36c-.1-.12-.21-.24-.3-.37-.1-.13-.06-.32-.07-.47,0-.62.32-1.27.66-1.9l.26-.47.24-.41.41-.66.83-1.29c2.25-3.38,4.55-6.67,6.8-9.99,6.94-10.34,13.35-20.74,18.98-31.62,1.23-2.4,2.37-4.77,3.51-7.23,2.11-4.56,3.34-7.61,4.27-9.73.93-2.12,1.59-3.3,2.34-4.21.34-.41.71-.99.99-1.21.9-.8.62,3.52-2.09,10.59-4.05,10.44-9.59,20.47-15.62,30.32-3.02,4.92-6.2,9.78-9.41,14.64-1.58,2.43-3.16,4.87-4.75,7.32l-2.33,3.64-.9,1.45h0s1.03.65,1.03.65c.89.55,1.81,1.09,2.74,1.61,1.85,1.06,3.73,2.08,5.63,3.08,3.8,1.99,7.66,3.87,11.57,5.6,3.92,1.73,7.89,3.32,11.92,4.66,4.03,1.33,8.13,2.43,12.2,2.92v.09Z"/><path class="cls-7" d="m356.11,242.18s0,0-.05.01l-.3.14c-.21.1-.42.21-.64.33-.43.23-.88.49-1.32.76-.89.54-1.77,1.11-2.66,1.69l-5.34,3.56c-1.31.87-2.58,1.79-3.91,2.62-4.68,2.96-9.58,5.64-14.72,7.78-2.28.95-4.61,1.81-6.99,2.47-3.04.82-6.27,1.31-9.42.89-.97-.31-.82-.27,0-.53.83-.25,2.3-.56,4-.87,1.52-.26,3.01-.65,4.48-1.1,1.48-.43,2.94-.94,4.39-1.51,2.89-1.14,5.71-2.51,8.52-3.97,3.36-1.75,6.63-3.99,9.85-6.18,3.56-2.39,7-4.95,10.7-7.32.58-.36,1.17-.71,1.81-1.03.17-.09.3-.14.52-.24.24-.09.47-.19.71-.25.48-.15.96-.18,1.43-.04.4.23.7.64,1.04.98l.66.87,1.2,1.57c2.45,3.13,5.07,6.16,8.05,8.73,2.3,2.01,4.81,3.66,7.44,5.04.56.33,1.16.57,1.75.85.55.26.99.51,1.36.71.38.19.67.37.9.54.46.36.66.71.77,1.18.05.21.13.44.14.64.02.66-1.12.73-2.99.15-2.68-1.02-5.27-2.45-7.68-4.18-2.41-1.73-4.62-3.76-6.7-5.9-1.54-1.59-3-3.26-4.37-4.99-.69-.86-1.36-1.74-2.01-2.6l-.48-.64c-.08-.1-.03-.04-.05-.07v-.02s-.05-.02-.08-.02l-.02-.07Z"/><path class="cls-7" d="m156.11,436.1c-.13.33-.25.66-.35,1-.04.12-.02.25-.06.37-.14.43-.28.88-.41,1.31-.05.2-.06.39-.06.59,0,.25.04.5-.09.75-.04.08-.29.08-.55.02-.26-.06-.55-.17-.6-.32-.16-.52-.27-1.05-.12-1.58.11-.32.02-.65.04-.97.02-.36.08-.71.13-1.06.03-.22.07-.44.1-.65.04-.33.12-.66.1-.99-.01-.26-.17-.52-.26-.79-.02-.06-.05-.12-.06-.17,0-.21.17-.26.81-.22l.43.02c.49.04.88.17,1.02.34.44.49.33.92.26,1.37-.07.33-.19.66-.28,1h-.05Z"/><path class="cls-7" d="m476.84,346.52c-.26-.85-.41-1.74-.78-2.57l-.48-1.27-.58-1.24c-.27-.62-.66-1.16-1-1.74-.56-1.05-1.26-2.02-1.95-3.01-.74-.95-1.5-1.89-2.31-2.8-.69-.83-1.53-1.53-2.31-2.26l-1.6-1.32c-.54-.43-1.09-.85-1.62-1.3-.33-.28-.21-.36.18-.29.39.07,1.09.26,1.82.64.62.37,1.23.76,1.85,1.15.61.4,1.19.85,1.77,1.28,1.15.91,2.25,1.89,3.14,3.08,1.11,1.37,2.31,2.76,3.32,4.28.54.84,1.01,1.73,1.48,2.61.38.93.84,1.82,1.11,2.8.17.6.4,1.17.52,1.78l.37,1.82c.13.93.2,1.87.25,2.8l-.03,1.41c0,.47,0,.94-.08,1.4-.09.72-.09,1.45-.2,2.16l-.4,2.14c-.05.32-.16.61-.27.92-.43,1.12-.75,1.4-1.48,1.32-.17-.02-.34-.02-.5-.06-.53-.14-.76-.76-.62-1.54.48-2.3.84-4.59.9-6.93.08-1.74-.16-3.5-.56-5.24l.06-.02Z"/><path class="cls-7" d="m153.52,411.85c.16.77.33,1.54.49,2.3.06.28.2.53.25.82.19,1,.31,2.02.4,3.05.04.46.16.89.25,1.34.06.28.17.57.17.87-.02.3-.06.61-.24.91-.12.19-.38.17-.78.05-.41-.12-.96-.31-1.16-.57-.27-.47-.33-.98-.48-1.49-.12-.51-.21-1.05-.24-1.61,0-.69-.35-1.31-.53-1.97-.2-.73-.41-1.47-.61-2.21-.13-.45-.25-.91-.4-1.36-.22-.68-.41-1.38-.72-2.03-.24-.5-.64-.93-.97-1.39-.07-.1-.17-.19-.23-.3-.2-.41-.06-.62.67-1,.17-.09.33-.18.5-.26.57-.26,1.13-.28,1.43-.04.87.71,1.27,1.66,1.62,2.63.26.73.45,1.49.67,2.24l-.07.03Z"/><path class="cls-7" d="m156.98,436.03c-.02.54-.04,1.08-.06,1.62,0,.2.04.39.02.59-.04.7-.13,1.41-.22,2.11-.05.31-.05.63-.08.95-.02.4-.04.87-.36,1.24-.1.11-.38-.07-.65-.29-.27-.24-.53-.44-.52-.61.07-.6.09-1.32.24-2.07.09-.46-.04-.93-.07-1.4-.03-.52-.07-1.04-.1-1.57-.02-.33-.04-.65-.07-.97-.04-.49-.06-.99-.15-1.48-.07-.38-.26-.74-.38-1.14-.03-.09-.07-.17-.09-.26-.05-.35.09-.48.63-.52.12-.01.25-.03.37-.03.42,0,.77.12.89.31.36.57.47,1.23.53,1.93.05.52.06,1.05.09,1.59h-.05Z"/><path class="cls-7" d="m157.63,434.63c0,.5,0,.99.01,1.48,0,.18.04.36.03.54-.05.66-.11,1.3-.22,1.96-.05.29-.06.58-.15.88-.08.37-.24.81-.64,1.03-.12.07-.2-.08-.28-.28-.08-.22-.18-.39-.2-.55,0-.12.01-.24,0-.39,0-.13-.03-.28-.03-.43.01-.29.02-.61.06-.95.05-.4-.1-.81-.18-1.23-.08-.46-.12-.93-.18-1.4-.04-.29-.08-.58-.12-.87-.07-.44-.12-.89-.25-1.33-.1-.34-.31-.65-.44-1.01-.03-.08-.08-.15-.1-.23-.06-.32.08-.45.63-.52.13-.02.25-.04.38-.05.43-.03.79.07.93.22.21.23.36.49.48.77.1.28.15.59.19.9.06.47.08.95.13,1.44h-.05Z"/><path class="cls-2" d="m181.81,448.33s-8.61,27.23-33.94,32.35c-21.64,4.37-26.81-.01-26.81-.01,0,0,31.73-23.6,32.4-25.72s1.73-15.71,3.98-14.13c2.26,1.58,24.37,7.51,24.37,7.51Z"/><path class="cls-2" d="m147.85,409.37c.92-9.76-27.24-18.74-27.24-18.74l-22.18-1.46s2.34-7.15,18.68-10.95c17.85-4.15,43.02,4.67,47.49,11.31l-16.76,19.83Z"/><path class="cls-7" d="m176.69,446.54c-.2-.02-14.45-2.14-25.42,13.73,0,0,4.27-10.02,3.72-14.48s-.61-6.19,2.45-4.97c3.06,1.22,19.25,5.72,19.25,5.72Z"/><path class="cls-7" d="m133.49,392.57c17.92,9.14,25.46,3.67,25.46,3.67l-11.7,10.12-13.76-13.79Z"/><path class="cls-7" d="m381.5,349.54c.23-.22,11.45-4.15,9.51-.37s-9,11.12-2.81,10.59c6.2-.52,2.11,7.62-1.08,8.75s-12.73.44-11.37-8.6c1.37-9.04,5.75-10.37,5.75-10.37Z"/><path class="cls-1" d="m181.93,411.77s-3.47,14.03-11.35,16.38c-7.04,2.1-60.38,16.26-56.35,9.67,4.03-6.59,38.05-12.6,42.38-16.17,4.33-3.57,4.18-5.89,13.02-7.51,8.85-1.62,12.29-2.38,12.29-2.38Z"/><path class="cls-5" d="m393.65,313.2s22.74,6.55,31.22,23.83c0,0,9.26,15.96,7.2,30.16-2.06,14.2-11.17,39.49-20.72,48.4s29.29-14.58,29.29-14.58c0,0,27.69-26.56,32-34.07,8.76-15.26-5-42.23-78.98-53.75Z"/><path class="cls-7" d="m418.41,406.79c-.67.87-1.15,6.2,12.05,1.64,9.78-3.38-22.76,10.39-22.76,10.39l10.71-12.03Z"/><path class="cls-7" d="m399.31,420.15c1.25-.77,2.41-1.67,3.63-2.51,1.18-.87,2.34-1.79,3.49-2.7.82-.7,1.59-1.45,2.41-2.14,2.85-2.5,5.55-5.17,8.11-8,.55-.64,1.09-1.29,1.62-1.95.5-.68,1-1.36,1.5-2.03.67-.85,1.22-1.77,1.85-2.65.66-.86,1.28-1.74,1.95-2.61.42-.54.46-.42.34.17-.13.58-.29,1.71-.77,2.92-1.99,4.08-4.77,7.71-7.97,10.93-1.97,1.87-3.86,3.97-5.94,5.8l-1.72,1.51-1.78,1.43c-1.17.97-2.42,1.85-3.64,2.75-.74.57-1.54,1.07-2.31,1.59-.78.51-1.54,1.06-2.35,1.53-2.4,1.5-4.89,2.89-7.37,4.21-.97.5-1.9,1.07-2.85,1.57l-2.88,1.51c-.42.22-.85.41-1.3.6-1.66.67-2.25.72-2.83.23-.13-.11-.29-.21-.39-.34-.33-.42.19-1.08,1.31-1.7,1.68-.88,3.36-1.83,5.11-2.69.86-.46,1.73-.93,2.6-1.39.88-.45,1.74-.93,2.6-1.44l1.92-1.09,1.89-1.16c1.28-.75,2.49-1.6,3.72-2.42l.04.05Z"/><path class="cls-7" d="m96.52,392.8l-.79-.23-.19-.06-.06-.07-.12-.14-.48-.54c-.08-.03-.17-.3-.2-.44-.03-.15-.05-.3-.04-.47,0-.33.21-.72.34-1.14.24-.44.55-.92,1.08-1.46.48-.53,1.14-1.08,1.77-1.63.65-.55,1.33-1.09,2.02-1.63l1.05-.79.9-.66c3.18-2.27,6.44-4.37,9.8-6.32,2.45-1.43,4.9-2.87,7.47-4.09,4.53-2.15,9.24-3.98,14.19-5.15,2.47-.58,5-.99,7.57-1.1,1.28-.05,2.58-.03,3.87.08,1.31.12,2.49.31,3.74.48,4.37.66,8.73,1.49,12.97,2.71,2.71.82,5.4,1.76,7.97,3.02,2.55,1.26,5.08,2.84,6.83,5.19,1.06,1.48.78,1.32-.54.6-.32-.19-.76-.35-1.24-.54-.12-.04-.24-.1-.38-.13-.12-.06-.24-.12-.37-.17-.27-.1-.55-.2-.84-.31-.56-.24-1.22-.42-1.86-.68-.62-.29-1.32-.54-2-.88-2.46-1.11-5.06-1.97-7.71-2.67-2.65-.72-5.34-1.35-8.06-1.84-2.71-.49-5.5-.89-8.22-1.18-2.59-.24-5.27-.09-7.97.29-6.5.94-12.96,3.91-19,7.12-3.34,1.77-6.6,3.73-9.76,5.82-.79.52-1.58,1.06-2.36,1.6l-2.11,1.5c-.66.47-1.36.98-2.07,1.58-.18.16-.37.32-.53.5-.03.03-.11.13-.04.13h.16s.32-.03.32-.03c.43-.04.87-.05,1.33-.07.34-.03.64-.03.98-.04l1.28-.03c1.38-.05,2.76-.04,4.14-.05,3.62.02,7.26.2,10.87.62,3.61.43,7.22,1.04,10.72,2.16l2.03.71,1.98.87c.64.34,1.28.71,1.91,1.07.59.39,1.18.76,1.75,1.17,2.31,1.6,4.49,3.49,6.33,5.75.79,1,1.57,2.01,2.19,3.15,1.19,2.1,1.65,3.63,1.84,4.72.14,1.11,0,1.79-.34,2.38-.15.27-.29.6-.46.77-.6.57-1.55-1.09-2.88-3.85-1.98-4.14-5.16-7.52-9.11-10.27-.48-.34-1.01-.71-1.49-.99-.49-.27-.94-.56-1.45-.82l-1.57-.71-1.67-.59c-2.27-.73-4.68-1.26-7.14-1.62-3.5-.52-7.09-.77-10.69-.86l-2.71-.03-2.71.03-1.36.04-.78.03c-.47.01-.9.05-1.38.09l-2.82.25c-.94.09-1.84.15-2.88.3l-1.13-.33.13-.1Z"/><path class="cls-7" d="m124.76,478.53c-.06.02-.14.03-.21.06.01.03.04.04.06.05.05.03.13.06.22.09.09.03.2.06.33.1.08.02.1.03.26.06l.1.02.3.04.71.09c3.81.47,7.64.8,11.48.98,2.8.14,5.6.08,8.39.05,4.92-.05,9.84-.35,14.64-1.18,2.4-.42,4.77-.98,7.04-1.75,1.14-.38,2.26-.81,3.33-1.32.54-.25,1.05-.52,1.59-.81l1.64-.91c3.86-2.16,7.67-4.44,11.11-7.06,2.22-1.65,4.29-3.49,6.09-5.53,1.79-2.06,3.25-4.31,4.57-6.76.8-1.54.82-1.35.77.23,0,.4-.01.89-.09,1.43,0,.14-.04.28-.03.44-.04.14-.05.3-.08.45-.05.31-.11.64-.21.97-.21.65-.35,1.43-.72,2.13-.35.71-.76,1.46-1.28,2.15-1.81,2.51-4,4.68-6.3,6.61-2.32,1.92-4.81,3.55-7.29,5.12-1.25.78-2.5,1.53-3.76,2.27l-1.89,1.1-.95.54c-.35.19-.69.39-1.04.56-2.8,1.43-5.74,2.36-8.7,2.99-7.07,1.49-14.43,2.19-21.65,2.18-3.97-.01-7.93-.2-11.88-.53-1.97-.16-3.94-.36-5.91-.59l-2.05-.26c-.76-.1-1.51-.21-2.24-.33-1.46-.23-2.83-.52-3.87-.87-.33-.11-.57-.23-.83-.34-.26-.11-.49-.23-.68-.34-.38-.25-.64-.44-.88-.78.19-.29.52-.45.78-.69l1.19-.91.66-.5s.17-.09.28-.13l.35-.14.69-.27c.91-.36,1.86-.71,2.73-1.08.83-.36,1.72-.77,2.42-1.1.54-.24,1.07-.52,1.61-.78,6.46-3.22,12.78-6.96,18.29-11.5,2.14-1.79,4.03-3.7,5.69-5.85,1.66-2.12,2.95-4.36,3.35-6.81.18-1.08.22-2.15.15-3.27,0-.52-.06-1-.11-1.44-.03-.44-.09-.84-.15-1.21-.08-.74-.17-1.34-.21-1.86-.02-1.03.07-1.68.39-2.29.14-.27.26-.62.42-.81.28-.32.69-.08,1.21.66.52.74,1.16,1.98,1.54,3.74.32,1.29.49,2.67.54,4.07.02,1.41-.13,2.87-.49,4.31-.75,2.89-2.42,5.43-4.15,7.51-.85,1.03-1.8,2.08-2.78,3.05-.98.98-2.01,1.87-3.05,2.76-2.1,1.73-4.29,3.33-6.51,4.86-3.32,2.25-6.77,4.3-10.31,6.17-.88.48-1.78.92-2.68,1.37l-.67.34-.61.28-.07.02-.33.1-.29.03Z"/><path class="cls-7" d="m426.44,385.78c2.04-5.83,3.36-11.94,3.81-18.12.13-2.26.09-4.52-.01-6.77-.16-3.97-.69-7.93-1.67-11.8-1.01-3.85-2.48-7.59-4.42-11.08-.45-.76-.89-1.53-1.36-2.29l-1.56-2.16c-.49-.75-1.1-1.39-1.67-2.07-.59-.66-1.12-1.37-1.78-1.96-.82-.78-1.6-1.61-2.47-2.34l-2.63-2.16c-.92-.66-1.88-1.28-2.76-2.01-.9-.71-1.86-1.33-2.8-2.01-1.17-.85-.94-.9.29-.61.62.14,1.5.36,2.57.64.54.13,1.11.32,1.68.59.56.28,1.14.61,1.72.97,4.08,2.67,7.78,6.03,10.78,9.96,2.92,3.99,5.13,8.48,6.55,13.2,1.71,5.62,2.84,11.67,2.93,17.65.03,6.57-.92,13.11-2.64,19.4-1.12,3.86-2.48,7.64-4.12,11.3-2.48,5.55-5.73,10.75-9.35,15.55-2.81,3.74-5.76,7.31-9.2,10.49-.73.73-1.48,1.41-2.29,2.06-.75.61-1.38,1.11-1.93,1.48-.57.35-1.05.61-1.47.79-.84.35-1.44.36-2.06.15-.28-.1-.61-.16-.83-.3-.73-.49.16-1.9,2.23-3.58,2.98-2.63,5.88-5.43,8.64-8.46,2.72-3.06,5.25-6.36,7.54-9.84,3.36-5.19,6.17-10.8,8.2-16.7l.09.02Z"/><path class="cls-7" d="m449.76,390.32c6.54-5.86,12.69-12.17,18-19.11,2.64-3.47,5.09-7.09,7.14-10.9,2.02-3.78,3.76-7.81,4.3-11.82.18-1.45.16-2.88-.19-4.09-.27-.62-.43-1.26-.83-1.87-.18-.31-.33-.62-.53-.92l-.65-.89c-1.78-2.35-4.17-4.39-6.69-6.23-1.09-.84-2.29-1.55-3.44-2.33-1.21-.69-2.39-1.44-3.63-2.08-1.24-.65-2.47-1.32-3.75-1.9l-1.9-.9-1.94-.83c-5.19-2.21-10.56-4.03-16.02-5.55-10.92-3.06-22.2-4.91-33.53-5.93-10.06-.93-20.26-.98-30.28-.5-6.44.28-12.88.9-19.3,1.6-3.2.41-6.42.74-9.61,1.21-1.6.23-3.2.42-4.81.61-1.6.21-3.19.49-4.8.63-4.04.25-3.57-.07-.34-1.45,3.22-1.38,9.32-3.38,16.79-4.31,13.21-1.81,26.59-2.46,39.96-2.03,13.37.45,26.75,2.05,39.87,5.2,3.91.98,7.86,1.99,11.77,3.25,1.97.57,3.9,1.3,5.86,1.95,1.93.74,3.88,1.43,5.79,2.26,3.83,1.6,7.62,3.39,11.22,5.56,3.59,2.18,7.1,4.6,10.03,7.81,1.63,1.72,3.07,3.76,3.94,6.21.46,1.22.62,2.58.63,3.81-.01,1.25-.14,2.47-.37,3.64-.94,4.7-2.92,8.92-5.13,12.93-4.53,7.98-10.3,15.07-16.56,21.62-7.74,8.03-16.35,15.17-25.43,21.57-13.77,9.69-28.82,17.59-44.25,23.91-12,4.9-24.09,8.96-36.55,12.06-1.37.35-2.73.68-4.09,1-1.36.33-2.73.65-4.13.92-5.18,1.07-8.63,1.55-11.07,1.76-2.44.22-3.88.08-5.07-.24-.54-.15-1.24-.27-1.57-.45-1.1-.63,3.06-1.74,10.54-3.3,22.17-4.62,45.09-11.71,66.46-22.42,15.85-7.9,30.91-17.69,44.11-29.52l.08.06Z"/><path class="cls-7" d="m196.33,448.53c2.86.53,5.75.91,8.62,1.4,2.88.45,5.77.82,8.66,1.23,2.11.26,4.24.41,6.35.67,3.72.45,7.46.85,11.19,1.24,3.74.39,7.47.76,11.22,1.03,3.32.31,6.68.31,9.98.54,2.12.1,4.25.13,6.38.29,2.13.19,4.25.32,6.38.6,1.33.18,1.15.23.02.48-1.12.26-3.2.82-5.66,1.1-8.74.7-17.47.15-26.22-.71-2.62-.25-5.29-.48-7.98-.7-2.69-.2-5.4-.41-8.07-.71-2.94-.29-5.88-.66-8.82-1.04-2.94-.35-5.87-.81-8.79-1.25-1.8-.25-3.6-.59-5.39-.9-1.79-.33-3.6-.59-5.38-.95-2.71-.55-5.43-1-8.12-1.65-2.7-.6-5.39-1.17-8.06-1.85-1.04-.24-2.08-.47-3.11-.71-1.03-.24-2.05-.52-3.08-.77l-3.08-.77c-1.03-.26-2.03-.61-3.05-.92-.9-.28-1.78-.53-2.68-.83-1.65-.6-2.67-1.21-3.35-1.67-.68-.49-.97-.95-1.12-1.51-.07-.26-.18-.53-.18-.75,0-.73,1.55-.75,3.9,0,7.01,2.18,14.53,4.11,22.2,5.77l4.28.91,4.31.82c2.87.58,5.77,1.03,8.67,1.51v.09Z"/><path class="cls-7" d="m141.81,424.81c1.83-.69,3.65-1.39,5.42-2.13.88-.37,1.75-.75,2.54-1.15.14-.07.33-.11.26-.28-.01-.07,0-.03-.03-.19l-.19-.85-.41-1.69c-.29-1.12-.6-2.25-.93-3.37l-1.05-3.4-.27-.88c-.09-.31-.17-.53-.32-1.14-.13-.52-.22-1.04-.18-1.55,0-.53.33-.95.57-1.38l2.38-2.74,2.18-2.29c1.38-1.45,2.8-2.83,4.19-4.26,1.43-1.37,2.86-2.76,4.32-4.1,10.39-9.35,21.38-17.98,32.99-25.72,5.19-3.36,10.4-6.77,15.79-9.74,3.41-2,7.01-3.67,10.59-5.35l5.5-2.23c.89-.42,1.89-.6,2.85-.84.96-.24,1.9-.55,2.85-.82,2.36-.68,2.06-.5.2.45-.92.49-2.26,1.11-3.77,2.1-1.55.87-3.35,1.91-5.36,2.89-1.8.82-3.5,1.86-5.24,2.81l-2.6,1.44c-.86.5-1.68,1.05-2.55,1.54-1.7,1.02-3.46,1.94-5.12,3.02l-5.05,3.17c-6.66,4.35-13.13,9.02-19.61,13.77-7.71,5.73-15.18,12.43-22.24,19.24-1.62,1.54-3.17,3.14-4.74,4.73l-2.28,2.43c-.39.4-.73.82-1.1,1.24l-.86.99c-.22.14-.15.41-.1.62,0,.04.1.38.18.64l.26.84,1.07,3.44c.35,1.16.68,2.33.98,3.51l.43,1.77.2.89.28,1.33c-.03.56.17,1.18-.25,1.66-.35.45-.84.82-1.37,1.13-.25.15-.57.32-.79.44l-.57.28-1.12.52c-6.27,2.69-12.58,4.83-18.87,7.14-4.76,1.73-9.56,3.41-14.22,5.28-1.15.47-2.33.96-3.35,1.5-.24.12-.51.3-.55.34-.21-.18-.26-.3-.41-.4-.06-.05-.15-.09-.22-.13-.02-.03-.06-.05-.1-.06-.02,0-.04,0-.06,0-.16,0,.2,0,.16,0h0s0,0,0,0h0s.05-.02.09-.07c.02-.02.04-.04.05-.07l.1-.13c.07-.1.12-.2.15-.31,0-.03.04-.07.05-.11.01-.02,0,0,0,0h.01s0,0,.03.01c.34.09.99.1,1.57.08,2.41-.1,4.92-.47,7.38-.85,7.69-1.23,15.15-2.96,22.79-4.37,1.69-.31,3.33-.63,5.08-.86.41-.05.8-.09,1.18-.13.54-.05,1.12-.09,1.67-.09,1.09.02,1.94.2,2.42.84.17.72.39,1.35.26,2.14-.03.37-.06.71-.08,1.04-.03.29-.05.43-.08.63-.22,1.49-.53,2.34-1.01,3-.22.3-.44.7-.65.86-.36.28-.66-.24-.88-1.39-.23-.97-.34-3.63-.44-3.74-.08-.1-.27-.04-.38-.04l-.39.08-1.09.17-1.26.22c-1.69.31-3.4.65-5.12,1.01-3.46.71-6.96,1.43-10.48,2.15-3.54.71-7.1,1.4-10.74,2.01-1.82.3-3.65.58-5.54.8-.95.1-1.91.2-2.98.21-.56,0-1.07.01-1.93-.15-.19-.03-.51-.13-.82-.25-.21-.09-.47-.24-.68-.4-.11-.07-.33-.28-.47-.45-.16-.19-.27-.34-.4-.6-.13-.27-.22-.57-.26-.87-.05-.23-.04-.75.1-1.18.06-.2.17-.46.24-.57l.14-.21c.1-.14.2-.27.32-.4.14-.14.24-.23.38-.34.12-.1.18-.13.27-.2.49-.33.83-.51,1.19-.69.35-.18.68-.34,1.02-.49.66-.3,1.31-.58,1.95-.85,1.29-.54,2.57-1.04,3.86-1.53,2.57-.98,5.13-1.92,7.69-2.85,5.13-1.86,10.26-3.69,15.3-5.62l.05.08Z"/><path class="cls-7" d="m124.23,436.68c9.25-1.19,18.53-3.13,27.71-5.28,3.35-.79,6.67-1.73,10-2.59,5.87-1.53,11.74-3.13,17.48-5,1.41-.46,2.9-.97,4.19-1.48.41-.16.98-.59,1.48-1.04.52-.44,1.02-.97,1.51-1.49.97-1.07,1.88-2.24,2.72-3.45.43-.6.83-1.22,1.23-1.85l.58-.95.5-.86c.19-.34.38-.68.56-1.04.13-.25.24-.51.36-.76l.09-.19c.07-.08-.04-.11-.1-.09-.14,0-.27.03-.41.06-.55.11-1.09.24-1.63.38-2.17.52-4.33,1.04-6.47,1.56-3.37.8-6.75,1.59-10.19,2.21-3.44.55-6.95.88-10.47.69-1.1-.07-1.57-.23-1.54-.38.03-.16.56-.34,1.45-.66.89-.32,2.13-.75,3.61-1.31,1.48-.52,3.21-1.06,5.11-1.55,4.07-.84,8.15-1.76,12.23-2.77l7.06-1.73c1.01-.22,2.04-.47,2.95-.55.92-.09,1.5.15,1.92.39.21.14.35.27.52.48.18.25.19.46.29.69.08.23.17.45.23.69l-.26,1.16c-.51,1.19-1.15,2.4-1.73,3.58-.16.3-.32.59-.48.88l-.3.51c-.18.32-.38.63-.58.95-.78,1.26-1.62,2.48-2.53,3.66-.91,1.18-1.88,2.33-2.99,3.41-.56.54-1.14,1.07-1.83,1.57-.16.13-.36.25-.55.37-.2.12-.37.24-.63.36-.54.27-.84.35-1.18.47-4.1,1.43-8.26,2.71-12.45,3.99-4.19,1.27-8.42,2.49-12.64,3.58-9.29,2.39-18.64,4.52-28.12,6.15-2.92.5-5.85.94-8.82,1.25l-1.12.11-.56.05-.77.05c-1.06.07-2.11.16-3.14.12-2.14.04-3.81-.26-5.05-.77-.24-.09-.47-.2-.67-.34-.21-.13-.43-.24-.62-.44-.37-.35-.72-1-.59-1.62.06-.3.21-.47.37-.58l.55-.38,1.11-.76c.12-.07.13-.12.33-.19l.55-.21,1.09-.41,2.17-.82,4.06-1.37c4.23-1.41,8.45-2.83,12.64-4.23,6.5-2.21,12.84-4.53,19.15-6.93,1.35-.53,2.78-1.11,3.94-1.66,1.11-.56,2.03-1.18,2.67-1.67.66-.51,1.09-.93,1.43-1.29.66-.72,1.05-1.22,1.61-1.71.25-.22.49-.57.71-.73.36-.27.79.14.88,1.38.03.61-.08,1.46-.49,2.37-.4.91-1.11,1.82-2,2.61-1.34,1.15-2.67,2.04-4.3,2.76-1.48.67-2.92,1.23-4.38,1.81-2.92,1.13-5.88,2.2-8.87,3.26-5.97,2.11-12.06,4.13-18.13,6.19l-3.38,1.15-1.49.51s0,0,0,0c-.02,0-.08,0-.16.03-.03.05.01.06.08.08h.03s.12,0,.12,0h.13s.73-.07.73-.07c1.15-.1,2.32-.25,3.48-.39l.02.09Z"/><path class="cls-7" d="m394.42,367.97c-1.6,1.23-3.48,2.22-5.48,2.71-1.99.51-4.07.6-6.08.22-1.46-.3-2.94-.7-4.22-1.59-2.26-1.48-3.84-4.12-3.94-6.75l-.05-.98c0-.32.05-.64.08-.96.04-.32.05-.64.11-.95l.2-.92c.31-1.22.77-2.37,1.34-3.46,1.01-1.93,2.29-3.68,3.74-5.23.93-.99,1.95-1.91,3.08-2.69.57-.38,1.14-.75,1.75-1.06.6-.32,1.22-.61,1.89-.77.82-.22.72-.15.17.33-.54.5-1.46,1.43-2.56,2.38-1.94,1.73-3.69,3.65-5.03,5.83-.66,1.09-1.22,2.22-1.65,3.39-.4,1.17-.79,2.36-.85,3.57-.13,1.44.17,2.9.94,4.09.76,1.19,1.96,2.08,3.31,2.64,3,1.24,6.68.86,9.61-.77,1.83-1.01,3.43-2.49,4.77-4.18,1.98-2.58,3.52-5.67,3.93-8.85.15-1.23.1-2.47-.21-3.56-.32-1.09-.9-2.01-1.68-2.59-.36-.24-.72-.44-1.13-.61-.76-.32-1.36-.41-1.76-.62-.41-.21-.68-.42-.9-.82-.1-.18-.25-.36-.31-.54-.12-.3.04-.57.46-.8.42-.24,1.12-.4,2.06-.33,1.37.11,2.95.64,4.12,1.78,1.19,1.12,1.9,2.64,2.2,4.1.59,2.96.03,5.76-.89,8.31-1.42,3.78-3.77,7.16-6.96,9.74l-.05-.05Z"/><path class="cls-7" d="m78.34,469.32c-.15-.02-.48-.08-.76,0,.04.16.24.39.55.7l.68.56,1.22.97c.79.64,1.64,1.28,2.17,1.92.36.49.46.92.66,1.32l.04.31c0,.05,0,.11,0,.16v.05s0,.02,0,.02h0c.07.02-.1-.01-.08,0h0s0,.02,0,.02l-.03.11c-.11.26-.22.4-.34.57-.25.31-.65.59-1.24.83-.29.12-.66.21-1.01.3-.4.06-.78.14-1.19.19-.8.11-1.6.19-2.37.26-1.88.16-3.74.34-5.59.6-1.84.25-3.65.68-5.44,1.1-2.3.55-4.52,1.32-6.83,1.92-.74.16-.69.04-.22-.46.44-.55,1.37-1.41,2.64-2.02,4.51-2.22,9.44-3.38,14.34-3.97l.38-.05c.13-.02.28-.04.28-.02h.23c.16,0,.34-.01.51-.04.17-.02.35-.05.51-.1.08-.02.17-.05.23-.1.08-.08-.05-.14-.11-.2-.2-.19-.44-.36-.65-.55l-.24-.21c-.06-.05-.04-.04-.16-.14l-.38-.29-1.18-.86-1.27-.95c-.8-.64-1.62-1.31-1.97-1.91-.28-.6-.48-1.04-.7-1.57,0-.04-.01-.08,0-.13.06-.04.07-.09.11-.11.06-.06.13-.1.19-.15l.38-.27c.28-.17.49-.39.87-.57.52-.25,1.31-.39,2.08-.52l2.32-.35,3.3-.47c3.04-.43,6.07-.98,8.99-1.74,2.27-.61,4.42-1.5,6.45-2.46.45-.21.86-.46,1.29-.67,1.59-.82,2.12-.76,3.05-.09.21.15.45.29.64.45.66.52.35,1.69-.95,2.68-1.94,1.33-4.07,2.2-6.23,2.91-2.17.7-4.39,1.2-6.61,1.63-1.65.34-3.31.55-4.95.88l-2.47.44-.62.11c-.2.03-.48.08-.4.06h-.07s-.07-.1-.07-.1Z"/><path class="cls-7" d="m66.81,443.56l-2.57,1.2-1.29.62c-.78.38-1.57.78-2.33,1.11-.77.34-1.51.54-2.09.5-.31,0-.53-.11-.8-.22-.08,0-.12-.11-.25-.05-.07-.05-.14-.09-.2-.15-.13-.1-.22-.22-.31-.35-.79-.85-.93-2.55-.82-4.24.11-1.45.18-1.92.26-2.7.09-.72.2-1.44.35-2.15.13-.63.28-1.25.44-1.87l.22-.83.1-.27.24-.61.15-.34s.1-.16.04-.14l-.12.03c-.39.13-.74.22-1.3.43l-3.18,1.2c-2.03.79-4.04,1.66-6.02,2.54-2.53,1.14-5.08,2.28-7.72,3.19-.82.28-.87-.11-.37-.78.5-.67,1.53-1.67,2.95-2.43,2.51-1.34,5.08-2.57,7.67-3.77,1.29-.6,2.6-1.18,3.92-1.74l.99-.41.51-.21.89-.43c1.13-.57,2.42-1.09,3.65-1.6.9-.4,1.8-.8,2.74-1.21l-.07.67-.25.79-.51,1.72-.51,1.82-.44,1.84-.26,1.26-.19,1.08c-.11.72-.22,1.44-.33,2.16l-.17,1.37-.06.51-.03.26c-.03.35-.09.74.03,1.13.03.12.15.09.23.07.09-.02.17-.05.25-.09l.52-.22.27-.12.15-.07.32-.17,1.29-.66c2.12-1.09,4.28-2.15,6.47-3.14,3.33-1.48,6.79-2.73,10.28-3.79,2.71-.81,5.4-1.68,8.28-2.06.63-.08,1.25-.18,1.9-.2,2.4-.05,3.18.37,3.54,1.46.08.25.2.5.23.75.1.83-.86,1.35-2.39,1.55-4.54.67-9.21,1.79-13.89,3.47-3.47,1.24-6.91,2.73-10.33,4.35l-.05-.08Z"/><path class="cls-7" d="m273.88,225.19c.39,9.99-13.38-3.02-3.66-3.39,1.95-.08,3.59,1.44,3.66,3.39Z"/><path class="cls-7" d="m297.52,263.68c.39,9.99-13.38-3.02-3.66-3.39,1.95-.08,3.59,1.44,3.66,3.39Z"/><path class="cls-3" d="m371.11,152.34c.39,9.99-13.38-3.02-3.66-3.39,1.95-.08,3.59,1.44,3.66,3.39Z"/><path class="cls-7" d="m340.63,191.01c.28,7.18-9.61-2.17-2.63-2.44,1.4-.05,2.58,1.04,2.63,2.44Z"/><path class="cls-3" d="m245.23,272.55c.28,7.21-9.65-2.18-2.64-2.45,1.4-.05,2.59,1.04,2.64,2.45Z"/><path class="cls-3" d="m348.28,271.18c.28,7.21-9.65-2.18-2.64-2.45,1.4-.05,2.59,1.04,2.64,2.45Z"/><path class="cls-7" d="m405.6,53.16c.24.26-.2.48-1.05.71-.27.07-1.1.09-1.22.01-.23-.15-.45-.31-.6-.48-.11-.09-.47-1.73-.57-2.31-.13-.55-.09-1.1-.03-1.64.14-1.1.29-2.21.55-3.29.06-.24.15-.47.29-.69.47-.75.73-1.53.95-2.34.04-.13.11-.26.04-.43-.15-.29.77-2.4,1.01-2.62.55-.55,1.02-1.12,1.56-1.65.07-.08.09-.19.27-.2.41,0,.48-.22.61-.4.19-.24.41-.46.67-.65.13-.09.38-.1.59-.13.19-.03.57.33.59.4.06.2.32.25.5.37.06.04.14.09.19.13.08.09-.03,1.91-.1,2.05-.05.02-.87,2.16-.88,2.43-.02.14-.15.22-.25.33-.08.04-.44,1.83-.46,1.89-.17.33-.14.73-.55.99-.08.05-.09.13-.1.2-.12.63-.4,1.22-.61,1.83-.11.31-.12.65-.18.97-.01.06-.07.11-.1.16-.04.07-.09.14-.1.21-.08.78-.35,1.54-.24,2.33.01.18-.4,1.02-.34,1.24.02.11-.54.5-.44.61Z"/><path class="cls-7" d="m411.34,57.45c-.17.26-.46-.05-.84-.7-.12-.21-.31-.89-.27-1.01.08-.22.16-.44.26-.61.06-.1,1.29-.78,1.72-1.02.41-.24.84-.36,1.29-.46.9-.2,1.8-.42,2.71-.58.2-.04.41-.04.62,0,.73.11,1.42.02,2.11-.13.11-.02.24-.02.33-.14.16-.21,2.06-.39,2.32-.32.63.16,1.25.25,1.86.39.09.02.18-.03.26.1.2.29.38.23.57.25.26.02.52.06.78.16.13.05.26.21.38.34.12.12.06.56.02.61-.11.14-.02.35,0,.53,0,.06.01.14,0,.19-.02.11-1.42.92-1.57.93,0,0-.14.02-.35.06-.2.04-.47.09-.74.14-.54.11-1.11.23-1.22.27-.12.04-.25-.02-.37-.05-.06-.02-1.67.43-1.73.44-.34,0-.66.18-1.04-.04-.07-.04-.14-.02-.21,0-.57.14-1.17.14-1.76.18-.3.02-.59.12-.88.18-.05.01-.11-.02-.17-.03-.07,0-.15-.03-.21-.01-.69.18-1.42.2-2.08.5-.15.07-.99-.05-1.16.05-.1.05-.56-.32-.63-.21Z"/></svg>