<svg xmlns="http://www.w3.org/2000/svg" viewBox="0 0 520 520" width="100%" height="100%"><defs><style>.cls-1{opacity:.35;}.cls-1,.cls-2,.cls-3,.cls-4,.cls-5{fill:currentColor;stroke-width:0px;}.cls-2{opacity:.8;}.cls-3{opacity:.25;}.cls-6{opacity:.45;}.cls-4{opacity:.55;}</style></defs><path class="cls-5" d="m327.51,63.53l-1.51,1.58c-.5.52-1.06,1-1.58,1.49-.54.49-1.05,1-1.6,1.46l-1.68,1.38c-.8.69-1.61,1.36-2.47,1.97-3.02,2.16-6.26,4.02-9.66,5.48l-1.12.52c-.38.17-.77.29-1.15.44-.77.29-1.53.59-2.29.88-1,.3-2.01.61-3.01.91-1.02.27-2.08.34-3.14.31-.69-.17-.58-.15-.12-.62.23-.25.57-.51.97-.83.2-.15.42-.33.65-.45.24-.11.5-.21.78-.28l2.87-1c.95-.35,1.87-.79,2.81-1.17,1.86-.81,3.75-1.6,5.58-2.56,2.23-1.08,4.27-2.7,6.27-4.25,1.11-.84,2.13-1.8,3.21-2.68,1-.98,2.04-1.91,3-2.93l1.75-1.9c.57-.64,1.09-1.33,1.63-2,1.63-2.04,3.1-4.22,4.34-6.5.46-.89.83-1.82,1.22-2.74.39-.91.62-1.88.95-2.8.13-.41.26-.82.36-1.24.46-1.54.79-1.98,1.56-2.14.18-.04.36-.1.52-.11.56-.02.78.75.59,2.01-.62,3.73-2.26,7.43-4.35,10.79-.79,1.24-1.63,2.46-2.51,3.64-.95,1.13-1.81,2.32-2.84,3.38l-.05-.04Z"/><path class="cls-2" d="m267.84,36.55s3.33,3.11,6.1,8.05c2.77,4.94,6.36,13.08,6.36,13.08,0,0-18.22,3.34-19.85-2.87-1.62-6.21,5.58-9.76,6.12-12.88.54-3.12,1.27-5.38,1.27-5.38Z"/><path class="cls-5" d="m274.71,46.02c-3.03-3.06-4.46-3.93-8.9.82-4.04,4.33,4.44-10.29,4.44-10.29l4.45,9.46Z"/><path class="cls-3" d="m283.68,86.63c-.49.75,10.92,6.46,26.28-2,15.22-8.38,28.2-24.37,28.76-32.84.3-4.43,14.54,24.47,14.54,24.47,0,0-17.79,21.7-32.07,27.66-14.28,5.96-26.01,9.27-28.06,5.2s-9.46-22.49-9.46-22.49Z"/><path class="cls-4" d="m260.62,50.33c-.74-.59-5.94-3.95-27.14,5.25-19.23,8.35-34.5,31.05-34.5,31.05,0,0-5-5.09-8.39-7.88-3.39-2.79-10.89-6.8-9.58-10.57s19.66-17.2,22.56-19.19,20.44-13.91,26.18-15.49c5.74-1.57,20.56-6.33,26.27-4.49s10.79,5.75,11.74,8.57-7.14,12.74-7.14,12.74Z"/><path class="cls-5" d="m346.25,66.69c-.62-1.59-1.34-3.17-2.08-4.73-.27-.57-.59-1.12-.86-1.7-.94-2.04-1.92-4.07-2.9-6.09-.45-.89-.9-1.79-1.35-2.67l-.85-1.71c-.28-.58-.45-1.2-.67-1.8-.12-.38-.04-.36.22-.11.24.26.75.69,1.15,1.31,1.3,2.22,2.7,4.38,3.93,6.68.73,1.38,1.67,2.71,2.5,4.08.91,1.51,1.72,3.08,2.53,4.66.48.98.95,1.97,1.39,2.98.68,1.52,1.2,3.11,1.78,4.66.2.61.43,1.21.68,1.81.23.6.43,1.21.64,1.83.09.27.2.54.25.82.2,1.05.04,1.42-.62,1.73-.15.07-.3.15-.46.2-.52.15-1.03-.2-1.33-.88-.8-2.03-1.36-4.15-2.16-6.27-.59-1.57-1.18-3.17-1.85-4.76l.05-.03Z"/><path class="cls-5" d="m212.52,116.57c.05.31.04.34.02.57.06-.06.12-.07.21-.14l.07-.05.04-.03s.02-.01.09-.08l.68-.58c.56-.47,1.09-.99,1.67-1.44,2.03-1.61,4.15-3.11,6.37-4.45.98-.6,1.97-1.2,2.96-1.76.65-.35,1.29-.71,1.97-1,.34-.14.7-.25,1.05-.36.36-.08.72-.16,1.09-.25.45-.09.43.05.13.36-.3.31-.84.82-1.5,1.3-2.53,1.33-4.88,3.03-7.3,4.68-1.47.97-2.82,2.22-4.17,3.41l-.9.8-.45.4-.22.2c-.08.06-.13.13-.27.27-.96.9-1.92,1.87-2.84,2.76-.07-.61-.13-1.2-.23-1.87l-.11-.78-.15-.65c-.1-.43-.2-.9-.27-1.14-.16-.58-.34-1.16-.52-1.74-.58-1.75-1.22-3.51-1.94-5.21-.56-1.32-1.28-2.55-1.89-3.85-.14-.29-.29-.55-.41-.85-.46-1.08-.45-1.53.02-1.96.11-.1.21-.21.32-.28.4-.22.87.07,1.31.79,1.35,2.16,2.41,4.65,3.36,7.2.36.95.69,1.91,1,2.88.17.48.31.98.47,1.47l.39,1.35-.05.02Z"/><path class="cls-1" d="m410.53,469.1l22.87,9.66,20.1-16.62s11.3-11.78,9.09-14.79-8.15,2.39-9.89,2.14-18.13,14.4-22.14,13.94c-4.01-.46-14.33-5.59-14.33-5.59l-5.7,11.26Z"/><path class="cls-5" d="m416.48,463.49c-.46.58-.94,1.15-1.43,1.7-.17.21-.34.42-.52.62-.65.69-1.32,1.36-2.01,2-.3.29-.6.58-.9.87-.39.36-.79.72-1.23,1.02-.14.09-.17.02-.13-.14.05-.16.15-.42.35-.65.68-.84,1.4-1.61,2.17-2.36.46-.45.85-1,1.25-1.52.44-.57.88-1.15,1.3-1.74.26-.36.51-.73.75-1.11.36-.57.72-1.14,1.02-1.74.22-.47.37-.97.52-1.46.03-.11.06-.22.09-.33.12-.41.3-.47.67-.4.08.01.17.02.25.04.24.06.44.34.37.66-.2.95-.67,1.85-1.21,2.7-.4.64-.84,1.24-1.29,1.84h-.02Z"/><path class="cls-1" d="m103.13,454.48l-2.85,11.98s-15.32-5.69-21.32-2.68c-5.99,3.01-13.57,22.94-16.51,24.79s-5.27,2.62-5.33-3.48c-.07-7.34,7.84-28.23,10.41-34.34.36-.87,3.58-1.64,4.5-1.49l31.09,5.21Z"/><path class="cls-5" d="m100.66,458.39c-.24.64-.48,1.29-.68,1.95-.08.24-.1.49-.18.73-.26.85-.6,1.68-.83,2.55-.11.38-.17.77-.22,1.16-.06.5-.16.99-.4,1.47-.13.14-.24.11-.46-.05-.21-.16-.47-.44-.51-.75-.1-.54-.04-1.06.04-1.58.08-.52.2-1.04.37-1.54.2-.61.26-1.26.42-1.89.18-.69.39-1.37.6-2.05.14-.42.27-.83.41-1.25.2-.63.44-1.25.62-1.89.13-.49.19-1.01.3-1.51.02-.11.03-.23.07-.33.13-.4.3-.48.77-.39.11.02.22.04.32.06.35.1.57.36.57.68.01.94-.2,1.82-.5,2.69-.22.65-.44,1.3-.66,1.95h-.04Z"/><path class="cls-5" d="m218.97,327.05s19.66,10.96,41.5,11.33c21.84.37,31.73-6.33,31.73-6.33,0,0-9.93,18.25-6.33,27.72,3.6,9.47,35.02,19.79,35.02,19.79,0,0,50.52,17.82,74.16,38.54,23.64,20.72,27.84,24.37,26.75,28.07-1.09,3.7-13.91,29.83-23.87,36.17-9.96,6.34-16.22,6.24-16.22,6.24,0,0-21.76-27.76-43.39-37.82-21.63-10.06-71.73-27.41-74.02-28.15s-51.66-15.09-60.87-32.16c-9.21-17.07,1.65-40.93,1.65-40.93l13.89-22.47Z"/><path class="cls-5" d="m198.2,390.44c-.94-2.22,3.98,19.54,44.28,30.72,1.36.38-10.48,23.27-20.94,33.15-2.39,2.26-27.07,24.73-32.85,28.16-5.79,3.43-24.01,10.81-34.38,13.02s-50.4,7.35-55.13,3.98,1.94-43.63,8.21-48.72c6.27-5.09,13.28-2.14,25.3-4.18,12.02-2.04,28.14-8.66,28.14-8.66l26.05-30.1,11.32-17.36Z"/><path class="cls-5" d="m295.4,325.92c-.58.82-1.16,1.62-1.8,2.38-.22.28-.42.59-.67.85-.86.94-1.81,1.79-2.82,2.54-.43.35-.9.66-1.34.99-.29.2-.61.36-.93.52-.33.14-.67.25-1.01.35-.21.06-.22-.03-.11-.22.11-.19.31-.53.59-.79.48-.52,1.01-.9,1.51-1.34.5-.44,1-.89,1.49-1.35.61-.54,1.05-1.28,1.53-1.96.51-.76,1.01-1.54,1.45-2.35.27-.5.55-1,.8-1.51.38-.78.76-1.57,1.02-2.4.2-.64.24-1.33.36-1.98.03-.14.03-.29.06-.44.12-.53.32-.65.92-.61.14,0,.27.01.41.03.45.07.75.39.77.83.09,1.32-.3,2.6-.83,3.82-.39.91-.86,1.8-1.36,2.67l-.05-.02Z"/><path class="cls-5" d="m224.68,318.37c.67-1.05,1.33-2.11,2.09-3.13.27-.37.48-.78.76-1.15.99-1.29,2.03-2.54,3.09-3.75.49-.52.93-1.08,1.41-1.61.58-.7,1.2-1.36,1.9-1.94.22-.18.3-.05.29.25-.02.3-.1.79-.36,1.24-.96,1.56-1.74,3.19-2.94,4.55-.68.85-1.17,1.88-1.71,2.84-.6,1.06-1.22,2.12-1.86,3.18l-1.15,1.98c-.56,1.01-1.17,2.01-1.68,3.05-.4.81-.67,1.67-1.02,2.51-.08.19-.13.38-.22.56-.35.66-.63.76-1.33.5-.16-.06-.33-.11-.48-.19-.52-.25-.76-.76-.62-1.28.41-1.55,1.16-2.97,1.95-4.41.59-1.08,1.22-2.14,1.85-3.23l.06.03Z"/><path class="cls-5" d="m131.62,321.72c-.7.56-1.4,1.15-2.09,1.75-.25.22-.47.47-.72.69-.9.76-1.81,1.53-2.7,2.29-.42.33-.8.69-1.2,1.03-.25.22-.5.46-.79.66-.14.1-.27.21-.43.29-.15.09-.37.09-.54.13-.23.03-.25-.08-.21-.37.02-.2.05-.39.07-.55.04-.18.13-.33.26-.46.94-.86,1.86-1.83,2.98-2.63.66-.49,1.21-1.14,1.82-1.72.67-.63,1.36-1.25,2.06-1.86l1.3-1.12c.66-.56,1.35-1.1,2.04-1.64.26-.22.52-.44.78-.66.26-.22.52-.45.83-.64.13-.09.25-.19.39-.27.55-.27.81-.21,1.03.18.05.09.11.18.15.27.13.32,0,.67-.26.87-.94.73-1.78,1.37-2.65,2.05-.69.55-1.4,1.11-2.09,1.7l-.03-.03Z"/><path class="cls-5" d="m163.88,315.94c-.51-.73-1.06-1.43-1.65-2.11-.21-.25-.47-.45-.69-.69-.77-.86-1.57-1.71-2.42-2.51-.38-.36-.8-.66-1.21-.97-.54-.38-1.11-.71-1.54-1.27-.14-.17-.04-.27.22-.35.24-.06.71-.18,1.08-.03,1.23.64,2.42,1.38,3.42,2.37.58.61,1.3,1.1,1.93,1.68.69.64,1.34,1.33,1.96,2.03.38.44.76.88,1.12,1.33.57.67,1.06,1.4,1.6,2.08.41.54.92.99,1.37,1.52.1.11.22.21.3.34.32.46.28.7-.19,1.09-.11.09-.21.19-.32.27-.38.27-.82.27-1.13.02-.92-.76-1.61-1.68-2.34-2.61-.54-.69-1.01-1.45-1.57-2.14l.04-.04Z"/><path class="cls-5" d="m162.02,324.25s9.13,10.21,12.38,8.17c3.02-1.9-4.68-12.34-5.72-13.18-1.03-.83-6.65,5.01-6.65,5.01Z"/><path class="cls-5" d="m153.42,311.86c-.12.08-3.83-4.65-2.74-7s7.44,3.13,7.44,3.13l-4.69,3.87Z"/><path class="cls-5" d="m233.05,288.55c1.67-.59,3.38-1.08,5.09-1.58.63-.17,1.24-.39,1.87-.55,2.23-.53,4.47-1,6.75-1.29,1.01-.14,2.02-.28,3.02-.42.64-.09,1.3-.12,1.95-.13.65-.02,1.31.18,1.96.29.4.09.34.2.01.44-.23.16-.47.32-.68.46-.14.09-.29.18-.45.27-.08.05-.16.08-.24.14l-.26.06c-1.25.36-2.5.45-3.77.63-.63.06-1.26.19-1.9.25-.64.06-1.28.14-1.93.22-.77.08-1.55.25-2.32.45-.78.19-1.55.41-2.32.62-1.7.44-3.38.94-5.06,1.47-1.03.33-2.07.66-3.09,1.03-1.55.55-3.11,1.11-4.61,1.76-1.17.5-2.27,1.09-3.4,1.64-.25.12-.49.26-.74.37-.94.43-1.28.47-1.65.2-.08-.06-.18-.12-.24-.19-.22-.24.07-.64.72-1.04,1.94-1.19,4.09-2.22,6.29-3.17,1.64-.7,3.31-1.35,4.99-1.97l.02.04Z"/><path class="cls-5" d="m338.21,273.69c-2.05,1.4-4.12,2.76-6.27,3.98-.78.46-1.52.97-2.32,1.39-2.79,1.52-5.67,2.87-8.59,4.11-1.28.58-2.6,1.1-3.89,1.62-.84.32-1.67.65-2.53.92-.43.14-.87.22-1.31.32-.44.11-.88.19-1.35.19-.58.02-.5,0-.12-.35.37-.4,1.06-1.05,1.96-1.5.78-.47,1.62-.76,2.43-1.14l2.43-1.14c1.63-.73,3.27-1.45,4.93-2.19,1.98-.88,3.87-2.11,5.77-3.25,2.07-1.28,4.12-2.59,6.13-3.97,1.24-.84,2.46-1.73,3.65-2.64.91-.68,1.78-1.41,2.68-2.12.87-.73,1.72-1.48,2.55-2.25.63-.62,1.22-1.25,1.8-1.89.58-.65,1.12-1.32,1.68-1.97.25-.29.49-.58.73-.87.95-1.06,1.38-1.27,2.06-1.08.16.04.33.07.46.13.46.22.37.92-.23,1.83-1.76,2.7-4.17,5.07-6.71,7.28-.93.84-1.93,1.6-2.9,2.39-1,.76-2,1.52-3.01,2.25l-.04-.05Z"/><path class="cls-5" d="m378.4,182.22c-.92-.51-1.82-1.07-2.71-1.63-.32-.21-.66-.39-.97-.62-1.09-.81-2.15-1.65-3.17-2.51-.46-.38-.92-.75-1.37-1.12-.58-.48-1.15-.98-1.63-1.57-.15-.18-.03-.26.22-.26.25.01.67.08,1.03.3.64.39,1.3.76,1.93,1.16.62.41,1.23.84,1.83,1.28.71.55,1.59.92,2.4,1.34.9.46,1.77.97,2.68,1.42.56.27,1.12.55,1.7.8.87.38,1.74.75,2.65,1.02.71.19,1.44.25,2.15.37.16.03.32.03.47.07.58.13.71.33.69.94,0,.14,0,.28-.02.41-.06.46-.39.76-.87.79-.71.05-1.41-.01-2.11-.13-.69-.17-1.36-.41-2.03-.67-.99-.4-1.95-.87-2.89-1.36l.02-.05Z"/><path class="cls-5" d="m386.88,175.16s8.75,6.57,8.67,10.85c-.09,4.28-12.73-1.67-12.73-1.67l4.06-9.18Z"/><path class="cls-5" d="m372.19,168.91c-.99-.42-7.77-3.81-12.24-1.91l10.03,9.08,2.21-7.18Z"/><path class="cls-5" d="m295.55,157.85c10.49-5.4,16.38-19.69,11.42-28.8-3.94-7.24-13.18-8.9-23.12-5.08,0,0-9.19,4.79-12.89,9.64s-4.85,7.81-4.85,7.81c0,0-10-9.15-20.8-3.89-10.8,5.26-13.42,14.1-13.41,17.49s1.11,10.99,2.6,13.32,2.89,4.38,2.89,4.38c0,0-8.48.06-12.46,5.02-3.98,4.96-4.48,10.86-3.08,14.82,1.4,3.96,5.48,15.55,16.31,17.81,10.83,2.26,7.4,4.29,7.32,4.85s1.9,10.72,8.45,12.35,11.89.5,14.23-1.27,4.81-3.01,5.3-6.46-.5-8.73-.5-8.73l-3.43-2.89s-6.14.4-8.34-5.31c-2.2-5.71.45-9.14,2.23-10.34,1.78-1.2,3.42-1.82,5.8,0s6.45,6.84,8.04,6.28,3.3-2.35,2.59-4.02-5.77-9.81-6.49-11.58-2.86-6.65-.92-10.17c1.94-3.53,7.25-8.44,7.25-8.44l10.27-5.44,5.62-1.33Z"/><path class="cls-5" d="m86.3,453.66c-2.18-.4-4.36-.88-6.54-1.32-.8-.16-1.6-.23-2.4-.41l-4.2-.94-4.18-1.05c-1.24-.29-2.49-.56-3.72-.8-1.59-.3-3.18-.67-4.7-1.24-.48-.18-.35-.42.13-.63.48-.2,1.33-.44,2.25-.36,3.27.33,6.51.75,9.75,1.42,1.93.42,3.99.61,5.99.9l6.61,1.04,4.07.68c2.06.32,4.12.7,6.18.94,1.6.19,3.19.19,4.79.28.35.02.7,0,1.05.05,1.31.14,1.68.49,1.81,1.39.03.21.08.42.08.62.01.68-.61,1.16-1.58,1.24-2.88.13-5.82-.25-8.79-.67-2.2-.32-4.4-.71-6.61-1.06v-.08Z"/><path class="cls-5" d="m59.25,485.33c-.01.96.04,1.92.21,2.64.03.21.1.34.28.34.06,0,.11-.02.17-.04l.2-.12c.1-.06.22-.17.33-.25.45-.35.89-.85,1.33-1.36.86-1.06,1.66-2.27,2.42-3.51.95-1.57,1.75-3.24,2.64-4.88,1.56-2.9,3.07-5.86,4.74-8.79.84-1.46,1.7-2.92,2.73-4.34.53-.71,1.07-1.41,1.8-2.07.16-.17.39-.32.59-.48.19-.16.46-.3.72-.43.24-.14.6-.22.92-.28.31-.05.45-.03.69-.06,3.04-.2,6.09-.08,9.06.34,1.9.32,3.8.74,5.63,1.38.46.15.91.35,1.36.52.44.21.88.42,1.31.66.43.25.86.48,1.26.77.41.27.74.69,1.1,1.02.82.97.62.84-.35.54-1.06-.21-2.9-.31-4.87-.81-1.75-.48-3.55-.8-5.36-.99-1.8-.22-3.62-.4-5.43-.41-.91-.02-1.81.01-2.72.06l-.68.05-.34.02h-.17s-.02.01-.02.01h-.01c0,.08-.08-.7-.04-.37h0s0,.07,0,.07v.13c.06.23.07.17.06.16-.03.02-.06.04-.1.06-.06,0-.2.12-.31.19-.5.37-1.08,1.04-1.61,1.73-.54.7-1.06,1.47-1.57,2.25-2.44,3.79-4.29,8.27-6.56,12.47-1.01,1.86-2.05,3.71-3.29,5.5-.61.9-1.3,1.78-2.11,2.62-.4.42-.85.83-1.39,1.19-.26.17-.66.44-1.03.56-.19.07-.38.14-.57.2l-.59.12c-.38.04-.78,0-1.15-.09-.37-.12-.72-.3-1.01-.56-.6-.5-.96-1.23-1.22-1.98-.54-1.9-.47-3.55-.39-5.22.11-1.66.33-3.28.61-4.89.86-4.86,2.26-9.59,3.86-14.18,1.26-3.57,2.52-7.08,4.3-10.46.4-.74.77-1.48,1.25-2.19,1.78-2.65,2.85-3.18,3.86-3.1.24.02.5.01.68.08.31.11.32.48.13,1.02-.19.55-.55,1.3-1.1,2.2-3.15,5.41-5.63,11.79-7.55,18.31-.7,2.43-1.32,4.89-1.8,7.35-.47,2.46-.84,4.97-.84,7.32h-.08Z"/><path class="cls-5" d="m423.95,472.86l4.87,2.4c.59.29,1.23.48,1.82.78,2.09,1.04,4.21,2.02,6.32,3.04.94.44,1.91.81,2.87,1.18,1.24.46,2.44,1.02,3.57,1.79.35.24.24.37-.18.5-.42.12-1.19.37-1.96.27l-1.02-.14-.51-.07-.49-.14c-.65-.18-1.3-.38-1.94-.59-1.28-.43-2.56-.87-3.78-1.51-1.46-.74-3.11-1.18-4.66-1.78-1.71-.67-3.4-1.39-5.07-2.16l-3.09-1.41c-1.56-.7-3.1-1.48-4.68-2.12-1.22-.51-2.51-.82-3.77-1.24-.28-.09-.56-.15-.83-.27-.99-.43-1.19-.81-.96-1.77.05-.22.09-.44.16-.65.25-.71.91-1.06,1.7-.92,2.35.42,4.53,1.43,6.74,2.42,1.63.77,3.28,1.54,4.92,2.31l-.03.08Z"/><path class="cls-5" d="m448.18,450.18c2.01-1.4,4.05-2.79,6.32-4,1.15-.59,2.34-1.15,3.77-1.51.73-.16,1.51-.3,2.45-.16.87.11,1.98.54,2.65,1.36.5.58.77,1.34.83,2.11.05.78-.06,1.36-.19,1.89-.28,1.06-.7,1.95-1.17,2.79-1.69,2.89-3.77,5.28-5.9,7.62-2.15,2.31-4.42,4.48-6.73,6.59-2.06,1.87-4.13,3.73-6.24,5.51-1.36,1.14-2.77,2.22-4.23,3.25-.74.5-1.47,1.01-2.27,1.43-.8.41-1.61.8-2.46,1.12-1.09.34-.98.16-.33-.58.37-.42.81-.94,1.3-1.51.27-.3.54-.66.86-.98.33-.31.68-.63,1.07-.94,1.37-1.1,2.68-2.27,4.01-3.44,1.34-1.14,2.67-2.32,3.97-3.51,2.61-2.39,5.18-4.85,7.67-7.38,1.49-1.52,2.92-3.15,4.2-4.89,1.26-1.72,2.47-3.58,3.12-5.35.17-.45.28-1,.27-1.24.01-.21-.07-.43-.24-.57-.14-.13-.44-.21-.82-.23-.39,0-.88.08-1.37.23-2.02.65-4.1,1.94-6.08,3.23-2.46,1.63-4.86,3.4-7.28,5.17-1.83,1.34-3.68,2.68-5.59,3.96-1.92,1.27-3.86,2.51-6.06,3.46-.85.36-1.75.69-2.77.82-.99.12-1.9.12-2.85.02-1.88-.17-3.69-.72-5.36-1.47-.74-.32-1.45-.66-2.16-1.06-2.56-1.52-3.09-2.35-3.08-3.4,0-.24-.03-.5.03-.71.17-.67,1.45-.43,3.21.54,2.61,1.42,5.32,2.68,8,2.89.33.04.67.03,1,.04.31-.02.71,0,.92-.07.5-.06,1.12-.26,1.76-.54,1.28-.54,2.62-1.31,3.93-2.15,3.92-2.53,7.77-5.54,11.77-8.42l.05.06Z"/><path class="cls-5" d="m358.76,393.92c10.7,5.65,21.2,11.72,31.3,18.43,3.69,2.44,7.38,4.9,10.92,7.58,4.21,3.2,8.32,6.56,12.15,10.28.95.94,1.9,1.88,2.78,2.89.91.97,1.77,2.02,2.62,3.05.44.51.82,1.07,1.23,1.61.4.54.81,1.08,1.17,1.66.37.57.75,1.13,1.11,1.71l1.06,1.88c.13.22.14.48.22.71.06.24.04.49.06.74.03.27-.02.45-.03.63-.02.18-.04.38-.07.55-.12.69-.29,1.34-.46,1.97-.37,1.26-.8,2.48-1.26,3.67-.93,2.39-2.02,4.69-3.19,6.95-3.24,6.16-7.09,12.05-11.64,17.27-2.93,3.34-6.15,6.49-9.77,9.13-1.79,1.34-3.71,2.53-5.71,3.55-.99.53-2.03.96-3.04,1.43-1.05.38-2.09.81-3.17,1.1-2.69.75-2.4.29-.45-1.02,1.96-1.35,5.34-3.82,9.2-6.74,6.47-4.81,11.97-10.93,16.56-17.68,2.29-3.38,4.35-6.94,6.14-10.62.9-1.84,1.71-3.71,2.42-5.6.34-.94.67-1.9.91-2.82.13-.46.23-.92.29-1.33l.05-.4c0-.05-.01-.1-.01-.16-.24-.42-.48-.85-.72-1.28-.24-.48-.58-.91-.87-1.36-1.43-2.13-3.14-4.15-5.01-6.06-1.85-1.92-3.83-3.78-5.87-5.58-4.11-3.57-8.52-6.88-12.97-10.05-9.8-6.97-20.17-13.21-30.75-19.04-6.52-3.58-13.14-6.98-19.85-10.18-5.09-2.42-10.23-4.75-15.42-6.92-5.19-2.17-10.47-4.13-15.73-6.08-4.09-1.52-8.17-2.97-12.2-4.65-4.01-1.7-8.04-3.53-11.64-6.43-.41-.3-.76-.68-1.14-1.01-.38-.34-.75-.69-1.09-1.09-.34-.4-.7-.76-1.02-1.2-.33-.45-.63-.91-.89-1.4-.99-1.8-1.34-3.43-1.53-4.77-.18-1.34-.16-2.43-.07-3.31.19-1.77.7-2.74,1.3-3.43.27-.31.58-.72.81-.86.41-.23.48.37.62,1.6.16,1.22.21,3.13.76,5.41.42,1.67,1.06,3.26,2.02,4.49,1.04,1.28,2.36,2.48,3.83,3.52,2.99,2.07,6.49,3.71,10.1,5.23,7.27,3,15.01,5.61,22.65,8.62,11.4,4.45,22.47,9.71,33.33,15.32l-.03.09Z"/><path class="cls-5" d="m263.82,339.82c-3.97-.11-7.91-.46-11.82-.99-1.43-.18-2.86-.33-4.28-.58-4.99-.92-9.9-2.21-14.69-3.86l-3.18-1.11c-1.04-.42-2.1-.78-3.13-1.24-1.33-.54-2.64-1.12-3.94-1.75-.64-.33-1.26-.69-1.87-1.09-.31-.19-.6-.41-.89-.62-.28-.23-.52-.54-.77-.82-.57-.78-.51-.63.35-.63.93-.1,2.45-.08,3.91.53,2.57,1.14,5.21,2.09,7.86,3.04,2.64,1,5.34,1.87,8.07,2.73,3.28,1.03,6.83,1.53,10.3,2.03,3.82.55,7.67.93,11.54,1.07,2.38.07,4.76.11,7.14-.01,3.59-.17,7.22-.47,10.69-1.27,2.7-.61,5.24-1.59,7.61-2.78.53-.25,1.01-.56,1.51-.84.48-.25.86-.47,1.18-.64.33-.17.63-.25.88-.32.49-.14.89-.09,1.34.1.2.09.44.15.61.25.29.18.32.51.12.97-.2.46-.64,1.08-1.35,1.64-2.14,1.64-4.63,2.82-7.2,3.69-2.58.87-5.26,1.45-7.95,1.86-4,.61-8.04.79-12.04.73v-.08Z"/><path class="cls-5" d="m120.04,327.34c-.73.51-1.45,1.06-2.14,1.63l-.26.22-.13.11h-.03s-.12.09-.12.09c-.09.06-.19.13-.29.22-.16.14-.17.23-.33.4-.12.14-.34.35-.3.55.12.25.36.19.62.14.27-.06.62-.19,1.02-.36l.25-.13.35-.19.7-.4c.46-.28.93-.55,1.39-.83.6-.36,1.19-.74,1.86-1.05.34-.13.69-.3,1.12-.3.22.01.43.02.68.07.24.04.48.25.71.36.3.14.35.35.27.4-.08.08-.26.07-.43.2-.18.07-.33.59-.44.91-.06.17-.12.41-.2.56-.1.13-.21.24-.35.32-1.06.53-2.26,1.22-3.48,1.87l-.94.48c-.51.27-1.16.61-1.72.88-1.15.56-2.26.96-3.02.97-.49.03-.9,0-1.29-.07-.41-.07-.75-.2-1.19-.57-.29-.46-.36-.79-.33-1.15.01-.35.13-.74.32-1.16.41-.97,1.5-2.2,2.63-3.24.28-.27.56-.52.85-.77l.56-.48c.38-.31.76-.61,1.14-.91.95-.73,1.94-1.39,2.95-2.02,1.54-.95,3.17-1.77,4.87-2.42.67-.23,1.3-.53,2.14-.66.79-.11,1.57-.07,2.34.11.34.08.67.16,1,.31.62.26.94.63,1.1.92.16.31.14.57,0,.86-.06.13-.12.27-.2.37-.31.34-.79.25-1.41.1-.88-.28-1.92-.42-2.73-.26-.3.06-.9.28-1.41.47-.52.22-1.05.44-1.57.7-1.55.77-3.1,1.71-4.54,2.79l-.04-.05Z"/><path class="cls-5" d="m122.08,320.82c-1.02.6-2.03,1.21-3.01,1.86-.49.32-.97.65-1.45.99l-.18.13c-.06.04-.13.1-.13.09l-.09.05-.19.12c-.2.14-.27.27-.46.47-.09.09-.14.24-.07.31.06.07.14.11.23.13.18.04.4.01.65-.04.13-.03.26-.07.41-.11l1-.39,2.14-.9c1.28-.54,2.56-1.14,3.92-1.6.87-.29,1.79-.56,2.8-.61.5,0,1.02.05,1.52.22.25.06.49.2.73.3.22.15.43.33.58.55.35.6.18.55-.41.66-.3.06-.7.23-1.03.33-.34.1-.68.24-1.06.3-1.34.07-2.94.66-4.51,1.33-.8.35-1.61.7-2.42,1.06l-1.26.53-1.52.58c-1.77.68-3.46,1.04-4.56.69-.58-.15-1.16-.42-1.44-1.09-.18-.65-.01-1.11.27-1.69.33-.61.89-1.29,1.65-1.94.68-.61,1.67-1.36,2.05-1.62,1.02-.72,2.06-1.39,3.11-2.03,1.29-.79,2.61-1.54,3.93-2.27,1.01-.55,2.03-1.07,3.11-1.55.53-.24,1.16-.45,1.77-.57.61-.11,1.23-.17,1.83-.17,1.87-.02,3.65.23,5.4.66.38.1.76.18,1.14.31,1.4.47,1.75.9,1.77,1.58,0,.16.03.33,0,.47-.09.49-.76.6-1.75.4-1.45-.34-2.93-.67-4.39-.85-1.44-.19-2.91-.22-4,.14-.84.29-1.97.9-2.98,1.44-1.04.56-2.07,1.16-3.08,1.79l-.04-.05Z"/><path class="cls-5" d="m255.5,225.93c2.5.74,5.24.9,7.88.44.49-.06.93-.25,1.39-.38.23-.08.46-.13.68-.22.22-.1.43-.19.65-.28,1.53-.62,3.03-1.46,4.19-2.68,1.17-1.2,2.06-2.7,2.47-4.36.35-1.47.31-3.04-.13-4.49-.6-1.86-1.68-3.52-2.93-5.25-.39-.55-.32-.51.23-.3.51.25,1.84.42,2.84,1.4.25.19.43.43.63.67.2.23.41.47.58.73.35.51.58,1.1.87,1.66.25.58.4,1.2.59,1.81.12.62.21,1.26.23,1.9.03,2.57-.89,5.09-2.44,7.04l-.7.87-.79.8c-.49.57-1.12.98-1.69,1.48-.6.44-1.26.82-1.9,1.19-.68.29-1.35.65-2.05.85-3.09.99-6.28,1.13-9.39.62-1.9-.33-3.77-.92-5.5-1.82-2.62-1.32-4.91-3.54-6.1-6.32-.91-2.14-1.29-4.55-.88-6.84.07-.51.15-1,.31-1.49.27-.91.56-1.46.88-1.78.34-.31.69-.42,1.12-.41.2,0,.4-.02.58.02.58.12.77.99.55,2.14-.68,3.43-.45,6.64,1.56,9.07,1.45,1.82,3.76,3.16,6.27,3.85l-.02.08Z"/><path class="cls-5" d="m227.11,205.17c-1.47-1.4-2.69-3.01-3.75-4.71-1.07-1.69-1.9-3.53-2.5-5.43l-.34-1.04-.27-1.06c-.21-.7-.3-1.43-.39-2.16-.57-5.14,1.02-10.55,4.67-14.25,1.57-1.62,3.38-2.97,5.37-4.01,1.29-.64,2.67-1.24,4.21-1.36.76-.03,1.57-.01,2.33.27.75.27,1.46.71,1.94,1.33.59.78.38.68-.41.62-.37-.07-.98.1-1.5.23-.57.22-1.08.44-1.66.55-.26.08-.51.12-.77.21-.27.07-.53.11-.8.2l-.81.27-.81.35c-1.08.51-2.11,1.17-3.1,1.9-.99.73-1.9,1.58-2.67,2.49-.21.22-.38.46-.55.7-.18.23-.35.48-.5.75-.31.53-.66,1.05-.9,1.63-1.35,2.72-1.35,6.05-.73,9.11.7,3.39,2.28,6.67,4.55,9.37,1.4,1.67,3.04,3.11,4.9,4.31,2.8,1.82,5.99,3.13,9.28,3.8,2.56.54,5.16.56,7.73.49.57,0,1.12-.08,1.7-.1,2.12-.06,2.81.14,3.34.89.12.17.27.33.35.49.26.51-.59,1.19-2.22,1.51-4.84.84-10.23.47-15.34-1.22-3.79-1.27-7.39-3.24-10.39-6.08l.05-.06Z"/><path class="cls-5" d="m241.63,141.84c-.75.44-1.36,1.03-2.04,1.57-.59.6-1.22,1.17-1.73,1.89l-.81,1.03c-.25.36-.46.75-.69,1.12-.22.38-.47.74-.67,1.13l-.54,1.2c-.13.29-.26.59-.38.89l-.26.93c-.16.62-.4,1.23-.49,1.87l-.36,1.67c-.08.56-.12,1.14-.18,1.7-.02.29-.07.57-.08.86v.86c.03.57-.03,1.15.05,1.72.15,2.3.74,4.56,1.62,6.71.49.9.89,1.87,1.54,2.67l.9,1.25,1.06,1.11c.23.23.44.49.69.69l.78.61c.52.4,1.02.83,1.58,1.17.55.37,1.09.74,1.63,1.14.56.36,1.15.69,1.72,1.1.66.66.6.56-.23.67-.42.07-.99.08-1.72.09-.35-.01-.77.03-1.15-.09-.38-.11-.78-.25-1.18-.42-.35-.16-.71-.31-1.06-.48-.34-.19-.63-.44-.95-.66l-.94-.69c-.32-.23-.63-.46-.9-.74-.56-.54-1.12-1.08-1.67-1.64l-1.42-1.86c-1.68-2.64-2.71-5.63-3.09-8.68-.42-3.63-.37-7.46.68-11.04,1.17-3.92,3.31-7.52,6.33-10.32,1.87-1.7,4.04-2.97,6.31-3.94,3.43-1.51,7.24-2.09,10.96-1.88,2.88.19,5.78.83,8.38,2.29l.86.46c.27.18.53.37.79.57.48.38.88.7,1.18.99.27.33.45.63.58.9.26.52.25.95.1,1.4-.07.2-.11.42-.2.58-.29.49-1.41.26-2.58-.65-1.84-1.27-3.83-2.25-5.98-2.81-2.15-.57-4.45-.73-6.75-.48-3.4.42-6.83,1.58-9.66,3.59l-.05-.06Z"/><path class="cls-5" d="m316.55,209.49c-1.55,3.11-3.7,5.81-6.17,8.05-.89.83-1.77,1.66-2.73,2.39-1.7,1.27-3.5,2.38-5.33,3.39-.44.25-.95.5-1.33.72-.23.14-.54.4-.8.75-.55.67-1.02,1.53-1.41,2.42-.72,1.58-1.19,3.3-1.53,5.02-.19,1.11-.35,2.22-.47,3.33-.1.55-.08,1.11-.23,1.66-.13.55-.27,1.11-.41,1.67-.19.71-.39.65-.86.05-.23-.3-.58-.74-.87-1.3-.14-.28-.33-.59-.4-.91-.06-.32-.09-.67-.08-1.02.09-2.51.64-4.94,1.42-7.31.41-1.19.88-2.36,1.52-3.51.33-.58.68-1.15,1.14-1.71.2-.28.52-.56.79-.83.13-.14.35-.27.53-.4.19-.13.39-.26.5-.3,2.54-1.22,4.85-2.93,6.99-4.75,2.37-1.97,4.47-4.26,6.02-6.87.52-.79.86-1.65,1.28-2.49.17-.43.31-.88.47-1.32l.23-.66.15-.68c.35-1.37.49-2.78.56-4.21.02-1.43-.09-2.88-.34-4.3-.39-2.21-1.16-4.3-1.95-6.4-.17-.46-.36-.91-.51-1.39-.55-1.77-.53-2.4.2-3.06.16-.15.3-.32.46-.43.51-.35,1.38.16,2.01,1.42.99,1.84,1.74,3.86,2.31,6,.57,2.14.94,4.41,1.02,6.74.07,1.72-.09,3.52-.43,5.27-.22.86-.36,1.75-.7,2.57-.29.84-.58,1.67-.99,2.45l-.07-.03Z"/><path class="cls-5" d="m303.43,172.37c1.57,1.2,3.7,2.17,5.84,2.97.79.29,1.62.48,2.42.75l3.08,1.02c.19.06.71.24,1.09.41.39.17.8.31,1.11.52.16.1.31.21.43.33.06.06.12.13.17.21.04.08.02.17.04.25.03.34.09.65-.02,1.07-.31.69-.51,1.36-.85,1.96-.24.44-.45.83-.7,1.22-.73,1.21-1.49,2.4-2.35,3.5-.55.71-1.14,1.4-1.84,2-.36.29-.72.58-1.13.82-.19.14-.42.22-.65.29-.23.07-.46.14-.7.18-.6.09-.53-.08-.25-.54.14-.21.3-.57.45-.96.17-.38.4-.71.69-1.07.92-1.11,1.8-2.33,2.57-3.61.37-.65.77-1.29,1.07-1.96.08-.17.16-.33.23-.5l.11-.25c.04-.09.08-.16.08-.15.05-.04.11-.1.16-.18.07-.07.12-.16.19-.26-.02-.13-.16-.18-.31-.26-.04-.02-.06-.03-.13-.05l-.39-.11-.79-.21c-1.06-.27-2.15-.53-3.21-.86-2.33-.74-4.66-1.59-6.89-2.84-.69-.39-1.36-.83-2-1.36-.62-.52-1.29-1.2-1.7-1.94-1.38-2.2-1.56-4.92-.98-7.28.47-1.83,1.18-3.61,2.34-5.11.26-.31.5-.65.79-.95,1.07-1.12,1.8-1,2.43-.64.15.09.32.16.44.26.2.17.25.43.21.77-.04.34-.18.77-.43,1.18-1.6,2.29-2.88,4.66-2.79,7.03.02.86.22,1.69.58,2.44.07.2.2.36.31.55.11.2.19.29.32.44.25.28.6.58.99.85l-.05.07Z"/><path class="cls-5" d="m295.27,246.62c-3.62.97-7.46,1.01-11.04.43-3.6-.57-6.97-1.66-10.24-2.7-3.27-1.04-6.47-2.04-9.7-2.57-1.61-.26-3.23-.41-4.84-.41-1.63-.02-3.31.11-4.96.29-4.84.52-9.6,1.82-14.26,3.35-8.24,2.73-16.13,6.61-23.76,10.93-7.63,4.34-14.99,9.18-22.21,14.22-6.41,4.49-12.67,9.25-18.85,13.98-3.97,3.04-7.93,6.12-12.02,9.06-1.03.73-2.06,1.46-3.11,2.16-1.06.69-2.14,1.36-3.24,2-2.2,1.26-4.46,2.54-7.1,3.06-1.68.26-2.47-.12-2.38-.2.06-.15.89-.16,2.02-.85,2.28-1.29,5.83-4.44,10.43-7.8,8.21-5.88,16.22-12.26,24.49-18.31,8.26-6.07,16.73-11.97,25.68-17.21,5.35-3.14,10.88-6.23,16.64-8.98,5.76-2.75,11.76-5.17,17.98-6.79,3.42-.88,6.9-1.56,10.45-1.87,3.5-.35,7.23-.25,10.73.46,7.04,1.34,13.37,4.47,19.99,5.2,4.05.44,8.15-.03,11.89-1.73,3.81-1.66,7.4-3.83,10.77-6.32,5.09-3.8,9.71-8.28,14.08-12.97,2.19-2.35,4.31-4.76,6.43-7.18,2.07-2.42,4.08-4.89,5.93-7.47,5.79-8,10.41-16.59,14.31-25.51.44-.98.84-1.96,1.23-2.95.39-.99.81-1.97,1.18-2.98,2.84-7.49,3.81-9.84,5.19-11.24.31-.32.65-.76.9-.93.43-.28.53.4.38,1.91-.13,1.51-.62,3.81-1.5,6.69-2.7,8.5-6.45,16.92-11.06,25.01-2.31,4.05-4.83,8.01-7.6,11.84-2.74,3.83-5.84,7.54-8.95,10.99-4.65,5.19-9.52,10.31-15.04,14.84-2.76,2.26-5.67,4.37-8.78,6.2-3.12,1.82-6.33,3.44-10.03,4.45l-.04-.07Z"/><path class="cls-5" d="m370.83,236.8c-3.87,5.66-7.91,11.22-12.23,16.56-1.57,1.95-3.11,3.93-4.78,5.81-5.85,6.63-12.27,12.81-19.43,18.07-3.18,2.32-6.52,4.46-9.97,6.33-4.42,2.35-9.21,4.42-14.3,4.7-1.59.02-1.36,0-.17-.66.3-.17.65-.38,1.05-.63.1-.07.2-.13.3-.23.11-.06.22-.12.33-.18.23-.12.47-.25.71-.38.5-.26,1.04-.53,1.61-.83.58-.27,1.18-.56,1.81-.85,9.11-3.69,17.25-9.44,24.86-16.01,4.56-3.94,8.71-8.71,12.66-13.47,4.35-5.24,8.47-10.69,12.4-16.29,2.42-3.45,4.76-6.95,7.04-10.49,3.45-5.37,6.84-10.82,10.08-16.29,2.53-4.25,4.82-8.52,7.44-12.7.59-.92,1.14-1.83,1.79-2.74,1.19-1.68,2.17-2.71,3.02-3.29.82-.6,1.52-.75,2.1-.68.28.04.6.06.76.16.28.18.11.52-.25,1.08-.36.56-.96,1.41-1.75,2.57-2.42,3.39-4.61,7.3-6.91,11.18-2.29,3.9-4.62,7.88-7.01,11.84-3.55,5.89-7.26,11.74-11.1,17.49l-.07-.04Z"/><path class="cls-5" d="m386.15,173.04c.9-1.29,2.01-2.59,3.11-3.66.4-.39.74-.83,1.14-1.21,1.41-1.34,2.82-2.62,4.02-4.07.54-.64.95-1.36,1.38-2.05.26-.45.48-.93.71-1.4.21-.48.45-.94.83-1.38.23-.27.42-.18.66.2.12.19.26.46.39.78.1.31.09.64.01.98-.35,1.15-.78,2.31-1.47,3.29-.68.98-1.47,1.87-2.33,2.66-1.02.95-1.88,2.07-2.82,3.07-1.05,1.12-2.01,2.14-2.83,3.34-.51.74-.99,1.5-1.43,2.3-.66,1.21-1.3,2.46-1.82,3.75-.4,1.01-.62,2.06-.93,3.11-.07.23-.11.47-.2.69-.15.42-.33.67-.57.79-.23.13-.48.15-.81.11-.15-.02-.31-.02-.44-.05-.46-.11-.72-.61-.75-1.32.22-1.97.93-3.89,1.77-5.81.65-1.42,1.46-2.8,2.33-4.15l.06.03Z"/><path class="cls-5" d="m222.1,296.57l-1.47.79-1.48.93c-.99.63-1.96,1.34-2.93,2.02-1.93,1.42-3.83,2.9-5.69,4.44-1.35,1.13-2.65,2.33-3.97,3.5-4.68,4.1-9.3,8.31-13.6,12.84-1.9,2.01-3.7,4.13-5.41,6.28-2.18,2.76-4.29,5.58-6.42,8.4-.84.78-.71.7-.54-.29.08-.5.27-1.17.5-1.98.21-.83.64-1.7,1.16-2.6.92-1.61,1.97-3.12,3-4.65,1.14-1.43,2.25-2.91,3.46-4.29,2.36-2.81,4.9-5.47,7.55-8.03,3.18-3.05,6.38-6.32,9.74-9.33,3.72-3.27,7.52-6.44,11.72-9.24.65-.43,1.29-.86,2-1.24l1.05-.58,1.09-.49c1.45-.61,2.9-1.13,4.35-1.61,4.41-1.46,8.9-2.57,13.36-3.63,3.47-.81,6.86-1.67,10.4-2.22.77-.14,1.54-.24,2.34-.32,1.47-.15,2.48-.08,3.17.06.7.19,1.09.48,1.37.93.13.21.3.41.36.61.11.34-.15.64-.66.87-.52.23-1.28.36-2.29.51-5.96.81-12.3,2.24-18.59,3.87-2.33.62-4.66,1.29-6.96,2.01-2.27.73-4.61,1.52-6.56,2.5l-.04-.07Z"/><path class="cls-5" d="m151.12,334.78l-.26.07s-.18.08-.31.16c-.27.15-.58.36-.89.56l-1.89,1.3c-1.28.89-2.57,1.79-3.91,2.65-.97.63-1.93,1.3-2.98,1.85-.93.48-1.89.93-2.94,1.28-1.05.33-2.18.63-3.53.43-.66-.08-1.39-.36-1.93-.86-.28-.22-.55-.53-.75-.97-.2-.46-.23-1.06-.07-1.51.32-.86.8-1.24,1.2-1.63.42-.37.83-.69,1.23-.99,1.42-1.08,2.75-2.15,3.87-3.37,1.43-1.61,2.34-3.42,3.2-5.45.4-.63.35-.57.62.08.33.64.64,1.96.2,3.39-.35,1.27-1.1,2.37-1.85,3.39-.78,1.01-1.64,1.93-2.58,2.7-.93.76-1.91,1.45-2.69,2.08-.18.15-.36.31-.47.43-.06.06-.11.12-.13.14-.02.02-.03.03-.03.02.04,0-.3-.1-.31-.11-.45-.11-.34.06.11-.21.13-.1.05-.05.08-.04,0,.02,0,.04.01.06.04.04.07.09.11.15.17.23.57.42,1.1.37.53-.03,1.12-.19,1.72-.43,1.19-.47,2.37-1.18,3.53-1.91,2.57-1.61,4.98-3.51,7.56-5.38.42-.29.79-.57,1.39-.86.67-.28,1.12-.34,1.58-.47.89-.22,1.71-.49,2.49-.88,2.36-1.17,4.19-3.4,5.48-5.85.24-.5.48-1.01.71-1.51.28-.62.67-1.14,1.08-1.63.84-.96,1.83-1.73,2.88-2.34.46-.28.91-.54,1.41-.75,1.85-.74,2.58-.59,3.13.13.13.17.28.33.36.51.27.62-.33,1.22-1.41,1.78-1.6.83-3.21,1.83-4.17,2.97-.21.28-.42.56-.53.82l-.71,1.44c-.53,1-1.14,1.99-1.84,2.93-1.05,1.39-2.37,2.69-3.96,3.67-.78.5-1.65.9-2.51,1.2-.85.31-1.77.51-2.4.67l-.02-.07Z"/><path class="cls-5" d="m278.59,429.4c-7.72-2.55-15.47-5.06-23.19-7.7-7.72-2.65-15.42-5.42-22.97-8.68-5.49-2.4-10.96-4.97-16.08-8.24-2.24-1.46-4.43-3.04-6.5-4.77-2.06-1.75-3.99-3.69-5.7-5.83-1.7-2.14-3.19-4.5-4.26-7.06-.51-1.29-.99-2.59-1.31-3.94-.21-.67-.3-1.34-.43-2.01-.11-.67-.28-1.34-.33-2.02-.67-5.42-.19-10.88,1.1-16.07,1.25-5.21,3.2-10.18,5.5-14.95,4.08-8.46,9.16-16.4,14.48-23.96,6.88-9.69,14.11-19.15,21.86-28.07,2.56-2.68,2.25-2.31.89.57-1.3,2.93-4.16,8.02-8.28,13.44-7.35,9.57-14.57,19.18-20.69,29.44-3.03,5.14-5.81,10.42-7.95,15.94-1.07,2.75-2.01,5.56-2.68,8.42-.7,2.85-1.21,5.75-1.33,8.66-.19,3.47.13,7.03,1.04,10.4.9,3.36,2.66,6.48,4.9,9.25,2.23,2.79,4.97,5.2,7.91,7.35,2.95,2.15,6.1,4.04,9.34,5.77,7.13,3.8,14.71,6.85,22.36,9.67,7.66,2.81,15.44,5.38,23.23,7.93,9.59,3.14,19.2,6.26,28.73,9.63,14.42,5.11,28.75,10.89,42.16,18.17,10.4,5.66,20.24,12.1,28.83,20.24.96.88,1.87,1.79,2.78,2.71.93.9,1.79,1.87,2.67,2.85,3.22,3.67,5.09,6.31,6.22,8.27.56.98.99,1.77,1.24,2.48.25.71.38,1.32.46,1.88.07.51.23,1.14.2,1.47-.04.56-.69.07-1.85-1.24-.58-.65-1.26-1.52-2.09-2.55-.4-.52-.84-1.09-1.31-1.69-.48-.59-.99-1.23-1.53-1.9-6.4-7.98-14.31-15.02-23.12-21.04-8.8-6.05-18.43-11.17-28.39-15.65-14.81-6.66-30.33-11.99-45.92-17.07v-.09Z"/><path class="cls-5" d="m290.55,330.77c1.93-4.53,3.85-9.05,5.6-13.62.64-1.67,1.17-3.37,1.77-5.05,2.09-5.92,4.09-11.88,5.36-18.03.61-2.72.93-5.5,1.22-8.24.4-3.53.38-7.05,1.1-10.63.17-1.12.21-.98.52-.04.17.47.34,1.14.82,1.95.37.82.5,1.79.62,2.84.26,3.74.09,7.51-.58,11.19-.62,3.69-1.46,7.34-2.59,10.91-1.32,4.27-2.56,8.74-4.12,13.01-1.71,4.7-3.61,9.31-5.54,13.9-1.19,2.82-2.38,5.63-3.56,8.45-1.76,4.27-3.54,8.55-4.91,12.9-1.05,3.38-1.75,6.78-2.07,10.18-.03.37-.06.74-.09,1.11,0,.37-.02.74-.03,1.11-.04.69-.06,1.26-.09,1.74-.04.48-.12.87-.18,1.19-.11.64-.31,1.04-.62,1.39-.14.16-.28.37-.42.47-.24.18-.5,0-.78-.53-.28-.52-.61-1.37-.75-2.5-.37-3.35.09-6.76.8-10.07.73-3.31,1.78-6.55,2.91-9.74,1.69-4.73,3.65-9.33,5.53-13.93l.08.02Z"/><path class="cls-5" d="m150.81,440.23c1.36-.49,2.72-.97,4.05-1.52.67-.26,1.33-.54,1.98-.83.64-.29,1.36-.57,1.83-.9l.8-.47.82-.62c.55-.41,1.1-.82,1.63-1.31.53-.47,1.08-.93,1.6-1.42l1.56-1.51c1.51-1.49,2.92-3.08,4.36-4.65,5.12-5.51,9.97-11.33,14.6-17.31,2.08-2.64,4.03-5.39,5.9-8.15,2.43-3.53,4.65-7.17,7.49-10.47.92-1.01.76-.9.46.24-.29,1.14-.59,3.41-1.72,5.65-1.07,1.94-2.18,3.86-3.35,5.74-1.21,1.85-2.44,3.69-3.73,5.49-1.27,1.81-2.6,3.59-3.96,5.34-1.4,1.72-2.8,3.45-4.27,5.12-3.49,4.02-6.9,8.39-10.63,12.39-2.07,2.19-4.17,4.34-6.51,6.34-1.19.99-2.4,1.96-3.89,2.77-1.4.69-2.77,1.29-4.18,1.86-3.45,1.39-6.97,2.55-10.52,3.59-5.39,1.54-10.91,2.66-16.42,3.45-4.29.59-8.54,1.1-12.9,1-.96-.05-1.91,0-2.88-.14-1.8-.24-2.98-.45-3.75-.9-.78-.38-1.16-.82-1.4-1.35-.11-.24-.28-.47-.32-.67-.14-.63,1.41-.97,3.81-.74,3.59.37,7.34.28,11.13,0,3.79-.3,7.65-.8,11.49-1.54,5.7-1.1,11.38-2.61,16.88-4.55l.04.08Z"/><path class="cls-5" d="m133.18,497.24c5.75-.76,11.48-1.76,17.17-2.95,5.68-1.19,11.33-2.58,16.87-4.28,4.04-1.24,8-2.71,11.84-4.35,3.37-1.45,6.68-3.1,9.5-5.2l4.6-3.35c1.5-1.11,2.98-2.25,4.43-3.41,5.82-4.66,11.31-9.76,16.48-15.18,1.17-1.18,2.28-2.42,3.38-3.67,1.1-1.25,2.23-2.47,3.28-3.77,1.06-1.28,2.13-2.56,3.19-3.83,1.02-1.31,2.04-2.61,3.05-3.92,1.32-1.66,2.55-3.39,3.79-5.11,1.24-1.72,2.5-3.43,3.67-5.21,1.2-1.75,2.4-3.51,3.64-5.23l1.84-2.61c.62-.86,1.33-1.67,1.98-2.52,1.67-2.08,1.62-1.7.86.47-.4,1.08-.82,2.7-1.62,4.5-.4.9-.77,1.91-1.32,2.89-.55.98-1.17,2-1.85,3.03-4.83,7.32-10.03,14.43-15.79,21.09-5.79,6.64-12.08,12.88-18.89,18.58-1.03.84-2.06,1.68-3.1,2.53-1.05.83-2.11,1.66-3.17,2.5-2.11,1.65-4.37,3.27-6.42,4.84-2.26,1.79-4.71,3.14-7.18,4.4-2.47,1.25-5.01,2.3-7.56,3.27-5.61,2.1-11.34,3.77-17.11,5.2-5.77,1.43-11.59,2.64-17.44,3.63-7.21,1.21-14.46,2.14-21.77,2.6-3.51.22-7.05.33-10.59.17-1.78-.09-3.55-.21-5.34-.51-.89-.11-1.79-.35-2.68-.56-.45-.14-.89-.31-1.34-.46-.45-.15-.85-.42-1.44-.72-.57-.42-.95-1.07-1.14-1.76-.16-.56-.27-1.09-.36-1.61-.18-1.05-.28-2.07-.35-3.09-.14-2.04-.21-4.07-.22-6.08-.02-4.29.2-8.53.63-12.75.43-4.22,1.11-8.41,2.18-12.56.46-1.83.97-3.61,1.62-5.42,1.22-3.34,2.36-5.43,3.38-6.76.99-1.34,1.77-1.97,2.56-2.34.35-.17.75-.43,1-.49.84-.17-.49,2.3-2.29,6.82-2.79,6.69-4.21,14.16-5.09,21.74-.43,3.8-.67,7.66-.7,11.51,0,1.92,0,3.86.24,5.74.09.95.24,1.86.4,2.75.09.42.18.86.29,1.21.03.1.05.19.08.25.04.09,0,.01,0,.03h0s0,0,0,0c.02,0-.04-.03.05.02.11.05.2.12.32.17l.82.28c.55.19,1.22.3,1.83.45.67.09,1.31.22,2,.29.69.06,1.36.15,2.06.19,2.78.2,5.64.17,8.5.07,5.73-.21,11.49-.82,17.21-1.61l.03.09Z"/><path class="cls-5" d="m212.51,115.06l.58,2,.04.29c.02.09.02.26.07.32l.21-.21c.05-.04.11-.09.17-.15l.05-.04s.01,0,.13-.13l.53-.57c.72-.75,1.49-1.45,2.23-2.18l2.34-2.04,2.44-1.9c2.14-1.57,4.28-3.13,6.57-4.42,8.05-4.63,16.64-7.83,24.94-11.38,3.68-1.57,7.29-3.35,10.63-5.36,2.12-1.32,4.12-2.82,5.8-4.57l1.22-1.33c.36-.47.73-.95,1.07-1.44.28-.52.65-1.01.87-1.57.23-.55.67-1.05.83-1.65.57-1.45.61-1.3.76.14.05.36.1.81.1,1.33.01.13,0,.26.03.42-.01.14-.03.28-.04.43-.02.3-.08.6-.16.91-.16.62-.32,1.33-.66,1.99-.15.34-.32.69-.5,1.05-.21.33-.43.66-.67,1-1.78,2.29-4.01,4.05-6.27,5.59-2.28,1.53-4.64,2.85-7.05,4-4.82,2.32-9.71,4.25-14.57,6.25-5.82,2.37-11.57,5.44-16.85,8.89-2.31,1.46-4.49,3.08-6.58,4.8l-1.54,1.32-1.47,1.4c-.5.46-.95.95-1.42,1.46-.74.79-1.49,1.67-2.18,2.53l-1.97,1.26s-.08.06-.12.07c-.05-.02-.08-.05-.11-.07l-.17-.15c-.11-.11-.22-.22-.33-.36-.22-.28-.46-.64-.66-1.11-.28-.73-.47-1.64-.68-2.45l-.54-2.09c-.27-1.05-.57-2.09-.88-3.13-.62-2.08-1.28-4.14-2.01-6.19-2.19-6.18-4.81-12.27-8.26-17.76-2.69-4.25-5.93-8.03-9.69-11.09-.83-.67-1.68-1.27-2.56-1.87-1.63-1.12-2.73-1.77-3.46-2.34-.73-.57-1.09-1.06-1.3-1.69-.1-.28-.26-.58-.29-.83-.14-.8,1.81-.9,4.72.57,4.29,2.18,8.03,5.51,11.16,9.29,3.14,3.79,5.71,8.04,7.91,12.42,3.26,6.53,5.68,13.41,7.68,20.34l-.08.03Z"/><path class="cls-5" d="m316.23,108.63c-3.12,1.3-6.34,2.42-9.69,3.17-.84.18-1.68.37-2.54.48-.85.15-1.72.23-2.6.29-.87.09-1.77.04-2.65.04-.9-.09-1.79-.12-2.69-.34-.41-.09-.82-.14-1.22-.29l-1.3-.43c-.31-.19-.63-.35-.9-.6-.29-.3-.49-.52-.62-.72-.32-.43-.52-.82-.76-1.22-.41-.78-.79-1.56-1.12-2.33-1.69-3.96-3.16-7.89-4.81-11.77-1.63-3.88-3.38-7.7-5.35-11.4-1.75-3.28-3.74-6.46-5.87-9.45-1.36-1.93-2.9-3.72-4.42-5.53-1.5-1.83-3.11-3.54-4.73-5.3-.9-1.24-.86-.99.35-.47,1.22.49,3.48,1.55,5.6,3.46.46.43.94.84,1.38,1.29l1.26,1.4c.81.96,1.63,1.91,2.38,2.91,1.53,1.98,2.98,4.03,4.23,6.19,2.55,4.29,4.72,8.78,6.63,13.37,1.15,2.73,2.32,5.51,3.51,8.31.59,1.39,1.19,2.77,1.79,4.16.6,1.37,1.21,2.76,1.88,3.96l.24.43.24.36c.09.13.13.15.15.19.05.03.1.08.15.11l.85.28c.3.12.64.16.96.23.64.16,1.32.21,2,.26.68.06,1.38,0,2.07.01.7-.07,1.39-.11,2.09-.21,2.8-.4,5.58-1.18,8.29-2.15,3.76-1.38,7.42-3.09,10.94-5.05,5.33-2.98,10.47-6.42,15.14-10.3,3.61-3.03,6.84-6.38,9.7-9.97.61-.8,1.2-1.59,1.77-2.42,2.14-3.04,2.7-3.97,4-4.26.28-.07.58-.21.82-.23.4-.03.56.36.54,1.17,0,.41-.1.91-.31,1.45-.2.54-.45,1.18-.83,1.83-1.07,1.96-2.36,3.78-3.77,5.52-1.4,1.75-2.94,3.39-4.54,4.97-3.22,3.16-6.75,6.06-10.48,8.68-5.53,3.9-11.44,7.31-17.7,10.02l-.04-.07Z"/><path class="cls-5" d="m273.53,40.58c.74,1.42,1.43,2.86,2.12,4.29.25.52.57,1.01.8,1.54.85,1.86,1.57,3.78,2.31,5.68.33.84.71,1.66,1.09,2.48.4,1.08.89,2.14.95,3.35.03.37-.15.39-.52.21-.19-.09-.43-.22-.7-.39-.28-.16-.56-.37-.73-.65l-.97-1.46c-.29-.5-.51-1.03-.75-1.56-.48-1.05-.92-2.12-1.33-3.22-.49-1.31-1.23-2.57-1.88-3.84-.7-1.4-1.41-2.81-2.15-4.19-.46-.85-.92-1.7-1.42-2.53-.75-1.25-1.5-2.51-2.4-3.64-.69-.87-1.55-1.59-2.34-2.23-.17-.14-.36-.24-.52-.36-.3-.22-.45-.34-.48-.51-.01-.09-.02-.2-.03-.34,0-.12,0-.26,0-.43-.01-.16-.06-.32-.09-.47-.05-.25.01-.48.34-.65.31-.17.81-.2,1.24-.02,2.44,1.06,3.7,2.89,4.99,4.69.92,1.35,1.73,2.77,2.52,4.17l-.06.04Z"/><path class="cls-5" d="m243.77,27.21c2.59-.52,5.28-.74,7.98-.78,2.71.01,5.5.41,8.18,1.33,2.67.92,5.25,2.48,7.16,4.67,1.02,1.06,1.96,2.56,2.27,4.26.35,1.71,0,3.4-.52,4.79-.79,2.05-1.91,3.67-2.94,5.24-1.04,1.56-2.09,3.03-2.84,4.45-.66,1.27-.97,2.41-.7,3.27.28,1,.94,1.75,2.1,2.31,1.15.54,2.61.83,4.1.94,1.5.12,3.06.09,4.62-.01,2.92-.2,5.98-1.27,8.93-2.4,2.97-1.14,5.85-2.58,8.7-4.06,5.02-2.71,9.83-5.9,14.31-9.36,5.66-4.56,11.05-9.48,15.47-15.22,1.4-1.79,1.42-1.47.79.43-.17.5-.36,1.08-.58,1.73-.1.35-.27.67-.44,1.03-.17.36-.36.73-.55,1.12-.4.77-.79,1.66-1.38,2.46-.57.81-1.21,1.66-1.9,2.51-2.59,2.87-5.3,5.65-8.33,8.02-1.46,1.26-3.03,2.36-4.55,3.54-1.58,1.09-3.12,2.24-4.77,3.23-6.54,4.04-13.35,7.68-21.09,9.73-.59.13-1.15.31-1.77.41l-1.87.27c-1.22.13-2.39.18-3.62.19-2.43-.02-4.97-.12-7.58-1.25-1.28-.57-2.61-1.51-3.44-2.91-.41-.7-.68-1.41-.84-2.2-.18-.81-.13-1.63-.02-2.37.26-1.5.87-2.73,1.5-3.82.64-1.1,1.33-2.08,2-3.04,1.48-2.07,2.95-4.09,3.53-6.11.58-1.99-.03-3.68-1.81-5.26-1.62-1.59-3.67-2.72-5.92-3.39-2.26-.67-4.69-.83-7.12-.8-3,.06-6.04.54-9.02,1.27-2.98.72-5.94,1.63-8.83,2.75-8.77,3.34-17.16,7.9-24.95,13.1-3.03,2.03-5.93,4.17-8.74,6.42-2.81,2.24-5.53,4.57-8.18,6.99-1.18,1.05-2.26,2.16-3.43,3.24-4.26,4.07-5.62,5.34-7.23,5.59-.36.06-.79.2-1.06.17-.47-.04-.4-.6.13-1.6.52-1.01,1.58-2.39,3.06-4.04,8.94-9.68,20.05-18.19,32.09-25.21,4.49-2.59,9.14-4.95,13.97-6.98,4.84-2,9.82-3.76,15.09-4.75l.03.09Z"/><path class="cls-5" d="m374.17,120.23l-13.07-25.57c-1.63-3.09-3.27-6.17-4.9-9.25-5.61-10.95-11.19-21.92-17.02-32.75-1.3-2.4-2.61-4.8-3.92-7.2-1.34-2.38-2.68-4.75-4.01-7.11-3.5-6.01-7.02-12.02-10.39-18.1-1.06-1.9-.75-1.76.57-.43.65.67,1.6,1.61,2.68,2.8.53.6,1.12,1.24,1.7,1.96.56.72,1.16,1.5,1.72,2.33,8.02,11.84,14.95,24.3,21.43,37.11,3.87,7.66,8.29,15.42,12.34,23.21,4.42,8.57,8.84,17.15,13.26,25.73,2.23,4.36,4.47,8.71,6.7,13.07.06.11.1.23.2.32.09.09.22.12.34.14l.2.05c.14.04.32.1.47.16.32.13.63.3.89.49.64.45,1.1.98,1.52,1.5l.3.41c.13.17.23.37.34.55.17.38.29.86.32,1.22.09.72.06,1.36.02,2-.02.32-.05.63-.09.94-.03.25-.05.37-.08.53.12.28.56,1.05.99,1.77l.32.56.35.66c.31.51.38,1.12.27,1.71-.02.14-.04.3-.07.43l-.06.32-.13.61c-.08.4-.16.78-.22,1.15-.03.21-.05.32-.06.43-.01.11-.02.23-.02.35,0,.23.03.47.13.68.07.26.38.26.6.3l.92.12c.58.09,1.19.18,1.62.58.19.21.33.46.48.71l.38.74c.76,1.48,1.53,2.95,2.29,4.42,3.21,6.15,6.54,12.09,9.81,18.12.72,1.33,1.46,2.61,2.17,3.96,2.64,4.99,3.19,6.73,2.93,8.22-.06.34-.07.75-.17.98-.32.77-1.97-.97-4.09-4.53-3.1-5.3-6.16-10.8-9.19-16.41-1.5-2.82-3.01-5.65-4.53-8.5-.75-1.43-1.5-2.86-2.25-4.29l-.22-.43h0s0,0,0,0h0s-1.1-.13-1.1-.13c-.79-.12-1.56-.32-2.06-.81l-.3-.31c-.16-.05-.2-.21-.31-.31-.37-.65-.66-1.35-.72-2.16-.03-.39-.05-.8-.02-1.21l.05-.61c.02-.2.04-.28.05-.41.07-.49.16-.94.24-1.35l.17-.87s0,0,0,0l-.44-.78-.66-1.1-.44-.81-.58-1.09.19-1.21.08-.71c.04-.36.06-.71.06-1.03,0-.31-.01-.65-.04-.77h0s.04.03-.05-.09c-.37-.52-.8-.93-.95-.99-.04-.02-.06-.03-.12-.05l-.53-.13c-.2-.05-.39-.12-.57-.19-.74-.31-1.34-.88-1.72-1.6-1.37-2.64-2.74-5.28-4.1-7.92l.08-.05Z"/><path class="cls-5" d="m314,143.35c-.3.69-.51,1.42-.88,2.07l-1.1,1.95c-.89,1.19-1.74,2.42-2.82,3.41-.98,1.11-2.18,1.93-3.31,2.84-.58.43-1.21.77-1.82,1.16-.62.36-1.2.8-1.86,1.07l-1.92.91-.96.45-.95.39-3.78,1.49c-2.5.97-4.96,1.99-7.34,3.12-3.46,1.66-6.78,3.61-9.46,6.07-2.04,1.86-3.69,4.1-4.25,6.62-.59,2.47,0,5.21,1.15,7.79,1.15,2.61,2.77,5.07,4.35,7.68.77,1.33,1.6,2.66,2.08,4.41l.13.7c.02.25.03.51.04.77-.03.28-.05.55-.12.82-.1.27-.16.56-.33.81-.6,1.04-1.54,1.56-2.35,1.9-.35.08-.69.19-1.04.23-.35-.02-.73,0-1.04-.11-.66-.17-1.17-.47-1.61-.79-.89-.64-1.54-1.34-2.18-2.02-1.06-1.15-2.05-2.27-3.14-3.09-.54-.37-1.1-.71-1.63-.78-.59-.11-1.27-.08-1.89.05-1.24.28-2.39,1.02-3.18,2.04-.78,1.03-1.21,2.27-1.17,3.57,0,1.79.43,3.53,1.39,4.9.94,1.38,2.39,2.32,4,2.87,1.62.54,3.44.62,5.16.29.86-.18,1.7-.42,2.5-.78.81-.35,1.5-.87,2.18-1.42.86-.69,1.2-1.11,1.34-1,.11.09.06.7-.37,1.77-.42,1.07-1.5,2.44-3.26,3.52-1.76,1.05-4.24,1.67-6.92,1.28-.91-.14-1.82-.38-2.7-.72-.88-.36-1.71-.86-2.49-1.44-.76-.61-1.45-1.31-2.03-2.1-.55-.8-1.04-1.66-1.35-2.57-.18-.45-.28-.91-.41-1.36-.08-.46-.19-.92-.23-1.37-.04-.45-.1-.91-.09-1.36,0-.45-.02-.88.04-1.41.18-2.03,1.13-3.96,2.56-5.38,1.41-1.44,3.37-2.34,5.4-2.5.51-.03,1.02-.03,1.52.03.24,0,.54.08.83.15.29.07.59.14.82.25,1.07.4,1.8,1.01,2.51,1.58,1.34,1.16,2.37,2.41,3.37,3.42.5.52.99.94,1.39,1.19.45.26.43.2.55.21.12-.07.26-.13.39-.19.09-.07.19-.12.27-.18.1-.12.18-.15.19-.24.1-.13.02-.8-.26-1.49-.55-1.42-1.54-2.99-2.48-4.56-1.25-2.07-2.57-4.22-3.62-6.6-1.05-2.37-1.82-5.09-1.59-7.93.24-2.85,1.49-5.49,3.2-7.59,1.72-2.1,3.79-3.75,5.94-5.15,4.74-3.08,9.91-5.08,14.94-7.1l3.75-1.51c1.17-.58,2.38-1.09,3.51-1.74,1.08-.71,2.26-1.31,3.21-2.17.49-.41,1.03-.78,1.48-1.23l1.34-1.38c2.07-2.35,3.58-5.21,4.09-8.29.2-1.54.33-3.11.09-4.65-.16-1.55-.62-3.06-1.29-4.42l-.39-.77c-.15-.24-.32-.46-.48-.7-.3-.5-.71-.83-1.08-1.24-.94-.71-1.86-1.52-2.93-2.07-1.01-.66-2.13-1.08-3.23-1.56l-1.72-.53c-.57-.2-1.18-.25-1.76-.39-2.37-.41-4.82-.51-7.23-.21-2.41.29-4.79.89-7.05,1.75-1.76.68-3.44,1.53-5.01,2.52-1.57,1.03-2.96,2.15-4.31,3.49-2.68,2.63-5,5.54-6.68,8.83-.74,1.44-1.36,2.91-1.9,4.46-1.02,2.87-1.54,4.84-2.03,6.2-.46,1.37-.92,2.13-1.46,2.73-.25.27-.5.64-.71.79-.36.25-.55-.28-.64-1.48-.11-1.2.07-3.05.55-5.41.73-3.49,1.97-7,3.82-10.28,1.85-3.27,4.31-6.24,7.05-8.8.66-.64,1.42-1.28,2.19-1.91.78-.6,1.59-1.17,2.42-1.69.84-.5,1.68-1.02,2.56-1.43.86-.46,1.77-.84,2.67-1.2,3.62-1.46,7.54-2.27,11.54-2.29,2.96,0,5.97.46,8.82,1.52,1.4.58,2.79,1.17,4.07,2,.32.2.65.38.97.59l.9.69.9.69c.15.12.3.22.45.36l.46.47c2.46,2.56,3.42,5.61,3.85,8.65.4,3.06.02,6.17-1,9.04h-.08Z"/><path class="cls-5" d="m385.39,144.76c.08.49.13.97.13,1.45.04.48,0,.95-.01,1.41,0,.34.01.67-.03,1.01-.19,1.18-.53,2.3-.93,3.38-.17.48-.31.97-.5,1.44-.28.58-.44,1.25-1.08,1.63-.19.12-.31,0-.48-.27-.11-.19-.21-.38-.3-.53-.09-.19-.11-.37-.08-.53.16-1.18.5-2.24.92-3.37.26-.68.18-1.43.22-2.15.05-.79.03-1.58-.07-2.36-.08-.47-.15-.95-.32-1.4-.21-.69-.55-1.33-1.02-1.85-.21-.17-.44-.31-.66-.44-.24-.11-.51-.16-.73-.25-.1-.04-.22-.04-.32-.08-.37-.15-.41-.37-.29-1.04.03-.15.04-.3.08-.45.1-.5.44-.82.93-.82,1.44,0,2.77,1.07,3.51,2.3.56.92.91,1.92,1.1,2.89l-.06.02Z"/><path class="cls-5" d="m371.58,150.92c-.28-1.83-.51-3.68-.6-5.58-.04-1.9-.29-3.83.36-6,.23-.87.63-1.54.96-2.16.35-.62.71-1.21,1.11-1.77,1.12-1.6,2.3-3.12,3.57-4.58.64-.73,1.29-1.45,2-2.15.38-.36.65-.64,1.32-1.16.59-.45,1.21-.81,1.91-.84.67.02,1.33.23,1.86.64.53.41.91.99,1.15,1.63.14.36.25.76.29,1.13.05.31.07.62.08.92.02.6-.04,1.18-.12,1.75-.16,1.14-.49,2.22-.95,3.23-.57,1.3-1.32,2.54-2.29,3.59-.48.53-1.01,1.01-1.6,1.43-.29.21-.59.4-.9.58-.32.16-.68.25-1.02.34-.89.17-.81-.02-.43-.74.2-.35.37-.95.69-1.42.29-.51.63-1.04,1.03-1.57,1.19-1.52,1.92-3.38,2.26-5.17.09-.45.14-.89.16-1.31.03-.4-.02-.87-.06-1.1.03-.08.03-.28-.15-.37-.07-.02-.15,0-.24.02l-.07.03s-.14.1-.21.16l-.5.42c-1.15.99-2.23,2.23-3.22,3.5-1,1.28-1.95,2.63-2.78,3.96-.23.36-.45.73-.63,1.08-.2.36-.29.6-.38,1-.12.34-.17.75-.22,1.15-.09.39-.1.83-.14,1.25-.14,1.72.08,3.5.28,5.28.28,2.19.67,4.39,1.12,6.58.33,1.67.7,3.31.99,5.08.07.49.08,1.04.02,1.5-.05.47-.13.9-.2,1.34-.17.86-.36,1.71-.58,2.55-.65,2.6-1.35,5.13-2.33,7.63-.22.55-.42,1.09-.68,1.63-.25.5-.45.91-.67,1.23-.22.32-.45.55-.64.73-.41.36-.79.47-1.2.48-.19,0-.39.04-.54.01-.5-.1-.45-1.08,0-2.53.82-2.08,1.55-4.26,2.22-6.5.33-1.12.65-2.24.95-3.37.29-1.12.56-2.29.69-3.31.05-.41.06-.6.03-.86-.05-.34-.12-.77-.21-1.2l-.54-2.66c-.37-1.8-.72-3.63-1.03-5.47l.07-.02Z"/><path class="cls-5" d="m391.53,147.24s0,0,.05-.02c.07-.05.14-.1.21-.17.14-.13.29-.25.43-.4.29-.28.58-.6.85-.94.55-.68,1.08-1.43,1.56-2.2.35-.57.61-1.19.93-1.78,1.14-2.07,2.13-4.32,2.65-6.53.11-.49.14-.99.1-1.39-.01-.21-.06-.38-.11-.48v-.02s-.01-.01-.01-.01h0s0,0,0,0c-.53.33.72-.45.59-.37h0s-.05.03-.05.03l-.1.06c-.13.08-.26.18-.37.29-.07.07,0,.04-.02.05l-.09-.09c-.08-.07-.16-.14-.26-.21-.48-.37-1.07-.62-1.58-.87-.56-.26-.99-.31-1.6-.23-.35.12-.45.08-.32-.4.07-.22.21-.65.61-.93.38-.28.95-.5,1.5-.48.99-.01,1.83.31,2.6.74.2.11.39.22.6.37.09.06.22.16.35.27.02.01.08.07.15.15.06.07.12.14.17.22.08.11.1.16.15.25.38.67.44,1.18.53,1.69.07.98-.06,1.8-.23,2.59-.18.78-.41,1.53-.74,2.23-.75,1.68-1.32,3.45-2.18,5.09-.96,1.79-2.04,3.51-3.51,5.07-.24.24-.46.48-.74.7-.32.3-.72.54-1.1.76-.77.42-1.65.55-2.44.24-1.24-.45-1.78-1.84-1.8-3.12,0-1.17.2-2.05.43-3.01.37-1.44.74-2.85,1.4-4.22.14-.3.27-.61.5-.88.38-.52.82-.73,1.14-.84.33-.1.6-.08.88.05.13.06.26.1.36.17.31.24.21.77.08,1.56-.1.59-.28,1.11-.48,1.64-.19.53-.37,1.07-.53,1.62-.32,1.08-.59,2.23-.64,3.19v.42s-.02,0-.02,0c0,0-.02.02-.02.04,0,.04.04.08.09.06l.04.07Z"/><path class="cls-5" d="m386.51,187.53c-2.93-.94-5.7-2.16-8.38-3.51-.97-.5-1.98-.95-2.92-1.5-3.33-1.95-6.42-4.29-9.25-6.91-1.25-1.16-2.49-2.36-3.59-3.66-.69-.85-1.43-1.68-1.96-2.65-.52-.98-.91-2.03-1.2-3.09-.18-.66-.01-.62.46-.22.43.42,1.34,1.08,2.23,1.87.8.69,1.36,1.54,2.12,2.25.71.75,1.49,1.42,2.23,2.14,1.5,1.43,3.11,2.79,4.76,4.12,1.99,1.59,4.36,2.85,6.67,4.07,2.54,1.34,5.17,2.56,7.89,3.5,1.67.58,3.37,1.07,5.07,1.36.79.12,1.58.22,2.34.21.39.01.75-.03,1.11-.06l.5-.11c.16-.03.23-.08.35-.12.29-.11.5-.37.59-.66.03-.15.06-.28.05-.46,0-.19-.04-.41-.08-.62-.42-1.79-1.67-3.5-2.82-5.17-.26-.37-.55-.72-.8-1.1-.91-1.45-.89-2.13-.26-2.91.14-.18.27-.37.42-.51.5-.45,1.41-.19,2.3.74,1.27,1.42,2.34,3.09,3.28,5.01.46.97.88,2.01,1.12,3.31.06.33.1.68.11,1.07,0,.37-.05.92-.16,1.38-.1.48-.32.92-.56,1.34-.29.39-.6.77-1.02,1.04-.16.11-.31.23-.48.32l-.98.4-.76.18c-.49.09-.94.13-1.38.16-.87.02-1.7-.02-2.49-.13-1.58-.21-3.06-.57-4.51-.98l.02-.08Z"/><path class="cls-5" d="m117.28,334.6c.54-.75,1.17-1.5,1.8-2.23l.61-.67.54-.57c.72-.76,1.45-1.5,2.19-2.23,1.47-1.46,2.98-2.87,4.5-4.26,1.11-1.01,2.18-2.08,3.34-3.05,1.03-.86,2.05-1.69,3.19-2.51.27-.19.65-.44.93-.59.3-.17.59-.34.89-.5.6-.32,1.21-.63,1.81-.92,2.44-1.18,4.97-2.06,7.49-2.87l3.36-1.06,1.68-.52c.52-.17,1.01-.35,1.5-.58,1.27-.54,2.46-1.34,3.62-2.19l.86-.65c.31-.2.61-.4.91-.61.61-.41,1.19-.87,1.82-1.28.89-.42.68-.46.37.34-.15.4-.41.93-.73,1.59-.16.33-.35.67-.57,1.03-.1.19-.24.35-.34.55-.15.16-.3.32-.46.47-1.16,1.1-2.43,2.12-3.9,2.97-.72.43-1.58.74-2.36.99l-2.14.68c-2.85.91-5.65,1.89-8.41,2.98-.83.32-1.64.7-2.43,1.1-.39.21-.79.42-1.17.65l-.57.34c-.15.09-.32.22-.49.34-1.4,1.06-2.8,2.34-4.18,3.56-3.03,2.71-6.02,5.51-8.78,8.48l-.94,1.03c-.2.22-.41.46-.61.72-.2.26-.4.52-.55.83-.07.15-.15.32-.1.48.08.15.27.15.41.17h.07c.46-.04.9-.26,1.35-.47.22-.11.44-.23.67-.36l.35-.21.59-.37c1.57-1.01,3.1-2.11,4.59-3.24,1.17-.89,2.3-1.82,3.44-2.75l1.73-1.39c.62-.46,1.14-.9,2.01-1.35.16-.08.37-.14.55-.2.66-.16,1.32-.22,2.01-.11.77.14,1.27.35,1.66.51.39.17.67.31.9.46.46.29.68.6.83,1.01.07.19.18.39.21.56.13.58-1.06.87-2.82.36-.48-.13-.91-.23-1.24-.25-.32-.02-.66.03-.96.12-.02.03-.08.05-.29.2-.17.11-.37.26-.57.4-.4.29-.81.62-1.23.94-.85.67-1.7,1.34-2.56,2.01-1.74,1.36-3.53,2.73-5.41,4.03-.51.35-1.03.7-1.56,1.05l-.4.25-.31.19-.39.23c-.52.29-1.04.62-1.55.87l-.77.4-.73.29c-.5.21-.92.29-1.36.42-.82.13-1.37-.02-1.99-.2-.34-.19-.78-.47-1.06-.96-.22-.43-.28-.77-.29-1.2-.02-.82.47-1.98,1.33-3.25h.1Z"/><path class="cls-5" d="m169.02,315.95c1.92,2.53,3.68,5.18,5.19,8,.56,1.02,1.14,2.05,1.6,3.14.8,1.93,1.4,4.01,1.4,6.32-.04,1.15-.3,2.46-1.16,3.52-.4.59-1.17,1.03-1.92,1.11-.76.08-1.31-.03-1.87-.17-1.93-.52-3.5-1.47-5-2.46-.95-.65-1.9-1.31-2.74-2.11-.41-.4-.8-.83-1.18-1.27-.38-.43-.67-.96-.98-1.43-.36-.63-.28-.56.29-.29.29.13.71.3,1.24.47.51.19,1.05.44,1.6.75l.72.41.68.45c.46.29.92.58,1.39.85.94.54,1.9,1.02,2.84,1.4.9.42,1.92.74,2.48.74.1,0,.15.09.29-.09.05-.06.1-.11.15-.16.03-.08.07-.15.11-.22.1-.13.14-.33.2-.51.28-.93.08-2.24-.32-3.46-.41-1.23-.95-2.47-1.53-3.69-1.29-2.68-2.92-5.26-4.71-7.73-1.11-1.51-2.28-2.98-3.53-4.38-1.9-2.12-3.89-4.19-6.12-5.91-1.73-1.34-3.62-2.38-5.53-3.24-.42-.2-.85-.33-1.27-.51-1.56-.63-1.98-.93-2.13-1.85-.03-.21-.1-.42-.11-.62,0-.33.19-.58.6-.71.4-.14,1.02-.18,1.72,0,4.23,1.04,7.88,3.67,11.1,6.54,2.41,2.15,4.55,4.55,6.55,7.06l-.06.05Z"/><path class="cls-5" d="m297.63,255.29c.74.69,1.1,1.36,1.38,2.2.08.25.08.35.11.5l.08.43c.05.29.08.59.13.88.04.43.18.84.17,1.28,0,1.55-.35,3.09-.96,4.46-.26.61-.52,1.22-.86,1.77-.45.69-.92,1.4-1.71,1.76-.26.1-.38-.08-.49-.45-.12-.39-.23-.93-.09-1.31.46-1.37.93-2.43,1.3-3.74.25-.79,0-1.65-.12-2.47-.07-.46-.16-.93-.28-1.39-.14-.54-.17-.74-.38-1.04-.11-.16-.25-.32-.32-.37-.02-.01-.03-.03-.03-.03,0-.05.05-.18.05-.26.02-.12-.04-.18.03-.06.02.03.09.15.15.18l-.59-.5c-.04-.09-.13-.11-.06-.09.01,0,.07,0,.14-.02.04-.02.16-.05.25-.09l.34-.18c.09-.05.07-.04.07-.04,0,0,0,0,0,0,0,.02.02.04.04.07.08.13.22.3.36.46.29.34.61.68.95,1.03.56.59,1.26,1.14,1.76,1.99.11.18.24.37.32.58.27.82.02,1.17-.81,1.34-.19.04-.38.08-.57.1-.66.04-1.19-.16-1.43-.36-.72-.6-1.37-1.17-2.36-2.12-.2-.19-.4-.39-.67-.69-.13-.16-.29-.31-.53-.72-.1-.18-.3-.54-.36-1.18-.02-.44.05-.86.29-1.32.12-.23.27-.42.38-.53.13-.14.28-.26.43-.36l-.34.28c.16-.14.33-.27.5-.39.2-.12.42-.23.64-.31.47-.16.97-.2,1.39-.14.84.13,1.34.48,1.72.79l-.05.07Z"/><path class="cls-5" d="m395.2,149.31c.96-.78,1.91-1.7,2.7-2.73.29-.38.49-.81.75-1.2.9-1.39,1.61-2.96,1.61-4.51,0-.34-.06-.68-.17-.99-.06-.24-.31-.6-.5-.92l-.79-1.26c-.25-.4-.54-.88-.75-1.15,0-.01-.01-.03-.02-.05,0-.02.04-.03.05-.05.02-.04,0-.08,0-.13-.01-.05-.03-.1.01-.16.04-.06.13-.11.24-.13.45-.07,1.15.09,1.65.5.43.37.86.75,1.23,1.17.17.22.34.44.5.69.09.13.16.24.29.48l.2.49c.48,1.31.41,2.67.02,3.81-.44,1.37-.87,2.73-1.55,3.94-.76,1.32-1.69,2.52-2.74,3.6-.66.66-1.39,1.26-2.19,1.8-.33.21-.59.37-1.04.57-.44.2-.9.33-1.36.37-.93.07-1.8-.47-2.3-1.21-.4-.59-.56-1.31-.53-2.06,0-.19.03-.38.06-.57.02-.16.05-.31.09-.46.07-.3.18-.59.29-.86.1-.24.19-.49.33-.71.56-.81,1.03-.88,1.62-.55.14.08.28.15.39.24.37.33.46.81.38,1.35-.07.4-.18.76-.23,1.11-.06.32-.07.76-.02.67.08.05.11,0,.11,0,0,0,0,0,0,.01,0,0,0,0,0,.01-.03.02.15-.08.24-.12.45-.26.93-.62,1.39-1.03l.05.05Z"/><path class="cls-5" d="m397.63,153.85s.03,0,.05,0c.04-.02,0,.04.14-.09.21-.18.42-.38.63-.58.41-.41.82-.87,1.19-1.35.28-.35.47-.75.74-1.12.89-1.27,1.93-2.65,2.42-3.98.18-.4.02-1.12-.18-1.71-.25-.8-.79-1.53-.95-2.25.02-.14-.08-.46.4-.63.23-.07.57-.08.92-.02.18.03.36.07.52.15.14.08.28.19.38.32.72.92,1.3,1.9,1.45,3.22.04.32.06.68-.01,1.14-.07.37-.16.66-.26.93-.2.54-.45,1.02-.72,1.47-.64,1.08-1.13,2.24-1.84,3.28-.78,1.14-1.65,2.21-2.7,3.2-.89.86-1.92,1.52-2.89,1.71-.37.08-.75.08-1.12.02-.37-.09-.72-.25-1.02-.48-.62-.51-.78-1.27-.74-1.99.04-.57.14-1.17.33-1.82.11-.32.24-.65.39-.98.14-.33.2-.49.32-.73.09-.2.18-.39.3-.57.57-.59.91-.65,1.47-.46.13.04.25.07.36.11.34.13.52.66.48,1.27,0,.48-.09.89-.21,1.27-.18.52-.05.41-.04.47.07.05.11.01.11.01-.01,0-.04.12.05.11l.03.07Z"/><path class="cls-5" d="m387.69,143.34s.02,0,.04-.01c.06-.05.14-.11.21-.19.14-.15.29-.28.43-.45.29-.32.56-.69.82-1.06.53-.76,1-1.61,1.43-2.48.31-.64.52-1.33.79-1.99.47-1.17.91-2.37,1.22-3.58.16-.61.29-1.22.38-1.81.1-.57.15-1.24.07-1.6-.01-.21-.29-.51-.72-.73-.43-.21-.95-.35-1.47-.46-1.38-.25-2.82-.17-4.28-.48-.45-.12-.45-.25-.09-.65.35-.45,1.09-1.02,2.02-1.13.82-.12,1.64-.07,2.5,0,.86.1,1.74.25,2.72.76.48.24,1.02.68,1.43,1.31.42.79.44,1.32.48,1.8.05.97-.07,1.8-.28,2.61-.49,1.92-.88,3.86-1.58,5.7-.79,2.01-1.74,3.97-3.17,5.76-.23.27-.46.54-.74.8-.17.18-.35.34-.54.48-.19.15-.37.3-.58.41-.79.5-1.68.71-2.52.57-.16-.01-.31-.07-.47-.12-.16-.04-.3-.11-.44-.19-.27-.18-.48-.43-.63-.71-.3-.56-.41-1.22-.41-1.91,0-.34,0-.68.05-1.03.03-.32.07-.53.11-.8.08-.51.18-1,.29-1.48.32-1.51.57-3,.99-4.49.09-.33.16-.66.29-.98.46-1.19.9-1.51,1.76-1.33.2.04.4.07.58.14.6.26.84.87.68,1.69-.24,1.23-.52,2.5-.8,3.76-.27,1.25-.56,2.54-.67,3.68,0,.06-.03.02-.03.08,0,.04.04.07.1.05l.05.06Z"/><path class="cls-5" d="m287.95,182.42c.87,1.02,2.09,1.82,3.25,2.46,1.49.82,3.11,1.45,4.81,1.61s3.43-.43,4.5-1.85c1.14-1.52.95-3.51.33-5.2-.69-1.88-1.78-3.53-2.72-5.28-.38-.71-1.37-.94-2.05-.54-.72.42-.92,1.34-.54,2.05.7,1.3,1.5,2.53,2.13,3.87.02.05.24.56.14.3.07.17.14.35.2.53.14.38.23.77.32,1.16.02.07.04.3,0-.02,0,.08.02.16.02.25.01.16,0,.32,0,.48,0,.27,0,0,.02-.05-.01.07-.03.15-.05.22s-.04.14-.06.22c-.08.31.15-.21-.03.05-.08.12-.15.25-.24.38.19-.26-.02,0-.11.09-.05.05-.11.08-.15.13.22-.24.16-.1.06-.06-.12.05-.57.24-.17.12-.26.08-.51.16-.78.2.34-.06.04-.01-.12,0-.18,0-.36,0-.54-.01-.07,0-.15-.01-.22-.02.05,0,.34.06.06,0-.15-.03-.3-.05-.45-.09-.33-.07-.66-.17-.98-.27-.17-.06-.35-.12-.52-.19-.08-.03-.15-.06-.23-.09.05.02.27.12.02,0-.32-.15-.63-.29-.93-.46-.64-.34-1.25-.73-1.84-1.15-.04-.03-.23-.17-.05-.04.19.14-.04-.03-.08-.07-.12-.1-.24-.2-.35-.3-.19-.17-.37-.35-.54-.55-.52-.62-1.58-.54-2.12,0-.61.61-.52,1.5,0,2.12h0Z"/><path class="cls-5" d="m306.15,169.31c.18.27.35.54.5.82.08.15.16.31.24.47.05.1.19.49.09.19.24.68.44,1.34.56,2.05.04.22-.02-.26,0-.04,0,.08.02.16.02.24.01.18.02.36.02.54,0,.16,0,.32-.02.48,0,.03,0,.22-.02.24.03-.18.03-.22.01-.11,0,.04-.01.08-.02.12-.06.33-.17.63-.26.95.03-.11.09-.2.01-.04-.03.07-.07.14-.1.21-.09.17-.2.34-.31.5-.45.65-.14,1.69.54,2.05.76.4,1.58.15,2.05-.54,1.97-2.85,1.11-6.95-.73-9.64-.44-.65-1.34-1-2.05-.54-.64.41-1.01,1.36-.54,2.05h0Z"/><path class="cls-5" d="m289.37,163.69c-4.79-.4-8.3,3.53-10.49,7.31-.43.74-.2,1.81.58,2.22s1.77.2,2.22-.58.99-1.59,1.54-2.35c-.23.31.03-.04.07-.08.07-.08.14-.17.21-.25.15-.18.31-.36.47-.54.32-.35.66-.68,1.02-.99.08-.07.17-.13.25-.21.15-.13-.23.16.02-.02.21-.15.41-.29.63-.43.18-.11.36-.21.55-.31.11-.06.23-.11.34-.16.31-.14-.28.09.08-.03.43-.14.84-.25,1.28-.34.2-.04-.3.02.02,0,.13,0,.26-.02.39-.02.27,0,.54,0,.81.03.85.07,1.66-.8,1.62-1.62-.04-.94-.72-1.55-1.62-1.62h0Z"/><path class="cls-5" d="m293.85,199.86c.78,2.52,2.86,4.23,5.34,4.97,2.02.61,4.45.67,6.37-.32.7-.36.96-1.4.54-2.05-.46-.71-1.3-.92-2.05-.54-.04.02-.08.04-.13.06-.14.06-.09.04.16-.06-.03-.01-.18.07-.21.08-.18.06-.36.11-.54.15-.08.02-.17.03-.25.05-.36.07.1,0,0,0-.2.01-.4.04-.6.05-.45.02-.88-.04-1.32-.05-.12-.01-.07,0,.15.02-.07,0-.13-.02-.2-.03-.1-.02-.2-.04-.3-.06-.24-.05-.47-.1-.71-.17s-.47-.14-.7-.23c-.09-.03-.38-.18-.03,0-.09-.05-.19-.09-.29-.13-.22-.11-.43-.23-.64-.36-.09-.06-.18-.11-.26-.17-.06-.04-.11-.08-.17-.12.17.13.18.14.06.04-.16-.14-.31-.28-.46-.43-.1-.1-.18-.21-.28-.31.25.26.03.04-.02-.03-.14-.21-.27-.42-.38-.65-.04-.08-.14-.39-.03-.05-.05-.14-.1-.29-.15-.43-.23-.75-1.06-1.3-1.85-1.05s-1.29,1.04-1.05,1.85h0Z"/><path class="cls-5" d="m224.14,69.89l-1.41.91-1.36,1c-.92.65-1.77,1.39-2.65,2.11-.64.52-1.18,1.15-1.81,1.7-2.14,1.98-4.22,4.07-6.11,6.33-.84,1-1.64,2.05-2.42,3.08l-1.47,2.03c-.47.69-1.02,1.33-1.59,1.95-.36.39-.48.23-.44-.28.02-.26.07-.6.15-1,.08-.41.23-.85.48-1.26.9-1.48,1.82-2.94,2.83-4.35.51-.7,1.07-1.37,1.63-2.03.55-.67,1.14-1.32,1.75-1.95.72-.76,1.42-1.56,2.15-2.35.7-.81,1.44-1.6,2.21-2.35,1.67-1.67,3.48-3.2,5.35-4.64,1.18-.85,2.36-1.71,3.62-2.45,1.87-1.18,3.89-2.12,5.87-3.05.79-.32,1.57-.67,2.34-1.03.78-.34,1.58-.61,2.39-.92.35-.13.7-.28,1.07-.35,1.38-.31,1.86-.22,2.26.44.09.15.2.3.26.46.2.53-.26,1.09-1.17,1.43-2.68,1-5.45,1.93-8.11,3.28-.99.49-1.97,1.02-2.94,1.57-.94.6-1.93,1.13-2.85,1.79l-.04-.05Z"/><path class="cls-5" d="m41.45,438.62c-.22.03-.21-.28-.1-.79.04-.16.27-.59.35-.62.16-.07.32-.14.46-.17.08-.02,1.17.23,1.56.31.38.07.7.23,1.02.41.64.37,1.28.73,1.89,1.16.14.09.25.21.34.36.31.5.72.86,1.19,1.2.08.06.14.13.28.12.26-.04,1.29,1.12,1.33,1.34.13.53.34.98.39,1.54.01.07.08.12,0,.25-.19.3-.08.4-.03.55.07.2.08.43.09.66,0,.12-.09.28-.15.43-.05.13-.39.27-.44.26-.15-.01-.26.13-.39.22-.04.03-.1.06-.14.08-.05,0-1.44-.37-1.51-.44,0-.02-.36-.23-.65-.5-.29-.27-.59-.55-.67-.6-.08-.05-.07-.16-.09-.26,0-.06-.97-.76-.98-.8-.12-.22-.35-.32-.32-.7,0-.07-.04-.1-.07-.14-.31-.29-.52-.67-.78-1.02-.13-.18-.31-.3-.47-.46-.03-.03-.03-.08-.05-.12-.02-.05-.04-.11-.08-.14-.4-.33-.73-.77-1.2-1-.1-.06-.44-.61-.58-.66-.07-.03-.11-.48-.21-.46Z"/><path class="cls-5" d="m36.59,457.11c-.03.25-.34.28-.79.22-.14-.02-.49-.23-.5-.32-.03-.18-.06-.36-.06-.52,0-.1.49-1.45.69-1.91.17-.46.43-.86.71-1.25.58-.77,1.17-1.56,1.88-2.25.16-.15.33-.28.54-.37.69-.31,1.28-.74,1.87-1.21.1-.08.21-.13.26-.29.05-.3,1.84-1.33,2.14-1.31.7-.03,1.36-.12,2.03-.13.09,0,.18-.07.3.04.28.27.44.16.64.15.27-.03.55-.01.84.05.14.03.3.19.45.31.14.11.15.58.12.64-.08.17.04.37.09.56.01.06.03.15.04.2,0,.06-.29.37-.58.68-.29.32-.57.64-.64.65,0,0-.13.04-.29.13-.17.08-.39.19-.61.3-.44.24-.89.51-.97.58-.09.07-.22.04-.35.03-.07-.02-1.31.83-1.36.85-.3.1-.5.35-.92.28-.08-.01-.13.03-.18.07-.44.31-.94.54-1.43.81-.26.13-.45.33-.68.49-.04.03-.11.03-.16.05-.06.03-.13.04-.18.09-.5.44-1.1.82-1.49,1.37-.1.11-.78.54-.86.71-.06.08-.51.18-.52.29Z"/><path class="cls-5" d="m465.69,422.25c-.18-.14-.01-.39.31-.7.1-.1.47-.26.55-.23.16.06.31.11.45.18.08.04.86.97,1.15,1.3.29.31.49.66.67,1.01.39.72.64,1.49.89,2.26.05.17.08.35.06.54-.05.63.06,1.23.23,1.83.03.1.03.2.16.29.23.14.48,1.82.36,2.04-.21.55-.33,1.08-.54,1.61-.03.07,0,.16-.14.22-.35.14-.31.3-.35.46-.05.22-.13.44-.27.65-.07.1-.27.19-.43.28-.15.08-.64-.03-.69-.07-.15-.11-.39-.06-.59-.08-.07,0-.16-.01-.22-.02-.11-.04-.91-1.26-.92-1.36-.02-.04-.19-1.67-.28-1.85-.04-.09.04-.2.1-.29.04-.05-.25-1.33-.25-1.38.03-.28-.1-.53.14-.84.05-.06.03-.11.02-.17-.09-.46-.04-.94-.05-1.43,0-.25-.09-.48-.13-.72,0-.04.02-.1.03-.14,0-.06.03-.12.01-.18-.12-.56-.09-1.18-.31-1.72-.04-.13.02-.84-.06-.98-.03-.08.16-.48.09-.53Z"/><path class="cls-5" d="m469.95,443.44c-.2.17-.47.11-.76-.05-.09-.05-.21-.29-.16-.36.09-.14.18-.28.28-.41.15-.13,1.18-1.01,1.57-1.34.37-.33.77-.61,1.19-.86.84-.55,1.76-.97,2.73-1.36.22-.08.44-.14.68-.16.8-.07,1.59-.24,2.4-.41.14-.03.28-.03.4-.14.1-.1.73-.21,1.38-.18.65,0,1.31.13,1.45.19.71.33,1.41.64,2.01,1.14.09.06.21.08.24.24.07.37.27.45.44.61.24.2.45.44.63.7.08.14.11.34.15.52.03.16-.24.37-.29.37-.16.01-.19.2-.27.31-.03.04-.06.09-.09.12-.04.03-.44-.04-.86-.02-.42,0-.85.1-.91.08-.03-.04-1.82-.34-2.04-.29-.11,0-.21-.08-.31-.13-.05-.06-1.55.1-1.61.09-.32-.04-.62.06-.97-.15-.07-.04-.13-.02-.2-.01-.56.09-1.15.1-1.75.18-.3.04-.59.15-.89.23-.05.01-.12,0-.18,0-.07,0-.15,0-.22.02-.71.21-1.47.35-2.16.67-.16.06-1.03.2-1.21.3-.1.05-.55,0-.63.07Z"/><path class="cls-5" d="m165.31,52.92c-.2-.12-.09-.42.14-.78.08-.11.39-.32.48-.31.17.03.35.05.51.1.07.04,1.22.69,1.54.96.35.23.63.52.89.81l1.64,1.77c.12.13.21.29.27.46.21.6.57,1.09,1,1.53.07.07.12.17.27.18.26.01,1.28,1.3,1.29,1.56.12.57.32,1.09.49,1.63.02.08.1.12.04.25-.15.32-.03.43.04.58.1.21.18.44.23.68.02.12-.04.31-.07.48-.03.15-.38.35-.44.35-.16,0-.26.18-.39.29-.04.04-.1.09-.14.11-.07.04-1.52-.51-1.63-.61-.01-.01-.36-.36-.74-.73-.37-.36-.77-.74-.86-.81-.1-.07-.11-.21-.15-.32-.03-.05-1.1-1.18-1.13-1.23-.15-.29-.43-.48-.39-.91,0-.08-.04-.13-.08-.18-.35-.43-.58-.94-.81-1.45-.12-.26-.3-.48-.45-.72-.03-.04-.02-.11-.04-.16-.02-.07-.02-.14-.06-.19-.38-.55-.63-1.19-1.07-1.69-.11-.11-.28-.88-.36-1.04-.05-.09.06-.56-.02-.6Z"/><path class="cls-5" d="m156.95,78.81c-.21.14-.42-.1-.63-.52-.07-.13-.1-.55-.04-.62.11-.14.22-.27.33-.38.07-.05,1.2-.54,1.56-.77.36-.21.72-.35,1.08-.47.74-.26,1.46-.57,2.2-.77.16-.05.33-.07.51-.06.61.03,1.18-.14,1.71-.4.09-.04.19-.06.24-.2.1-.2,1.55-.83,1.78-.79.56.04,1.09-.02,1.64-.05.08,0,.13-.07.25.02.27.22.39.11.55.07.22-.06.44-.11.69-.11.12,0,.3.11.46.18.14.07.29.49.28.55-.03.17.13.33.22.49.03.06.07.13.09.17.05.1-.86,1.41-1.01,1.47-.03.02-1.76,1.06-1.99,1.2-.1.07-.24.04-.37.03-.05.01-1.53.72-1.6.72-.33.06-.63.25-1.03.08-.08-.03-.14,0-.2.02-.55.18-1.14.21-1.72.26-.3.02-.57.13-.87.15-.05,0-.11-.03-.17-.04-.07-.01-.14-.04-.21-.03-.69.09-1.4.03-2.08.15-.16.03-.95-.18-1.12-.14-.1.02-.47-.28-.55-.23Z"/><path class="cls-5" d="m362.14,202c.1-.05.16.14.29-.08.02-.03.03-.03.04-.03.06-.01.11-.02.17-.03.04,0,.07-.02.1.02.05.08.13-.02.2-.06.12-.07.24-.15.33-.08.05.03.11,0,.12.19,0,.04.02.02.04,0,.13-.13.23-.14.33-.09.12.06.27,0,.4.01.11.01.25-.07.3.12.05.16.18-.09.25-.04.04.03.07.06.11.06.04,0,.07,0,.13-.06.2-.22.34-.22.46-.17.13.05.26.13.39.18.03.01.09-.05.13-.08.26-.19.39.07.57.15.07.03.15,0,.25-.05.14-.07.22.05.32.1.14.06.26.17.38.28.08.06.4.24.49.26.07,0,.31.26.42.2.02-.01.59.23.58.26-.05.34.12.12.16.23.01.03.04.03.05.07.03.12-.04.36-.33,1.1-.33.85-.64,1.55-.88,2.01-.12.24-.18.24-.23.26-.11.04-.34.43-.42.43,0,0-.23-.19-.46-.37-.23-.18-.48-.34-.52-.3-.02.01-.01-.04-.02-.05-.03-.11-.19.14-.23.04,0-.01-.03.04-.06.08-.03.06-.19-.28-.22-.23-.1.14-.13.08-.16,0-.02-.06-.08,0-.13.02-.01,0-.04.06-.04.03-.03-.24-.2-.02-.31-.02-.06,0-.09-.14-.14-.2-.02-.02-.07.02-.09.01-.04-.01-.08-.04-.13-.06-.02,0-.05.02-.07.02-.03,0-.07.05-.07-.03,0-.21-.08-.13-.13-.15-.07-.03-.12-.09-.19-.12-.07-.04-.13-.09-.2-.1-.12-.02-.27-.05-.39-.07-.12-.02-.24-.08-.35-.14-.09-.04-.19-.03-.26-.13-.05-.07-.1-.14-.17-.1-.02,0-.03,0-.03-.04-.03-.3-.97-.63-1.05-.71-.07-.05-.39.09-.34-.3.06-.35.11-.71.17-1.07.04-.22.1-.45.15-.68.05-.21.1-.29.15-.3.03,0,.1-.19.13-.2Z"/><g class="cls-6"><path class="cls-5" d="m339.54,247.31c-.06-.12.07-.24-.13-.37-.02-.02-.03-.03-.03-.05-.02-.08-.04-.15-.07-.22-.01-.05-.03-.09,0-.14.05-.08-.04-.17-.1-.26-.09-.14-.19-.28-.16-.42.02-.07-.03-.15.14-.2.04-.01.01-.04,0-.06-.15-.14-.19-.28-.16-.41.03-.17-.07-.35-.09-.52-.01-.15-.13-.31.05-.43.15-.1-.12-.22-.09-.32.02-.05.05-.1.05-.16,0-.05,0-.1-.08-.15-.27-.21-.29-.39-.26-.56.03-.18.09-.37.12-.55,0-.04-.07-.1-.11-.15-.25-.29,0-.52.05-.78.02-.09-.03-.2-.1-.3-.09-.16.06-.29.11-.43.07-.19.19-.37.3-.55.07-.11.24-.57.26-.69,0-.09.25-.46.19-.58,0-.01.04-.21.1-.41.12-.19.28-.37.29-.38.33-.05.18-.17.3-.25.04-.02.05-.05.08-.07.2-.07.4-.06.93.04.58.1,1.18.25,1.6.4.22.08.26.15.31.22.1.13.52.32.61.45-.01,0,.06.11.03.26-.04.14-.09.33-.13.52-.09.38-.18.77-.13.82.02.02-.03.03-.05.04-.1.08.2.22.11.3-.01.01.05.04.1.06.07.03-.22.34-.15.38.17.1.12.16.05.23-.05.05.03.12.06.18,0,.02.07.04.05.05-.24.11,0,.28.02.42,0,.09-.15.16-.2.24-.02.04.03.08.02.12,0,.06-.04.12-.05.19,0,.03.03.06.03.1,0,.03.06.08-.03.1-.23.05-.13.14-.15.22-.02.1-.08.19-.12.29-.04.1-.08.2-.1.3-.02.17-.03.37-.05.55-.01.17-.08.34-.16.51-.05.13-.05.26-.17.39-.08.08-.16.17-.13.26,0,.02,0,.04-.05.05-.31.11-.78,1.45-.88,1.56-.06.11-.05.51-.34.52-.27,0-.53,0-.79,0-.16,0-.32-.04-.49-.07-.15-.02-.22-.07-.23-.13-.01-.04-.16-.09-.17-.14Z"/></g><g class="cls-6"><path class="cls-5" d="m236.76,257.38c.11,0,.13.18.31.07.02-.01.04,0,.05,0,.06.02.12.03.18.06.04.01.08.02.1.06.03.08.13.05.22.05.13,0,.27,0,.35.09.04.05.12.05.08.21,0,.03.02.03.04.02.16-.04.26,0,.35.09.11.1.26.13.39.21.11.06.26.07.28.25.01.15.21.02.27.08.03.03.06.07.1.1.04.02.08.04.14.01.25-.09.4-.03.52.07.13.1.23.23.35.34.03.03.1,0,.15,0,.31-.02.37.26.53.42.06.06.15.08.25.09.16.01.2.16.29.25.12.12.21.28.3.43.06.09.33.41.41.47.06.05.23.38.35.39.04-.01.47.54.46.57-.13.25.07.17.07.28,0,.03.02.05.02.08,0,.12-.13.26-.58.68-.52.48-.97.85-1.31,1.09-.18.12-.23.1-.29.09-.11-.02-.44.16-.52.12-.04.02-.66-1.06-.77-1.04-.02,0,0-.03,0-.05,0-.11-.22.02-.23-.09,0-.01-.04.01-.08.03-.05.03-.11-.32-.16-.3-.13.06-.15,0-.16-.09,0-.06-.08-.04-.13-.05-.01,0-.05.02-.05,0,.03-.21-.19-.12-.29-.17-.06-.03-.05-.16-.08-.23-.02-.03-.07-.02-.09-.04-.04-.03-.07-.08-.11-.11-.02-.01-.06,0-.08-.02-.02-.01-.08,0-.06-.06.05-.17-.05-.14-.09-.18-.06-.05-.1-.13-.15-.19-.05-.07-.1-.14-.16-.19-.11-.08-.24-.19-.35-.27-.11-.1-.21-.19-.31-.28-.08-.07-.18-.11-.24-.22-.04-.07-.07-.15-.16-.16-.02,0-.03-.01-.02-.04.03-.25-.87-.9-.93-.99-.07-.07-.43-.08-.29-.37.13-.27.27-.54.42-.8.09-.16.2-.33.31-.49.1-.15.17-.19.22-.18.03,0,.14-.11.18-.1Z"/></g><path class="cls-5" d="m200.95,293.51c-.08-.09.09-.18-.16-.26-.03,0-.03-.02-.04-.03-.03-.05-.06-.1-.08-.15-.01-.03-.04-.07,0-.1.06-.06-.05-.12-.12-.18-.1-.1-.22-.2-.18-.3.02-.05-.03-.11.16-.16.04-.01.02-.03,0-.04-.17-.1-.21-.19-.19-.29.03-.13-.07-.26-.1-.38-.02-.11-.14-.22.05-.32.16-.08-.16-.16-.14-.23.01-.04.03-.08.02-.12-.01-.04-.03-.07-.11-.11-.32-.14-.38-.27-.38-.41-.01-.14.09-.28.12-.42,0-.03-.07-.07-.12-.11-.26-.21.02-.39.08-.59.02-.07-.03-.15-.09-.22-.1-.12.02-.22.06-.33.04-.15.14-.29.23-.43.06-.09.18-.44.18-.53,0-.07.21-.35.14-.44-.01-.02.13-.61.16-.62.34-.03.1-.14.2-.2.03-.02.02-.04.06-.06.11-.06.36-.05,1.13.05.89.11,1.63.24,2.13.36.26.06.28.11.32.16.07.09.51.22.53.31,0,0-.1.27-.2.53-.09.27-.17.54-.12.58.02.01-.03.02-.05.03-.1.06.21.15.12.21-.01,0,.05.02.1.04.07.02-.22.25-.15.27.17.06.13.11.06.16-.05.04.04.08.07.12,0,.01.07.03.05.04-.23.09.05.2.1.3.03.06-.11.12-.15.18-.02.03.04.06.05.09,0,.05-.01.09,0,.13,0,.02.04.04.05.07.01.02.08.05,0,.07-.22.05-.1.1-.11.16,0,.07-.03.14-.07.21-.04.07-.08.14-.1.21-.01.12-.03.27-.04.39-.02.12-.06.24-.09.37-.02.09,0,.19-.08.28-.06.06-.12.13-.07.19.01.01,0,.03-.03.04-.31.1-.45,1.08-.51,1.17-.04.08.17.36-.24.4-.37.03-.75.06-1.13.09-.23.01-.48,0-.72,0-.22,0-.32-.03-.34-.07-.01-.03-.22-.05-.24-.08Z"/><g class="cls-6"><path class="cls-5" d="m170.79,295.87c.09-.08.18.1.27-.15.01-.03.02-.03.04-.04.05-.03.11-.05.16-.07.03-.01.07-.04.1,0,.06.07.12-.05.19-.11.1-.1.2-.22.3-.18.05.02.11-.03.16.17,0,.04.03.02.04,0,.1-.17.19-.21.29-.19.13,0,.26-.02.38-.02.11,0,.22-.08.32.12.08.16.16-.11.23-.08.04.02.08.05.12.04.04,0,.07-.01.11-.08.13-.25.26-.27.39-.25.14.03.28.08.42.1.03,0,.07-.06.1-.1.2-.23.39,0,.58.03.07.01.14-.03.22-.09.11-.1.22,0,.33.02.15.03.29.1.44.17.09.03.45.14.53.15.07,0,.36.18.45.12.01-.01.62.1.62.12.07.28.15.08.22.16.02.02.04.02.06.04.07.09.09.29.07.92-.02.72-.06,1.32-.13,1.74-.03.22-.09.24-.13.27-.09.07-.18.44-.28.48-.01,0-.31-.04-.6-.08-.3-.04-.61-.06-.64-.02-.01.02-.02-.03-.04-.04-.07-.08-.15.18-.22.11-.01-.01-.02.04-.03.09-.02.06-.28-.18-.31-.12-.06.15-.11.11-.17.05-.04-.04-.09.03-.13.06-.01,0-.02.06-.04.04-.11-.2-.22.05-.32.08-.07.02-.13-.1-.2-.13-.03-.01-.06.04-.09.04-.05,0-.1-.01-.15,0-.02,0-.05.04-.07.05-.03,0-.06.07-.08,0-.06-.19-.12-.09-.18-.09-.08,0-.15-.04-.23-.05-.08-.01-.16-.04-.24-.03-.13.02-.29.04-.42.06-.13.01-.27,0-.4.02-.1,0-.21.06-.31,0-.07-.04-.14-.08-.21-.03-.01.01-.03,0-.04-.04-.11-.31-1.16-.48-1.25-.55-.09-.04-.39.15-.41-.26-.01-.37-.03-.75-.04-1.13,0-.23.01-.48.02-.72,0-.22.04-.32.09-.34.03-.01.06-.22.09-.23Z"/></g><g class="cls-6"><path class="cls-5" d="m285.29,293.18c.12.05-.09.29.27.21.04,0,.05,0,.06.01.05.04.09.09.13.14.02.03.07.05.03.12-.07.12.09.11.19.14.15.05.31.1.28.25-.01.08.06.11-.15.29-.05.04-.01.04.02.04.22.01.29.11.29.24,0,.16.15.26.21.39.05.11.21.19.04.39-.14.17.21.1.21.2,0,.05-.01.11.01.15.02.04.05.07.14.07.36,0,.45.14.47.3.03.17.03.34.06.51,0,.04.1.04.16.06.34.11.16.43.19.66.01.09.09.15.19.2.15.08.07.25.09.38.02.17-.01.37-.04.56-.02.12,0,.55.04.64.03.07-.15.49-.06.56.02.01-.04.75-.06.76-.29.16-.07.19-.14.3-.02.03-.01.05-.04.08-.08.1-.29.17-.94.31-.75.16-1.39.27-1.85.31-.24.02-.29-.02-.34-.05-.11-.07-.55-.05-.63-.12,0-.01-.1-.29-.19-.56-.13-.27-.12-.59-.19-.6-.02,0,.02-.03.03-.05.07-.1-.26-.07-.2-.16,0-.01-.06,0-.11,0-.07,0,.11-.33.03-.33-.19,0-.17-.06-.12-.13.04-.06-.07-.06-.12-.09-.01,0-.08,0-.06-.01.19-.18-.14-.17-.22-.25-.05-.05.06-.16.07-.23,0-.03-.07-.04-.08-.06-.03-.04-.03-.09-.05-.13-.01-.02-.06-.02-.08-.04-.02-.02-.1-.02-.02-.07.19-.14.05-.15.03-.2-.03-.07-.02-.15-.04-.23-.02-.08-.03-.16-.07-.22-.07-.11-.15-.24-.22-.35-.06-.11-.11-.24-.16-.36-.04-.09-.15-.15-.12-.27.02-.08.04-.17-.07-.19-.02,0-.02-.02,0-.05.28-.25-.3-1.13-.3-1.23-.01-.1-.55-.13,0-.47.51-.32,1.04-.64,1.56-.96.33-.2.69-.39,1.03-.58.32-.17.46-.21.5-.18.03.02.32-.11.35-.08Z"/></g><path class="cls-5" d="m257.29,322.03c.07-.11.24-.06.25-.29,0-.03.01-.04.02-.05.05-.06.1-.11.15-.16.03-.03.06-.07.11-.07.1,0,.12-.12.16-.21.07-.14.14-.29.27-.33.07-.02.11-.1.25,0,.03.02.04,0,.04-.03.04-.19.14-.28.26-.33.16-.07.26-.23.39-.33.12-.09.19-.25.38-.19.16.06.11-.22.21-.26.05-.02.1-.03.14-.07.04-.03.07-.07.07-.15.01-.33.14-.45.31-.51.17-.07.35-.13.52-.2.04-.02.04-.1.06-.16.11-.33.43-.27.67-.37.09-.04.15-.13.2-.23.08-.16.25-.15.38-.2.18-.08.38-.12.58-.16.12-.02.57-.21.67-.26.08-.04.53-.06.59-.16.01-.02.78-.28.8-.27.22.19.21-.02.34,0,.04,0,.06-.01.1,0,.13.03.24.18.53.71.33.6.56,1.13.69,1.53.07.2.02.26-.02.32-.07.12.01.5-.07.6-.01,0-.36.19-.71.37-.34.21-.73.34-.74.4,0,.02-.04,0-.06-.01-.13-.03-.08.25-.2.24-.02,0,0,.05,0,.1.01.06-.42.03-.42.09,0,.17-.08.17-.17.15-.07-.01-.08.08-.12.13,0,.01,0,.07-.02.06-.22-.1-.23.18-.33.28-.07.06-.2,0-.3.02-.04,0-.05.07-.09.09-.06.04-.12.05-.18.09-.03.02-.04.06-.06.08-.03.02-.03.09-.09.04-.16-.12-.18,0-.25.04-.09.05-.2.07-.29.1-.1.04-.2.07-.29.13-.17.08-.33.17-.51.24-.16.07-.34.12-.51.19-.13.05-.24.13-.39.14-.11,0-.21,0-.27.08-.01.02-.03.02-.06,0-.25-.15-1.55.4-1.68.4-.12.03-.4.34-.58.08-.17-.23-.33-.47-.48-.71-.09-.15-.17-.32-.25-.49-.07-.15-.07-.24-.03-.28.03-.03-.02-.19.02-.22Z"/></svg>