<svg xmlns="http://www.w3.org/2000/svg" viewBox="0 0 520 520" width="100%" height="100%"><defs><style>.cls-1{opacity:.65;}.cls-1,.cls-2,.cls-3{fill:currentColor;stroke-width:0px;}.cls-2{opacity:.2;}.cls-4{opacity:.55;}</style></defs><path class="cls-3" d="m415.14,127.49c0-.72,0-1.44-.09-2.16-.04-.73-.14-1.45-.28-2.16-.08-.53-.27-1.02-.4-1.54-.36-1.86-1.02-3.64-1.79-5.39-.39-.75-.79-1.51-1.32-2.17-.33-.42-.64-.87-1-1.28-.17-.21-.36-.4-.49-.65-.12-.25-.25-.51-.38-.77-.14-.34.02-.45.45-.46.22,0,.51,0,.84.04.16.02.36.04.51.1.15.07.29.16.42.27.48.38.86.84,1.28,1.28.42.44.82.9,1.15,1.4.34.5.71.99.99,1.52.29.53.5,1.11.73,1.67.24.69.51,1.37.82,2.03.29.68.56,1.37.8,2.06.24.77.42,1.56.62,2.34.14.8.3,1.58.4,2.38.12.99.21,1.97.25,2.96.1,1.5-.07,3.01-.14,4.51-.07.58-.05,1.17-.07,1.77-.06.6-.04,1.21-.17,1.83-.05.27-.08.55-.15.83-.33,1.01-.8,1.22-1.76.88-.22-.08-.45-.14-.66-.24-.71-.35-1.12-.99-1.1-1.53.04-1.67.24-3.41.33-5.28.03-.69.04-1.39.1-2.09,0-.71.06-1.42,0-2.14h.09Z"/><path class="cls-2" d="m270.59,372.86s4.34,1.85,7.36,5.03c3.02,3.18,2.29,6.06-.46,4.81-2.75-1.24-4.71-1.73-4.71-1.73l-2.19-8.11Z"/><path class="cls-3" d="m279.4,381.35c-.07-.04-.15-.06-.22-.07.01.01.03.03.03,0,0-.05.04-.06.07-.07,0-.08.07-.05-.05-.33-.1-.24-.27-.52-.44-.8-.21-.28-.45-.52-.67-.81-.74-1.05-1.61-2.1-2.54-3.07-.41-.43-.89-.79-1.33-1.19-.29-.25-.59-.48-.88-.73-.25-.3-.52-.58-.68-1-.1-.27,0-.34.35-.45.36-.13.96-.29,1.42-.17.72.36,1.44.73,2.05,1.25.61.51,1.19,1.09,1.71,1.72.61.77,1.46,1.35,2.15,2.12.35.41.68.84,1,1.33.15.27.31.49.44.84.18.36.22.76.27,1.13l-.02.31c-.02.46-.17,1.01-.52,1.46-.17.24-.37.44-.61.57-.23.17-.46.25-.69.32-.7.21-1.33.17-1.89.08-.58-.08-1.1-.23-1.62-.37-.81-.22-1.63-.4-2.43-.75-.17-.08-.36-.13-.53-.25-.55-.5-.6-.86-.17-1.48.08-.13.15-.25.22-.35.21-.27.88-.6,1.26-.55,1.25.09,2.34.52,3.33.75.34.07.71.13.83.12.06.01.05,0,.05.01,0,.03.07.17.13.25.03.06.03.08.06.13.02.04.06.08.1.12.06.05,0,0,0,0-.05-.03.05.04-.15-.07h0Z"/><path class="cls-2" d="m364.18,174.29s-7.38-10.13-15.57-3.35,0,13.17,0,13.17c0,0,2.85,16.62,1.33,20.04-1.52,3.42-10.43,4.93-12.78,3.74s4.36,21.21,7.48,22.91,13.41-7.45,18.87-8.42c5.47-.97,25.64,1.47,34.98-5.22,9.33-6.69,15.16-9.37,18.45-24.03,3.29-14.66-.84-33.04-.84-33.04,0,0-11.96,2.19-13.89-6.47-1.93-8.66-23.39-1.89-27.34,3.86-3.95,5.74-10.7,16.82-10.7,16.82Z"/><path class="cls-2" d="m331.86,380.82s18.62,23.61,14.56,25.04c-4.06,1.42-8.58-4.74-8.58-4.74,0,0,6.91,10.45,4.19,10s-5.19,1.82-6.22,1.1-12.47-12.93-13.33-15.48-7.52,8.03-9.37,6.6c-1.85-1.44-.89-5.25,0-7.97s3.34-10.4,3.05-12.37-1.51-7.13,2.82-6.63c4.33.5,12.89,3.7,12.89,3.7v.76Z"/><path class="cls-2" d="m336.59,387.08s5.94,2.69,7.92,4.84c1.99,2.15,5.15,6,1.9,5.35-3.26-.65-9.82-7.56-9.82-7.56v-2.63Z"/><path class="cls-2" d="m248.54,371.71s-2.94,10.95.47,14.64c3.41,3.69,6.68,6.34,6.23,9.15s.29,8.76,2.08,6.07c1.79-2.69,2.93-10.39,2.93-10.39,0,0,11.48,16.69,13.74,15.95,2.26-.74,4.25,2.91,6.04,1.12s-3.02-12.58-3.02-12.58c0,0,7.44,7.44,9.55,6.27s-13.78-20.98-13.78-20.98c0,0-5.86-13.95-5.73-15.38.13-1.43-18.52,6.12-18.52,6.12Z"/><path class="cls-3" d="m311.32,397.89c-.18.29-.36.59-.54.88-.06.11-.08.23-.15.34-.24.37-.48.75-.71,1.12-.11.16-.18.34-.25.52-.08.23-.13.47-.34.66-.12.12-.88-.37-.86-.67.09-.5.16-1.01.51-1.41.2-.25.25-.56.37-.85.15-.3.29-.61.44-.92.09-.19.18-.38.27-.57.13-.29.28-.57.36-.88.06-.24.03-.5.04-.76,0-.05,0-.11,0-.17.05-.19.18-.21.61-.09l.3.08c.33.1.57.28.62.45.16.52-.01.94-.18,1.36-.13.31-.31.61-.46.91h-.04Z"/><path class="cls-3" d="m305.91,399.5c-.79,0-1.58-.01-2.39-.02-.29,0-.58.05-.87.05-1.04-.03-2.08-.06-3.12-.13-.46-.05-.92-.04-1.38-.06-.58.1-1.17-.32-1.74-.37-.36-.07.1-.03.76-.49l.43-.26c.14-.09.29-.07.43-.11.29-.05.57-.1.86-.14.29-.04.57-.09.86-.09.29,0,.58.01.88.03.71.05,1.42-.13,2.14-.2.79-.07,1.59-.16,2.39-.19.5-.03.99-.05,1.49-.08.75-.04,1.51-.04,2.26-.12.58-.06,1.15-.23,1.73-.35.13-.03.25-.07.38-.06.48.03.63.2.72.73.02.12.05.24.06.36.04.4-.16.74-.49.92-.5.31-1,.36-1.51.44-.51.07-1.02.09-1.55.12-.78.03-1.56.05-2.35.08v-.05Z"/><path class="cls-3" d="m219.92,324.67c-20.26,6.84-32.78-7.91-32.78-7.91,0,0,12.52,7.74,23.31,2.41,5.09-2.51,7.86-12.42,7.86-12.42l1.6,17.92Z"/><path class="cls-3" d="m294.29,329.48c-10,0-19.19-3.59-23.53-9.17-7.49-9.65-8.28-25.1-8.28-25.1,0,0-3.15,4.21-1.07,16.23s10.01,16.32,10.01,16.32c0,0,5.74,4.06,11,3.75,5.26-.31,11.87-2.03,11.87-2.03Z"/><path class="cls-3" d="m228.05,264.68s3.01,5.27,0,9.78c-3.13,4.7,4.33-8.38,4.33-8.38l-4.33-1.4Z"/><path class="cls-3" d="m220.1,299.33c-.36,1.8-.55,3.65-.7,5.5-.03.68,0,1.36-.04,2.03-.09,2.39-.06,4.81.06,7.22.07,1.07.19,2.14.35,3.19.22,1.35.5,2.69.42,4.1-.04.44-.25.42-.63.12-.39-.3-.92-.89-1.15-1.67-.62-2.77-.96-5.61-.93-8.49.04-1.72-.13-3.5-.08-5.26.03-1.93.22-3.87.46-5.79.19-1.18.36-2.36.63-3.52.35-1.78.92-3.51,1.47-5.22.46-1.32.85-2.65,1.45-3.92.13-.28.21-.58.38-.84.58-1,.9-1.24,1.49-1.14.13.02.28.03.4.08.41.15.47.73.18,1.47-.23.54-.45,1.09-.64,1.66-.2.56-.45,1.1-.63,1.68-.19.57-.44,1.12-.63,1.7l-.57,1.74c-.49,1.76-.98,3.53-1.25,5.37h-.05Z"/><path class="cls-1" d="m52.05,328.21s-5.81-3.16-5.81-10.76c0-7.6,1.87-28.91,6.66-36.47,4.8-7.56,12.98-.5,12.98-.5,0,0,2.67,9.07,1.74,14.73-.93,5.66-9.13,26.17-11.31,29.92s-4.27,3.08-4.27,3.08Z"/><path class="cls-3" d="m48.56,321.87c-.35-1.14-.63-2.28-.88-3.42-.09-.41-.23-.82-.31-1.23-.27-1.46-.53-2.92-.73-4.39-.08-.65-.2-1.3-.31-1.94-.19-.81-.2-1.66-.18-2.51.01-.26.06-.24.2-.04.13.2.43.56.65,1,.21.39.32.8.43,1.2.11.41.22.81.34,1.22.1.41.2.81.3,1.23.08.42.14.84.2,1.26.13,1.01.48,2.01.74,3.02.29,1.1.59,2.19.95,3.26.22.66.46,1.3.73,1.94.41.96.88,1.9,1.49,2.72.48.63,1.08,1.14,1.69,1.6.13.1.28.18.42.28.49.38.59.57.4,1.08-.04.11-.07.23-.12.34-.17.36-.58.46-1.08.22-1.45-.73-2.63-2.06-3.47-3.49-.63-1.07-1.13-2.19-1.51-3.33l.04-.02Z"/><path class="cls-3" d="m62.86,312.89s60.52-35.51,72.15-39.47,29.85-12.29,29.85-12.29c0,0,7.25,12.11,8.65,19.9,1.4,7.79-1.62,8.82-5.01,9.94-3.39,1.12-59.21,19.16-59.21,19.16l-55.14,18.75,8.72-15.99Z"/><path class="cls-1" d="m443.96,353.33l13.8-12.96s15.06-17.53,19.55-15.56c4.49,1.97,4.62,6.49,2.51,11.11-2.11,4.62-11.31,15.94-15.01,18.57-3.7,2.63-9.71,4.68-13.2,3.68s-8.46-3.59-8.46-3.59l.8-1.26Z"/><path class="cls-3" d="m378.74,322.73s7.62-4.3,9.73-9.34c2.1-5.04,3.25-12.47,3.25-12.47l53.67,41.65,6.22,4.54-8.46,7.48-54.04-26.84-10.37-5.03Z"/><path class="cls-3" d="m450.51,351.1c-.59.45-1.2.87-1.83,1.25-.22.14-.42.32-.66.44-.86.41-1.73.73-2.61,1.02-.38.14-.76.28-1.13.44-.47.2-.99.32-1.52.29-.17-.01-.2-.24-.14-.52.06-.28.19-.66.42-.82.4-.32.83-.49,1.27-.68.43-.19.87-.37,1.34-.53.56-.18,1-.62,1.49-.94.54-.35,1.08-.73,1.58-1.15.31-.26.62-.52.9-.81.43-.43.86-.89,1.18-1.41.24-.41.35-.89.52-1.32.04-.09.05-.2.1-.29.16-.34.35-.38.89-.21.12.04.25.07.37.11.4.15.65.45.64.8-.01.52-.14,1.01-.32,1.49-.23.45-.52.87-.84,1.26-.48.59-1.03,1.11-1.6,1.6l-.04-.04Z"/><path class="cls-3" d="m390.99,295.41c0,3.38-.23,6.81-1.05,10.17l-.45,1.83c-.2.6-.4,1.21-.62,1.8-1.66,4.2-4.53,7.75-8.01,10.4-1.56,1.15-3.23,2.15-4.95,2.96-2.2,1.07-4.58,1.73-6.98,2.02-.75.09-.66,0-.1-.33.57-.32,1.58-.98,2.79-1.56,4.32-2.07,8.1-4.66,11.18-8.13.9-1.05,1.69-2.24,2.32-3.52.31-.64.55-1.31.83-1.96.26-.66.42-1.36.65-2.03.84-3.02,1.25-6.21,1.33-9.44.06-1.99-.02-3.99-.17-5.98-.26-3.02-.67-6.07-1.26-9.04-.47-2.31-1.19-4.52-1.82-6.77-.13-.5-.3-.97-.42-1.48-.44-1.87-.37-2.52.14-3.09.12-.13.22-.29.35-.38.41-.3,1.02.35,1.63,1.66.44.98.83,1.98,1.22,3,.35,1.03.69,2.08.98,3.15.62,2.13,1.12,4.34,1.54,6.56.55,3.33.86,6.72.94,10.14h-.08Z"/><path class="cls-3" d="m203.52,175.38c2.74-2.29,5.63-4.49,8.91-6.15.59-.3,1.17-.62,1.78-.89.6-.29,1.2-.57,1.82-.79,4.37-1.67,9.03-2.39,13.63-2.34,2.04.01,4.09.2,6.08.47.64.11,1.29.18,1.92.3.63.15,1.26.31,1.89.47.62.2,1.24.38,1.84.63.6.26,1.18.56,1.76.83.72.36.59.39-.11.4-.44.01-.94.03-1.46.04-.3,0-.63.05-.97.04-.33-.01-.68-.04-1.04-.09-.63-.11-1.27-.13-1.89-.2l-1.87-.23c-.62-.09-1.25-.14-1.87-.18-.62-.06-1.25-.1-1.87-.11-2.5-.06-5.01-.08-7.52.21-3.02.32-6.05,1.34-8.85,2.64-1.57.68-3.04,1.54-4.48,2.43-1.42.96-2.82,1.97-4.15,3.08-1.66,1.34-3.26,2.78-4.81,4.26-2.34,2.26-4.63,4.62-6.71,7.1-1.62,1.93-3.03,3.97-4.45,6.01-.31.45-.6.9-.92,1.35-1.2,1.65-1.71,2.07-2.54,2.04-.19,0-.39.01-.56-.03-.55-.13-.44-1.09.31-2.44,2.23-3.99,5.24-7.74,8.44-11.32,2.39-2.65,4.95-5.19,7.66-7.58l.05.05Z"/><path class="cls-3" d="m135.43,234.36c-.6-1.32-1.08-2.71-1.45-4.18-.39-1.5-.48-2.96-.54-4.43,0-.54,0-1.07-.02-1.61.01-.54.05-1.07.1-1.6.25-1.87.71-3.72,1.42-5.47.75-1.74,1.71-3.4,2.99-4.81.61-.59,1.15-1.23,1.83-1.73.33-.25.63-.56.99-.77l1.06-.67c.44-.31.95-.48,1.42-.73l.73-.32c.25-.08.51-.14.77-.21.51-.12,1.02-.28,1.54-.34.52-.06,1.07.05,1.59.07.65.07.57.25.11.7-.29.29-.6.6-.91.9-.18.18-.4.27-.61.42-.21.15-.43.28-.67.38-.87.33-1.62.84-2.41,1.24l-1.09.76c-.35.26-.66.59-1,.86-.35.26-.6.65-.91.96-.32.31-.56.68-.83,1.04-.13.18-.29.35-.42.53l-.37.57c-.26.38-.52.76-.72,1.18-1.1,1.97-1.45,4.4-1.56,6.73-.05,1.29-.03,2.59.16,3.87.13,1.29.47,2.49.93,3.75.56,1.52,1.25,3.03,2.06,4.48,1.22,2.19,2.61,4.34,4.23,6.25,1.26,1.48,2.72,2.74,4.19,3.92.33.25.66.49.99.75,1.17,1.01,1.45,1.41,1.31,2.22-.03.18-.04.38-.09.54-.17.54-.99.56-2.14-.01-1.68-.85-3.12-2.11-4.51-3.42-1.38-1.33-2.63-2.81-3.78-4.36-1.71-2.31-3.21-4.78-4.44-7.44l.07-.04Z"/><polygon class="cls-3" points="238.66 374.48 248.54 371.71 246.93 375.87 238.66 374.48"/><path class="cls-3" d="m242.25,374.7c.47.18.96.34,1.47.44.18.04.37,0,.55.04.65.13,1.33.25,2.01.25.3.02.6-.03.89-.09.19-.03.36-.12.56-.11.2.02.42.07.64.14.14.05.17.19.14.45-.03.24-.11.68-.29.94-.74.56-1.62.76-2.51.61-.53-.08-1.06.07-1.59.07-.58,0-1.17-.07-1.74-.16-.35-.05-.7-.12-1.05-.2-.53-.1-1.04-.28-1.57-.35-.41-.06-.86.03-1.3.03-.1,0-.2.03-.3.01-.35-.06-.39-.28-.18-1.03l.14-.51c.19-.57.48-.99.73-1.08.76-.25,1.36-.1,2,.06.47.14.94.28,1.42.42v.06Z"/><path class="cls-3" d="m232.65,364.98c-.45-1.4-.88-2.81-1.29-4.23-.15-.52-.35-1.01-.47-1.54-.45-1.85-.81-3.71-1.14-5.58-.15-.83-.28-1.66-.45-2.47-.09-.53-.19-1.05-.27-1.59-.08-.53-.03-1.08.02-1.62.1-.35.27-.32.63-.08.34.24.86.68,1.04,1.24.57,2.04,1.24,4.02,1.52,6.15.2,1.27.73,2.5,1.14,3.75.46,1.37.87,2.75,1.35,4.12.29.84.58,1.69.91,2.52.49,1.26.97,2.54,1.55,3.75.46.94,1.07,1.79,1.62,2.67.12.19.26.37.38.57.42.74.33,1.08-.23,1.56-.13.11-.26.23-.39.32-.46.31-1.04.2-1.48-.29-1.23-1.48-2.11-3.25-2.89-5.08-.58-1.36-1.09-2.75-1.6-4.15l.06-.03Z"/><path class="cls-3" d="m322.35,376.36c.78.23,1.56.45,2.34.63.29.07.58.09.87.16,1.01.25,2.03.48,3.06.68.45.09.92.14,1.37.18.59.07,1.18.02,1.75.3.18.08.15.2-.02.37-.08.09-.2.19-.34.3-.14.12-.31.2-.48.2-1.22.05-2.45.09-3.65-.22-.72-.17-1.49-.17-2.23-.27-.82-.11-1.63-.26-2.44-.41-.5-.1-1-.19-1.49-.29-.75-.14-1.5-.34-2.26-.44-.59-.08-1.19-.05-1.78-.06-.13,0-.26.01-.39,0-.48-.06-.6-.23-.58-.82,0-.14,0-.27.02-.41.06-.45.33-.78.69-.82,1.08-.14,2.14.06,3.2.28.79.16,1.57.38,2.36.58v.05Z"/><path class="cls-3" d="m302.1,362.75c-.08-1.25-.13-2.5-.13-3.74,0-.45-.03-.91,0-1.36.09-1.6.24-3.19.43-4.77.07-.7.14-1.4.2-2.1.11-.89.3-1.78.56-2.64.08-.27.16-.22.26.03.09.25.25.71.28,1.22.02.46.07.91.07,1.36-.02.45-.05.89-.07,1.34-.05.89-.1,1.79-.18,2.69-.1,1.08.02,2.2.08,3.31.07,1.21.09,2.43.21,3.64.06.75.13,1.49.24,2.23.15,1.12.33,2.25.61,3.35.22.85.58,1.64.89,2.45l.2.53c.22.67.15.93-.28,1.23-.1.07-.19.15-.29.2-.34.18-.74,0-1.02-.48-.89-1.4-1.27-3.07-1.6-4.73-.24-1.24-.38-2.5-.5-3.76h.04Z"/><path class="cls-3" d="m301.73,314.31c.77-1.68,1.6-3.33,2.4-4.98.29-.6.53-1.23.83-1.82,1.08-2.09,2.16-4.18,3.24-6.27.46-.93.87-1.89,1.26-2.85.54-1.21,1.05-2.43,1.81-3.56.23-.35.34-.25.43.15.06.4.24,1.16.1,1.93-.16.67-.34,1.33-.53,2-.2.66-.48,1.28-.74,1.91-.52,1.26-1.1,2.5-1.75,3.71-.78,1.44-1.39,3.04-2.08,4.56l-2.28,5c-.44,1.03-.9,2.06-1.31,3.11-.63,1.58-1.23,3.18-1.71,4.79-.35,1.26-.52,2.54-.7,3.81l-.1.84c-.22,1.02-.45,1.32-1.12,1.44-.14.03-.28.08-.41.09-.39.04-.82-.48-.83-1.31-.07-2.46.57-4.95,1.33-7.36.62-1.78,1.35-3.51,2.09-5.22l.06.02Z"/><path class="cls-3" d="m264.77,314.3c.56,2.45,1.24,4.9,2.24,7.09.17.41.42.74.63,1.11.21.38.46.6.66.94.9,1.04,2.28,1.94,3.67,2.68,1.41.75,2.92,1.36,4.47,1.87,1.38.44,2.81.79,4.23,1.03.91.18,1.84.26,2.76.46l1.38.28c.46.08.91.3,1.37.46.56.32.49.19-.02.39-.26.1-.63.25-1.08.45-.45.15-.97.24-1.52.23-3.92-.14-7.87-.95-11.53-2.7-1.09-.53-2.21-1.07-3.3-1.73-.54-.33-1.08-.69-1.6-1.11-.54-.41-.98-1-1.42-1.54-.77-1.24-1.34-2.5-1.78-3.77-.47-1.27-.84-2.55-1.17-3.84-.41-1.59-.75-3.18-1.02-4.78-.44-2.43-.73-4.88-.93-7.33-.17-1.9-.38-3.77-.28-5.73.04-.43,0-.85.09-1.3.24-1.65.84-2.13,1.49-2.17.16-.01.32-.04.46-.01.48.11.59.81.52,1.76-.26,2.97.02,6.38.42,9.75.32,2.51.73,5.04,1.33,7.5l-.06.02Z"/><path class="cls-3" d="m335.02,270.17c1.67-.99,3.39-1.94,4.97-3.11.59-.4,1.14-.87,1.71-1.31,2.02-1.52,3.95-3.2,5.75-5,.81-.79,1.56-1.65,2.34-2.46.95-1.09,1.94-2.15,2.97-3.19.32-.32.28-.27.1.07-.19.33-.48,1-.9,1.75-.85,1.23-1.71,2.46-2.68,3.6-1,1.11-2.05,2.19-3.17,3.2-1.33,1.21-2.68,2.53-4.1,3.71-1.59,1.27-3.22,2.49-4.97,3.54-.54.31-1.07.65-1.63.94l-1.67.87c-.85.43-1.73.79-2.59,1.19-.89.32-1.77.69-2.66,1.01-.7.23-1.38.48-2.06.74l-2.09.61c-.31.1-.61.17-.93.22-1.19.2-1.58.15-1.89-.24-.07-.09-.16-.17-.2-.27-.15-.31.29-.66,1.1-.9,2.41-.71,4.9-1.43,7.31-2.44.92-.33,1.78-.79,2.67-1.18.87-.44,1.74-.89,2.59-1.38l.02.04Z"/><path class="cls-3" d="m338.77,220.77s5.88,12.75,11.35,8.67c4.81-3.59-6.16,4.55-6.16,4.55l-5.18-13.21Z"/><path class="cls-1" d="m319.88,210.65c-.91,1.51-.71,9.96,3.83,18.83,4.3,8.4,10.72,10.23,18.87,5.37.78-.47,1.09-1.46.69-2.28-1.97-4.1-7.54-15.88-7.88-18.16-.32-2.13-.95-5.54-1.23-7.01-.09-.46-.35-.86-.74-1.12l-8.15-5.57c-.98-.67-2.33-.2-2.68.94l-2.72,8.99Z"/><path class="cls-1" d="m344.64,234.97s9.53-10.55,11.51-9.25c1.97,1.31,5.78,9.7,5.99,14.5s1.31,8.49-1.76,7.51-12.98-9.23-12.98-9.23l-2.75-3.53Z"/><path class="cls-3" d="m335.95,236.63c.83-.04,1.73-.18,2.48-.44.26-.08.47-.26.71-.37.86-.39,1.63-1.15,2.04-2.19.19-.45.24-.96.33-1.45.06-.32.03-.65.09-.98.08-.34.16-.66.25-1.04.06-.23.13-.21.33-.06.18.16.63.45.88.88.05.09.12.19.15.28l.07.3c.05.2.09.4.12.6.06.41.11.84,0,1.25-.15.83-.48,1.66-1.02,2.37-.63.82-1.28,1.74-2.23,2.29-1.07.58-2.07.8-3.1.98-.63.11-1.28.15-1.92.19-.98.04-1.96-.08-2.94-.26-.76-.14-1.59-.24-2.36-.67-.18-.08-.35-.17-.5-.3-.58-.46-.54-.83-.07-1.33.11-.12.22-.24.34-.35.42-.35.92-.46,1.21-.36.48.13.89.19,1.31.31.42.1.89.19,1.39.26.75.09,1.58.12,2.42.03v.06Z"/><path class="cls-3" d="m351.95,239.4c.69.79,1.41,1.56,2.19,2.26.29.25.62.45.9.7,1,.9,2.08,1.73,3.27,2.27.53.24,1.09.34,1.62.4.35.04.66-.06,1,.02.17.02.35.04.53.04.19.02.38-.01.55-.08.23-.06.32.07.25.37-.08.26-.25.89-.78,1.32-.45.42-1.02.51-1.54.51-.53.03-1.04-.02-1.5-.16-.94-.26-1.77-.7-2.5-1.22-.87-.63-1.84-1.11-2.68-1.76-.91-.73-1.73-1.54-2.52-2.37-.48-.51-.95-1.04-1.41-1.58-.69-.81-1.32-1.67-1.97-2.51-.5-.66-1.09-1.25-1.58-1.99-.11-.16-.21-.33-.29-.52-.14-.34-.17-.63-.1-.83.1-.23.28-.37.54-.49.12-.06.23-.12.35-.15.2-.06.39-.03.59.02.2.06.42.14.55.29.92.84,1.64,1.95,2.54,3.03.65.8,1.31,1.62,2.04,2.39l-.04.04Z"/><path class="cls-3" d="m310.51,405.87c-.86-.61-1.36-1.39-1.66-1.99l-.2-.43c-.04-.09-.02-.07-.03-.1,0-.04-.02-.09-.04-.14-.07-.08-.12-.1-.29-.11l-1.59-.07c-.77-.03-1.55.03-2.32,0-2.74-.14-5.47-.27-8.21-.41-1.22-.05-2.44-.04-3.65-.03-.78.02-1.56,0-2.34-.06-.78-.05-1.56-.15-2.33-.42-.48-.16-.39-.36.03-.68.21-.16.51-.36.86-.58.35-.19.76-.32,1.2-.38,1.55-.23,3.11-.3,4.67-.35,1.57-.05,3.14-.07,4.73.01,1.9.13,3.88-.1,5.82-.14l3.3-.03c.86-.03,1.72,0,2.27.67.27.3.48.67.67,1.03l.21.41c.05.11.11.2.16.29.27.46.46.63.75.78.14.06.33.09.46.11,0,.01.14-.03.36-.18.32-.22.69-.53,1.09-.86.35-.28.98-.83,1.66-1.04.34-.11.72-.11,1.03-.09l.77.02c.5.01,1,.02,1.5,0,1.55-.02,3.08-.26,4.63-.41.34-.03.68-.1,1.02-.12,1.27-.02,1.65.34,1.86,1.29.05.22.11.44.13.65.07.73-.49,1.34-1.41,1.64-2.72.68-5.51.64-8.33.56-.21,0-.13-.02-.15-.02h0c.07-.06-.22.14-.38.27l-.67.51c-.24.18-.53.39-.89.61l-.3.17-.37.18c-.26.11-.67.25-1.01.28-.2.03-.34.03-.46.02l-.4-.02c-.27,0-.52-.07-.78-.14-.26-.05-.51-.13-.74-.26-.25-.1-.48-.22-.69-.38l.04-.08Z"/><path class="cls-3" d="m221.61,264.59c-.63.1-1.26.16-1.86.23-.22.03-.42.12-.64.13-.76.02-1.53.04-2.29.06-.33.02-.65.1-.95.2-.39.14-.78.3-1.23.13-.14-.05-.24-.52-.24-1.03,0-.5.07-1.08.29-1.2.79-.37,1.62-.47,2.48-.4.53.06.99-.2,1.47-.32.53-.12,1.07-.23,1.59-.37.32-.08.64-.17.95-.29.47-.17.95-.34,1.34-.64.31-.23.47-.65.68-.97.05-.07.07-.17.12-.23.19-.23.4-.11,1.02.51l.42.43c.46.49.71,1.01.61,1.33-.26,1-1.05,1.53-1.86,1.89-.6.28-1.25.44-1.86.6l-.03-.07Z"/><path class="cls-3" d="m227.28,264.59c-.84-.58-1.62-1.21-2.39-1.81-.28-.23-.6-.38-.87-.61-.94-.85-1.78-1.77-2.69-2.6-.39-.37-.83-.7-1.25-1.02-.56-.39-1.09-.83-1.52-1.39-.13-.18.01-.33.31-.44.29-.1.76-.19,1.15-.05,1.3.56,2.49,1.25,3.56,2.13.63.54,1.46.83,2.16,1.27.77.49,1.55.95,2.34,1.4.49.26.98.54,1.49.75.76.35,1.54.68,2.36.84.64.11,1.32-.03,1.96-.1.14-.01.28-.06.42-.07.51,0,.63.27.62,1.31,0,.24,0,.48,0,.71-.04.81-.35,1.43-.81,1.59-1.39.49-2.83.17-4.12-.38-.97-.41-1.88-.93-2.74-1.47l.03-.07Z"/><path class="cls-3" d="m289.57,256.11c.6-.59,1.19-1.2,1.73-1.85.2-.23.34-.51.53-.74.7-.83,1.34-1.7,1.93-2.6.25-.41.44-.84.62-1.28.21-.56.36-1.13.63-1.7.09-.18.33-.13.57.07.24.2.54.58.55,1-.02.72-.1,1.43-.28,2.11-.25.65-.54,1.28-.96,1.82-.51.65-.83,1.43-1.28,2.11-.51.74-1.06,1.45-1.62,2.14-.35.43-.71.84-1.07,1.25-.54.63-1.13,1.22-1.63,1.86-.39.5-.67,1.1-1.01,1.64-.08.12-.13.26-.22.37-.33.41-.58.41-1.17-.02-.14-.1-.28-.19-.4-.3-.43-.36-.62-.83-.49-1.21.4-1.11,1.11-1.97,1.85-2.83.55-.64,1.13-1.26,1.68-1.89l.05.04Z"/><path class="cls-3" d="m333.95,274.22c-3.87,1.48-7.83,2.64-11.83,3.51-1.46.32-2.91.68-4.39.92-5.21.8-10.46,1.13-15.68,1.09-2.32-.05-4.65-.09-6.95-.21l-2.22-.14c-.74-.07-1.47-.2-2.2-.31-1.46-.25-2.92-.56-4.32-1.06-.86-.41-.71-.47.12-.75.83-.25,2.3-.65,3.96-.65,1.48-.02,2.94-.06,4.39.04,1.46.04,2.92.07,4.38.07,2.92-.03,5.85-.01,8.81-.09,3.54-.09,7.17-.81,10.7-1.53,3.89-.79,7.75-1.79,11.49-3.13,2.31-.81,4.58-1.74,6.77-2.82,3.32-1.63,6.55-3.53,9.39-5.84,2.2-1.81,4.06-3.92,5.74-6.12.38-.48.71-.98,1.07-1.48,1.36-1.82,1.98-2.26,3.02-2.18.24.02.49,0,.7.05.69.16.65,1.3-.13,2.97-2.65,4.72-6.87,8.81-11.6,11.94-3.5,2.37-7.3,4.23-11.18,5.8l-.04-.08Z"/><path class="cls-3" d="m254.41,368.09c.89-.39,1.79-.76,2.7-1.13.33-.13.64-.31.98-.44,1.2-.42,2.43-.75,3.68-1.01.55-.13,1.11-.22,1.66-.31.35-.05.71-.13,1.08-.09.36.02.73.12,1.08.21.22.07.19.19,0,.4-.18.2-.49.55-.84.74-1.26.55-2.49.79-3.85,1.05-.81.16-1.56.59-2.32.95-.85.38-1.69.79-2.54,1.22-.52.27-1.04.53-1.55.82-.78.42-1.58.82-2.32,1.31-.58.38-1.07.86-1.61,1.3-.12.1-.22.21-.35.29-.47.32-.7.28-1.11-.19-.09-.11-.19-.21-.28-.32-.28-.38-.28-.83,0-1.16.83-.96,1.89-1.66,3-2.33.82-.49,1.68-.95,2.56-1.37l.03.05Z"/><path class="cls-3" d="m253.4,388.11c1.18,1.25,2.28,2.94,2.59,4.94.14.94.13,1.81.08,2.65,0,.19-.04.47-.05.56l-.03.12-.07.27c-.07.3-.05.47-.14.81-.09.32-.19.7-.25,1.14-.03.22-.05.46,0,.69.05.23.23.38.38.41.29.04.46-.17.62-.4.16-.24.31-.55.45-.92.13-.33.24-.73.33-1.14.11-.56.22-1.13.33-1.69.2-1.06.47-2.12.74-3.19.28-1.06.58-2.13,1.21-3.14.33-.28.51-.38.55-.35.06.03.03.21.23.56.2.34.32.78.5,1.31.18.53.29,1.14.25,1.77-.08,1.12-.12,2.25-.26,3.37l-.41,2.05c-.23,1.09-.48,2.19-.78,3.22-.56,2.12-1.33,3.73-2.02,4.56-.71.86-1.29,1.22-2.04,1.51-.22.09-.49.13-.81.19-.33.06-.74,0-1.11-.12-.8-.3-1.03-.82-1.22-1.23-.32-.9-.61-1.7-.45-3.75.1-1.12.39-2.51.58-3.77.21-1.22.36-2.74.37-3.19.03-.69,0-1.35-.11-1.94-.1-.56-.36-1.15-.69-1.68-.8-1.35-2.27-2.44-3.65-3.9-.52-.56-1.02-1.17-1.41-1.88-.41-.73-.69-1.5-.85-2.26-.34-1.53-.35-3.05-.26-4.52.16-2.28.45-4.5,1.11-6.68.14-.48.27-.96.46-1.43.77-1.73,1.44-2.13,2.31-2.02.2.02.41.03.58.09.56.21.63,1.06.34,2.21-.42,1.75-.9,3.53-1.15,5.35-.29,1.8-.51,3.64-.32,5.27l.05.45.09.42c.04.29.13.54.22.78.06.27.2.44.29.67.11.22.28.46.46.69.7.94,1.83,1.84,3.04,3.08l-.05.06Z"/><path class="cls-3" d="m271.88,404.42c1.2,1.06.88.86,1.19,1.09.11.08.26.15.43.19.15.04.44.04.34-.11-.05-.18-.25-.41-.31-.6l-.12-.3-.59-1.11-1.19-2.24-2.38-4.51c-.67-1.35-1.41-2.69-2.1-4.02-.47-.85-.85-1.74-1.2-2.65-.17-.46-.33-.92-.47-1.39-.15-.47-.17-.99-.24-1.47-.05-.63,0-.55.4-.16.2.19.51.46.9.75.36.31.71.69,1.03,1.13l.85,1.17.44.58.37.61,1.51,2.46c1.04,1.63,1.92,3.36,2.81,5.11.52,1.05,1.15,2.08,1.79,3.1l1.16,1.86c.53.86,1.07,1.76,1.44,2.57.4.91.39,1.55.32,2.07-.03.13-.03.27-.16.41-.1.17-.3.23-.45.35-.34.17-.75.28-1.14.34-.79.12-1.62.06-2.51-.22-.87-.3-1.79-.72-2.62-1.33-.6-.39-.81-.62-1.18-.91-.32-.29-.65-.58-.95-.88-.62-.6-1.18-1.22-1.74-1.86-1.67-1.93-3.08-4.03-4.46-6.1-1.08-1.61-2.21-3.15-3.21-4.82-.22-.37-.46-.72-.65-1.11-.39-.7-.47-1.26-.41-1.69.04-.42.22-.72.49-1,.13-.13.24-.28.36-.37.42-.3,1.08.11,1.9.93,1.87,2.68,3.64,5.6,5.63,8.37,1.47,2.05,3.01,4.08,4.78,5.68l-.05.06Z"/><path class="cls-3" d="m279.58,405.98s.06-.13.03-.3v-.04s-.07-.15-.07-.15l-.15-.33-.3-.67-.61-1.34c-.3-.65-.67-1.26-.97-1.91-1.06-2.31-2.12-4.61-3.18-6.92-.48-1.02-1.02-2.02-1.54-3-.34-.63-.65-1.28-.95-1.95-.29-.67-.58-1.33-.67-2.12.01-.26.07-.4.13-.4.07,0,.17.09.39.19.42.23,1.14.62,1.6,1.29.41.6.85,1.18,1.25,1.79l1.1,1.89c.72,1.27,1.42,2.56,2.01,3.92.7,1.63,1.72,3.16,2.57,4.76.47.88.92,1.77,1.37,2.66l.75,1.55c.34.7.68,1.41.88,2.06.15.5.18.92.13,1.27-.04.17-.09.31-.21.52l-.59.34c-.58.15-1.11.29-1.72.22-.29.02-.6-.09-.91-.18-.31-.08-.61-.18-.91-.36-.29-.17-.6-.28-.87-.48l-.69-.54c-.75-.66-1.44-1.35-2.04-2.08-.96-1.13-1.87-2.26-2.61-3.54-.17-.28-.33-.55-.46-.86-.43-1.15-.35-1.62-.06-1.97.07-.08.13-.18.2-.23.25-.17.6.2,1.12.84,1.47,1.91,3.1,3.91,4.91,5.34l.42.32c.12.08.33.2.37.24,0,.02,0,.01.01.03,0,.02.05.07.1.07.02,0,.07.02.07,0l.11.07Z"/><path class="cls-3" d="m285.12,400.26c-1.63-2.34-3.66-4.8-5.59-7.23-.71-.89-1.49-1.73-2.18-2.65-2.43-3.22-4.7-6.73-6.34-10.49-.74-1.65-1.39-3.35-2.01-5.02-.75-2.16-1.64-4.23-1.92-6.5.02-.76.11-.7.74-.31.33.19.7.51,1.12.9.21.2.44.41.62.66.17.25.33.53.46.83.93,2.13,1.8,4.21,2.75,6.21.94,2.01,1.82,4.02,2.89,5.99,1.27,2.35,3.19,4.48,4.98,6.64,1.97,2.38,4.03,4.71,6.03,7.19.31.38.61.77.91,1.17l.49.67c.22.3.4.6.6.9.37.6.69,1.22.84,1.8.16.59.23,1.16.04,1.73-.15.45-.52.79-.92.96-.4.21-.85.31-1.31.36-.91.09-1.97-.19-2.9-.69-1.05-.55-1.56-.94-2.2-1.4-.61-.46-1.18-.95-1.74-1.45-1.72-1.55-3.32-3.13-4.8-4.87-.32-.38-.65-.75-.96-1.15-.59-.74-.79-1.35-.92-1.79-.11-.45-.07-.77.09-1.1.07-.15.12-.32.21-.43.29-.37.98.06,1.97.96,1.37,1.39,2.67,2.88,4.08,4.27,1.39,1.39,2.87,2.75,4.39,3.72l.38.23h0s0,0,0,.01c0,0,.02.03.05.04.08.02.08-.06.06-.12l.07-.05Z"/><path class="cls-3" d="m304.02,396c-1.2-.03-2.4-.06-3.6-.06-.44,0-.87.07-1.31.07-1.55-.03-3.11-.06-4.66-.09-.69-.01-1.38.04-2.06.09-.88.02-1.77.04-2.66-.26-.28-.34-.24-.23-.02-.6.22-.36.63-.78,1.12-.95.44-.13.87-.28,1.31-.37.44-.04.88-.08,1.33-.1.89-.04,1.78-.06,2.69.04,1.09.1,2.2-.09,3.3-.13,1.21-.04,2.43-.06,3.65-.08l2.25-.02c1.14-.02,2.28.01,3.42-.03.88-.04,1.75-.21,2.66-.28.2-.01.4-.05.6-.05.76.03.99.29,1.03.98,0,.16.03.32.02.48-.03.53-.38.93-.86,1.04-1.45.32-3,.35-4.6.37-1.19,0-2.39,0-3.59.01v-.06Z"/><path class="cls-3" d="m349.25,395.19c.27.51.36.93.39,1.31.02.38,0,.7-.16,1.08-.09.18-.22.4-.4.57-.19.17-.38.28-.56.37-.38.16-.76.19-1.18.18-.59-.03-1.3-.17-2.12-.6-.71-.35-1.44-.9-2.1-1.39l-.65-.54c-.19-.16-.38-.33-.56-.51-.73-.69-1.43-1.4-2.13-2.1-.62-.62-1.27-1.21-1.87-1.84-.78-.8-1.56-1.59-2.17-2.57-.19-.34-.02-.35.29-.25.32.11.87.29,1.39.65.89.67,1.85,1.26,2.72,1.95.87.69,1.72,1.39,2.55,2.12.25.22.51.43.78.62l.4.3.34.24c.19.13.37.23.58.37.24.15.53.35.9.38.18.02.35-.1.34-.24,0-.13-.05-.26-.11-.39-.15-.32-.4-.66-.7-1.04-.06-.08-.38-.44-.59-.69l-.71-.79c-.48-.53-.96-1.04-1.46-1.54-.79-.76-1.64-1.45-2.43-2.2-.18-.17-.36-.31-.52-.5-.29-.34-.46-.59-.51-.83-.02-.26.03-.47.15-.71.05-.11.09-.22.15-.3.1-.15.26-.2.5-.19.24,0,.57.04.84.24.87.51,1.65,1.13,2.44,1.76.76.66,1.47,1.4,2.19,2.14.53.55,1.05,1.12,1.57,1.71l.65.75c.24.28.49.57.71.85.46.57.85,1.13,1.12,1.64h-.08Z"/><path class="cls-3" d="m341.83,410.01h.03c.16.05.21-.08.2-.2,0-.03,0-.07-.02-.11,0-.02,0-.04-.01-.06v-.03s-.07-.13-.07-.13c-.18-.35-.37-.7-.58-1.06-.32-.54-.71-1.04-1.05-1.58-1.18-1.93-2.44-3.86-3.61-5.86-.55-.88-1.09-1.75-1.64-2.62-.35-.56-.65-1.16-.91-1.78-.26-.62-.48-1.28-.47-2,.11-.47.14-.39.54-.16.38.25,1.03.6,1.42,1.17.35.51.76,1,1.13,1.5l1.09,1.57c.73,1.06,1.49,2.12,2.17,3.26.8,1.37,1.92,2.61,2.87,3.96.52.76,1.01,1.49,1.51,2.37.37.63.65,1.28.83,1.9.14.62.17,1.2-.07,1.74-.17.4-.56.6-.89.8-1.03.38-2.17.46-3.29,0l-.22-.07-.2-.11-.34-.19c-.2-.12-.42-.23-.6-.37-.37-.26-.74-.53-1.07-.83-.68-.57-1.28-1.2-1.88-1.82-.91-.98-1.79-1.94-2.52-3.07-.17-.24-.32-.49-.46-.76-.43-1.04-.35-1.49-.06-1.82.07-.08.13-.16.2-.21.26-.16.59.16,1.09.69,1.43,1.6,3.01,3.27,4.72,4.54.63.46,1.28.89,1.88,1.12.15.07.11.06.12.07,0,0,.01.02.02.02.02.02.05.03.08.04l.06.08Z"/><path class="cls-3" d="m344.85,404.29c-1.25-2.08-2.73-4.29-4.19-6.44-.54-.79-1.15-1.52-1.68-2.32-1.85-2.82-3.67-5.71-5.28-8.73-.72-1.34-1.39-2.72-2.02-4.08-.4-.88-.8-1.76-1.14-2.65-.37-.88-.59-1.82-.71-2.79.06-.66.14-.61.74-.31.31.15.66.39,1.06.69.19.15.41.32.59.51.16.2.31.42.43.66.87,1.71,1.77,3.33,2.71,4.93.49.79.91,1.62,1.37,2.44.46.83.92,1.66,1.38,2.49,1.11,2.02,2.69,3.85,4.1,5.76,1.55,2.11,3.11,4.22,4.62,6.41l.69,1.03.37.59.47.78c.31.52.56,1.04.78,1.55.18.5.28.98.32,1.44-.02.33,0,.7-.22,1.02-.21.35-.58.42-.89.59-.15.1-.35.11-.54.14l-.57.07c-.39-.01-.78,0-1.17-.07-.83-.24-1.63-.55-2.4-.92-.41-.24-.67-.39-.95-.57l-.79-.55c-1.58-1.19-3.05-2.44-4.36-3.87-.28-.32-.59-.61-.85-.96-.94-1.3-.92-1.94-.61-2.52.08-.14.14-.29.23-.39.31-.35.94-.01,1.8.69,1.19,1.1,2.32,2.28,3.55,3.33.6.54,1.24,1.02,1.86,1.48.32.2.63.44.95.6.23.12.14.09.16.09h0s0,.03.07.04c.05,0,.06-.04.04-.11l.07-.05Z"/><path class="cls-3" d="m316.15,398.51c.76-.73,1.52-1.49,2.4-2.25.33-.28,1.27-1.06,2.1-1.37.82-.35,1.83-.29,2.52.23.32.29.6.68.9,1.02l.61.95.85,1.34,1.7,2.64c.84,1.27,1.77,2.47,2.65,3.68,1.16,1.57,2.38,3.09,3.74,4.36.34.31.69.62,1.05.88.17.14.37.26.53.36.09.07.16.1.25.15.33.18.77.31,1.21.22.08-.01.15-.04.23-.07.03-.02.09-.02.1-.05,0-.04,0-.07-.01-.1-.04-.13-.11-.26-.19-.39-.15-.26-.3-.51-.5-.82l-.97-1.43-1.04-1.49c-.7-.99-1.37-1.99-2.04-3-.86-1.29-1.71-2.59-2.48-3.96-.38-.69-.69-1.41-.99-2.14-.15-.37-.29-.74-.41-1.11-.12-.38-.18-.78-.26-1.17-.13-1,.03-.89.67-.28.7.59,1.86,1.62,2.88,3,1.43,2.27,3.01,4.48,4.59,6.73.81,1.2,1.62,2.39,2.43,3.59.7,1.06,1.58,2.25,1.76,3.16.08.44.04.78-.06,1.09-.03.15-.16.38-.35.5-.17.15-.32.31-.54.4-.95.41-2,.59-3.18.35-.36-.04-.75-.22-1.11-.32-.37-.16-.73-.35-1.1-.53l-.41-.26c-.12-.07-.23-.15-.34-.23-.22-.16-.44-.31-.64-.48-.83-.65-1.58-1.36-2.29-2.09-1.42-1.46-2.67-3.02-3.83-4.61-1.27-1.75-2.44-3.55-3.6-5.34l-.87-1.34c-.13-.19-.2-.41-.39-.54-.21-.1-.44.02-.63.13-.11.07-.16.1-.34.24-.19.15-.37.31-.56.48-.92.84-1.83,1.79-2.78,2.72-.48.47-.97.93-1.5,1.38-.27.22-.54.45-.84.66-.12.1-.36.24-.56.36-.2.14-.43.22-.64.33-.66.28-1.37.38-2.03.13-.64-.26-1.12-.81-1.43-1.43-.32-.62-.36-1.38-.31-2.07.05-.6.19-1.11.32-1.64.61-2.03,1.47-3.81,2.19-5.64,1.16-2.8,1.9-5.67,2.16-8.43.05-.61.03-1.2.04-1.8,0-1.11-.06-1.84-.06-2.38,0-.54.11-.9.3-1.27.09-.16.16-.37.25-.49.16-.2.41-.11.8.26.21.18.4.45.59.79.21.34.38.76.55,1.25.49,1.45.68,3.03.59,4.56-.04,1.54-.39,3.04-.82,4.47-.85,2.86-2.16,5.53-3.14,8.03-.35.91-.67,1.85-.73,2.5-.02.07-.02.04-.01.08.09-.05-.25.26.75-.52.72-.59,1.45-1.32,2.2-2.06l.06.05Z"/><path class="cls-3" d="m238.76,343.88c1.54-.17,3.09-.36,4.62-.63.56-.1,1.1-.28,1.66-.38.99-.16,1.98-.33,2.96-.52.99-.17,1.98-.35,2.96-.58.87-.2,1.71-.49,2.53-.81,1.04-.44,2.16-.64,3.29-.9.36-.06.44.19.31.62-.13.42-.45,1.09-.99,1.56l-.74.58-.37.29-.41.18c-.55.24-1.1.48-1.67.68-1.12.41-2.28.74-3.46.96-1.42.23-2.81.78-4.23,1.13-1.56.37-3.14.68-4.71.97l-2.92.5c-1.47.25-2.97.4-4.43.69-1.14.21-2.22.63-3.37.9-.25.06-.49.16-.75.2-.96.12-1.29-.14-1.53-1.08-.06-.22-.13-.43-.16-.65-.12-.73.23-1.37.85-1.67,1.87-.81,3.87-1.13,5.92-1.46,1.52-.26,3.07-.45,4.61-.68l.02.08Z"/><path class="cls-3" d="m240.57,358.9c-.41.39-1.01.69-1.46.81-.48.1-.97.12-1.43.03-.34-.08-.67-.12-.98-.31-.9-.56-1.52-1.57-1.49-2.59.06-.19.1-.36.12-.52.05-.24.11-.47.19-.69.13-.22.18-.38.3-.55.13-.21.28-.41.45-.58.16-.18.37-.34.62-.4.16-.04.31.31.44.68.12.37.27.72.2.82-.1.15-.05.38-.04.51.01.04-.12.02-.11.08-.11.06-.1.09-.16.18-.09.24.1.31.22.41.08.07.17.12.29.16.1.04.27.01.31,0,.09-.03.19-.11.24-.19.05-.13.12-.16,0-.18-.05,0-.14.05-.19.14-.03.04-.05.1-.05.15,0-.04,0-.09,0-.15,0-.05-.02-.1-.03-.14-.03-.08-.05-.1-.06-.11,0-.01,0,0,0,0h0s-.06-.06-.09-.1c-.08-.07-.16-.15-.25-.24-.17-.16-.35-.3-.53-.45-.3-.25-.56-.5-.67-.8-.12-.29-.08-.62.14-.88.66-.78,1.71-.98,2.58-.79.88.18,1.78.79,2.28,1.85.36.78.37,1.59.18,2.27-.19.67-.53,1.21-.95,1.63l-.06-.05Z"/><path class="cls-3" d="m312.46,349.01c1.4.31,2.84.58,4.28.8.53.08,1.06.06,1.59.14,1.88.28,3.76.57,5.63.85.84.11,1.69.15,2.52.17,1.07.15,2.17.1,3.21.74.32.25.26.32-.05.65-.32.41-.87.94-1.48,1.07-.55.11-1.09.2-1.64.28-.55.06-1.09.02-1.63,0-1.09-.05-2.19-.11-3.29-.36-1.31-.28-2.7-.17-4.06-.29-1.49-.12-2.99-.31-4.48-.52-.92-.12-1.84-.3-2.76-.43-1.4-.24-2.78-.58-4.18-.88-1.09-.23-2.22-.31-3.39-.68-.26-.09-.53-.15-.78-.26-.47-.18-.75-.53-.83-.81-.09-.3,0-.62.24-1.04.11-.19.21-.39.33-.56.44-.57,1.12-.85,1.62-.82,1.49.21,3.18.59,5,.97,1.34.27,2.74.61,4.16.85v.09Z"/><path class="cls-3" d="m313.33,364.27c-.65.72-1.31,1.24-2.41,1.64-.42.12-.95.34-1.61.15-.58-.18-1.06-.58-1.3-.99-.25-.41-.31-.78-.34-1.09-.03-.63.09-1.11.24-1.57.19-.4.34-.77.57-1.12.14-.22.26-.48.49-.69.21-.2.55-.4.92-.35.24.02.15.34.13.67-.05.34.16.7.19.76.01.1,0,.19,0,.34.04.15.08.3.13.45.14.29.02.52-.07.72-.03.05-.04.11-.03.12,0,.02.02,0-.11.06-.09.04-.2.14-.24.15-.03.02-.05.04-.08.07l-.03.04c.05-.05,0,0,0-.01-.02,0-.06.1-.05.07,0,0,.03-.08,0-.25,0-.16-.16-.56-.1-.44.03,0,.09-.02.15-.04.14-.06.3-.17.44-.3.18-.16.34-.36.42-.51.05-.12.08-.14.09-.22,0-.08-.04-.18-.15-.25-.17-.12-.51.04-.59.22-.02.04-.03.14-.02.06,0-.09,0-.12,0-.16,0-.07-.1-.47-.26-.94l-.25-.68c-.31-.74-.3-1.49.27-1.77.81-.4,1.76-.31,2.53.07.77.39,1.42,1.07,1.78,2.02.28.68.32,1.6.11,2.29-.19.67-.48,1.11-.77,1.51l-.07-.04Z"/><path class="cls-3" d="m279.55,328.97c1.8.49,3.66.69,5.54.73.69-.03,1.37-.07,2.06-.11,2.45-.06,4.92-.54,7.35-1.25,1.07-.35,2.13-.73,3.15-1.19,1.32-.58,2.7-1.04,4.12-1.48.45-.13.47.03.24.43-.23.38-.66,1.1-1.31,1.7-2.32,2.13-5.27,3.26-8.35,3.89-.92.17-1.86.38-2.79.63-.95.17-1.9.43-2.87.5-.53.04-1.06.09-1.6.11-.53.02-1.07-.02-1.6-.03-1.07,0-2.12-.2-3.17-.3l-1.91-.38c-.64-.13-1.25-.33-1.88-.49-.95-.23-1.85-.61-2.78-.9-.9-.34-1.8-.68-2.7-1.02-.69-.27-1.39-.49-2.1-.71l-2.09-.7c-.31-.1-.61-.19-.91-.33-1.1-.49-1.3-.95-1.09-1.89.04-.21.07-.42.13-.6.19-.59.95-1.01,1.82-.84,1.27.31,2.51.67,3.72,1.13,1.23.4,2.42.91,3.62,1.36.89.37,1.79.63,2.68.96.9.24,1.8.57,2.72.71v.09Z"/><path class="cls-3" d="m273.03,205.05c1.03.03,2.07.1,3.1.24.38.05.76.03,1.13.1,1.32.26,2.59.74,3.81,1.27.54.23,1.09.45,1.61.71.68.3,1.37.66,1.82,1.32.14.2-.1.47-.48.7-.38.22-.9.45-1.27.37-.62-.22-1.24-.37-1.84-.59-.59-.25-1.19-.49-1.81-.78-.75-.34-1.61-.31-2.43-.42-.91-.11-1.83-.17-2.78-.17-.58,0-1.16,0-1.75.06-.88.07-1.78.14-2.65.35-.67.17-1.3.5-1.95.76-.14.06-.28.14-.42.18-.55.16-.77,0-1.05-.72-.06-.17-.14-.33-.19-.5-.18-.57-.06-1.1.31-1.37,1.1-.8,2.39-1.17,3.75-1.35,1-.15,2.04-.2,3.08-.23v.07Z"/><path class="cls-3" d="m126.26,279.03l-3.83,1.83-3.8,1.91c-2.54,1.25-5.05,2.6-7.56,3.92-1.84.96-3.6,2.07-5.43,3.04-6.43,3.48-12.89,6.94-19.26,10.56-2.83,1.6-5.63,3.29-8.39,4.97-3.58,2.09-7.04,4.43-10.94,5.97-1.25.42-1.23.1-.58-.94.32-.53.84-1.19,1.49-1.94.33-.37.68-.77,1.09-1.14.42-.35.88-.7,1.38-1.02l5.35-3.42c1.8-1.12,3.63-2.18,5.46-3.26,3.66-2.14,7.36-4.23,11.15-6.23,4.52-2.4,9.02-5.25,13.62-7.76,5.04-2.79,10.16-5.45,15.31-8.04,3.19-1.56,6.38-3.12,9.61-4.59,4.86-2.29,9.87-4.32,14.79-6.39,1.93-.77,3.83-1.56,5.72-2.37,1.89-.8,3.81-1.52,5.73-2.27.85-.33,1.67-.68,2.55-.94,3.24-1.03,4.36-1.03,5.31-.33.22.16.48.31.63.49.5.61-.65,1.59-2.9,2.54-6.72,2.73-13.84,5.33-20.86,8.38-2.61,1.12-5.22,2.27-7.82,3.44-2.58,1.22-5.19,2.37-7.74,3.67l-.05-.08Z"/><path class="cls-3" d="m129.27,305.9l-18.29,5.53-6.63,2.14c-7.83,2.4-15.64,4.85-23.44,7.36-3.45,1.14-6.89,2.36-10.27,3.61-4.34,1.61-8.64,3.37-13.18,4.48-1.43.3-1.3.09-.32-.74.96-.9,2.84-2.3,5.28-3.41,1.07-.51,2.18-.95,3.28-1.37l3.32-1.29c2.21-.86,4.44-1.68,6.67-2.48,4.46-1.62,8.97-3.15,13.54-4.55,5.48-1.64,11.06-3.7,16.62-5.51,6.11-1.98,12.24-3.9,18.38-5.79,3.78-1.16,7.56-2.33,11.33-3.49,5.71-1.78,11.47-3.51,17.11-5.38,4.38-1.45,8.61-3.08,12.89-4.67.94-.35,1.85-.72,2.81-1.05,3.53-1.25,4.74-1.41,5.81-.75.24.15.54.28.72.45.58.59-.67,1.66-3.22,2.74-7.55,3.19-15.74,5.89-23.97,8.52-6.13,1.9-12.28,3.82-18.42,5.73l-.03-.08Z"/><path class="cls-3" d="m412.83,338.66c4.47,2.37,8.94,4.73,13.47,6.97,1.65.83,3.35,1.53,5.01,2.34,5.83,2.87,11.72,5.61,17.69,8.18,2.64,1.17,5.38,2.12,8.06,3.1,3.45,1.26,6.96,2.36,10.31,3.97,1,.66.81.76-.28,1-.55.13-1.29.19-2.18.21-.44,0-.92,0-1.42-.03-.25-.02-.51-.04-.77-.07-.25-.05-.51-.1-.77-.17-1.84-.49-3.67-1.01-5.5-1.53-1.82-.56-3.58-1.27-5.37-1.92-3.54-1.39-7.07-2.83-10.48-4.56-4.1-2.02-8.5-3.81-12.71-5.82-4.62-2.22-9.2-4.53-13.74-6.9-2.79-1.47-5.58-2.93-8.37-4.4-4.22-2.22-8.42-4.54-12.63-6.69-3.27-1.68-6.58-3.14-9.86-4.71-.72-.34-1.45-.65-2.17-1.02-2.65-1.39-3.36-2.08-3.48-3.22-.03-.26-.1-.54-.07-.77.09-.78,1.45-.74,3.51.06,6.07,2.42,12.12,5.61,18.21,8.78,4.51,2.37,9.04,4.75,13.56,7.12l-.04.08Z"/><path class="cls-3" d="m415.88,317.68l8.93,7.34c1.09.89,2.23,1.71,3.32,2.6,3.83,3.15,7.65,6.31,11.54,9.38,1.72,1.37,3.49,2.7,5.25,3.99,2.27,1.65,4.61,3.21,6.55,5.31.61.65.36.8-.5.71-.43-.04-1.01-.13-1.7-.27-.67-.16-1.38-.45-2.08-.86-4.84-3.09-9.45-6.52-13.82-10.32-2.63-2.26-5.58-4.32-8.36-6.5-3.06-2.4-6.08-4.85-9.09-7.31l-5.56-4.54c-2.82-2.28-5.6-4.62-8.44-6.83-2.2-1.72-4.48-3.27-6.71-4.9-.49-.36-.99-.69-1.48-1.06-1.81-1.39-2.2-2.05-2.06-2.99.03-.22.04-.45.11-.64.23-.63,1.29-.46,2.72.42,4.18,2.67,8.28,5.87,12.37,9.11,3.02,2.43,6.05,4.87,9.08,7.31l-.04.07Z"/><path class="cls-3" d="m203.5,401.6c-6.09-.11-12.18-.19-18.27-.21-2.22,0-4.44.1-6.67.09l-23.53-.24c-3.48-.02-6.98.07-10.43.09-2.22.03-4.44.06-6.67.05l-1.67-.02-1.67-.13c-1.11-.08-2.22-.2-3.33-.36-1.38-.21-1.19-.54-.02-1.08,1.18-.53,3.32-1.39,5.87-1.58l6.77-.28c2.26-.09,4.52-.19,6.78-.18,4.53-.04,9.07,0,13.64.11,5.46.15,11.14-.19,16.73-.22,6.14-.04,12.29-.03,18.44,0,3.79.04,7.57.07,11.35.11,5.73.04,11.49.22,17.18.29,2.21,0,4.41.02,6.6,0,2.19-.04,4.38-.03,6.58,0,.97.01,1.92-.01,2.9.03.45.05.86.11,1.24.17.37.09.71.21,1.02.31.62.2,1.11.4,1.51.56.81.31,1.27.58,1.62.96.16.18.37.36.46.53.14.29-.16.51-.83.67-.67.14-1.71.31-3.04.61-.99.25-1.96.29-2.95.29-.98,0-1.97.01-2.96.02-1.99-.02-3.99-.03-6.01-.05-4.04-.07-8.14-.14-12.25-.21-6.11-.09-12.26-.22-18.4-.24v-.1Z"/><path class="cls-3" d="m383.36,399.43c4.28.16,8.56.31,12.85.4,1.56.06,3.13-.01,4.69.05,5.51.22,11.03.37,16.55.54,2.45.1,4.91.06,7.34.09,1.56.03,3.12.05,4.69.1,1.56,0,3.13.3,4.69.41.97.04.85.15.03.33-.41.09-.99.26-1.69.48-.37.11-.74.23-1.14.35-.2.07-.41.11-.62.19-.22.03-.43.06-.66.1-3.18.42-6.36.88-9.55.99-1.59.09-3.19.15-4.79.19-1.6,0-3.21-.06-4.81-.12-3.85-.17-7.85.09-11.78.11-4.33.03-8.66-.1-12.98-.19-2.66-.07-5.33-.14-7.99-.2-4.03-.09-8.08-.27-12.09-.3-3.11-.03-6.17.19-9.26.26-.68.01-1.34.05-2.03.03-1.27-.03-2.1-.14-2.68-.39-.58-.23-.9-.6-1.15-1.12-.11-.23-.27-.46-.33-.67-.21-.68.85-1.42,2.71-1.67,1.38-.15,2.77-.26,4.17-.35,1.4-.07,2.82-.09,4.25-.11,2.85-.03,5.74.02,8.64.08,4.3.11,8.63.22,12.94.32v.1Z"/><path class="cls-3" d="m344.23,230.83c1.7,2.93,3.67,5.72,5.9,8.27.82.93,1.72,1.76,2.6,2.6,1.54,1.49,3.22,2.86,5,3.74.87.43,1.79.72,2.5.64.18-.01.33-.09.47-.11.11-.06.21-.13.28-.23.12-.14.3-.58.39-1.06.31-1.73.02-3.77-.27-5.68-.2-1.24-.46-2.48-.68-3.74-.19-1.27-.35-2.55-.34-3.87.12-.85.24-.71.63-.08.38.62,1.07,1.71,1.56,3.1.72,2.5,1.45,5.02,1.8,7.8.08.7.13,1.42.1,2.19-.02.39-.06.79-.14,1.22-.1.44-.18.85-.51,1.44-.29.54-.7,1.02-1.24,1.31-.25.19-.52.25-.77.35-.25.08-.5.19-.74.2-.49.07-.98.1-1.4.03-.46-.03-.85-.13-1.24-.25-1.86-.55-3.31-1.52-4.71-2.49-1.39-1-2.67-2.1-3.85-3.27-2.57-2.6-4.77-5.48-6.73-8.49-1.21-1.85-2.3-3.78-3.31-5.75-1.54-2.97-2.78-6.11-3.82-9.27-.8-2.46-1.58-4.9-2.03-7.47-.08-.57-.23-1.12-.26-1.7-.2-2.15.16-2.86.96-3.27.19-.1.38-.22.56-.27.63-.16,1.13.69,1.36,2.11.66,4.24,1.81,8.57,3.47,12.81,1.25,3.14,2.73,6.23,4.52,9.14l-.06.05Z"/><path class="cls-3" d="m255.62,369.1c-2.61.82-5.17,1.78-7.68,2.87-1.25.55-2.49,1.13-3.7,1.75-.6.32-1.22.62-1.81.95l-.9.49-1.68.98-.97.2c-.32.04-.64.22-.97.04-.59-.22-1.1-.74-1.54-1.42-.22-.33-.42-.68-.62-1.04l-.45-.83-.61-1.22c-.79-1.63-1.51-3.25-2.2-4.89-1.39-3.27-2.66-6.58-3.86-9.91-2.39-6.66-4.48-13.43-6.2-20.31-1.75-7.02-3.23-14.15-3.92-21.41-.58-6.39-.66-12.91.5-19.37.29-1.61.67-3.22,1.16-4.8.49-1.61,1.1-3.1,1.68-4.58,1.19-2.97,2.48-5.88,3.83-8.77,5.46-11.5,11.88-22.55,19.49-32.77,3.37-4.54,7.01-8.9,10.92-13.01,3.91-4.11,8.16-7.91,12.77-11.21,2.97-2.1,6.11-4,9.42-5.58l2.52-1.11c.85-.35,1.72-.64,2.59-.97.84-.34,1.8-.54,2.7-.81.93-.15,1.85-.41,2.8-.46,1.88-.26,3.79-.17,5.68.03,1.88.26,3.72.79,5.49,1.49,1.75.76,3.39,1.75,4.87,2.96.72.64,1.39,1.31,1.97,2.08l.45.56.38.6c.25.4.53.79.69,1.24.23.55.42,1.01.56,1.41.1.41.18.75.24,1.01.11.52.12.76.05.75-.08,0-.25-.26-.53-.71-.14-.22-.3-.5-.5-.8-.24-.29-.5-.61-.8-.98-1.24-1.39-3.22-3.07-5.95-4.28-1.33-.65-2.9-1.08-4.55-1.44-.42-.07-.84-.15-1.27-.22-.43-.05-.87-.09-1.31-.12-.44-.08-.89-.07-1.34-.1-.45-.02-.91-.06-1.38-.03-1.65-.03-3.28.26-4.88.61-1.55.4-3.22,1.04-4.82,1.69-3.21,1.33-6.28,3.06-9.2,5.01-2.92,1.96-5.73,4.12-8.4,6.47-2.66,2.36-5.19,4.88-7.62,7.51-4.84,5.28-9.25,11-13.3,17-4.07,5.99-7.78,12.25-11.19,18.69-2.04,3.85-3.95,7.82-5.7,11.89-.87,2.03-1.71,4.09-2.48,6.16-.73,2-1.27,4.1-1.65,6.24-.75,4.29-.91,8.73-.73,13.16.18,4.43.7,8.87,1.41,13.26,1.47,9,3.79,17.89,6.61,26.61,1.41,4.36,2.96,8.68,4.65,12.94.85,2.13,1.73,4.24,2.68,6.31l.72,1.54.37.76.35.68c.12.22.24.44.38.65.13.34.41.02.61-.06l1.27-.71c.59-.33,1.2-.64,1.81-.96,5.52-2.83,11.38-4.94,17.39-6.4,3-.73,6.04-1.3,9.1-1.72l2.29-.28,1.78-.19c.19-.03.39-.03.58-.09.12-.16.09-.38.08-.56-.01-.19-.05-.39-.08-.58l-.09-.42-.12-.54c-.52-2.18-1.2-4.39-1.87-6.58l-2.06-6.6c-1.38-4.41-2.77-8.82-4.15-13.23-1.35-4.42-2.66-8.86-3.83-13.33-1.16-4.48-2.24-8.98-2.86-13.6-.23-1.8-.39-3.62-.31-5.5.05-.92.14-1.95.45-2.83.28-.89.49-1.84.89-2.65,1.35-3.41,3.19-6.47,5.06-9.5,3.82-6,8.09-11.63,12.72-17.02,2.05-2.36,4.09-4.65,6.31-6.9,8.32-8.28,12.1-9.9,14.68-10.39.6-.1,1.35-.27,1.72-.25.62.03-.07.73-1.72,1.89-.81.62-1.82,1.48-3.04,2.45-1.17,1.08-2.62,2.19-4.12,3.64-4.55,4.17-8.8,8.84-12.86,13.74-4.04,4.91-7.89,10.08-11.3,15.51-.79,1.38-1.67,2.73-2.38,4.14l-1.09,2.1-.9,2.11c-.17.36-.27.7-.36,1.04l-.31,1.02c-.12.35-.18.66-.23.97-.04.33-.08.67-.09,1.03-.07,1.43.04,2.98.24,4.54.38,3.13,1.06,6.32,1.82,9.5.76,3.18,1.63,6.36,2.55,9.53,2.72,9.44,5.9,18.79,8.81,28.35.35,1.2.69,2.41,1.02,3.64l.47,1.87.21.96.1.52c.06.29.1.6.14.89.15,1.19.21,2.4-.43,3.17-.06.11-.17.21-.2.34-.07.11-.19.14-.28.21-.21.12-.41.23-.65.35l-.35.18-.44.07c-.29.05-.59.09-.9.12l-2.31.25-1.8.22c-4.8.64-9.53,1.68-14.13,3.14l-.05-.07Z"/><path class="cls-3" d="m335.86,332.46c.38-5.68,1.09-11.37,2.42-16.95l.75-3.05c.25-1.02.56-2,.86-3,2.28-6.96,5.23-13.58,7.99-20.21,1.23-2.94,2.27-5.96,3.23-8.95.33-.96.62-1.92.89-2.89.29-.97.56-1.94.83-2.91.3-.97.5-1.95.81-2.92.34-.96.6-1.94.93-2.92.42-1.22.33-1.06.43.04.04.55.2,1.35.31,2.32.04.48.12,1.01.12,1.57-.02.55-.03,1.14-.14,1.73-.58,4.22-1.7,8.35-3.17,12.29-1.45,3.96-3.05,7.83-4.76,11.65-2.04,4.57-3.65,9.49-5.05,14.35-1.52,5.31-2.39,10.83-2.88,16.39-.33,3.42-.43,6.87-.48,10.32-.03,5.23.12,10.49.53,15.69.32,4.04.87,7.98,1.35,11.96.11.88.24,1.73.33,2.62.32,3.29.17,4.36-.69,5.14-.19.18-.38.41-.58.51-.66.37-1.38-.93-1.77-3.31-1.2-7.09-2.04-14.63-2.38-22.29-.27-5.68-.28-11.43.02-17.17h.08Z"/><path class="cls-3" d="m299.73,359.14c-.55-6.27-.67-12.53-.61-18.8.03-2.29,0-4.58.14-6.87.25-4.04.67-8.08,1.49-12.11.22-1.01.46-2.01.76-3.01.31-.97.61-1.95.96-2.9.66-1.92,1.43-3.79,2.19-5.66,1.37-3.3,2.86-6.53,4.16-9.77,1.69-4.16,2.95-8.4,4.28-12.72.45-1.35.35-1.18.41.04.05.69.11,1.56.18,2.56.04,1.07-.09,2.3-.31,3.62l-.36,1.74-.47,1.71c-.33,1.13-.67,2.26-1.05,3.36-.74,2.22-1.56,4.4-2.37,6.55-1.68,4.28-3.4,8.48-4.64,12.79-.74,2.53-1.15,5.29-1.4,8.08-.25,2.79-.35,5.62-.43,8.43-.18,6.18-.03,12.4.35,18.6.23,3.81.54,7.64,1.12,11.37.12.73.25,1.46.4,2.15.08.35.16.69.26.99.08.26.13.42.3.56.05.06.12.1.18.14l.26.21c.15.15.41.25.61.38l.64.36.7.31c.46.21.94.41,1.44.57.5.16.98.37,1.49.49,2.01.61,4.11.99,6.18,1.34,4.39.64,8.77.76,13.11.53.95-.06,1.89-.13,2.84-.23,1.78-.11,2.91-.27,3.76-.16.83.1,1.35.33,1.82.71.21.17.48.33.62.5.24.3.02.64-.6,1.04-.31.2-.72.42-1.23.64-.5.23-1.11.32-1.8.47-4.07.73-8.3.82-12.54.56-4.25-.29-8.52-.9-12.8-2.11-.57-.15-1.15-.33-1.73-.52-.58-.18-1.16-.37-1.75-.62l-.88-.36c-.3-.13-.6-.31-.9-.46-.31-.18-.59-.28-.91-.52l-.48-.35c-.21-.16-.41-.34-.65-.49-.6-.71-1.09-1.83-1.19-2.3-.16-.58-.29-1.11-.4-1.64-.22-1.05-.38-2.07-.54-3.1-.3-2.04-.53-4.06-.73-6.08l.09-.02Z"/><path class="cls-3" d="m475,340.65c.69-1.08,1.31-2.21,1.88-3.36.3-.57.54-1.16.81-1.74.15-.31.24-.56.33-.8.08-.26.18-.53.25-.81.28-1.11.44-2.31.38-3.44-.06-1.12-.29-2.23-.78-2.97-.33-.55-.84-.93-1.36-1.1-.46-.15-1.06-.12-1.79.11-1.3.42-2.69,1.33-3.99,2.34-1.31,1.02-2.58,2.17-3.82,3.35-2.48,2.39-4.85,4.94-7.24,7.48-2.11,2.27-4.22,4.58-6.41,6.77-1.41,1.41-2.85,2.8-4.41,4.07-.79.63-1.63,1.19-2.5,1.72-.87.52-1.77,1-2.74,1.33-1.21.4-1.07.24-.29-.5.77-.77,2.04-2.21,3.58-3.78,2.9-2.6,5.56-5.55,8.21-8.55,2.68-2.97,5.35-6.01,8.24-8.93,1.74-1.74,3.47-3.56,5.45-5.26.98-.85,2.04-1.68,3.26-2.37,1.21-.67,2.69-1.3,4.46-1.13.47.03.96.21,1.41.36.41.21.84.39,1.19.69.77.53,1.32,1.26,1.77,2,.82,1.52,1.12,3.11,1.16,4.62.04,1.53-.12,3.02-.53,4.48-.09.37-.22.73-.35,1.1-.13.35-.27.66-.41.99-.26.66-.56,1.3-.87,1.93-1.49,3.14-3.41,6.05-5.55,8.76-3.3,4.05-7.34,7.62-12.16,9.91-1.88.89-3.9,1.52-5.97,1.8-2.08.27-4.2.2-6.27-.21-.91-.19-1.8-.39-2.68-.71-1.64-.58-2.59-1.26-3.18-1.8-.58-.57-.79-1.08-.8-1.69,0-.27-.05-.57,0-.8.21-.79,1.56-.5,3.58.22,3.01,1.06,6.18,1.6,9.24,1.15,1.53-.22,3-.66,4.44-1.33,1.45-.66,2.87-1.53,4.21-2.54,2.01-1.48,3.88-3.24,5.57-5.17,1.7-1.92,3.27-4,4.6-6.21l.08.04Z"/><path class="cls-3" d="m384.82,314.32c.84-1.03,1.79-2.11,2.37-3.18.32-.54.56-1.15.83-1.75.19-.64.47-1.23.59-1.91.66-2.63.81-5.49.67-8.35-.1-2.1-.44-4.2-.77-6.3-1.19-7.44-3.33-14.82-5.81-22.08-1.11-3.22-2.39-6.4-3.61-9.56-1.64-4.03-3.22-8.13-4.16-12.45-.26-1.36-.15-1.19.46-.18.6,1.01,1.95,2.74,3.12,4.96,4.06,7.92,7.33,16.28,9.86,24.99,1.46,5.22,3.12,10.64,3.91,16.23.42,3.06.64,6.19.42,9.35-.1,1.58-.37,3.16-.74,4.73-.46,1.55-.98,3.12-1.87,4.54-2.1,3.41-4.96,6.16-8.22,8.27l-.92.61-.96.52c-.65.34-1.28.71-1.94,1.02-1.34.58-2.66,1.19-4.03,1.62-2.72.98-5.51,1.65-8.29,2.23-4.32.87-8.59,1.56-12.92,1.95-.95.08-1.88.2-2.85.24-3.57.18-4.7-.15-5.47-1.11-.17-.22-.4-.44-.5-.66-.34-.72,1.1-1.41,3.65-1.68,7.56-.82,15.49-1.52,22.88-3.75,2.71-.86,5.4-1.85,7.79-3.26,2.4-1.4,4.6-3.07,6.42-5.1l.08.06Z"/><path class="cls-3" d="m158.62,208.12c-3.75.11-7.46.34-10.95,1.11-3.48.78-6.72,2.15-9.12,4.44-1.18,1.12-2.24,2.53-2.88,3.91-.16.36-.27.75-.41,1.13-.06.19-.15.37-.2.57l-.12.6c-.07.41-.19.8-.24,1.21l-.09,1.25c-.21,3.37.74,6.87,2.22,10.08,2.25,4.7,5.72,8.85,9.68,12.44,3.52,3.16,7.44,5.92,11.57,8.37,2.2,1.3,4.39,2.86,6.24,4.71,1.87,1.84,3.47,3.94,4.79,6.16,2.62,4.48,4.16,9.36,5.33,14.2,1.17,4.85,1.97,9.71,2.97,14.48.9,4.22,1.94,8.42,3.57,12.34,1.58,3.94,3.85,7.5,6.77,10.46,1.88,1.89,4,3.54,6.3,4.9,2.29,1.38,4.78,2.39,7.31,3.26,2.55.84,5.21,1.35,7.9,1.63l2.03.17,2.04.1c1.37.05,2.74,0,4.11-.06,3.45-.11,3.01-.2.16.69-1.43.43-3.49.95-6.08,1.38-2.58.32-5.71.38-9.04-.23l-2.2-.47c-.72-.21-1.46-.38-2.17-.64-1.42-.52-2.82-1.09-4.17-1.79-2.7-1.37-5.24-3.09-7.5-5.13-2.25-2.05-4.24-4.39-5.87-6.99-1.62-2.59-2.87-5.34-3.87-8.13-3.95-11.2-4.46-22.77-8.31-33.07-1.17-3.04-2.68-5.97-4.73-8.48-2.06-2.51-4.54-4.6-7.49-6.22-6.23-3.53-12.15-7.9-16.95-13.39-2.59-3.05-4.88-6.42-6.42-10.21-1.54-3.76-2.37-7.93-1.88-12.14.04-.52.2-1.04.29-1.56.11-.52.21-1.04.41-1.54.18-.51.36-1.01.56-1.51l.78-1.44c1.1-1.82,2.52-3.4,4.17-4.7,3.32-2.62,7.33-3.92,11.23-4.6,4.84-.82,9.66-.84,14.39-.86,4.71-.05,9.49.08,13.81-1.05,1.63-.45,3.05-1.13,4.34-2.2,1.28-1.06,2.42-2.35,3.48-3.73,2.11-2.78,3.94-5.86,5.85-8.91,3.77-6.1,7.99-12.2,13.66-16.88,4.39-3.62,9.48-6.34,15.02-7.71,5.54-1.32,11.35-1.21,16.88.02,1.23.22,2.4.62,3.6.92,1.17.4,2.36.75,3.52,1.24,4.31,1.78,6.92,3.46,8.61,4.79.86.65,1.45,1.28,1.92,1.81.46.55.74,1.09.97,1.58.21.45.53.97.61,1.27.13.51-.61.28-2.07-.43-.74-.34-1.66-.82-2.69-1.45-1.08-.57-2.3-1.29-3.73-1.99-4.19-2.17-8.76-3.66-13.43-4.48-4.68-.7-9.51-.71-14.05.55-4.51,1.18-8.86,3.53-12.58,6.54-3.77,3.02-6.97,6.8-9.82,10.94-2.14,3.07-4.09,6.33-6.2,9.63-1.06,1.65-2.16,3.31-3.41,4.93-1.26,1.62-2.68,3.22-4.51,4.57-.89.69-1.94,1.26-3,1.71-1.06.42-2.12.75-3.16.96-2.09.45-4.12.64-6.11.75-3.98.24-7.84.18-11.63.31l-.02-.09Z"/><path class="cls-3" d="m65.7,287.68c-.08-1.42-.3-2.79-.65-4.06-.4-1.24-.96-2.34-1.73-3.08-.38-.4-.8-.62-1.32-.89-.58-.26-1.17-.42-1.74-.52-.57-.07-1.13-.09-1.68,0-.55.1-1.08.29-1.6.57-1.53.84-2.76,2.48-3.8,4.23-1.85,3.15-3.04,6.86-3.92,10.6-.87,3.76-1.38,7.64-1.62,11.53-.21,3.45-.12,6.95.29,10.33.25,2.18.73,4.31,1.25,6.37.26,1.03.63,2.01.98,2.97.35.97.8,1.8,1.36,2.62.75,1.05.96.83-.48.8-1.43-.07-4.11-1.81-5.01-4.53-.94-2.34-1.39-4.74-1.68-7.11-.3-2.38-.43-4.75-.44-7.11-.04-4.73.52-9.45,1.53-14.08.61-2.77,1.29-5.59,2.23-8.39.95-2.78,2.13-5.59,4.06-8.06,1.07-1.33,2.4-2.61,4.11-3.4,1.69-.83,3.73-1.01,5.51-.6.9.21,1.71.46,2.54.92.41.25.86.44,1.21.76.35.32.73.61,1.04.96,1.28,1.4,1.9,3.08,2.35,4.69.52,2.01.71,4.02.71,6,0,1.98-.11,3.94-.35,5.88-.72,5.87-2.28,11.57-4.14,17.08-1.48,4.27-2.97,8.48-5.19,12.51-.48.89-.98,1.76-1.6,2.6-2.33,3.1-4,3.69-5.17,3.22-.27-.11-.58-.2-.74-.36-.28-.26-.15-.72.18-1.2.17-.22.37-.59.64-.9.25-.38.58-.77.92-1.26,2.03-2.93,3.77-6.46,5.32-10.1,1.52-3.66,2.9-7.49,3.99-11.39.82-2.9,1.51-5.84,1.99-8.79.47-2.95.76-5.93.58-8.79h.09Z"/><path class="cls-3" d="m43.7,321.91l-2.5-4.02c-.31-.49-.68-.92-.98-1.41-1.04-1.74-2.03-3.51-3.1-5.23-.47-.76-1.01-1.48-1.53-2.2-.67-.92-1.39-1.81-1.86-2.88-.15-.33.21-.53.73-.55.52,0,1.24.15,1.69.63,1.62,1.7,3,3.56,4.2,5.59.7,1.22,1.73,2.28,2.56,3.44l2.72,3.86c.56.79,1.11,1.59,1.69,2.36.87,1.17,1.72,2.38,2.69,3.46.75.83,1.67,1.51,2.52,2.16.19.14.4.25.56.39.31.25.46.41.38.57-.01.02,0,0-.04.05l-.12.2c-.08.14-.14.27-.19.35-.1.18-.15.38-.18.46-.04.26.03.23-.04.19-.02-.01-.04-.02-.07-.03h-.03s.08,0,.08,0c.11,0,.22,0,.33-.02.19-.03.36-.04.52.07.07.06.16.11.2.28,0,.1,0,.22-.04.35-.02.12-.2.36-.39.49-.19.13-.38.21-.62.24-.15.03-.28.04-.43.02-.21,0-.41-.03-.54-.05-.31-.05-.52-.13-.73-.24-1.15-.62-1.93-1.31-2.71-2.09-.76-.78-1.43-1.62-2.08-2.48-.96-1.28-1.84-2.62-2.73-3.93l.06-.05Z"/><path class="cls-3" d="m342.4,249.91c-.67.33-1.64.49-2.42.05-.27-.16-.52-.31-.67-.54-.25-.42-.34-.86-.32-1.42.01-.28.04-.58.11-.9.06-.32.24-.71.38-1.02.13-.29.25-.56.39-.83l.33-.65c.24-.45.5-.91.93-1.21.14-.09.31.09.44.35.13.26.23.61.13.83-.09.2-.18.4-.26.61l-.11.28s-.02.02-.03.02c-.04.02-.14.08-.31.33-.2.33-.16.46-.1.7.07.31.39.47.63.39.15-.04.26-.16.34-.33.12-.24.22-.57.22-.93,0-.29-.1-.5-.24-.59-.03-.02-.08-.02-.1-.04-.02-.02-.04-.04-.04-.08,0-.01-.02-.05.03-.05.02,0,.03,0,.05-.01h.02c.09-.23.19-.45.29-.67,0-.06,0,.1,0-.04,0-.17-.05-.34-.09-.51-.07-.28-.09-.56.11-.78.11-.1.27-.19.49-.19.22,0,.43.06.52.08.7.22,1.21.89,1.35,1.83.03.98-.08,2.11-.36,2.98-.41,1.34-1.03,2.04-1.7,2.4l-.02-.06Z"/><path class="cls-3" d="m211.63,395.02l-11.05-.39c-1.35-.04-2.69,0-4.03-.04-4.74-.14-9.48-.24-14.22-.2-2.1.02-4.22.09-6.3.17-1.34.05-2.68.19-4.02.17-1.34.02-2.69.02-4.04-.1-.84-.07-.74-.16-.05-.44.42-.18.91-.39,1.43-.6.59-.23,1.3-.43,2.07-.57,5.46-.83,10.97-.99,16.52-.84,3.32.09,6.76-.09,10.15-.09,3.73,0,7.45.07,11.18.18,2.29.07,4.58.13,6.87.2,3.47.09,6.95.25,10.4.29,2.68.04,5.31-.09,7.96-.14.58-.01,1.16-.05,1.74-.04,2.18.02,2.87.24,3.3,1.04.1.18.23.36.29.55.19.61-.72,1.08-2.32,1.19-4.74.34-9.71.24-14.71.1-3.71-.12-7.43-.23-11.15-.35v-.07Z"/><path class="cls-3" d="m378.92,393.74l9.2.42c1.12.05,2.24.02,3.35.07l5.91.26c1.97.12,3.94.24,5.91.32,1.75.07,3.51.09,5.24.09,1.11.01,2.23-.03,3.35.03,1.12.1,2.22.2,3.35.3.7.07.6.09.02.22-.59.12-1.66.47-2.95.72-.28.05-.57.11-.85.14l-.85.05-1.71.1c-1.14.06-2.28.11-3.42.15-2.28.08-4.57.1-6.87.03-2.75-.11-5.61-.04-8.42-.06l-9.27-.18-5.7-.11c-2.88-.03-5.77-.1-8.62-.05-2.22.04-4.39.26-6.58.4-.48.03-.95.09-1.44.11-1.8.08-2.38-.11-2.78-.85-.09-.17-.21-.34-.27-.51-.18-.58.55-1.07,1.87-1.26,3.92-.57,8.08-.68,12.24-.68,3.09.02,6.2.15,9.29.24v.07Z"/><path class="cls-3" d="m407.64,172.46c.06.23.12.47.17.71.03.15.05.3.08.45.01.06.02.13.03.19-.07-.43-.01-.11,0,0,.07.69.12,1.37.12,2.07,0,.35,0,.69-.03,1.04-.01.19-.03.38-.04.58-.01.14-.09.66-.03.28-.11.69-.29,1.33-.49,1.99-.1.32.12-.22.02-.03-.04.07-.07.15-.1.22-.06.11-.12.22-.18.33s-.38.48-.08.14c-.1.11-.19.21-.3.32-.27.28.24-.11-.1.08-.06.04-.22.17-.29.16.09.02.33-.1.08-.05-.07.02-.14.03-.21.05-.19.06.07.04.13-.01-.05.03-.23.01-.29.01-.07,0-.13-.01-.2,0,.4,0,.13.03,0-.01s-.26-.08-.4-.12c.38.13-.15-.08-.24-.14-.17-.1-.34-.21-.5-.33.26.19-.17-.16-.24-.22-.15-.14-.3-.28-.44-.43-.17-.17-.32-.35-.48-.54-.06-.08-.13-.15-.19-.23.15.19-.14-.19-.13-.19-1.45-2.02-2.35-4.18-2.96-6.55-.2-.78-1.07-1.26-1.85-1.05s-1.25,1.06-1.05,1.85c.63,2.46,1.64,4.91,3.08,7.01,1.12,1.63,2.68,3.46,4.73,3.87,1.84.37,3.52-.52,4.47-2.09.89-1.48,1.16-3.3,1.25-5s-.02-3.48-.48-5.12c-.51-1.86-3.41-1.07-2.89.8h0Z"/><path class="cls-3" d="m400.63,168.06c-.38,2-.34,4.05.08,6.13.05.38.2.74.31,1.11.11.37.24.73.37,1.09.85,2.57,2.13,5.11,3.88,7.36.76,1.02,1.7,1.89,2.6,2.76.59.55,1.21,1.09,1.82,1.62.62.53,1.23,1.08,1.77,1.74.34.41.2.5-.33.49-.27,0-.64-.01-1.09-.05-.42-.07-.86-.23-1.29-.48-3.04-1.75-5.66-4.3-7.54-7.38-1.12-1.84-2.27-3.8-2.96-5.92-.74-2.33-1.1-4.8-.95-7.26.11-1.5.38-2.99.81-4.43.7-2.17,1.85-4.3,3.7-5.86,1.41-1.21,3.25-2.06,5.17-2.17.41-.02.82-.02,1.24,0,.79.04,1.23.29,1.53.51.29.24.4.55.42.99,0,.2.03.4.01.59-.09.64-.76,1.03-1.63,1.04-1.29.12-2.45.2-3.4.66-.94.44-1.75,1.13-2.43,2.1-1.05,1.4-1.67,3.38-2.02,5.37h-.08Z"/><path class="cls-3" d="m415.85,138.63s18.93-7.61,27.96-.27c9.04,7.34,5.79,17.44,4.66,26.68,0,0-2.63,13.67-1.27,20.84,1.36,7.17,11.83,25.64,13.64,30.09,1.81,4.45,5.87,20.54,2.94,23.16s-6.27,4.04-9.57,1.44c-3.31-2.6-7.36-8.18-12.61-5.03s-5.39,14.37-8.99,13.99c-3.6-.39-7.53-.9-10.96-5.23-3.44-4.33-8.06-9.61-15.93-7.44-7.87,2.18-10.79,3.31-14.44,2.28-3.96-1.12-3.71-16.47,0-18.73,3.71-2.26,12.2-4.58,16.57-9.94,4.37-5.37,5.8-6.33,8.54-14.88,2.74-8.55-1.26-34.89-1.26-34.89,0,0-6.59,5.06-10.47-3.08-3.88-8.14-7.56-7.06-10.65-6.05-3.09,1.01-18.64,7.88-22.87,13.48-4.24,5.6-5.51,11.73-5.51,11.73,0,0-5.52-11.05-10.61-9.05s-8.61,3.73-7.83,7.72c1.53,7.81-1.01,10.83,1.45,16.73,1.44,3.44,2.94,11.56,0,14.51-2.94,2.95-7.76,3.14-10.78,1.57-3.02-1.57-12-8.36-12-8.36,0,0-6.49,10.81-11.41,11.79-4.92.98-9.56,1.17-11.35-5s-4.15-11.85-6.78-12.57-19.41,1.57-23.72-1.76c-4.32-3.33-4.37-4.97-3.03-9.38,1.34-4.42,13.34-9.53,13.34-9.53,0,0,4.81-2.29,3.72-5.27-1.09-2.97-2.35-5.25-4.49-7.49s-8.34-9.17-7.95-15.14c.39-5.97,10.15-7.3,10.15-7.3l23.09,1.89s12.71,4.71,21.98-1.38c9.27-6.09,30.92-24.67,30.92-24.67,0,0,16.75-11.5,30.97-3.83,21.75,11.74,24.59,28.36,24.59,28.36Z"/><path class="cls-3" d="m381.27,154.86c3.26-1.98,6.81-3.54,10.6-4.41.71-.12,1.41-.27,2.11-.41.71-.11,1.45-.15,2.18-.19.65-.01,1.32.08,1.97.13.66.05,1.34.29,1.99.44,1.37.4,2.7,1.33,3.56,2.45,1.72,2.24,2.08,4.79,3.11,6.42.23.32.46.63.73.77.1.1.32.17.51.24.19.09.39.16.6.2.82.22,1.74.23,2.65.11,2.35-.41,4.66-1.5,7.01-2.52.71-.34.84-.07.54.72-.16.39-.42.91-.81,1.48-.4.56-.96,1.1-1.65,1.55-1.24.8-2.63,1.38-4.17,1.72-1.53.33-3.27.46-5.01-.12-.44-.2-.8-.27-1.33-.63-.51-.3-.88-.69-1.22-1.07-.64-.78-.98-1.53-1.29-2.23-.57-1.38-.91-2.63-1.41-3.65-.58-1.25-1.43-2.08-2.68-2.39l-1.02-.21c-.34-.06-.72-.04-1.08-.06-.72-.08-1.49.07-2.23.1-3.33.39-6.67,1.68-9.75,3.34-.94.53-1.9,1.04-2.8,1.67l-1.36.9-1.29,1.01c-2.6,2.04-5.05,4.36-7.03,7.01-.82.99-1.46,2.09-2.1,3.19-.68,1.07-1.18,2.24-1.76,3.35-.25.5-.51.97-.73,1.48-.88,1.87-1.39,2.36-2.37,2.42-.22.01-.46.06-.67.04-.69-.07-.82-1.09-.34-2.65.19-.58.38-1.16.57-1.74.24-.56.49-1.13.73-1.69.27-.56.55-1.12.82-1.68.29-.56.64-1.08.96-1.62l1.02-1.61c.34-.54.76-1.03,1.14-1.54l1.18-1.52c.41-.5.86-.96,1.29-1.44,2.58-2.83,5.54-5.35,8.8-7.41l.05.07Z"/><path class="cls-3" d="m456.1,239.04c.27.22.51.35.77.53.23.1.48.29.67.33.42.2.74.18,1.15.17.81-.12,1.98-.72,2.67-1.48,1.51-1.52,1.98-4.3,1.79-7.11-.17-2.83-.88-5.75-1.78-8.59-.92-2.85-2.06-5.67-3.35-8.41-.95-2-1.99-3.96-3.12-5.86-.57-.95-1.14-1.89-1.75-2.79-.61-.93-1.2-1.71-1.91-2.75-2.4-3.51-4.02-7.52-4.91-11.6-.9-4.1-1.11-8.25-.94-12.35.44-8.21,2.35-15.98,2.52-23.8.06-3.44-.22-6.91-1.35-10.06-1.1-3.15-3.08-5.91-5.72-7.89-.84-.64-1.74-1.21-2.69-1.72-.46-.28-.95-.46-1.42-.69-.5-.18-.98-.39-1.49-.54-2.02-.66-4.15-1.03-6.31-1.15-4.31-.23-8.67.51-12.7,2.18-2.51,1.04-2.42.69-.62-1.08.93-.84,2.39-1.89,4.38-2.83,1.99-.9,4.53-1.55,7.32-1.65,2.48-.09,4.98.12,7.44.69,2.46.53,4.91,1.7,7,3.08,2.13,1.41,4.07,3.22,5.57,5.37,1.52,2.13,2.53,4.57,3.17,7.02,1.27,4.94,1.09,9.86.66,14.57-.45,4.72-1.32,9.3-1.91,13.84-.36,2.72-.57,5.4-.49,8.15.06,2.73.35,5.47.97,8.11.61,2.65,1.55,5.21,2.83,7.58.64,1.19,1.37,2.32,2.16,3.41.88,1.19,1.7,2.43,2.46,3.67,3.31,5.49,6.03,11.26,7.93,17.42.91,3.09,1.64,6.27,1.69,9.64.02,1.67-.14,3.41-.7,5.11-.55,1.69-1.6,3.35-3.09,4.49-.9.71-1.91,1.22-3.07,1.54-1.15.36-2.55.25-3.66-.19-1.12-.43-2.04-1.06-2.83-1.68l-2.25-1.83c-1.44-1.17-2.94-2.11-4.58-2.67-.81-.31-1.69-.48-2.51-.59-.83-.07-1.62-.03-2.31.21-1.05.33-1.88,1.15-2.54,2.27-.66,1.11-1.15,2.44-1.63,3.79-.49,1.36-.96,2.79-1.66,4.21-.34.71-.78,1.41-1.31,2.07-.53.66-1.22,1.24-2,1.68-.79.45-1.66.65-2.51.77-.83.05-1.71.07-2.56-.17-1.73-.4-3.12-1.54-4.16-2.7-2.1-2.36-3.24-5.17-5.04-7.04-2.82-3.04-7.22-4.07-11.32-3.66-4.07.38-7.97,2.72-12.84,3.41-1.07.15-2.17.19-3.28.09-1.03-.04-2.48-.4-3.55-1.14-1.03-.68-1.75-1.54-2.23-2.34-.51-.8-.8-1.56-1.04-2.25-.45-1.38-.58-2.49-.64-3.4-.08-1.82.22-2.85.69-3.66.21-.37.43-.85.65-1.06.38-.35.7.22,1.07,1.49.39,1.24.72,3.28,1.6,5.42.68,1.59,1.65,2.69,2.77,2.96.15.03.29.06.45.1l.62.06c.41.05.83.02,1.25.02.85-.05,1.71-.18,2.6-.39,1.78-.42,3.62-1.1,5.64-1.77,2-.66,4.23-1.29,6.67-1.41,2.3-.09,4.69.12,7.03.87,2.33.74,4.58,2.06,6.34,3.86.88.89,1.65,1.94,2.25,2.87l1.68,2.63c1.06,1.62,2.21,2.91,3.29,3.29.4.17.8.22,1.29.21.53.01.92-.12,1.28-.26.67-.29,1.31-.99,1.88-2.15.58-1.14,1.04-2.55,1.57-4.07.54-1.51,1.11-3.16,2.21-4.85.54-.84,1.29-1.69,2.24-2.37.94-.67,2.09-1.17,3.19-1.33,1.1-.19,2.16-.17,3.12-.04.98.13,1.85.34,2.74.63,1.79.57,3.44,1.51,4.84,2.53,1.41,1.02,2.62,2.13,3.7,2.93l-.04.08Z"/><path class="cls-3" d="m397.31,220.1c-4.01,1.59-8.24,2.4-12.4,2.76-4.17.36-8.28.31-12.33.26-.73,0-1.5-.03-2.19,0-.69.02-1.38.04-2.06.12-1.37.13-2.72.38-4.05.73-4.73,1.19-9.02,3.9-13.02,7.08-2.01,1.59-3.95,3.31-6.01,4.97-1.03.83-2.11,1.64-3.28,2.37-1.17.72-2.46,1.37-3.95,1.63-.33.06-.66.11-1,.11-.35.03-.67,0-.97-.03-.62-.07-1.25-.08-1.84-.25-.6-.14-1.22-.24-1.79-.47-.58-.2-1.17-.39-1.71-.68-2.22-1.03-4.2-2.52-5.81-4.29-4.15-4.56-6.21-10.82-5.87-16.81.12-1.87.4-1.58.8-.04.38,1.54,1.11,4.27,2.17,7.29.94,2.68,2.38,5.16,4.25,7.2,1.88,1.99,4.06,3.75,6.59,4.59,1.23.5,2.56.64,3.82.73.52,0,1.07-.11,1.63-.29.57-.22,1.15-.46,1.72-.82,2.33-1.37,4.56-3.44,6.89-5.37,2.78-2.35,5.7-4.81,9.03-6.82,3.32-1.99,7.08-3.5,11-3.99,1.07-.14,2.15-.22,3.23-.23,1.08-.03,2.06,0,3.09,0,2.03.02,4.05.01,6.07-.03,4.02-.1,8-.43,11.84-1.37,2.36-.57,4.66-1.36,6.83-2.41,1.08-.55,2.15-1.11,3.16-1.77,1.04-.62,1.98-1.41,2.97-2.11,2.88-2.28,5.46-4.95,7.45-8.04,1.95-3.11,3.29-6.58,4.1-10.16,1.29-5.59,1.15-11.31.85-17.01-.05-1.26-.2-2.5-.27-3.77-.29-4.73-.16-6.27.71-7.35.2-.25.39-.57.59-.71.68-.5,1.41,1.39,1.86,4.88.66,5.17,1.07,10.56.83,16.15-.29,5.56-1.39,11.37-3.93,16.72-1.92,3.95-4.68,7.51-7.95,10.39l-1.22,1.09c-.42.34-.87.65-1.3.97-.89.62-1.72,1.31-2.66,1.87-1.83,1.19-3.8,2.15-5.81,3l-.04-.08Z"/><path class="cls-3" d="m353.3,170.18c-.51.22-1.05.36-1.53.7-.24.15-.51.28-.75.45-.22.18-.47.34-.67.54-.85.76-1.47,1.69-1.83,2.76-.26.78-.27,1.63-.26,2.49.05,3.09,1.76,6.31,4.16,8.71,1.07,1.09,2.4,1.9,3.76,2.51.88.41,1.81.64,2.74.87.46.15.94.23,1.42.35.48.05.98.29,1.49.33.64.1.59.19.07.54-.26.18-.64.47-1.14.77-.5.29-1.13.45-1.82.51-.3,0-.61.02-.91.01-.3-.04-.59-.09-.89-.14-.59-.11-1.18-.26-1.75-.45-1.16-.35-2.23-.91-3.22-1.58-1-.66-1.91-1.44-2.71-2.31-.81-.86-1.54-1.82-2.08-2.88-.67-1.25-1.3-2.55-1.76-3.95-.45-1.4-.73-2.91-.62-4.43.12-1.67.68-3.35,1.64-4.75.95-1.4,2.24-2.47,3.64-3.25,1.73-.98,3.78-1.49,5.78-1.31,1.53.07,2.95.69,4.23,1.39,1.27.76,2.36,1.73,3.31,2.8,1.46,1.67,2.66,3.57,3.38,5.7l.25.7c.06.24.12.48.17.72.09.45.15.84.17,1.16-.01.32-.05.59-.12.8-.14.43-.41.68-.85.86-.2.08-.4.19-.6.24-.68.14-1.28-.52-1.52-1.6-.48-1.6-1.08-3.12-1.9-4.51-.81-1.39-1.86-2.64-3.11-3.54-.94-.65-1.94-1.1-2.99-1.34-1.05-.2-2.11-.09-3.14.22l-.03-.08Z"/><path class="cls-3" d="m305.1,141.82c-4.41-.74-8.87-1.43-13.23-1.74-2.18-.15-4.35-.18-6.46,0-2.09.19-4.17.58-5.85,1.41-1.7.82-2.88,2.07-3.38,3.74-.25.83-.32,1.79-.29,2.72.07.91.22,1.82.59,2.69.68,1.76,1.94,3.41,3.39,5,1.45,1.61,3.09,3.18,4.63,5,1.13,1.32,2.2,2.82,2.98,4.54.42.87.66,1.76.9,2.78.26,1.37-.26,2.77-.88,3.64-1.28,1.78-2.77,2.75-4.19,3.73-1.43.96-2.87,1.8-4.27,2.63-2.46,1.47-4.9,2.94-6.8,4.72-.94.88-1.71,1.85-2.13,2.84-.44.99-.43,1.99-.11,3.05.14.51.43,1.11.69,1.55.24.46.6.79.99,1.11.81.61,1.95.98,3.23,1.13,2.56.33,5.42.02,8.29-.26,2.88-.28,5.83-.63,8.94-.43,1.55.12,3.16.36,4.73,1.03,1.57.66,3,1.87,3.93,3.27.95,1.4,1.5,2.91,1.94,4.36.44,1.45.76,2.88,1.14,4.22.38,1.34.82,2.63,1.45,3.72.62,1.09,1.47,2,2.44,2.5,1.38.75,3.19.67,4.9.15,1.72-.55,3.35-1.54,4.75-2.76.69-.62,1.34-1.29,1.87-2.03l.4-.55.34-.58c.24-.37.43-.82.64-1.26.43-.9.84-1.88,1.5-2.86.33-.48.72-.98,1.37-1.47.61-.47,1.34-.71,2.08-.8.83-.02,1.52.48,2.19,1l1.32,1.05c.86.69,1.7,1.36,2.55,2.02,2.55,1.96,5.22,3.81,8.05,5,1.4.57,2.88.99,4.21.91,1.33-.05,2.47-.63,3.29-1.62.81-.98,1.19-2.41,1.32-3.92.14-1.51.04-3.11-.1-4.72-.29-3.22-.88-6.48-.82-9.88.07-2.14.6-3.04.7-2.92.15.11.02,1.14.29,2.84.24,1.7.89,4.03,1.68,6.92.39,1.45.78,3.05,1.06,4.84.24,1.79.46,3.79-.11,6.08-.37,1.42-1.14,2.96-2.41,4.07-1.21,1.15-2.95,1.79-4.52,1.88-1.59.11-3.04-.17-4.37-.56-1.32-.41-2.54-.95-3.69-1.54-2.3-1.2-4.37-2.61-6.34-4.09-.99-.74-1.94-1.5-2.88-2.25l-1.47-1.17c-.04.06.11-.24-.45.56-.42.66-.82,1.58-1.32,2.62-.23.52-.56,1.1-.9,1.66-.34.55-.72,1.06-1.12,1.56-.8.97-1.69,1.85-2.66,2.62-1.94,1.54-4.18,2.74-6.79,3.28-1.3.27-2.73.29-4.16.02-1.44-.28-2.84-1.04-3.94-2.01-1.05-.96-1.82-2.11-2.43-3.26-.55-1.15-.99-2.31-1.29-3.42-.65-2.22-1.03-4.31-1.69-6.12-.33-.89-.72-1.68-1.19-2.34-.51-.62-1.04-1.16-1.75-1.54-1.41-.79-3.4-1.03-5.41-1.07-3.8-.05-7.83.67-12.11.85-2.14.06-4.42.06-6.8-.81-1.17-.44-2.36-1.19-3.24-2.23-.23-.25-.43-.52-.6-.81-.19-.28-.35-.57-.47-.84l-.39-.83c-.11-.3-.2-.6-.3-.9-.35-1.22-.48-2.6-.19-3.91.29-1.31.89-2.47,1.6-3.45,1.45-1.96,3.25-3.31,5.02-4.55,1.79-1.21,3.62-2.27,5.4-3.31,1.77-1.05,3.55-2.07,4.97-3.25.77-.64,1.41-1.37,1.59-1.93.08-.15.04-.26.08-.38-.05-.14.03-.17-.07-.46-.15-.46-.2-.94-.44-1.38-.73-1.82-2.05-3.5-3.53-5.12-1.48-1.63-3.14-3.22-4.66-5.07-1.51-1.83-2.92-4-3.49-6.55-.29-1.26-.35-2.58-.24-3.84.11-1.28.48-2.59,1.12-3.78.64-1.19,1.58-2.21,2.64-2.97,1.06-.77,2.22-1.31,3.4-1.71,2.35-.76,4.74-1.04,7.08-1.1,2.35-.07,4.67.06,6.96.28,2.83.28,5.6.69,8.39,1.09,2.79.42,5.54.92,8.28,1.31,2.74.39,5.47.67,8.18.62,2.7-.04,5.39-.4,7.88-1.32,1.89-.68,3.74-1.62,5.5-2.7,1.77-1.07,3.47-2.27,5.11-3.56,3.3-2.56,6.39-5.44,9.47-8.33l4.65-4.35c.78-.72,1.58-1.43,2.38-2.14.82-.69,1.67-1.38,2.52-2.04,3.48-2.58,7.36-4.6,11.45-5.97,6.36-2.11,13.18-2.64,19.74-1.55,6.56,1.08,12.9,3.84,18.05,8.21,2.26,1.93,4.26,4.08,5.98,6.55,3.16,4.61,4.26,8.21,4.79,10.7.51,2.51.48,4.01.16,5.22-.14.55-.25,1.26-.43,1.58-.29.54-.75-.24-1.29-2.05-.61-1.79-1.34-4.64-2.9-8-2.32-4.98-5.85-9.41-10.34-12.7-4.49-3.28-9.86-5.4-15.47-6.24-5.6-.83-11.45-.42-16.9,1.34-2.73.87-5.35,2.06-7.81,3.53-1.24.72-2.41,1.56-3.56,2.42l-1.67,1.36-1.68,1.49c-3.31,3-6.56,6.2-10.01,9.28-3.44,3.07-7.09,6.06-11.24,8.48-2.09,1.19-4.27,2.27-6.71,2.98-2.41.7-4.88,1.01-7.29,1.06-4.85.1-9.48-.71-13.96-1.44v-.08Z"/><path class="cls-3" d="m382.75,173.69c.73,4.07,2.86,8.8,6.87,10.57,1.91.84,4.39,1.06,6.28.03,1.68-.91,2.23-2.86,2.26-4.65.03-2.7-.79-5.43-1.6-7.98-.25-.77-1.04-1.27-1.85-1.05-.76.21-1.29,1.07-1.05,1.85.35,1.11.68,2.22.95,3.35.12.48.22.97.31,1.45.04.24.08.48.12.73,0,.03.04.3,0,.07.02.15.03.3.05.45.04.4.05.8.05,1.19,0,.17-.02.34-.03.51,0,.09-.06.37,0,.02-.02.1-.03.19-.05.29-.03.16-.08.32-.13.48-.02.07-.05.13-.07.2.1-.33.08-.15.03-.08-.04.06-.28.46-.14.26.13-.18,0,0-.04.03-.06.06-.15.13-.21.2-.11.14.24-.12.07-.06-.07.02-.15.09-.21.13-.06.03-.12.06-.18.09.07-.04.29-.07.07-.04-.17.02-.35.09-.52.13.04,0-.46.08-.25.05.16-.02-.21.02-.25.02-.22.01-.43.02-.65.01-.08,0-.67-.07-.37-.02-.41-.07-.8-.18-1.19-.32-.27-.09-.08-.03-.02,0-.08-.04-.17-.08-.25-.12-.18-.09-.36-.19-.54-.3s-.35-.23-.52-.35c.05.04.19.16-.03-.03-.11-.09-.22-.18-.32-.28-.3-.28-.59-.58-.86-.89-.06-.08-.13-.15-.19-.23-.16-.19.11.15-.04-.05s-.3-.41-.43-.63c-.28-.44-.54-.89-.77-1.36-.27-.55-.37-.76-.55-1.26-.39-1.05-.67-2.13-.87-3.22-.14-.8-1.12-1.25-1.85-1.05-.84.23-1.19,1.05-1.05,1.85h0Z"/><path class="cls-3" d="m388.17,198.03c-.13,2.07,1.05,4.07,2.57,5.39s3.64,2.35,5.78,2.35c.85,0,1.66-.75,1.62-1.62s-.71-1.63-1.62-1.62c-.2,0-.4-.01-.6-.03-.33-.03.41.08.08,0-.09-.02-.18-.03-.26-.05-.21-.04-.41-.1-.61-.16-.17-.05-.35-.15-.52-.19.24.11.29.12.13.06-.06-.03-.11-.05-.17-.08-.09-.04-.17-.08-.25-.12-.17-.09-.33-.18-.49-.28-.19-.11-.37-.24-.55-.37-.14-.1-.2-.25.03.03-.07-.08-.18-.14-.25-.21-.31-.26-.59-.55-.85-.86s.18.26,0,0c-.05-.07-.11-.15-.16-.22-.11-.16-.21-.33-.3-.5-.05-.09-.09-.18-.14-.27-.13-.26.13.36.03.07-.06-.18-.12-.35-.16-.53-.02-.1-.04-.19-.06-.29-.06-.29.03.41.02.1,0-.2-.02-.39,0-.59.05-.85-.79-1.66-1.62-1.62-.93.04-1.57.71-1.62,1.62h0Z"/><path class="cls-3" d="m394.39,157.41c-4.57-3.57-11.15-.8-15.53,1.77-1.94,1.14-.18,4.17,1.77,3.02,2.05-1.2,4.07-2.15,6.38-2.69,1.08-.25,1.78-.34,2.95-.27.03,0,.37.03.21.01s.17.03.2.04c.25.05.5.11.74.19.11.03.21.07.31.11-.17-.07-.07-.03.03.03.12.07.24.14.36.2.05.03.35.24.12.06.74.58,1.75.73,2.47,0,.61-.61.75-1.89,0-2.47h0Z"/><path class="cls-3" d="m179.48,272.39c-.17-.29-.21-.41-.17-.43.03-.01.01-.08.02-.13,0-.03,0-.08.02-.09.08,0,.09-.11.08-.23-.02-.22.56-.52.62-.55.08-.06.34-.22.3-.33-.05-.12.2-.22.17-.34-.01-.05.02-.06.05-.07.13-.03-.1-.41.02-.45.07-.03.1-.09.15-.14.01-.01,0-.04.02-.05.23-.03.2-.3.36-.4.03-.02.07-.04.11-.05.02-.01.06-.01.05-.05-.04-.2.15-.2.3-.24.02,0,.07.01.05-.02-.11-.2.12-.15.13-.26,0-.03.05-.04.07-.06.02-.01.07,0,.06-.04-.02-.15.1-.18.13-.29,0,0,.01,0,0-.02-.11-.21.13-.17.33-.17.12,0,.22-.01.08-.18-.03-.03-.04-.06-.01-.06.16.03.17-.04.24-.08,0,0,.03.01.04.01.03,0,.69.42.83.52.14.09,1.8,1.24,1.84,1.28.04.04.09.08.09.1.02.06.1.15.36.35.14.11.16.15.12.15-.29,0-.26.22-.44.3-.07.03-.07.12-.11.18-.22.28-.45.54-.68.81-.04.05-.1.08-.21.07-.1,0-.15.02-.19.06-.07.07-.1.17-.17.24-.09.1-.19.2-.3.29-.17.15-.35.3-.53.46,0,0-.02,0-.02.02.11.3-.3.51-.33.52-.09.09-.17.19-.28.26-.11.06-.17.19-.31.22-.12.03-.18.13-.26.2-.01.01-.01.03-.03.04-.22.03-.88.36-.96.4-.02.01-.07-.02-.15-.1-.08-.07-.12-.1-.2-.17-.07-.07-.19-.19-.25-.25-.07-.06-.09-.05-.14-.09-.05-.04-.17-.17-.28-.33-.12-.16-.52-.67-.63-.82Z"/><path class="cls-3" d="m192.31,306.55c-.09-.32-.1-.45-.05-.46.03,0,.03-.08.05-.12.01-.03.02-.08.04-.08.08.01.11-.08.13-.2.04-.22.68-.35.75-.37.09-.03.39-.12.38-.24-.01-.13.25-.16.26-.28,0-.05.03-.05.06-.05.14,0,.02-.42.14-.43.08,0,.13-.06.19-.1.01,0,.01-.04.04-.04.23.03.27-.24.45-.29.03,0,.08-.02.12-.02.02,0,.06,0,.06-.03.02-.2.2-.15.36-.15.02,0,.06.03.05,0-.05-.22.15-.11.19-.21.01-.03.05-.03.09-.04.02,0,.07.01.07-.02.02-.15.15-.15.2-.25,0,0,.01,0,.01-.02-.05-.23.17-.13.36-.08.12.03.22.05.13-.16-.02-.04-.03-.07,0-.06.14.07.18,0,.25-.01,0,0,.02.02.03.02.03.02.55.59.66.72.11.13,1.41,1.67,1.43,1.73.03.05.06.1.06.12,0,.06.05.17.25.44.1.14.11.19.08.18-.28-.07-.31.15-.5.18-.08.01-.1.1-.16.14-.28.21-.57.41-.87.6-.05.03-.12.05-.22.01-.09-.03-.15-.02-.2,0-.08.05-.14.14-.22.19-.12.08-.24.14-.36.2-.21.1-.42.2-.63.3,0,0-.02,0-.02.01.03.32-.42.41-.45.41-.11.06-.21.14-.34.17-.13.03-.21.14-.36.13-.13,0-.21.08-.31.12-.01,0-.02.03-.04.03-.22-.03-.95.11-1.03.14-.02,0-.06-.04-.12-.14-.06-.09-.09-.13-.15-.22-.05-.09-.14-.24-.18-.31-.05-.07-.07-.08-.11-.12-.04-.05-.12-.21-.19-.39-.08-.19-.32-.79-.39-.96Z"/><g class="cls-4"><path class="cls-3" d="m150.98,225.87c.15-.2.25-.25.32-.22.04.02.1,0,.15-.01.04,0,.09-.02.11,0,.08.06.19.05.32.01.23-.07,1.06.37,1.13.42.13.06.5.27.62.21.12-.06.41.15.54.1.05-.02.09,0,.12.03.13.12.47-.18.59-.07.08.07.18.09.27.14.02.01.06,0,.07.02.17.23.5.17.7.32.04.03.09.07.12.1.03.02.04.06.09.05.23-.06.34.13.45.29.02.02.02.08.05.05.2-.12.23.12.37.14.04,0,.07.05.1.08.03.02.04.08.08.07.17-.03.27.11.41.14,0,0,.01.01.03,0,.22-.11.27.15.34.36.04.13.1.23.26.1.03-.03.06-.04.07-.01.03.17.12.19.19.26,0,0,0,.03,0,.04,0,.03-.29.7-.35.84-.06.14-.91,1.83-.95,1.87-.03.04-.07.09-.09.1-.06.02-.14.1-.3.37-.08.14-.13.17-.14.13-.09-.28-.33-.23-.47-.39-.06-.07-.16-.06-.24-.09l-1.13-.56c-.07-.03-.12-.1-.14-.21-.03-.1-.07-.16-.13-.2-.1-.06-.22-.09-.32-.15-.14-.08-.28-.18-.42-.27-.22-.16-.45-.32-.68-.48,0,0-.01-.02-.02-.01-.26.14-.61-.28-.64-.29-.13-.08-.26-.14-.37-.24-.11-.1-.26-.14-.36-.27-.09-.11-.21-.15-.32-.22-.02-.01-.04,0-.05-.03-.13-.2-.81-.76-.9-.81-.02-.01-.02-.06,0-.15.01-.08.02-.12.03-.2.02-.08.06-.19.07-.26,0-.07-.01-.09-.01-.14,0-.05.04-.17.1-.29.06-.13.27-.55.33-.67Z"/></g><path class="cls-3" d="m191.17,203.34c.25-.19.35-.24.38-.2.01.02.07,0,.11,0,.03,0,.07-.02.07,0,0,.07.1.06.2.03.17-.05.48.4.52.45.06.06.23.25.32.19.09-.07.22.12.31.06.04-.02.05,0,.07.02.06.1.3-.2.37-.13.04.05.1.05.15.07.01,0,.03-.01.04,0,.09.17.29.04.41.13.02.02.05.04.07.06.02.01.03.04.05.02.13-.12.2.03.28.15.01.02.02.06.03.03.11-.16.14.05.23.01.03-.01.05.02.07.04.02.01.03.05.05.04.09-.07.17.01.25,0,0,0,.01,0,.02,0,.1-.16.17.03.26.19.05.09.11.16.16-.01.01-.03.02-.06.03-.03.06.13.11.11.17.14,0,0,0,.03,0,.03,0,.03.05.67.05.81,0,.14.03,1.82.01,1.87,0,.04-.02.1-.03.11-.04.04-.07.14-.09.42-.01.15-.04.18-.06.16-.18-.18-.36-.05-.54-.14-.07-.03-.15.01-.23,0-.38-.02-.77-.07-1.14-.14-.07-.01-.13-.05-.18-.14-.04-.09-.1-.13-.16-.15-.1-.03-.21-.03-.31-.06-.14-.05-.28-.11-.41-.18-.23-.11-.45-.23-.66-.36,0,0-.01-.02-.02-.01-.24.16-.6-.18-.62-.2-.12-.06-.25-.11-.36-.2-.1-.09-.25-.12-.33-.24-.07-.11-.19-.15-.28-.22-.01-.01-.04,0-.05-.03-.1-.2-.6-.8-.65-.88-.02-.02,0-.07.07-.16.05-.09.08-.12.13-.21.06-.07.16-.2.21-.26.05-.07.04-.09.07-.14.03-.05.14-.18.27-.3.14-.13.58-.54.7-.66Z"/><g class="cls-4"><path class="cls-3" d="m208.95,184.81c.26-.32.38-.41.42-.37.02.02.09-.02.14-.03.04,0,.09-.04.1,0,.03.09.14.06.27,0,.25-.11.69.51.73.57.07.08.27.36.4.29.14-.07.26.21.4.17.06-.02.07.01.08.05.04.14.5-.15.56,0,.03.08.11.12.18.17.01.01.05,0,.06.03.02.27.36.24.46.44.02.04.04.09.05.13.01.03,0,.07.05.07.25-.01.21.21.21.4,0,.03-.03.08.01.06.27-.08.14.17.26.21.04.01.03.06.04.1,0,.03-.02.08.02.09.19.01.17.17.29.24,0,0,0,.02.02.01.3-.05.15.22.05.44-.06.14-.1.25.17.17.05-.02.09-.02.07,0-.11.16-.04.21-.04.3,0,0-.03.03-.04.04-.02.03-.86.56-1.04.68-.18.11-2.38,1.43-2.45,1.47-.06.03-.14.07-.16.07-.06.01-.2.07-.56.29-.19.11-.24.13-.22.1.21-.25-.01-.23.04-.39.02-.07-.06-.06-.08-.1-.11-.19-.21-.38-.34-.56-.02-.03-.01-.09.04-.19.05-.09.05-.14.04-.17-.04-.05-.1-.08-.14-.13-.05-.07-.09-.16-.13-.24-.07-.14-.15-.28-.22-.43,0,0,0-.02-.01-.01-.3.18-.36-.16-.38-.17-.06-.05-.14-.09-.18-.17-.04-.08-.14-.08-.16-.2-.01-.1-.1-.11-.15-.16,0,0-.03,0-.03-.01,0-.19-.28-.65-.33-.68-.01,0,.02-.08.09-.2.06-.12.09-.17.15-.29.06-.11.16-.29.21-.38.05-.1.04-.12.07-.19.03-.07.14-.26.27-.45.14-.21.57-.87.7-1.05Z"/></g><g class="cls-4"><path class="cls-3" d="m283.6,318.64c-.17-.14-.22-.23-.19-.29.02-.04,0-.1,0-.15,0-.04-.02-.08,0-.11.06-.09.05-.2.03-.32-.06-.23.38-1.09.43-1.17.06-.13.27-.53.23-.63-.05-.11.16-.42.12-.54-.01-.05,0-.09.03-.12.11-.14-.12-.44-.03-.58.06-.09.08-.19.12-.29,0-.02,0-.06.02-.07.19-.2.17-.51.32-.73.03-.04.07-.09.1-.13.02-.03.06-.05.05-.09-.04-.22.14-.34.28-.47.02-.02.06-.02.05-.06-.1-.2.11-.25.12-.39,0-.04.04-.08.07-.11.03-.02.08-.04.08-.07,0-.16.15-.26.21-.39,0,0,.02-.01.01-.03-.05-.2.19-.26.39-.35.12-.05.22-.12.14-.25-.02-.03-.03-.05,0-.06.14-.04.18-.13.25-.21,0,0,.02,0,.03,0,.03,0,.51.17.62.21.1.04,1.32.6,1.36.63.03.03.07.06.07.07.02.06.08.13.28.25.11.06.13.1.1.12-.19.14-.14.39-.25.57-.05.07-.03.18-.05.26l-.17.64-.3.58c-.04.07-.09.13-.19.16-.09.04-.14.09-.18.15-.06.11-.09.23-.14.33-.08.15-.17.3-.26.44-.16.23-.33.47-.49.7,0,0-.02.01-.02.03.11.24-.27.63-.28.67-.07.13-.13.27-.23.39-.09.12-.13.27-.24.38-.1.1-.14.22-.2.34,0,.02,0,.04-.02.05-.18.15-.68.88-.72.98-.01.02-.06.03-.13.02-.07,0-.11,0-.18,0-.07,0-.17-.04-.23-.04-.06,0-.08.02-.12.03-.04,0-.15-.03-.26-.07-.12-.05-.49-.21-.6-.26Z"/></g><path class="cls-3" d="m365.37,302.28c.31-.16.45-.18.47-.12.02.04.09.03.14.04.04.01.09,0,.1.04.01.1.12.13.25.14.25.02.57.82.61.89.06.11.22.47.35.46.14-.01.23.31.37.32.05,0,.07.04.08.08.03.16.47.03.52.18.03.09.1.15.16.23.01.02.05.02.05.04.02.28.33.35.43.57.02.04.04.1.05.14.01.03,0,.07.05.08.23.04.22.26.24.45,0,.03-.02.07.02.07.25-.03.15.19.27.26.04.02.04.07.05.11.01.03,0,.08.03.09.18.04.19.2.31.28,0,0,0,.02.02.02.27-.01.17.23.12.45-.03.13-.05.25.19.19.05-.01.08-.02.07.01-.07.16,0,.21.02.31,0,0-.02.03-.03.03-.02.03-.68.53-.83.63-.15.11-1.93,1.31-1.99,1.34-.05.02-.12.05-.14.05-.06,0-.18.04-.49.22-.16.1-.21.1-.2.06.11-.29-.12-.35-.13-.56,0-.09-.09-.12-.13-.18l-.58-.97c-.03-.06-.05-.13-.01-.24.03-.1.02-.17-.01-.22-.05-.09-.14-.16-.2-.24-.08-.13-.15-.26-.22-.39-.12-.22-.24-.45-.35-.67,0,0,0-.02-.01-.02-.32.04-.45-.44-.47-.46-.08-.11-.18-.21-.24-.33-.06-.13-.18-.2-.21-.35-.02-.13-.12-.2-.19-.3-.01-.01-.03-.02-.04-.04-.01-.23-.35-.96-.4-1.04-.01-.02.03-.07.11-.16.08-.08.11-.12.19-.2.08-.07.21-.19.28-.25.06-.07.06-.09.1-.15.04-.05.19-.17.35-.28.17-.12.73-.5.89-.61Z"/><path class="cls-3" d="m48.31,356.21c.3.19-.06.52-.81.96-.24.14-1.03.38-1.17.33-.26-.08-.51-.17-.71-.28-.12-.06-.92-1.46-1.19-1.94-.28-.46-.42-.96-.53-1.47-.22-1.03-.46-2.06-.63-3.1-.04-.23-.04-.47,0-.71.15-.83.07-1.62-.07-2.41-.02-.13-.01-.27-.15-.39-.24-.19-.36-2.37-.26-2.65.23-.71.37-1.4.57-2.09.03-.1-.02-.2.13-.29.35-.2.3-.41.33-.62.04-.29.11-.59.24-.87.06-.14.27-.27.43-.41.15-.12.66-.02.71.03.16.14.4.05.62.05.07,0,.17,0,.23,0,.12.03.96,1.66.96,1.82,0,.01.02.16.04.39.03.23.07.53.11.83.09.61.2,1.25.25,1.37.04.13-.03.27-.07.41-.04.07.41,1.87.42,1.94,0,.38.18.74-.09,1.15-.05.08-.03.16-.01.23.14.64.12,1.3.15,1.96.01.34.13.66.18.99.01.06-.03.13-.03.19-.01.08-.04.16-.02.24.2.77.2,1.58.55,2.32.07.17-.06,1.11.05,1.3.06.11-.37.63-.25.71Z"/><path class="cls-3" d="m25.65,339.72c-.21.25-.44-.17-.65-1.01-.07-.27-.1-1.09-.05-1.21.11-.23.21-.46.32-.62.07-.09,1.2-.57,1.56-.78.36-.2.72-.27,1.09-.33.75-.12,1.5-.29,2.24-.47.16-.04.34-.04.52,0,.63.11,1.2-.02,1.74-.25.09-.04.19-.05.25-.19.09-.23,1.58-.73,1.8-.72.56.05,1.1,0,1.65-.02.08,0,.13-.08.25.03.28.25.41.13.57.09.22-.06.45-.11.7-.1.13,0,.31.13.48.23.15.08.33.57.33.64-.02.19.16.37.26.56.04.06.08.15.1.2.06.12-.83,1.53-.98,1.59-.03.02-1.81,1.07-2.05,1.21-.1.08-.25.04-.38.04-.05.01-1.55.82-1.62.83-.34.07-.64.29-1.05.09-.08-.04-.14,0-.21.02-.56.21-1.17.24-1.76.29-.3.03-.59.13-.89.19-.05.01-.12-.03-.17-.04-.07-.01-.15-.04-.21-.03-.7.17-1.42.11-2.11.34-.16.06-.98-.24-1.16-.17-.1.04-.49-.49-.57-.39Z"/><path class="cls-3" d="m480.1,387.22c.31.14-.04.48-.77.95-.23.15-1.01.43-1.15.4-.26-.05-.51-.1-.7-.17-.12-.05-.94-1.16-1.25-1.52-.3-.35-.47-.76-.63-1.16-.31-.83-.66-1.65-.97-2.48-.07-.18-.1-.38-.1-.59,0-.72-.21-1.36-.51-1.97-.05-.1-.07-.22-.22-.28-.26-.1-.89-1.82-.88-2.08.03-.64-.03-1.25-.06-1.87,0-.09-.08-.16.03-.28.26-.29.15-.44.11-.62-.05-.25-.09-.51-.07-.78.01-.14.15-.32.26-.49.1-.15.6-.28.67-.26.19.05.39-.12.59-.21.07-.03.15-.07.21-.08.13-.03,1.48,1.02,1.53,1.17.01.04,1.03,1.93,1.18,2.13.08.11.05.25.05.39,0,.06.88,1.55.9,1.61.09.34.34.62.18,1.06-.03.09,0,.15.04.21.27.55.37,1.15.51,1.75.07.3.23.58.33.87.02.05,0,.12,0,.18,0,.07-.02.16.01.22.3.67.39,1.42.8,2.05.09.15.02,1.03.14,1.19.07.09-.34.62-.21.68Z"/><path class="cls-3" d="m483.83,366.72c-.17.25-.36-.17-.57-1.01-.07-.27-.13-1.09-.09-1.21.08-.24.17-.46.26-.62.06-.1,1.05-.57,1.39-.77.32-.19.66-.24,1-.27.69-.06,1.37-.16,2.06-.23.15-.02.31,0,.47.07.55.21,1.07.18,1.59.07.09-.02.18,0,.25-.14.12-.22,1.54-.34,1.74-.25.48.21.95.32,1.43.47.07.02.13-.03.21.11.17.33.3.26.45.28.2.02.4.06.61.16.1.05.22.24.32.38.1.13.1.65.07.71-.07.17.02.41.05.62,0,.07.02.17.02.22,0,.13-1.05,1.13-1.17,1.14-.03,0-1.65.44-1.83.53-.09.05-.2-.03-.3-.07-.05-.02-1.34.41-1.39.41-.28-.01-.54.15-.84-.13-.06-.06-.11-.03-.17-.02-.46.1-.94.03-1.42,0-.24-.02-.48.05-.72.08-.04,0-.09-.04-.14-.06-.06-.02-.12-.06-.17-.05-.56.1-1.15-.02-1.7.18-.13.05-.78-.27-.93-.2-.08.04-.41-.5-.47-.39Z"/></svg>