<svg xmlns="http://www.w3.org/2000/svg" viewBox="0 0 520 520" width="100%" height="100%"><defs><style>.cls-1,.cls-2{opacity:.45;}.cls-1,.cls-3,.cls-4{fill:currentColor;stroke-width:0px;}.cls-5{opacity:.4;}.cls-6{opacity:.35;}.cls-7{opacity:.65;}.cls-8,.cls-3{opacity:.55;}.cls-9{opacity:.85;}.cls-10{opacity:.95;}</style></defs><g class="cls-7"><path class="cls-4" d="m263.35,409.32c-.08.28-.4.02-.91-.53-.16-.18-.52-.79-.51-.91.01-.23.04-.46.09-.64.02-.12,1.06-1.02,1.46-1.3.36-.3.79-.46,1.22-.6.88-.26,1.76-.51,2.67-.63.2-.03.41-.03.61.02.71.16,1.38.14,2.07.1.11,0,.23.02.35-.09.19-.21,2.08.02,2.3.17.56.32,1.11.59,1.62.92.07.04.17.04.2.18.08.34.26.35.42.43.22.1.43.25.62.44.09.09.13.29.19.46.05.15-.19.53-.24.56-.15.09-.16.31-.23.48-.02.06-.05.13-.08.18-.07.08-1.46.36-1.57.34-.01-.01-.45-.07-.9-.12-.46-.03-.92-.05-1.02-.02-.1.02-.19-.07-.28-.12-.05-.06-1.4.12-1.44.12-.27-.05-.54.09-.82-.17-.06-.05-.11-.03-.17-.03-.47.08-.95.03-1.44.04-.25,0-.48.1-.72.15-.04,0-.1-.02-.14-.03-.06,0-.12-.03-.18-.01-.55.18-1.16.21-1.65.56-.11.07-.83.04-.95.15-.07.05-.54-.24-.58-.12Z"/></g><g class="cls-7"><path class="cls-4" d="m281.15,429.7c-.14.37-.59.24-1.26-.16-.21-.13-.66-.68-.64-.82.04-.28.09-.55.18-.79.03-.16,1.55-1.67,2.14-2.12.53-.48,1.15-.82,1.79-1.13,1.3-.6,2.62-1.17,4.01-1.54.31-.09.62-.15.94-.15,1.11-.03,2.16-.2,3.23-.36.18-.03.36-.02.53-.15.13-.12.94-.2,1.77-.23.82-.01,1.66.05,1.85.1.47.15.93.28,1.39.4.45.15.9.3,1.35.45.13.04.27.04.37.19.21.35.5.37.77.45.38.11.74.28,1.09.49.17.1.3.32.44.5.12.16-.11.56-.18.59-.2.08-.14.32-.18.5-.01.06-.03.14-.06.18-.03.05-.6.11-1.16.16-.57.06-1.15.14-1.26.11-.02-.02-.76-.08-1.53-.13-.78,0-1.58,0-1.74.04-.17.03-.34-.05-.51-.09-.09-.08-2.37.31-2.45.34-.48,0-.92.2-1.43.01-.1-.04-.19,0-.29.01-.8.21-1.61.3-2.42.48-.42.08-.79.28-1.19.42-.07.03-.16.01-.24.02-.1.01-.2.02-.29.06-.9.42-1.89.71-2.67,1.34-.19.12-1.28.45-1.48.65-.11.09-.79,0-.85.16Z"/></g><g class="cls-6"><path class="cls-4" d="m120.1,443.63c-.45.03-.6-.45-.61-1.25,0-.25.28-.91.43-.95.29-.09.59-.16.87-.18.17-.03,2.5.68,3.27.99.77.26,1.46.66,2.14,1.09,1.36.89,2.71,1.81,3.95,2.87.28.23.54.48.76.78.77.99,1.63,1.85,2.5,2.73.14.15.27.31.48.39.19.05.81.73,1.41,1.45.58.73,1.12,1.52,1.22,1.72.21.51.44,1,.67,1.49.21.5.42.99.63,1.5.06.14.17.27.13.45-.11.43.09.69.22.99.2.41.34.85.44,1.29.05.22,0,.49-.04.74-.03.23-.48.31-.55.27-.21-.12-.33.11-.49.2-.05.03-.12.07-.17.08-.06.01-.52-.45-.98-.94-.47-.48-.97-.97-1.02-1.09-.01-.01-.12-.22-.32-.49-.2-.28-.46-.65-.73-1.03-.57-.74-1.18-1.49-1.33-1.63-.15-.15-.22-.35-.31-.55,0-.13-2.01-2.07-2.09-2.14-.35-.46-.85-.77-1.06-1.36-.04-.12-.14-.19-.22-.27-.75-.65-1.42-1.38-2.16-2.05-.37-.35-.81-.61-1.21-.92-.07-.06-.12-.14-.18-.21-.08-.09-.16-.18-.25-.24-1.01-.65-1.95-1.44-3.07-1.9-.25-.12-1.28-1.01-1.6-1.1-.17-.06-.51-.74-.69-.73Z"/></g><path class="cls-1" d="m232.03,96.77s19.72-33.18,22.82-34.71c3.11-1.53,21.28,5.05,31.58,13.78,10.3,8.73,13.53,12.76,12.57,15.03-.96,2.27-15.92-4.5-16.34-4.5s-22.48-9.67-22.48-9.67c0,0-4.64,3.74-7.75,10.01-3.11,6.27-10.24,18.57-10.24,18.57l-10.16-8.52Z"/><path class="cls-4" d="m239.2,103.49l-2.14-1.97c-.26-.24-.57-.42-.82-.66-.93-.83-1.78-1.76-2.68-2.63-.41-.37-.82-.74-1.23-1.1-.54-.46-1.07-.92-1.53-1.47-.14-.17-.04-.26.22-.3.25-.03.68-.04,1.07.12.68.29,1.35.59,1.99.93.6.4,1.17.83,1.71,1.32.65.57,1.4,1.07,2.1,1.61l2.25,1.85,1.39,1.14c.71.56,1.39,1.17,2.13,1.69.57.41,1.23.66,1.8,1.06.13.08.26.15.38.25.42.39.4.71.25,1.13-.04.1-.07.2-.11.29-.14.29-.51.39-1.01.36-.37-.03-.66-.16-.98-.25-.32-.1-.63-.22-.91-.39-.57-.32-1.11-.68-1.64-1.05-.79-.56-1.5-1.24-2.25-1.86l.03-.05Z"/><path class="cls-4" d="m232.03,96.77s-6.96-4.31-6.97-7c0-1.42,8.47,2.08,8.47,2.08l-1.51,4.92Z"/><path class="cls-4" d="m247.05,98.87s20.28,10.66,21.59,19.13c1.32,8.47-25.34-12.69-25.34-12.69l3.75-6.44Z"/><path class="cls-4" d="m148.17,211.45s6.12-13.6,8.13-13.41c2.07.19-.34,3.8-1.03,8.1-.5,3.11-2.13,5.91-2.13,5.91l-4.98-.59Z"/><path class="cls-4" d="m144.31,223.17s-3.51,10.34-.89,10.12c2.24-.19,4.62-9.56,4.62-9.56l-3.73-.57Z"/><path class="cls-1" d="m148.04,223.74l-22.56-7.56s-19.21-9.76-25.79-20.16c-6.58-10.4-4.99-12.62-2.06-12.04,2.93.58,11.59,2.65,16.15,7.51,4.56,4.86,24.59,18.98,24.59,18.98l16.25,2.61-6.59,10.66Z"/><path class="cls-4" d="m152.44,216.5c-.36.66-.7,1.33-1.02,2.03-.12.25-.17.53-.29.78-.43.89-.83,1.8-1.29,2.71-.19.4-.33.83-.46,1.25-.16.54-.4,1.07-.79,1.53-.12.14-.35.03-.58-.21-.22-.24-.49-.62-.49-.95-.03-.6.13-1.14.29-1.69.18-.54.35-1.09.66-1.6.36-.61.48-1.33.74-2,.28-.74.59-1.46.92-2.19.21-.44.42-.89.62-1.33.31-.68.69-1.32,1.02-1.99.26-.52.41-1.09.66-1.62.05-.12.12-.23.21-.32.34-.35.58-.37,1-.18.1.04.19.08.28.13.28.16.43.5.42.88,0,.14-.01.27-.02.41,0,.14,0,.28-.05.39-.06.24-.15.45-.23.69-.17.45-.36.89-.56,1.34-.3.66-.68,1.3-.99,1.98l-.05-.02Z"/><path class="cls-4" d="m172.08,194.9s20.2-76.48,51.56-105.14c0,0,8.78,12.8,23.69,19.77,14.91,6.97,23.82,10.31,23.82,10.31,0,0-16.66,13.76-21.49,23.98s-19.22,41.73-21.92,48.85c-2.7,7.12-3.84,10.17-3.84,10.17l-51.82-7.94Z"/><path class="cls-4" d="m200.99,306.09s1.89-28.72,4.27-29c2.37-.27,42.36-4.03,51.85-7.56,9.49-3.54,21.03-8.6,24.89-18.49s2.58-14.74-1.19-19.2c-3.77-4.46-7.63-6.72-15.8-13.12-12.47-9.77-61.1-20.16-75.65-21.87-14.55-1.71-34.54-1.63-34.54-1.63,0,0,3.61,10.49.36,16.82-3.26,6.33-14.25,22.93-14.25,22.93l6.72,4.29s.03-1.8,5.27-4.7c9.75-5.38,28.68-6.35,48.08-3.36,15.05,2.32,51,5.59,53.06,4.96,1.16-.35,3.2,1.13-2.45,3.05-5.65,1.93-25.63.01-29.36-1-4.1-1.11-36.29-3.9-50.16-2.05s-21.12,2.9-24.58,10.31-8,22.26-8.77,36.88c-.77,14.62,0,25.71,0,25.71,0,0,19.1,5.69,33.36,3.93,14.26-1.76,28.92-6.91,28.92-6.91Z"/><path class="cls-4" d="m130.15,326.23s.58-7.95,3.72-11.15c2.82-2.88,6.7-4.56,8.87-4.03,4.32,1.04-5.73-4.66-9.77-.33-4.08,4.36-2.82,15.52-2.82,15.52Z"/><path class="cls-4" d="m208.63,320.67c.68-.52,7.12-1.14,6.28,0-.84,1.14,2.55-5.6,2.55-5.6l-8.82,5.6Z"/><path class="cls-4" d="m324.63,475.96s6.11-1.18,6.45-7.18c.27-4.85-.03,8.82-2.39,8.19-2.36-.63-4.06-1.01-4.06-1.01Z"/><path class="cls-4" d="m446.79,449.93c-2.38,5.88-3.63,8.62-8.06,15.71-3.75,6-10.91,7.86-10.91,7.86l11.6-2.26,7.37-21.31Z"/><path class="cls-4" d="m332.68,466.57c.52-.98,1.08-1.94,1.71-2.87.22-.34.39-.71.63-1.04.83-1.18,1.73-2.32,2.74-3.34.44-.46.87-.92,1.31-1.38l.9-.81c.32-.25.67-.47,1.01-.68.22-.13.27,0,.21.25-.06.26-.2.67-.48,1.01-.96,1.26-1.78,2.54-2.74,3.79-.61.72-1.01,1.64-1.48,2.49l-1.5,2.85c-.31.59-.61,1.18-.9,1.79-.43.92-.87,1.84-1.25,2.77-.29.73-.46,1.49-.71,2.23-.06.16-.11.32-.19.48-.29.58-.5.71-.94.67-.1,0-.2,0-.29-.03-.31-.06-.46-.41-.44-.91.02-.36.05-.73.08-1.1.07-.36.15-.71.24-1.06.18-.71.4-1.41.66-2.11.42-1.02.91-2.02,1.39-3.03l.05.02Z"/><path class="cls-4" d="m344.08,459.67c.14-.15,4.05-7.3,2.68-8.4s-8.75,7.06-8.75,7.06l6.07,1.33Z"/><path class="cls-4" d="m329.84,478.39c4.63.23,16.79-4.13,23.03-2.78,1.34.29-16.11-4.46-14.87-4.24,3.3.6-5.18-2.6-5.18-2.6l-2.98,9.62Z"/><path class="cls-4" d="m213.9,472.01c-1.12,1.27-2.44,2.36-3.83,3.28-.5.34-1,.69-1.53.99-1.87,1.03-3.85,1.82-5.86,2.43-.89.28-1.79.54-2.68.78-1.14.33-2.34.41-3.52.47-.37.01-.33-.04-.04-.19.29-.14.81-.45,1.44-.71l.83-.34c.14-.06.28-.11.41-.17l.42-.12c.56-.16,1.13-.32,1.68-.5,1.12-.35,2.22-.73,3.33-1.15,1.32-.5,2.58-1.28,3.76-2.07,1.32-.87,2.53-1.87,3.62-3,.68-.69,1.31-1.43,1.86-2.23.84-1.2,1.57-2.5,2.02-3.89.37-1.07.45-2.19.58-3.27.03-.24.04-.48.05-.72.11-.9.22-1.19.55-1.4.07-.05.14-.11.21-.14.23-.1.46.27.65,1.01.1.54.15,1.1.15,1.67.03.57-.02,1.15-.14,1.71-.21,1.14-.61,2.24-1.1,3.3-.73,1.57-1.71,3.01-2.84,4.3l-.03-.02Z"/><path class="cls-4" d="m162.37,443.11s-12.98-7.55-22.09-1.88c0,0-.96-1.02.55-2.72,1.51-1.69,5.74-2.64,8.47-2.16,2.73.47,9.22,2.95,9.22,2.95l3.85,3.81Z"/><path class="cls-4" d="m96.31,465.4s-4.35-16.59-.02-17.16c4.33-.56,10.28,23.67,10.28,23.67,0,0-3.98-2.65-6.45-3.78-2.48-1.13-3.81-2.73-3.81-2.73Z"/><path class="cls-4" d="m235.94,405.15c.23-.71.38-1.12.68-1.71.13-.26.27-.51.42-.76.07-.11.15-.23.22-.34.04-.05.29-.36.09-.13.15-.18.31-.36.48-.52.07-.07.14-.13.21-.19.11-.09.09-.08-.05.04.05-.04.1-.07.15-.1.15-.1.34-.17.48-.28.09-.04.05-.03-.13.05.05-.02.1-.04.15-.06.09-.03.18-.06.27-.08.06-.02.22-.08.28-.06-.22.03-.26.03-.11.02h.08c.19-.01.38,0,.57,0,.22,0-.3-.08.06.01.08.02.17.04.25.06.2.05.4.12.59.19.27.1-.21-.11.03.01.11.06.23.11.34.17.21.11.41.24.61.37.09.06.18.12.26.18.06.04.12.08.17.13-.12-.1-.12-.1,0,0,.21.17.41.34.61.52.53.48,1.35.52,1.87,0,.49-.49.53-1.39,0-1.87-1.7-1.54-3.95-2.89-6.32-2.28-2.68.69-4.04,3.53-4.83,5.93-.22.68.26,1.45.93,1.63.72.2,1.41-.24,1.63-.93h0Z"/><path class="cls-4" d="m200.99,387.95s4.63,8.9,9.43,6.6c4.8-2.29-3.7,10.24-3.7,10.24l-5.73-16.84Z"/><path class="cls-4" d="m216.67,444.97s4.62,1.39,9.76,6.04c5.14,4.66,11.78,9.33,14.53,8.02,2.75-1.31,1.88,0,1.88,0,0,0,7.18-9.72,12.1-12.92,4.92-3.2,12.88-8.59,23.58-7.24,11.48,1.45,27.67,18.68,13.55,36.23,0,0-4.28,4.55-12.59,4.42-8.32-.14-20.48-3.87-20.48-3.87,0,0-4.51,3.74-9.65,4.47-5.14.72-14.8.83-19.74-.47-4.95-1.3-13.38-7.76-13.38-7.76,0,0,2.76-6.79,1.9-14.85-.86-8.06-1.48-12.08-1.48-12.08Z"/><path class="cls-4" d="m230.64,478.4c2.24.67,4.58,1.08,6.96,1.23.87.05,1.74,0,2.61-.02,3.08.02,6.2-.34,9.27-.98,1.36-.3,2.69-.73,3.96-1.25,1.64-.67,3.18-1.47,4.89-1.97.52-.18.67.08.52.73-.07.33-.22.74-.45,1.21-.22.48-.57.94-1.04,1.23-1.64,1.14-3.46,1.87-5.31,2.45-1.85.57-3.75,1-5.7,1.13-2.31.18-4.69.58-7.06.57-2.61,0-5.22-.29-7.76-.87-1.56-.36-3.11-.82-4.6-1.41-2.27-.87-4.41-2.08-6.41-3.42-1.58-1.01-3.06-2.12-4.43-3.4-.29-.29-.6-.55-.88-.86-.94-1.22-1.03-1.77-.68-2.43.08-.15.14-.31.23-.43.29-.38,1.07-.22,1.9.42,2.47,1.92,4.92,3.74,7.58,5.34,2,1.14,4.15,2.06,6.42,2.67l-.02.08Z"/><path class="cls-4" d="m58.08,472.82c-.65-.33-1.29-.68-1.92-1.07l-.48-.3-.24-.15-.31-.22c-.41-.29-.8-.55-1.24-.99-.32-.28-.66-.55-.85-.87l-.35-.46c-.11-.15-.15-.31-.22-.47l-.16-.41-.06-.42c-.07-.27-.03-.57,0-.85.07-.57.22-1.13.62-1.56.43-.45.92-.45,1.34-.42.45.06.94.16,1.57.5.27.14.57.34.84.55l.41.35.39.28c.49.35.75.52,1.08.71.41.23.8.51,1.23.66.43.13.87.23,1.3.13.27-.06.33.05.14.33-.17.26-.74.69-1.47.67-.61-.05-1.25-.02-1.82-.17-.28-.09-.54-.18-.8-.28-.25-.1-.31-.14-.3-.15-.03-.06-.12-.28-.62-.6-.34-.17-.45.09-.43.27,0,.21.16.38.26.53.06.09.13.17.22.25l.06.07.13.1.27.2c.47.32,1.09.69,1.67,1,.73.39,1.49.76,2.27,1.09,1.18.49,2.38.99,3.61,1.34.96.26,1.94.41,2.91.61.21.04.43.07.64.12.77.26.96.53.93,1.22,0,.16,0,.32-.02.46-.07.5-.52.82-1.15.85-1.88.05-3.73-.39-5.51-1.1-1.34-.49-2.64-1.12-3.97-1.74l.02-.06Z"/><path class="cls-4" d="m55.2,464.62c-.54-.87-.74-1.61-.74-2.28-.02-.66.2-1.41.8-2.08.38-.18.52-.16.74-.2.2-.03.42-.05.68-.04.35.07.74.16,1.24.39.49.23,1.03.52,1.57.85l4.11,2.64c1.06.68,2.14,1.31,3.25,1.88.99.5,2.04.86,3.06,1.22.66.22,1.35.35,2,.59.66.22,1.34.45,2.04.56.43.09.39.3,0,.55-.2.13-.48.28-.84.39-.36.14-.78.27-1.24.32-.4,0-.82.08-1.21.02-.4-.05-.79-.11-1.18-.18-.77-.15-1.55-.32-2.26-.64-1.45-.58-2.81-1.31-4.1-2.14-.77-.5-1.56-.98-2.36-1.45l-.66-.39c-.13-.08-.25-.15-.39-.25l-.52-.37-.3-.2c-.1-.04-.24-.17-.33-.1-.36.21-.27.63-.1.93.23.43.58.84,1.09,1.3,1.37,1.18,2.86,2.28,4.45,3.18,1.23.71,2.57,1.14,3.83,1.67.28.11.55.22.83.34,1.03.43,1.27.78,1.4,1.27.03.12.08.23.09.34.04.33-.52.55-1.48.52-.69-.08-1.37-.21-2.05-.37-.68-.15-1.3-.47-1.93-.74-1.25-.59-2.46-1.29-3.63-2.08-.87-.58-1.71-1.21-2.52-1.9l-.66-.57c-.39-.33-.72-.67-1.07-1-.71-.66-1.28-1.36-1.7-2.01h.08Z"/><path class="cls-4" d="m221.83,386.4c3.57-.77,7.39-.24,10.57,1.26,1.16.55,2.31,1.1,3.34,1.84,3.62,2.6,6.29,6.05,8.54,9.61.99,1.59,1.99,3.18,2.83,4.83.55,1.06,1.11,2.11,1.54,3.22.39,1.13.72,2.28.89,3.47.11.74-.03.68-.53.22-.26-.23-.61-.56-1.05-.94-.41-.4-.84-.87-1.23-1.42-2.42-4-4.61-8.02-7.45-11.68-1.68-2.2-3.93-4.02-6.28-5.4-2.58-1.53-5.52-2.38-8.48-2.14-1.8.14-3.67.63-5.27,1.49-1.24.64-2.42,1.49-3.51,2.43-1.09.95-2.12,1.99-3,3.14-1.41,1.77-2.36,3.79-3.27,5.77-.2.44-.35.88-.53,1.33-.19.4-.35.73-.49,1.02-.15.27-.32.49-.46.66-.26.35-.56.53-.9.65-.16.06-.31.15-.43.18-.22.05-.36-.13-.5-.53-.15-.4-.21-1.02-.14-1.77.12-1.12.43-2.2.8-3.28.19-.54.41-1.06.62-1.59.24-.52.52-1.02.8-1.52,1.15-1.99,2.58-3.85,4.24-5.53,1.24-1.25,2.6-2.4,4.19-3.34.4-.23.81-.45,1.22-.67.42-.21.87-.38,1.3-.57.87-.33,1.73-.6,2.64-.8l.02.08Z"/><path class="cls-4" d="m216.04,322.02c-.41.48-.83.96-1.29,1.4-.44.46-.92.88-1.4,1.29-.34.31-.69.62-1.06.89-1.36.92-2.83,1.64-4.33,2.19-.34.1-.67.23-1,.35l-1,.32c-.43.13-.86.28-1.31.32-.45.05-.91.01-1.36-.03-.28-.04-.28-.29-.1-.64.18-.34.49-.85.91-1.1.36-.26.74-.39,1.11-.54l1.1-.48c.72-.35,1.47-.61,2.24-.91.92-.37,1.69-1.07,2.43-1.74.84-.72,1.65-1.49,2.4-2.34.45-.53.91-1.07,1.29-1.66.61-.87,1.2-1.79,1.62-2.77.38-.74.51-1.58.78-2.34.06-.17.1-.34.18-.51.28-.62.56-.75,1.11-.71.13,0,.25,0,.37.02.37.05.64.45.67,1.01.01.42.02.84,0,1.27-.07.41-.15.81-.25,1.22-.16.83-.53,1.6-.92,2.35-.61,1.11-1.33,2.17-2.12,3.18l-.06-.04Z"/><path class="cls-4" d="m134.31,221.53c-1.92-.52-3.86-.98-5.82-1.39-.72-.15-1.45-.19-2.16-.35-2.53-.51-5.06-1.18-7.62-1.65-1.14-.21-2.28-.38-3.41-.55-1.46-.17-2.92-.44-4.34-.91-.44-.15-.35-.41.08-.7.43-.28,1.19-.67,2.05-.73.76-.06,1.51-.05,2.27-.02.75.02,1.5.06,2.25.11,1.49.17,2.98.39,4.47.72,1.78.38,3.68.44,5.52.78,2.02.34,4.04.76,6.04,1.2,1.24.28,2.47.58,3.7.89,1.86.47,3.7,1.07,5.53,1.56,1.42.4,2.88.61,4.29,1.03.31.09.62.16.93.28,1.14.42,1.38.86,1.39,1.55,0,.16.02.33,0,.48-.07.49-.69.74-1.59.73-2.64-.18-5.17-.93-7.78-1.53-1.93-.47-3.87-.94-5.81-1.42v-.08Z"/><path class="cls-4" d="m112.44,193.33c-2.56-1.7-5.16-3.33-7.81-4.76-1.32-.72-2.67-1.38-4-1.89-.33-.13-.67-.27-.99-.35-.32-.09-.66-.22-.96-.26-.31-.07-.63-.14-.87-.14-.12,0-.28-.04-.38-.02-.09.02-.18.03-.27.03-.35.02-.53.26-.52.59-.01.54.28,1.52.68,2.41,1.46,3.27,3.91,6.47,6.47,9.4,2.6,2.94,5.45,5.69,8.49,8.21,2.7,2.23,5.56,4.31,8.56,6.07,1.91,1.16,3.89,2.18,5.92,3.1,2,.97,4.02,1.95,6.19,2.58,1.35.39,1.18.39-.05.44-1.21,0-3.57.11-6.27-.46-4.61-1.42-8.88-3.69-12.82-6.37-1.99-1.31-3.84-2.83-5.62-4.41-1.78-1.58-3.49-3.25-5.11-5.01-1.93-2.11-3.88-4.28-5.69-6.64-.9-1.18-1.77-2.42-2.54-3.75-.74-1.35-1.45-2.77-1.73-4.59-.16-.91-.06-2.49.75-3.48.74-1.04,2.19-1.58,3.26-1.6.55-.04,1.02.03,1.51.07.44.09.9.17,1.33.29l1.23.38,1.17.45c3.05,1.27,5.83,2.86,8.54,4.52,3.33,2.05,6.55,4.25,9.73,6.48,4.82,3.38,9.48,7,14.12,10.52.91.68,1.81,1.36,2.71,2.03l1.35,1.01c.27.2.37.28.49.34l.56.12c2.14.45,4.32.81,6.5,1.13.96.14,1.9.24,2.86.36,3.56.5,4.6.81,5.38,1.57.18.17.42.33.54.49.43.48-1.18,1.27-3.99,1.29-2.08.05-4.14-.22-6.21-.48-2.08-.28-4.11-.62-6.26-1.1-.21-.05-.48-.12-.71-.19-.12-.04-.25-.05-.36-.12l-.29-.23-.81-.61-1.25-.93c-.83-.62-1.67-1.25-2.51-1.87-1.68-1.24-3.37-2.49-5.06-3.74-5.05-3.66-10.09-7.39-15.29-10.76l.04-.08Z"/><path class="cls-4" d="m185.55,150c1.21-2.83,2.59-5.58,3.88-8.38,1.35-2.77,2.72-5.52,4.11-8.27,1.04-1.99,1.99-4.02,3.04-6.01,3.8-6.94,7.9-13.71,12.19-20.34l2.86-4.42c.97-1.46,1.94-2.92,2.91-4.36,2.49-3.71,4.99-7.46,8.3-10.55.99-.99,1.07-.69.75.53-.16.61-.41,1.47-.73,2.48-.17.5-.33,1.06-.57,1.6-.26.53-.57,1.06-.9,1.6-.6.96-1.15,1.94-1.79,2.88-.62.94-1.27,1.86-1.88,2.8-1.23,1.89-2.46,3.78-3.69,5.67-2.48,3.78-4.96,7.56-7.46,11.37-2.93,4.59-5.53,9.64-8.09,14.6l-2.11,4.08-2.03,4.13c-1.38,2.74-2.65,5.54-3.94,8.32-.81,1.71-1.55,3.45-2.31,5.18-.75,1.73-1.53,3.46-2.23,5.21-2.17,5.29-4.31,10.64-6.11,16.03-1.44,4.18-2.52,8.38-3.7,12.59-.24.93-.48,1.84-.72,2.78-.47,1.73-.91,2.84-1.3,3.59-.2.37-.4.66-.62.88-.25.21-.51.36-.76.49-.23.12-.47.29-.64.35-.52.21-.96-1.44-.38-4.04,1.56-7.74,4.1-15.67,6.94-23.51l1.61-4.36,1.72-4.33c1.13-2.89,2.37-5.75,3.59-8.61l.08.03Z"/><path class="cls-4" d="m236.27,166.58c2.26-4.61,4.58-9.21,7.15-13.67.92-1.64,1.76-3.32,2.79-4.9.9-1.39,1.74-2.82,2.69-4.18l2.84-4.08c2-2.65,3.97-5.31,6.15-7.81,1.84-2.29,3.91-4.42,5.82-6.62,1.3-1.35,2.66-2.65,4.03-3.93,1.4-1.25,2.97-2.32,4.58-3.3,1.01-.6,1.03-.32.59.67-.22.5-.53,1.2-.95,1.98-.21.39-.43.82-.71,1.22-.29.39-.62.78-.98,1.15-.64.68-1.23,1.41-1.84,2.1l-.91,1.05-.97.99c-1.27,1.35-2.46,2.78-3.71,4.14-.64.67-1.21,1.41-1.8,2.13l-1.83,2.12c-.63.69-1.22,1.42-1.8,2.16l-1.78,2.19c-.35.44-.71.88-1.06,1.33l-.98,1.4c-.64.95-1.28,1.91-1.92,2.87-1.25,1.95-2.38,3.99-3.61,5.95-2.54,4.4-5.06,8.85-7.31,13.43-1.43,2.8-2.75,5.66-4.08,8.52-.96,2.18-1.92,4.37-2.89,6.56-.92,2.21-1.85,4.4-2.69,6.62-1.31,3.45-2.45,6.88-3.66,10.32-.27.76-.5,1.51-.78,2.27-.51,1.41-.92,2.31-1.33,2.9-.2.3-.38.52-.58.69-.23.16-.46.26-.66.36-.19.09-.37.22-.49.27-.3.2-.7-1.26-.1-3.39.86-3.16,1.86-6.37,2.94-9.61,1.09-3.23,2.33-6.46,3.62-9.69,1.89-4.8,4.01-9.54,6.15-14.25l.08.03Z"/><path class="cls-4" d="m246.15,95.42l2.4-4.3c.29-.53.51-1.09.81-1.61,1.05-1.84,2.26-3.61,3.43-5.38.52-.79.99-1.61,1.49-2.4.35-.49.68-1,1.04-1.48.39-.46.85-.88,1.3-1.29.29-.25.44-.08.52.36.06.43.15,1.18-.05,1.85-.79,2.31-2.11,4.25-3.45,6.28-.82,1.2-1.39,2.6-2.08,3.92l-2.3,4.35-1.41,2.7c-.69,1.37-1.44,2.73-2.08,4.12-.51,1.08-.87,2.21-1.33,3.3-.1.24-.17.49-.29.73-.26.41-.48.66-.73.78-.27.11-.54.1-.87.03-.15-.03-.31-.05-.44-.09-.23-.08-.37-.25-.48-.51-.1-.26-.18-.61-.11-.97.16-1.08.58-2.06.96-3.06.39-1,.86-1.99,1.35-2.97.72-1.46,1.5-2.9,2.25-4.37l.07.03Z"/><path class="cls-4" d="m240.71,77.7c1.73-2.43,3.56-4.79,5.37-7.14.66-.86,1.25-1.77,1.92-2.62,2.37-2.99,4.81-5.91,7.14-8.9,1.04-1.32,1.98-2.73,2.96-4.08.62-.87,1.17-1.8,1.84-2.63.35-.41.7-.82,1.06-1.22.35-.41.8-.75,1.2-1.13.53-.45.61-.29.6.38,0,.43-.02.91-.03,1.4-.04.56-.17,1.16-.41,1.76-2.04,3.97-4.83,7.4-7.73,10.76-1.75,2-3.25,4.31-4.86,6.47-1.77,2.38-3.55,4.75-5.26,7.17-1.06,1.48-2.11,2.97-3.13,4.49-1.52,2.3-3.05,4.61-4.36,7.02-1.04,1.86-1.8,3.82-2.75,5.69-.2.42-.36.84-.59,1.25-.85,1.5-1.25,1.92-2.08,1.93-.17.01-.33.06-.45.06-.33.03-.68-.93-.26-2.16.48-1.89,1.18-3.75,1.99-5.58.88-1.79,1.83-3.59,2.87-5.33,1.51-2.61,3.2-5.12,4.88-7.62l.07.04Z"/><path class="cls-4" d="m258.55,414.78c.14,1.28.01,2.32-.25,3.27-.25.95-.59,1.81-.96,2.63-.27.6-.49,1.22-.79,1.78-1.08,2.01-2.3,3.86-3.47,5.73-.53.82-1.01,1.67-1.46,2.52-.3.54-.52,1.11-.83,1.63-.31.52-.65,1.02-.94,1.53-.18.31-.43.24-.66-.17-.22-.41-.45-1.21-.3-1.98.83-2.56,2.12-4.74,3.58-6.83.87-1.25,1.48-2.71,2.1-4.08.68-1.5,1.31-3.07,1.4-4.51.02-.43-.02-.85-.2-1.15-.17-.3-.36-.51-.63-.72-.23-.16-.98-.24-1.67-.14-.71.08-1.46.25-2.18.5-1.13.37-2.12,1.05-3.16,1.58-.23.12-.43.27-.66.38-.85.43-1.15.41-1.71-.02-.13-.1-.27-.18-.38-.29-.39-.33-.28-.98.32-1.58,1.72-1.77,3.9-2.87,6.5-3.54.5-.11,1.01-.17,1.59-.19.56-.02,1.21,0,1.98.22.37.12.92.37,1.19.6.3.23.59.47.83.79.47.63.7,1.37.81,2.02l-.07.02Z"/><path class="cls-4" d="m227.1,449.63c1.19,1.17,2.37,2.32,3.59,3.4.45.39.97.67,1.42,1.05.39.35.81.64,1.23.94.42.3.82.63,1.27.88l1.32.79,1.39.62c.41.2.85.28,1.28.39.44.08.87.24,1.31.23l.85.02c.28.02.56.08.85.1.28,0,.57-.02.86.06.3.08.6.17.91.26.39.13.4.35.13.77-.13.21-.33.49-.59.81-.13.15-.28.34-.45.46-.17.11-.35.2-.55.26-2.82.65-5.78-.31-8.02-1.82-.34-.23-.69-.44-1.05-.64-.34-.22-.68-.44-1.03-.65-.71-.41-1.39-.85-2.03-1.34-1.41-1.06-2.7-2.23-3.95-3.41l-2.27-2.19c-1.15-1.09-2.28-2.19-3.48-3.16-.46-.39-.96-.7-1.46-1-.49-.32-1.01-.57-1.5-.85-.22-.13-.44-.23-.65-.37-.8-.42-.98-.72-.95-1.36,0-.15,0-.3.02-.43.07-.46.59-.64,1.4-.49,2.42.45,4.52,1.81,6.4,3.2,1.33,1.12,2.56,2.32,3.8,3.45l-.05.06Z"/><path class="cls-4" d="m189.46,479.1c5.31-.03,10.63-.36,15.45-1.93,2.4-.78,4.64-1.88,6.47-3.43,1.83-1.54,3.22-3.53,3.95-5.85.19-.4.25-.85.35-1.28l.29-1.31c.11-.92.25-1.84.27-2.79.13-1.88.07-3.81.01-5.74-.3-6.82-1.44-13.68-2.82-20.47-1.42-6.79-3.15-13.54-5.12-20.21-1.76-5.92-3.77-11.81-5.96-17.53-1.41-3.68-2.91-7.32-4.42-10.96-1.53-3.63-3.11-7.21-4.4-10.97-.84-2.33-.73-2.03.67-.41.67.82,1.81,1.92,2.87,3.41.55.74,1.15,1.54,1.7,2.44.53.91,1.03,1.89,1.53,2.93,3.49,7.38,6.25,15.04,8.81,22.76,2.53,7.74,4.75,15.59,6.48,23.61,1.05,4.79,2.06,9.69,2.86,14.68.8,4.99,1.39,10.07,1.27,15.22l-.12,2.13c-.06.71-.16,1.43-.24,2.14-.3,1.44-.54,2.92-1.16,4.3-1.08,2.8-2.97,5.31-5.33,7.13-2.36,1.83-5.06,3.06-7.8,3.86-2.75.81-5.54,1.28-8.32,1.57-6.86.7-13.68.3-20.4-.02-10.2-.52-20.43-1.21-30.54-1.52-7.86-.24-15.57-.18-23.3.12-1.7.08-3.37.16-5.06.29-3.17.16-5.21.36-6.68.31-.74-.03-1.3-.02-1.79-.12-.49-.1-.9-.24-1.28-.43-.35-.17-.79-.32-1.02-.49-.38-.3.05-.7,1.17-1.2.56-.26,1.3-.51,2.21-.74.9-.19,1.95-.37,3.14-.54,7.04-.9,14.25-1.06,21.54-1.05,7.29.03,14.66.3,22.03.63,5.46.28,10.94.56,16.42.83,5.46.27,10.95.59,16.29.55l.02.09Z"/><path class="cls-4" d="m91.21,466.15c1.53-.58,3.27-.92,5-.77.67.06,1.32.14,1.91.37,2.08.81,3.55,2.17,4.96,3.48.61.6,1.25,1.16,1.87,1.72.81.7,1.53,1.49,2.13,2.39.18.28-.07.5-.53.58-.45.08-1.16.06-1.68-.28-.96-.57-1.73-1.29-2.51-1.99-.76-.68-1.52-1.37-2.3-2.07-.91-.83-2.09-1.31-3.14-1.53-.29-.09-.58-.09-.86-.13-.31.01-.63-.01-.95.03-.63.04-1.27.21-1.9.4-.78.27-1.57.6-2.34,1.01-1.17.62-2.37,1.31-3.51,2.06-.89.59-1.7,1.29-2.59,1.91-.2.14-.39.26-.61.37-.4.2-.7.24-.95.2-.27-.09-.47-.24-.67-.45-.09-.1-.19-.18-.26-.28-.12-.16-.13-.34-.08-.6.05-.25.15-.61.38-.82.64-.73,1.37-1.28,2.14-1.82.76-.54,1.57-1.08,2.4-1.61,1.24-.79,2.57-1.57,4.08-2.24l.03.06Z"/><path class="cls-4" d="m81.32,479.11c-2.86-.08-5.72-.17-8.61-.37-1.06-.07-2.12-.04-3.21-.17l-.66-.09c-.34-.05-.68-.09-1-.18-.66-.15-1.27-.36-1.73-.67-.46-.31-.82-.66-.99-1.2-.08-.28-.09-.55,0-.8.08-.26.12-.51.26-.76.38-.69.91-1.32,1.58-1.84l.51-.38c.19-.12.35-.2.47-.27.27-.15.55-.27.82-.38,1.11-.44,2.22-.68,3.32-.82,1.7-.24,3.39-.31,5.04-.27l1.59.04c.53.04,1.05.12,1.57.19,1.04.16,2.07.4,3.08.73.62.2.51.45-.07.77-.59.31-1.65.83-2.83.93l-1.56.14c-.51.05-1.02.02-1.53.04-1.01,0-2.01.1-2.99.12-.98.03-1.95.12-2.86.27-.46.08-.9.18-1.33.3-.21.06-.42.13-.61.21-.19.06-.43.2-.47.18-.16.04-.35.15-.49.31-.09.11-.24.28-.11.41.11.11.27.15.42.19l.23.05.38.06,1.4.19c2.78.33,5.65.36,8.51.44l5.29.08c2.68.02,5.37.05,8.03.07,2.07,0,4.11-.13,6.2-.08.46.01.92,0,1.39.05,1.74.21,2.29.69,2.47,1.38.04.16.1.33.1.48-.02.49-.71.66-1.88.74-3.62,0-7.35.01-11.12.02-2.86-.02-5.74-.04-8.61-.06v-.07Z"/><path class="cls-4" d="m71.21,461.76c1.28.48,2.57.92,3.88,1.27.48.13.97.16,1.45.28.84.2,1.69.39,2.54.54.85.16,1.7.28,2.56.3.76.02,1.5-.09,2.2-.28.44-.11.91-.21,1.32-.38l.33-.1c.12-.01.25-.02.35-.06.23-.05.47-.11.72-.16.32-.05.47.15.46.61,0,.23-.04.53-.14.88-.11.33-.24.78-.56.92-.26.17-.53.36-.8.5l-.84.39c-.28.15-.59.17-.88.23l-.88.14c-1.17.09-2.32.06-3.43-.18-1.32-.25-2.68-.34-3.99-.62-1.43-.32-2.83-.74-4.2-1.2l-2.52-.88c-1.4-.54-2.52-1.36-3.63-2.1-.87-.58-1.78-1.04-2.65-1.6-.19-.12-.37-.25-.54-.4-.32-.28-.48-.51-.53-.76-.06-.24-.02-.46.08-.73.05-.12.08-.25.13-.35.18-.34.68-.42,1.34-.29.93.27,1.75.68,2.54,1.13.77.44,1.55.89,2.32,1.33.55.33,1.07.64,1.56.86.25.11.48.2.81.3l1.03.34-.02.07Z"/><path class="cls-4" d="m117.32,439.01c2.37.4,4.72.91,7.05,1.48.85.19,1.71.36,2.55.61,2.95.9,5.86,1.93,8.68,3.16.64.24,1.25.56,1.88.83.63.26,1.25.56,1.86.86,1.59.71,3.14,1.65,4.36,3.05.38.43.08.59-.51.59-.3,0-.65-.03-1.05-.09-.42-.04-.87-.12-1.29-.31-1.59-.54-3.09-1.25-4.7-1.79-1.58-.59-3.14-1.31-4.74-1.95-1.91-.82-4.04-1.22-6.1-1.71-2.26-.57-4.55-1.05-6.85-1.45-1.42-.26-2.85-.42-4.28-.62l-3.26-.28c-1.09-.07-2.18-.08-3.26-.08-1.69.02-3.33.35-4.97.53-.36.05-.71.13-1.08.16-.68.06-1.13.06-1.46-.09-.33-.18-.54-.42-.73-.78-.08-.16-.19-.31-.25-.47-.1-.26-.01-.51.21-.77.23-.26.6-.57,1.11-.69.75-.22,1.52-.42,2.3-.6.78-.16,1.58-.21,2.38-.29,1.61-.17,3.24-.11,4.88-.08,2.43.1,4.86.37,7.26.71v.08Z"/><path class="cls-4" d="m150.59,435.34c2.1.39,4.04,1.07,5.91,1.85.67.31,1.38.51,2.03.85,2.3,1.16,4.47,2.5,6.61,3.83.94.61,1.9,1.19,2.85,1.74,1.26.65,2.38,1.54,3.46,2.48.33.3.16.5-.33.61-.48.1-1.34.19-2.14-.05l-1.05-.35c-.35-.12-.66-.31-.98-.46l-1.92-.98c-.64-.33-1.26-.68-1.85-1.09-.6-.39-1.2-.78-1.79-1.19-1.43-.97-3.09-1.6-4.68-2.3-1.74-.76-3.51-1.46-5.32-1.89-.56-.16-1.12-.22-1.68-.34-.56-.07-1.13-.13-1.69-.15-1.69-.05-3.39.28-4.87,1.1-1.17.62-2.07,1.61-3.05,2.52-.22.2-.41.43-.63.63-.41.38-.73.58-1.04.63-.3.06-.56,0-.86-.14-.14-.07-.29-.12-.41-.19-.39-.25-.35-.88.08-1.68.75-1.06,1.58-2.16,2.73-3.02,1.12-.88,2.46-1.67,3.95-2.14,1.1-.36,2.25-.55,3.39-.59.57-.01,1.13,0,1.67.05.55.03,1.1.09,1.62.19v.07Z"/><path class="cls-4" d="m225.21,345.71c.78,2.45,1.59,4.9,2.45,7.34.31.89.71,1.74,1.01,2.64,1.06,3.15,2.14,6.3,3.33,9.41.52,1.38,1.1,2.75,1.69,4.09.81,1.7,1.48,3.47,1.98,5.31.15.58-.14.62-.67.32-.52-.31-1.36-.94-1.97-1.86-1.99-3.33-3.52-6.88-4.75-10.59-.74-2.21-1.8-4.4-2.67-6.61-.93-2.45-1.79-4.93-2.63-7.41l-1.53-4.59c-.77-2.32-1.46-4.67-2.25-6.97-.59-1.79-1.29-3.51-1.9-5.28-.14-.39-.27-.77-.37-1.17-.18-.75-.27-1.25-.2-1.64.12-.4.28-.66.5-.88.1-.1.18-.23.27-.3.15-.12.34-.04.62.17.27.21.7.55.91,1.06.78,1.49,1.46,3.05,2.07,4.66.66,1.59,1.18,3.24,1.72,4.9.8,2.46,1.58,4.94,2.43,7.39l-.07.03Z"/><path class="cls-4" d="m220.51,310.9c-.94,1.94-2.25,3.58-3.61,5.05-.49.53-.95,1.09-1.49,1.59-1.9,1.74-4.16,3.17-6.57,4.08-1.07.41-2.14.79-3.22,1.09-.69.2-1.4.35-2.11.44-.36.04-.71.06-1.07.08-.36.02-.72-.08-1.08-.12-.45-.09-.41-.4-.09-.86.16-.23.39-.51.66-.79.27-.26.6-.47.96-.58,1.28-.43,2.53-.75,3.74-1.17,1.21-.43,2.38-.95,3.55-1.56,1.4-.75,2.58-1.95,3.74-3.14,1.3-1.31,2.47-2.69,3.37-4.23.56-.94.99-1.95,1.26-3,.41-1.59.51-3.29.26-4.99-.2-1.32-.63-2.59-.97-3.93-.08-.29-.18-.58-.23-.88-.03-.29-.03-.53-.02-.73.03-.21.1-.38.17-.53.15-.29.34-.47.61-.62.12-.07.24-.16.35-.2.37-.15.84.26,1.35.98.32.55.51,1.12.72,1.71.2.59.39,1.2.56,1.83.36,1.25.53,2.64.57,4.09.08,2.15-.43,4.42-1.34,6.4l-.07-.03Z"/><path class="cls-4" d="m300.51,425.18c-6.39-3.77-12.69-7.7-18.85-11.86-2.24-1.53-4.53-2.98-6.72-4.59-7.72-5.64-15.12-11.77-21.85-18.6-2.96-3.05-5.9-6.18-8.51-9.52-1.66-2.15-3.34-4.33-4.69-6.72-.68-1.19-1.32-2.4-1.9-3.64-.14-.31-.32-.61-.4-.94l-.27-1.01c-.2-.66-.42-1.31-.6-1.96-.46-1.64-.33-1.43.56-.28.45.57,1.07,1.39,2.09,2.21.88.89,1.69,2.02,2.59,3.24.74,1.11,1.61,2.14,2.36,3.23.77,1.09,1.58,2.15,2.4,3.2,1.67,2.08,3.4,4.14,5.17,6.16,3.59,4.01,7.45,7.83,11.49,11.53,4.83,4.44,10.42,8.41,15.91,12.27,6.05,4.25,12.28,8.28,18.63,12.12,3.91,2.36,7.86,4.67,11.84,6.9,6.04,3.39,12.15,6.71,18.27,9.86,4.76,2.45,9.52,4.66,14.24,7.13,1.04.55,2.07,1.06,3.09,1.69,1.9,1.13,3.09,2.04,3.83,2.84.75.78,1.04,1.44,1.09,2.06.04.26.05.61,0,.75-.05.13-.16.12-.32.06-.08-.03-.16-.08-.27-.13-.12-.06-.26-.13-.41-.21-.66-.31-1.66-.89-3.04-1.6-4.06-2.17-8.42-4.3-12.81-6.5-4.4-2.2-8.85-4.46-13.3-6.79-6.6-3.45-13.17-7.07-19.65-10.81l.03-.07Z"/><path class="cls-4" d="m319.67,476.8c-.7-.22-1.41-.47-2.12-.7-.71-.27-1.4-.54-2.09-.84-.5-.23-1.04-.37-1.53-.61-1.74-.89-3.4-1.95-4.89-3.19-.32-.29-.64-.57-.98-.85-.33-.27-.67-.53-.95-.86-.37-.4-.78-.77-1.1-1.21-.32-.45-.61-.91-.87-1.39-.16-.3.05-.39.45-.35.39.05,1,.19,1.46.54,1.64,1.14,3.27,2.26,4.96,3.43,1,.72,2.24,1.11,3.43,1.54.66.24,1.31.49,1.99.69.67.22,1.34.45,2.03.65.84.26,1.69.5,2.55.72,1.31.33,2.62.68,3.96.94,1.04.18,2.1.27,3.16.52.23.05.47.08.7.15.84.38,1.02.69.94,1.36-.02.15-.03.31-.06.45-.12.48-.61.76-1.24.78-1.83.05-3.65-.19-5.53-.64-1.4-.31-2.83-.68-4.27-1.07l.02-.07Z"/><path class="cls-4" d="m382.15,463.7c-3.12-2.44-6.58-4.63-10.18-6.31-.66-.3-1.33-.57-2-.79-.64-.23-1.4-.46-1.93-.58-.78-.21-1.85.07-2.96.55-1.12.48-2.27,1.14-3.45,1.76-2.36,1.27-4.93,2.48-7.67,3.07-2.43.54-4.94.69-7.38.46-.78-.09-1.56-.18-2.33-.34-.77-.14-1.52-.4-2.26-.62-1.46-.53-2.91-1.11-4.16-2.06-.72-.71-.59-.66.33-.77.47-.08,1.06-.05,1.79-.1.71,0,1.48.1,2.29.26.71.18,1.43.27,2.13.39.36.03.7.11,1.05.17.35.06.7.09,1.05.15,1.4.16,2.79.2,4.18.08,2.77-.24,5.46-1.11,8.18-2.35,1.64-.73,3.22-1.73,5.07-2.62.93-.43,1.97-.85,3.19-.95.6-.06,1.27,0,1.85.15.5.13.99.28,1.46.44,4.12,1.49,7.78,3.64,11.28,6.04,2.14,1.51,4.21,3.11,6.06,5.08.35.38.68.77,1,1.2.15.21.4.56.54.85.08.15.17.31.25.46l.17.48c.2.63.25,1.29.01,1.88-.22.6-.75,1.07-1.35,1.25-.6.18-1.27.15-1.94.02-.33-.08-.68-.16-.98-.27-.25-.08-.48-.18-.73-.27-.94-.38-1.83-.81-2.71-1.24-2.72-1.36-5.34-2.68-7.99-3.91-.58-.26-1.16-.52-1.75-.78-2.16-1-2.76-1.39-2.96-2.34-.05-.21-.14-.42-.15-.61-.06-.59,1.14-.85,2.9-.23,2.61.88,5.1,2.1,7.55,3.35,1.21.62,2.42,1.24,3.64,1.87.6.3,1.2.59,1.79.84.29.13.59.25.87.36.14.05.29.11.42.15.1.03.07.02.07.02h0s0,0,.01,0c0,0,.01,0,.01,0h0s0-.02,0-.02l-.14-.21c-1.06-1.37-2.6-2.71-4.17-3.92l.04-.06Z"/><path class="cls-4" d="m367.01,476.64c-3.22.17-6.41.15-9.6.06-1.16-.04-2.33,0-3.49-.08-2.06-.16-4.08-.32-6.23-.78-2.13-.46-4.14-1.37-5.93-2.33-1.6-.85-3.16-1.6-4.79-2-2.11-.51-4.24-.5-6.51-1.04-.71-.15-.65-.37-.06-.82.29-.23.71-.52,1.25-.86.27-.15.56-.32.89-.43.32-.08.66-.16,1.02-.17,1.27-.06,2.57.06,3.83.4,1.26.3,2.49.75,3.61,1.28,2.27,1.05,4.08,2.2,6.11,2.92,2.4.85,5.4.79,8.22.93,3.13.12,6.28.15,9.41.04.96-.04,1.93-.09,2.88-.16l1.14-.1c.25-.02.5-.05.76-.08.44-.06.91-.13,1.38-.28.23-.07.48-.16.65-.34.19-.21-.01-.45-.16-.59-.53-.44-1.27-.61-1.98-.75-.34-.06-.61-.09-.99-.11-.55-.05-1.1-.08-1.65-.1-1.1-.04-2.21,0-3.31-.04-.49-.01-.96.02-1.45,0-.91-.02-1.5-.09-1.92-.27-.42-.16-.66-.38-.87-.7-.1-.15-.23-.28-.3-.42-.25-.45.56-1.01,1.95-1.33,1.04-.16,2.09-.28,3.15-.36,1.07-.08,2.14-.02,3.23.04.55.04,1.1.09,1.65.16.96.14,2.05.32,3,.58.98.25,1.8.59,2.49.96.66.38,1.12.81,1.42,1.27.14.2.23.39.36.62.06.18.12.38.15.59l.02.17s.06.05-.04.08v.09c.04.12.05.24.03.36-.06.47-.21.76-.39,1.06-.4.56-1.01,1.1-2.19,1.49-1.15.38-2.56.66-4,.83l-.54.07-.48.05-.57.05-1.14.09v-.08Z"/><path class="cls-4" d="m415.49,477.34l-9.28.14c-1.13.02-2.25.16-3.38.16-3.98-.01-7.97-.13-11.94-.25-1.76-.05-3.54.03-5.28.11-1.12.08-2.25.1-3.38.08-1.13-.02-2.25-.15-3.38-.53-.7-.48-.6-.77-.02-1.64.29-.46.71-.88,1.21-1.3.5-.43,1.09-.75,1.73-.82l1.7-.21.85-.1.85-.02c1.14-.02,2.27-.04,3.41-.02,2.28.02,4.56.11,6.86.3,2.76.27,5.6-.07,8.42-.14l9.28-.22c1.91-.06,3.81-.11,5.72-.21,2.88-.14,5.79-.24,8.64-.54,2.22-.24,4.37-.74,6.55-1.13.48-.09.95-.21,1.43-.28.9-.13,1.5-.1,1.94.12.22.1.4.25.55.44.16.21.29.47.41.75.11.26.25.49.32.72.23.69-.41,1.8-1.71,2.22-3.86,1.16-7.99,1.63-12.16,1.96-3.1.25-6.22.37-9.33.53v-.11Z"/><path class="cls-4" d="m446.71,448.01c1.48-3.27,2.96-6.54,4.5-9.81.55-1.19.97-2.44,1.54-3.63,2.02-4.18,4-8.39,6.19-12.51.94-1.84,1.79-3.74,2.66-5.59.61-1.17,1.12-2.39,1.81-3.52.73-1.11,1.55-2.18,2.38-3.23.53-.65.65-.46.71.34.03.79.23,2.3-.05,3.82-.07.33-.12.68-.2,1.01l-.32.95-.65,1.89c-.41,1.27-.96,2.47-1.48,3.7-1.07,2.43-2.12,4.88-3.44,7.23-1.57,2.82-2.62,6.01-3.93,9.04-1.43,3.33-2.9,6.65-4.44,9.95l-2.82,6.1c-1.44,3.07-2.89,6.16-4.32,9.21-.56,1.19-1.05,2.39-1.54,3.59l-1.53,3.58c-.22.53-.47,1.03-.75,1.53-.27.46-.5.84-.72,1.15-.23.3-.49.5-.7.67-.43.33-.81.45-1.23.49-.19.02-.39.07-.54.05-.49-.03-.57-1.05-.34-2.67.33-1.12.6-2.27.99-3.39.38-1.12.79-2.23,1.2-3.35.4-1.12.83-2.25,1.27-3.37.45-1.12.84-2.26,1.34-3.36,1.43-3.3,2.87-6.62,4.3-9.93l.11.04Z"/><path class="cls-4" d="m199.98,293.77c.26-1.44.51-2.87.81-4.3.12-.52.13-1.05.27-1.57.45-1.83.97-3.66,1.55-5.46.28-.79.5-1.6.76-2.4.3-1.03.83-2.01,1.5-2.87.21-.27.35-.15.47.21.12.36.28.96.26,1.56,0,1.08-.21,2.07-.4,3.08-.16,1.02-.43,2.02-.78,3.03-.39,1.21-.44,2.54-.62,3.83-.19,1.42-.46,2.83-.65,4.26-.13.88-.26,1.76-.36,2.64-.15,1.34-.34,2.68-.38,4.02-.02,1.04.11,2.07.13,3.11,0,.23.05.45,0,.68-.14.84-.39,1.1-1.09,1.22-.16.03-.32.07-.47.08-.52.04-.94-.34-1.16-.98-.67-1.88-.59-3.82-.42-5.77.12-1.45.33-2.9.52-4.36h.08Z"/><path class="cls-4" d="m254.39,210.91c6.35,2.73,12.59,5.87,18.33,9.99,2.85,2.08,5.54,4.47,7.87,7.26,2.28,2.81,4.23,6.12,4.97,9.87.29,1.35.38,2.75.37,4.13-.02.69-.11,1.38-.17,2.06-.12.66-.26,1.3-.4,1.94-.14.64-.26,1.29-.43,1.93l-.66,1.88c-.24.62-.39,1.27-.72,1.85l-.9,1.77c-2.22,4.12-5.55,7.54-9.28,10.14-3.74,2.62-7.85,4.53-12.04,6.05-4.2,1.52-8.5,2.63-12.83,3.5-4.33.87-8.68,1.57-13.04,2.08-7.74.96-15.54,1.6-23.21,2.2-4.93.39-9.86.8-14.77,1.3-4.89.54-9.8,1-14.51,2.1-2.9.7-2.74.23-.41-1.19,2.35-1.34,7.09-3.05,12.8-3.76,10.13-1.19,20.2-1.78,30.21-2.74,10-.95,20.01-2.15,29.67-4.74,1.43-.41,2.89-.8,4.29-1.33.71-.25,1.42-.49,2.13-.76l2.08-.88,1.04-.44,1.01-.51,2.01-1.02c.65-.38,1.28-.78,1.92-1.17l.96-.59c.31-.21.6-.45.9-.67l1.79-1.35,1.63-1.51c.57-.48,1.04-1.06,1.52-1.62l.72-.84.36-.42.31-.46c1.78-2.36,2.93-5.09,3.79-7.88.28-1.58.74-3.19.78-4.71.03-1.54-.15-3.08-.56-4.57-.46-1.48-1.11-2.92-1.93-4.28-.87-1.33-1.81-2.64-2.94-3.82-2.18-2.42-4.83-4.46-7.55-6.38-2.75-1.9-5.66-3.59-8.66-5.14-7.39-3.81-15.25-6.79-23.22-9.36-12.09-3.86-24.56-6.84-37-9.01-9.68-1.66-19.26-2.72-28.91-3.31-2.12-.12-4.2-.18-6.34-.25-3.96-.12-6.54-.11-8.34-.21-1.81-.15-2.83-.33-3.74-.61-.42-.14-.95-.17-1.24-.28-.25-.09-.25-.25,0-.5.25-.26.76-.57,1.5-.87,1.47-.6,3.83-1.15,6.83-1.24,8.89-.34,17.88.39,26.96,1.47,9.07,1.11,18.21,2.68,27.29,4.66,13.48,2.96,26.88,6.75,39.78,12.12l-.02.1Z"/><path class="cls-4" d="m140.48,225.18c-.19.53-.35,1.08-.49,1.63-.05.2-.04.41-.09.61-.2.72-.44,1.44-.57,2.17-.06.33-.09.65-.1.98-.02.42-.02.84-.14,1.25-.04.13-.19.11-.35,0-.16-.11-.37-.31-.43-.56-.17-.86-.3-1.73-.18-2.6.08-.52-.05-1.07,0-1.61.05-.59.13-1.18.22-1.77.07-.36.12-.72.21-1.08.11-.55.28-1.08.37-1.63.06-.43.03-.88.13-1.31.02-.1.01-.2.09-.28.25-.3.45-.34.82-.28.09.01.17.02.24.04.25.06.44.28.58.58.28.46.24.8.29,1.18-.03.35-.1.7-.17,1.06-.12.53-.22,1.06-.38,1.6h-.05Z"/><path class="cls-4" d="m238.27,101.45c3.84,2.73,7.87,5.26,12.02,7.57,1.51.84,3.09,1.56,4.63,2.34,2.71,1.38,5.46,2.69,8.26,3.77,1.39.53,2.82,1.01,4.18,1.29.67.14,1.38.18,1.63.14.34-.03.7-.25.79-.61.08-.33.06-.56-.07-1.14-.14-.56-.39-1.13-.66-1.7-.56-1.14-1.32-2.21-2.07-3.28-.99-1.35-2.12-2.62-3.31-3.81-1.16-1.21-2.29-2.49-3.67-3.45-.87-.55-.79-.6.23-.59.51.02,1.24.11,2.13.29.87.22,1.85.6,2.78,1.17,1.56,1.12,2.92,2.46,4.2,3.88.64.71,1.25,1.47,1.77,2.3.53.83,1.03,1.69,1.46,2.66.21.49.4,1,.56,1.56.08.29.15.64.22.97.01.43.1.86.05,1.28-.02.85-.3,1.66-.77,2.33-.47.69-1.2,1.13-1.95,1.44-.4.1-.79.27-1.2.28-.4.04-.86.07-1.11.03-.61-.04-1.13-.13-1.64-.24-1.01-.23-1.93-.53-2.82-.86-4.22-1.62-8.38-3.37-12.36-5.44-4.34-2.29-8.54-4.81-12.6-7.54-2.5-1.69-4.94-3.46-7.3-5.36-1.79-1.44-3.51-2.97-5.11-4.67-.8-.85-1.56-1.75-2.25-2.72-.67-.99-1.32-2.05-1.64-3.36-.26-.99-.22-2.24.35-3.27.53-1.01,1.6-1.79,2.64-2.07,1.05-.3,2.07-.31,3.01-.21.95.08,1.85.26,2.74.48.77.19,1.53.38,2.27.63,2.75.92,3.44,1.51,3.69,2.58.06.22.18.44.21.61.04.29-.24.42-.85.57-.62.17-1.45.04-2.45-.24-1.47-.41-2.93-.84-4.35-1.13-.71-.15-1.39-.25-2.03-.28-.61,0-1.22.03-1.52.19-.32.15-.4.28-.55.51-.06.2-.11.39,0,.83.21.88,1,2.11,1.92,3.21,1.4,1.66,3.12,3.23,4.91,4.73,1.8,1.49,3.7,2.91,5.66,4.26l-.04.07Z"/><path class="cls-4" d="m293.22,88.94c1.08.32,2.18.6,3.12.69l.34.03h.15s.04,0,.04,0c.04,0,.09,0,.13,0,.09,0,.19-.07.21-.17.03-.04.03-.09.04-.15,0-.03,0-.05,0-.08v-.05s-.02-.13-.02-.13c-.09-.38-.24-.81-.47-1.25-.46-.88-1.08-1.79-1.82-2.64-1.07-1.26-2.35-2.38-3.62-3.52-4.52-4.03-9.65-7.54-14.95-10.71-2.36-1.4-4.82-2.65-7.29-3.79-1.59-.71-3.19-1.42-4.78-2.13-1.57-.76-3.13-1.55-4.69-2.4-.93-.72-.86-.46.15-.57.99-.09,2.91-.3,4.98.14,3.57,1.01,6.86,2.64,10.09,4.36,3.23,1.73,6.36,3.64,9.36,5.78,3.57,2.58,7.42,5.08,10.79,8.22.91.88,1.82,1.77,2.65,2.78.83,1,1.63,2.05,2.23,3.35.17.3.28.67.41,1.01.14.36.2.68.28,1.18.12.48,0,.96-.01,1.43-.03.48-.25.9-.37,1.35-.1.21-.24.4-.39.58-.16.17-.36.3-.55.43-.39.25-.84.41-1.31.48-.44.08-1.01.1-1.33.08-.36-.02-.71-.05-1.04-.1-1.65-.25-3.13-.7-4.6-1.19-1.46-.49-2.88-1.04-4.29-1.61-4.26-1.74-8.39-3.74-12.5-5.64-3.19-1.49-6.4-2.78-9.56-4.23-.69-.33-1.37-.64-2.06-.99-2.54-1.3-3.2-2-3.45-2.89-.05-.21-.15-.43-.16-.61-.02-.59,1.25-.53,3.27.11,1.48.52,2.97,1.05,4.46,1.62,1.46.62,2.93,1.26,4.4,1.91,2.93,1.32,5.89,2.66,8.87,4.01,4.39,1.95,8.87,3.94,13.3,5.23l-.02.09Z"/><path class="cls-4" d="m158.23,199.9c.01,1.89-.21,3.68-.5,5.44-.3,1.76-.7,3.47-1.17,5.15-.33,1.23-.62,2.47-1.04,3.67-1.46,4.24-3.28,8.32-5.49,12.21-.98,1.72-1.99,3.45-3.15,5.09-.74,1.05-1.58,2.06-2.6,2.96-.99.88-2.34,1.69-3.91,1.57-.97-.27-.65-.5-.1-1.09.07-.08.13-.16.21-.22.07-.09.14-.19.21-.28.14-.2.28-.34.42-.59.28-.43.58-.87,1.03-1.25.79-.69,1.49-1.63,2.19-2.56.71-.93,1.38-1.93,2.03-2.95,1.29-2.05,2.47-4.23,3.62-6.46,1.36-2.67,2.29-5.67,3.15-8.61.94-3.22,1.73-6.52,1.97-9.81.09-1.01.07-2.01,0-2.99-.05-.48-.11-.96-.23-1.41l-.17-.64-.16-.38c-.03-.08-.09-.14-.13-.22-.1-.17-.22-.36-.43-.4-.2-.05-.4.01-.58.1-.18.09-.36.2-.52.34-.22.17-.51.43-.75.68-1.01,1.01-1.92,2.19-2.75,3.41-1.34,2.02-2.45,4.15-3.53,6.29-.23.48-.46.94-.69,1.42-.94,1.73-1.49,2.16-2.25,2.28-.18.03-.37.08-.52.08-.51-.01-.59-.96-.21-2.45,1.4-4.3,3.51-8.51,6.74-12.33.34-.4.71-.79,1.09-1.18.21-.2.4-.39.64-.58l.23-.19c.09-.08.19-.15.28-.22l.59-.39c.79-.49,1.65-.77,2.5-.7.89.01,1.64.51,2.22,1.11.45.59.75,1.28,1.1,1.93l.13.25c.02.1.04.14.06.21l.1.36.18.7.21,1.35.08,1.3h-.08Z"/><path class="cls-4" d="m148.72,240.91c.36-.41.61-.52.86-.75l.77-.6c.5-.43,1.05-.74,1.6-1.06.55-.3,1.08-.68,1.65-.92l1.69-.75c.56-.27,1.14-.43,1.71-.63.57-.19,1.14-.4,1.72-.56,1.15-.28,2.3-.63,3.46-.84,4.62-.94,9.24-1.31,13.84-1.49,3.35-.13,6.69-.21,10.03-.13,11.75.33,23.37,1.57,34.98,2.66,5.15.49,10.33.88,15.43,1.15,6.56.38,13.15.41,19.55.22,1.01.07,1.49.19,1.5.37,0,.19-.43.47-1.24,1.02-.4.32-.92.53-1.51.78-.59.24-1.28.53-2.04.72-1.51.42-3.31.66-5.25.69-6.86.06-13.61-.42-20.34-1.02-6.73-.6-13.44-1.32-20.18-2.03-8.06-.84-16.48-1.15-24.7-1.15-4.52,0-9.04.17-13.5.68-4.44.51-8.88,1.36-12.82,3.15l-.91.41c-.29.15-.56.33-.85.49-.55.34-1.16.63-1.63,1.06l-.75.6-.33.26-.28.34c-.41.53-.88,1.01-1.25,1.57-1.58,2.17-2.89,4.58-3.94,7.1-3.19,7.69-4.72,16.14-5.57,24.47-.65,6.5-.72,12.92-.84,19.4-.03,1.43-.02,2.83-.08,4.28-.32,5.35-.98,7.2-2.13,8.15-.23.22-.54.49-.7.57-.16.06-.23-.03-.29-.24-.05-.21-.07-.51-.14-1-.14-.93-.18-2.39-.19-4.32-.13-11.48,0-23.92,2.08-36.29.76-4.6,1.88-9.19,3.45-13.69,1.65-4.48,3.76-8.89,7.11-12.73l.08.05Z"/><path class="cls-4" d="m143.41,359.44c3.32,6.58,6.74,13.13,10.13,19.7,1.24,2.4,2.55,4.76,3.77,7.17,4.28,8.5,8.41,17.1,12.07,25.92,1.63,3.91,3.22,7.86,4.62,11.84.91,2.55,1.76,5.14,2.42,7.79.58,2.67,1.07,5.38,1.02,8.13,0,1.71-.32,1.48-.94.13-.32-.68-.68-1.63-1.22-2.75-.25-.56-.45-1.18-.68-1.83-.24-.65-.48-1.34-.68-2.07-2.8-10.36-7.14-20.39-11.58-30.46-2.66-6.03-5.93-12.08-9.05-18.08-3.45-6.59-6.9-13.19-10.35-19.79-2.11-4.07-4.2-8.16-6.21-12.29-1.53-3.12-2.99-6.3-4.34-9.53-1.34-3.22-2.57-6.55-3.36-9.98-.62-2.65-1.09-5.33-1.22-8.07-.13-2.73.08-5.51.78-8.22.31-1.19.68-2.34,1.17-3.49.48-1.04.92-1.9,1.36-2.56.42-.68.82-1.19,1.19-1.57.7-.8,1.32-1.08,1.94-1.19.28-.05.6-.16.82-.14.37.04.37.48.1,1.25-.27.76-.85,1.8-1.53,3.15-2.06,3.97-2.99,8.44-2.7,13.06.12,2.3.49,4.64,1.03,6.97.26,1.18.59,2.31.93,3.44.39,1.14.76,2.28,1.22,3.41,2.63,6.76,5.99,13.43,9.36,20.03l-.06.04Z"/><path class="cls-4" d="m167.04,311.8c2.15-.04,4.33.1,6.47-.18,2.15-.21,4.32-.31,6.43-.78.78-.14,1.55-.31,2.32-.47l1.16-.24,1.14-.31,4.04-1.05c1.32-.43,2.63-.9,3.96-1.35l.99-.34c.32-.13.64-.28.96-.41l1.93-.82c.64-.29,1.3-.53,1.92-.85l1.85-.98,1.64-.89c.53-.33,1.04-.68,1.55-1.03,1.03-.7,2.06-1.38,2.98-2.19.62-.49,1.25-.96,1.85-1.47l1.73-1.6c.62-.5,1.12-1.08,1.71-1.62.61-.53,1.08-1.13,1.58-1.73.64-.74.81-.54.68.38-.08.45-.18,1.14-.46,1.9-.3.72-.68,1.58-1.23,2.43-2.18,2.69-4.76,5.04-7.66,6.87-.36.24-.7.49-1.07.72l-1.11.64-2.24,1.25c-1.51.8-3.11,1.43-4.68,2.1-.94.4-1.94.67-2.91,1.04-.97.36-1.95.72-2.93,1.08-2.01.57-3.99,1.28-6.02,1.73-4.47.96-9.01,1.58-13.56,1.72l-4.2.07c-.7.04-1.4-.01-2.09-.07l-2.09-.14-3.17-.21-.79-.05-.78-.12-1.57-.24c-1.04-.16-2.09-.31-3.13-.47-1.04-.17-2.09-.24-3.11-.5-1.59-.34-3.17-.63-4.76-.9l-2.39-.41c-.78-.19-1.55-.44-2.32-.66-.68-.2-1.36-.37-2.03-.63-.62-.23-1.13-.44-1.56-.63-.42-.21-.73-.43-.99-.62-.51-.39-.77-.72-.94-1.08-.08-.17-.19-.34-.22-.48-.11-.44,1.06-.53,3.02-.45,2.85.31,5.62,1.03,8.48,1.47,1.42.26,2.85.55,4.28.84.36.07.71.16,1.07.22l1.09.14,2.17.28,3.23.45.81.12.81.05,1.63.11c2.17.12,4.34.41,6.51.28v.09Z"/><path class="cls-4" d="m100.99,457.83c-.99-2.79-2.19-5.55-3.87-7.85-.61-.84-1.35-1.53-2.08-2.1-.65-.5-1.32-.83-1.98-.91-.32-.03-.47-.04-.61.05-.15.07-.24.19-.37.53-.23.65-.29,1.59-.28,2.52.02.94.11,1.9.22,2.87.21,1.72.56,3.46.87,5.2.19,1.12.43,2.25.45,3.43.02.59,0,1.19-.08,1.8-.03.31-.13.61-.28.9-.12.29-.24.59-.4.88-.5.7-.61.35-.69-.28-.09-.33-.14-.73-.44-1.21-.2-.45-.34-.98-.43-1.56l-.56-3.22-.63-3.35c-.21-1.14-.4-2.29-.53-3.48-.12-1.2-.22-2.42-.04-3.77.14-.81.25-1.68.94-2.66.34-.49.84-.85,1.39-1.07.57-.21,1.14-.25,1.61-.22,1.92.13,3.4,1.16,4.53,2.22,1.26,1.19,2.21,2.55,3.06,3.93.84,1.39,1.55,2.83,2.18,4.29.78,1.8,1.43,3.64,2.02,5.5.89,2.81,1.5,5.71,2.05,8.57.43,2.23.89,4.42,1.13,6.69.06.5.08.99.08,1.5,0,.94-.12,1.56-.33,1.99-.2.43-.45.66-.78.83-.15.08-.3.19-.44.23-.47.13-.83-.63-1.16-1.92-.13-.95-.4-1.91-.52-2.87-.15-.96-.31-1.93-.46-2.91-.33-1.95-.72-3.93-1.18-5.89-.72-2.91-1.41-5.85-2.48-8.65l.07-.03Z"/><path class="cls-4" d="m298.08,467.64c.71-1.45,1.35-2.96,1.59-4.62.2-.81.22-1.66.29-2.5.05-.43.05-.84.03-1.23,0-.4-.05-.81-.09-1.21-.38-3.25-1.96-6.41-4.16-9.05-1.62-1.93-3.61-3.55-5.75-4.91-3.76-2.44-8.19-3.89-12.71-4.2-4.53-.33-9.15.51-13.41,2.27-3.81,1.53-7.32,3.85-10.48,6.48-2.01,1.71-3.9,3.57-5.66,5.54-1.75,1.99-3.38,4.05-5.13,6.11-1.08,1.29-1,1.1-.6-.32.2-.71.45-1.76.94-2.94.26-.58.5-1.24.86-1.88.39-.62.79-1.28,1.29-1.9,3.46-4.52,7.77-8.38,12.7-11.37,4.89-3.02,10.69-4.84,16.55-4.96,3.5-.06,7.07.39,10.5,1.44,3.42,1.06,6.69,2.71,9.49,4.95,3.07,2.45,5.68,5.56,7.3,9.22.81,1.83,1.36,3.79,1.54,5.81.05.5.05,1.02.07,1.52l-.09,1.48c-.02.99-.22,1.97-.4,2.94-.52,2.39-1.48,4.72-2.89,6.74-1.42,2.02-3.29,3.67-5.31,4.99-3.07,2.02-6.57,3.19-10.08,3.86-3.52.68-7.09.89-10.61.75-2.74-.1-5.45-.4-8.13-.89-2.67-.51-5.34-1.19-7.89-2.3-.56-.24-1.12-.47-1.67-.76-.54-.28-1.1-.54-1.63-.9-1-.6-1.76-1.23-2.39-1.77-.58-.6-1.01-1.13-1.31-1.61-.28-.5-.47-.91-.58-1.27-.09-.38-.08-.72-.05-1.02.03-.28.02-.6.08-.77.25-.57,1.43.75,3.85,2.3,1.76,1.24,3.82,2.18,5.96,2.94,2.16.75,4.4,1.37,6.71,1.8,4.61.89,9.44,1.13,14.14.61,3.47-.44,6.93-1.23,9.93-2.79,1.54-.72,2.88-1.72,4.12-2.79,1.21-1.11,2.19-2.41,2.99-3.82l.08.03Z"/><path class="cls-4" d="m342.5,454.56c-1.51,1.47-2.87,3.25-4.12,5.11-.45.68-.81,1.42-1.23,2.13-1.5,2.49-2.84,5.11-3.95,7.84-.5,1.21-.91,2.45-1.25,3.7-.2.81-.43,1.6-.67,2.4l-.18.6-.26.58c-.17.39-.34.78-.52,1.18-.23.49-.39.4-.64-.1-.12-.25-.28-.6-.45-1.03-.08-.21-.16-.45-.22-.69-.04-.12-.05-.25-.1-.38,0-.12,0-.25,0-.38.07-1.81.5-3.54,1.03-5.24.49-1.71,1.28-3.33,2.11-4.91,1.02-1.88,1.82-3.95,2.92-5.85,1.2-2.09,2.56-4.09,4.18-5.93,1-1.13,2.11-2.19,3.4-3.09,1.59-1.12,3.8-2.05,6.14-1.11.24.09.43.27.65.38.19.15.36.35.5.55.31.49.5,1.14.55,1.66.07.51.08.98.07,1.44-.02.92-.11,1.79-.22,2.64-.05.38-.06.74-.16,1.1-.17.65-.31,1.06-.55,1.3-.3.24-.59.36-.96.45-.17.04-.34.11-.49.13-.26.04-.46-.09-.68-.4-.21-.31-.47-.8-.42-1.33-.06-1.4.23-2.67.34-3.83.06-.54.09-1.18.03-1.38-.03-.03-.05,0-.05,0,.02.01.04.02.05.03-.03,0-.09-.04-.13-.04-.1,0-.19-.02-.29-.04-.54-.02-1.29.19-2.07.66-.78.46-1.57,1.13-2.31,1.89l-.06-.05Z"/><path class="cls-4" d="m247.7,440.53c-1.63-2.23-2.76-4.85-4.93-6.65-1.2-1-2.72-1.73-4.3-1.19s-2.58,1.96-3.21,3.41c-.71,1.61-1.15,3.37-1.23,5.13-.03.74.65,1.38,1.38,1.38.77,0,1.34-.63,1.38-1.38.01-.25.03-.49.06-.73.02-.2-.04.25,0,.04.01-.08.02-.15.04-.23.03-.16.05-.31.09-.47.13-.66.3-1.31.53-1.94.06-.17.12-.33.19-.5-.09.23.11-.23.13-.27.15-.31.31-.6.5-.89.04-.06.25-.35.17-.25s.15-.17.2-.22c.1-.11.21-.21.33-.31-.23.19.13-.06.21-.11.25-.16-.11-.01.1-.04.12-.02.49-.04.14-.05.1,0,.23.02.33,0,.17-.02-.23-.09-.08,0,.07.03.16.04.24.06.06.02.13.04.19.06,0,0-.23-.11-.09-.04.13.06.25.13.38.2.11.07.22.14.33.21.21.14.04.03,0,0,.08.06.15.13.23.19,1.09.95,1.67,1.8,2.44,2.95.66.99,1.22,2.06,1.93,3.03.44.6,1.19.9,1.88.49.59-.35.93-1.28.49-1.88h0Z"/><path class="cls-4" d="m262.14,436.6c-.42-1.1-1.06-2.05-1.82-2.94s-1.6-1.66-2.59-2.19c-1.06-.56-2.31-.81-3.42-.22s-1.7,1.93-1.96,3.14c-.32,1.48-.36,3-.5,4.5-.07.69.66,1.35,1.32,1.32.77-.03,1.25-.58,1.32-1.32.05-.52.08-1.04.12-1.56.02-.26.04-.51.07-.77.01-.15.03-.3.05-.45,0-.07.02-.15.03-.22-.02.19-.01.1,0-.04.08-.54.19-1.08.37-1.6,0-.02.04-.16.07-.18-.01.01-.14.28-.02.06.05-.09.09-.19.14-.27.03-.05.07-.09.09-.14.07-.15-.18.19-.06.08.03-.02.2-.25.23-.24,0,0-.3.19-.02.03s-.01.05-.05.01c0,0,.24-.06.25-.07-.02.01-.36.02-.16.02.05,0,.11,0,.16,0,.33,0-.04.03-.05-.02,0,.01.25.05.27.06.09.03.18.06.28.09.04.01.17.06-.02,0-.21-.08,0,0,.05.03.18.09.36.19.53.31.1.06.19.13.28.2.03.02.09.05.11.08-.14-.11-.17-.13-.09-.07.03.03.07.06.1.08.36.3.7.64,1.02.99.17.19.36.39.5.6-.2-.3.03.05.09.13.08.11.15.21.22.32.13.21.26.42.38.63.05.09.09.18.14.27.16.32-.09-.25.03.07.25.64.9,1.16,1.63.93.63-.2,1.19-.94.93-1.63h0Z"/><path class="cls-4" d="m231.49,450.72c.06.01.12.04.19.05.17.02-.32-.19-.07-.03.12.08.25.14.37.22.08.05.15.11.22.16.18.13-.26-.21.02.02.15.12.29.24.44.35.77.63,1.56,1.27,2.46,1.7,1.07.52,2.25.81,3.45.68,1.66-.19,3.05-.99,4.34-2,.56-.44.46-1.41,0-1.87-.56-.56-1.31-.44-1.87,0-.26.2-.54.39-.82.55-.17.1-.34.2-.52.28,0,0-.39.17-.19.09-.27.11-.55.2-.84.26-.06.01-.55.07-.22.05-.11,0-.22.02-.33.02-.14,0-.28,0-.43,0-.08,0-.4-.05-.06,0-.23-.04-.46-.09-.68-.16-.11-.03-.22-.07-.33-.11-.32-.11.14.09-.09-.04-.2-.11-.4-.2-.59-.31-.37-.22-.72-.47-1.07-.73.29.22.04.03-.01-.01-.09-.07-.18-.14-.27-.22-.15-.12-.29-.24-.44-.36-.57-.46-1.21-1.02-1.96-1.16-.7-.13-1.43.2-1.63.93-.18.65.22,1.5.93,1.63h0Z"/><path class="cls-4" d="m144.12,238.18c-.41-.29-.85-.56-1.29-.81-.16-.09-.35-.12-.51-.21-.29-.16-.58-.33-.87-.5-.29-.19-.58-.35-.88-.51-.27-.14-.56-.2-.83-.3-.35-.11-.72-.21-1.03-.44-.09-.07-.07-.29.07-.52.15-.23.4-.51.64-.55.86-.16,1.65-.02,2.37.36.43.23.93.3,1.39.46.51.19,1,.41,1.49.64.3.15.6.29.9.45.45.23.88.51,1.35.72.18.08.38.13.58.18.2.07.4.13.59.21.09.03.18.05.26.11.13.12.17.26.14.44-.03.16-.1.32-.22.52-.06.09-.1.18-.16.26-.17.25-.49.43-.84.58-.41.1-.71.04-1.02,0-.31-.08-.57-.22-.87-.35-.42-.21-.86-.43-1.29-.67l.02-.06Z"/><g class="cls-8"><path class="cls-4" d="m337.17,278.76c.32-2.36,1.1-4.65,2.01-6.85l.81-1.6c.14-.26.26-.54.41-.79l.49-.75.98-1.5,1.05-1.38c1.07-1.31,2.1-2.68,3.41-3.83,2.24-2.08,5.08-3.64,8.01-4.47,2.95-.82,5.94-1.03,8.85-1l3.83.08c1.03-.03,2.25-.36,3.32-.79,1.42-.53,2.74-1.32,3.96-2.23,1.23-.91,2.28-2,3.48-3.03.47-.25.72-.35.8-.28.08.07.02.32.02.86.01.55-.18,1.2-.47,1.99-.33.75-.89,1.54-1.65,2.24-1.36,1.21-2.91,2.22-4.58,2.98-.84.38-1.73.66-2.65.88-.47.1-.94.19-1.45.25-.26.02-.52.05-.83.04l-.66-.02c-3.22-.11-6.43-.14-9.49.39-1.83.31-3.61.98-5.2,1.97-1.6.99-3.02,2.28-4.36,3.67-2.94,3.14-5.38,6.73-6.44,10.9-.4,1.26-.57,2.57-.79,3.88-.09,1.32-.23,2.65-.14,3.98.12,4.03,1.03,8.1,2.68,11.79,1.3,2.88,3.12,5.4,5,7.85.44.52.9,1.01,1.33,1.54,1.61,1.97,2.07,2.66,1.94,3.57-.02.2,0,.42-.05.58-.13.5-1.25.1-2.79-1.18-2.18-1.97-4.27-4.26-5.87-6.93-.87-1.29-1.53-2.73-2.25-4.13-.59-1.47-1.24-2.93-1.66-4.47-.73-2.26-1.12-4.63-1.37-7.01-.15-2.39-.15-4.81.24-7.19h.08Z"/></g><path class="cls-4" d="m423.48,241.13c.64.36,1.2.86,1.8,1.29.57.46,1.21.84,1.72,1.37,1.07,1.01,2.18,1.98,3.08,3.14l1.06,1.2c.33.42.63.87.93,1.31,2.07,3.14,3.58,6.64,4.29,10.28.22.79.26,1.62.41,2.43.1.81.32,1.61.29,2.42.02,1.04.1,2.08.07,3.12-.08,1.04-.19,2.07-.43,3.08-.14.63-.16.54-.32,0-.08-.27-.22-.66-.39-1.13-.15-.46-.24-.99-.3-1.57-.6-4.07-1.36-7.92-2.55-11.78-.2-.57-.36-1.16-.64-1.71-.29-.54-.58-1.08-.88-1.63l-.45-.81-.54-.75-1.07-1.52c-1.71-2.09-3.58-4.12-5.86-5.65l-1.02-.75c-.36-.22-.73-.43-1.09-.64-.74-.4-1.44-.89-2.23-1.22-2.33-1.07-4.77-2.01-7.29-2.48-.49-.09-.98-.18-1.46-.27l-.73-.12-.74-.05c-.98-.07-1.96-.11-2.94-.21-.43-.03-.86,0-1.29-.04-1.62-.11-2.13-.3-2.48-.84-.08-.12-.19-.24-.23-.35-.16-.37.51-.73,1.76-.88.92-.09,1.86-.25,2.81-.27.95.03,1.91.07,2.88.14.97.04,1.93.27,2.91.42l1.45.3c.48.13.95.29,1.43.44l2.11.68c.69.28,1.36.59,2.04.89,1.39.54,2.64,1.37,3.94,2.09l-.03.05Z"/><path class="cls-4" d="m408.07,374s2.08-3.18,1.62-4c-.46-.82,1.61.36,1.72,2.41s-.06,2.63-1.45,2.77c-1.38.14-1.9-1.18-1.9-1.18Z"/><path class="cls-4" d="m412.67,373.4c-.26,1.08-.93,1.89-1.72,2.44-.29.2-.57.44-.94.54-.63.19-1.32.22-1.95,0-.62-.24-1.07-.64-1.4-1.07-.31-.37-.51-.8-.6-1.25-.06-.29-.11-.58-.07-.88.04-.29.15-.58.35-.8.12-.14.29,0,.49.2.18.21.47.42.57.55.14.25.45.39.68.45.13.15.25.27.35.42.13.18.37.07.59-.06.26-.12.57-.39.72-.72.11-.2.17-.4.16-.62-.01-.34-.17-.75-.52-.99-.27-.2-.67-.13-.93-.11-.06,0-.12.02-.18.01-.2.04-.23-.45-.32-1.02l-.06-.38c-.03-.2,0-.39.08-.61.08-.21.24-.51.45-.61,1.29-.59,2.73.15,3.58,1.28.65.84.97,2.09.75,3.23h-.07Z"/><path class="cls-3" d="m416.48,354.54s4.01,2.8,5.87-.66c1.12-2.08,1.67,3.27-.59,4.62s-5.22-.17-6.08-1.84.8-2.13.8-2.13Z"/><path class="cls-4" d="m422.45,359.09c-.67.58-1.48,1.02-2.39,1.24-.9.22-1.94.19-2.84-.19-.65-.26-1.28-.6-1.7-1.13-1.42-1.86-1.37-4.24-.3-5.9.46-.72,1.01-1.34,1.67-1.81.83-.6,1.81-1.02,2.82-.97.32.02.31.34.15.74-.17.38-.42.89-.76,1.15-1.22.95-2.03,1.95-2.21,3.09-.15.78.44,1.53.92,1.87.49.46,1.27.56,2.1.13.49-.27.94-.69,1.24-1.2.46-.74.56-1.75.21-2.69-.27-.72-.85-1.29-1.42-1.79-.12-.12-.26-.21-.37-.33-.45-.42-.47-.72-.21-1.33.06-.13.1-.27.16-.39.1-.2.26-.33.5-.41.25-.09.55-.09.84.04.44.19.88.43,1.28.73.38.32.74.69,1.05,1.12.62.85,1.08,1.92,1.21,3.1.05.44.05.88,0,1.34-.06.49-.17.96-.35,1.39-.33.88-.88,1.62-1.54,2.24l-.05-.05Z"/><g class="cls-6"><path class="cls-4" d="m384.58,261.91c.26.61-.09-.22.05.11.06.14.12.29.18.43.11.26.22.53.33.8.18.45.37.9.54,1.35.28.71.55,1.43.8,2.15.62,1.77,1.21,3.55,1.83,5.32.39,1.11,1.55,1.96,2.77,1.57,1.09-.35,1.99-1.58,1.57-2.77-.64-1.8-1.23-3.62-1.87-5.42-.7-1.97-1.51-3.9-2.32-5.82-.46-1.09-2.15-1.41-3.08-.81-1.13.73-1.3,1.91-.81,3.08h0Z"/></g><g class="cls-7"><path class="cls-4" d="m397.13,295.53c.13.3.25.6.38.9.06.14.12.27.17.41.11.26.11.27,0,0,.18.44.37.88.55,1.32.29.71.58,1.41.86,2.13.67,1.73,1.27,3.49,1.89,5.24.39,1.11,1.55,1.96,2.77,1.57,1.09-.35,1.99-1.58,1.57-2.77-1.32-3.75-2.76-7.41-4.31-11.07-.2-.48-.87-.9-1.34-1.03-.54-.15-1.26-.08-1.73.23-1.13.73-1.3,1.91-.81,3.08h0Z"/></g><g class="cls-2"><path class="cls-4" d="m382.45,285.58c-1.11.42-2.21.86-3.31,1.31-.56.23-1.11.47-1.67.7-.2.08-.4.17-.59.25-.45.19.35-.15.09-.04-.11.04-.21.09-.32.13-1.91.8-3.85,1.48-5.83,2.1-1.12.35-1.95,1.59-1.57,2.77s1.56,1.94,2.77,1.57c1.98-.61,3.92-1.3,5.83-2.1.52-.22,1.05-.44,1.57-.66.12-.05.71-.3.41-.17-.35.14.12-.05.15-.06.1-.04.19-.08.29-.12,1.12-.47,2.25-.91,3.39-1.34s1.97-1.54,1.57-2.77c-.35-1.07-1.59-2.02-2.77-1.57h0Z"/></g><g class="cls-10"><path class="cls-4" d="m416.07,273.8c-3.54,1.33-7.13,2.45-10.74,3.57-1.12.35-1.95,1.59-1.57,2.77s1.56,1.94,2.77,1.57c3.62-1.12,7.2-2.23,10.74-3.57,1.1-.41,1.97-1.54,1.57-2.77-.35-1.07-1.59-2.02-2.77-1.57h0Z"/></g><path class="cls-4" d="m403.83,262.05c-.83,1.63-1.66,3.27-2.56,4.85s-1.85,3.12-2.76,4.68c-.6,1.02-.27,2.51.81,3.08s2.44.28,3.08-.81c.92-1.56,1.86-3.11,2.76-4.68s1.74-3.22,2.56-4.85c.53-1.05.31-2.49-.81-3.08-1.03-.54-2.51-.31-3.08.81h0Z"/><g class="cls-8"><path class="cls-4" d="m387.34,295.15c-.82,1.62-1.63,3.25-2.51,4.84s-1.8,3.11-2.71,4.66c-.6,1.02-.27,2.51.81,3.08s2.44.28,3.08-.81c.91-1.55,1.84-3.09,2.71-4.66s1.69-3.22,2.51-4.84c.53-1.05.31-2.49-.81-3.08-1.03-.54-2.51-.31-3.08.81h0Z"/></g><g class="cls-5"><path class="cls-4" d="m384.21,276.02c-3.75-.62-7.44-1.42-11.14-2.26-1.14-.26-2.49.35-2.77,1.57-.26,1.15.34,2.49,1.57,2.77,3.71.85,7.39,1.64,11.14,2.26,1.16.19,2.48-.3,2.77-1.57.25-1.08-.33-2.56-1.57-2.77h0Z"/></g><g class="cls-9"><path class="cls-4" d="m418.94,288.7c-1.64-.27-3.28-.52-4.9-.89s-3.19-.76-4.79-1.13c-1.14-.26-2.49.35-2.77,1.57-.26,1.15.34,2.49,1.57,2.77,1.6.37,3.19.77,4.79,1.13s3.26.62,4.9.89c.61.1,1.18.1,1.73-.23.47-.27.91-.81,1.03-1.34.25-1.08-.33-2.56-1.57-2.77h0Z"/></g><path class="cls-4" d="m406.3,239c-3.37.37-6.71,1.25-9.93,2.48-3.22,1.25-6.31,2.89-9.26,4.77-1.47.95-2.91,1.96-4.3,3.03-1.39,1.06-2.75,2.22-4.21,3.39-1.46,1.16-3.01,2.31-4.78,3.26-1.76.95-3.79,1.67-5.92,1.83-3.1.21-5.74-.57-8.08-.49-2.37-.03-4.74.46-6.97,1.36-7.89,3.29-13.7,11.52-14.46,20.18-.13,1.09-.11,2.2-.13,3.3.07,1.1.11,2.21.29,3.31.3,2.2.83,4.37,1.6,6.47,1.49,4.22,3.82,8.16,6.68,11.64,5.09,6.21,12.13,10.73,19.56,13.76,4.79,1.98,9.82,3.35,14.9,4.57l3.83.85,1.93.41.97.21c.31.13.64.2.95.3,2.55.79,5.12,1.53,7.62,2.48,1.55.61,2.17.99,2.09,1.07-.09.1-.89-.08-2.27-.28-1.38-.2-3.34-.44-5.74-.49-1.19-.06-2.53.07-3.9-.03-1.37-.15-2.83-.33-4.35-.61-2.69-.5-5.39-1.03-8.05-1.79-2.65-.75-5.29-1.61-7.88-2.62-5.17-2.02-10.2-4.62-14.7-8.05-4.52-3.4-8.48-7.66-11.4-12.55-2.92-4.88-4.92-10.4-5.44-16.14-.28-3.43-.1-6.94.77-10.38.87-3.42,2.38-6.66,4.41-9.56,2.03-2.89,4.58-5.46,7.61-7.38,3.01-1.93,6.49-3.22,10.1-3.53.99-.11,1.99-.04,2.98-.05.98.07,1.92.19,2.82.3,1.8.23,3.45.41,4.96.12,3.11-.54,5.95-2.7,8.71-4.98,5.58-4.79,11.96-9.03,19.04-11.58,4.35-1.59,8.98-2.5,13.66-2.51,2.33.02,4.69.25,6.98.77,2.28.56,4.5,1.33,6.61,2.34,3.2,1.53,6.13,3.63,8.61,6.19,2.47,2.56,4.53,5.59,5.72,9,.6,1.69,1.02,3.46,1.24,5.24.2,1.77.23,3.54.19,5.26-.09,3.46-.4,6.78-.18,10.06.28,5.12,1.38,10.22,1.78,15.53.19,2.65.21,5.37-.17,8.09-.37,2.71-1.1,5.37-2.14,7.9-.92,2.23-2.03,4.34-3.44,6.34-.63.94-1.31,1.73-1.91,2.46-.66.68-1.24,1.33-1.85,1.83-1.16,1.06-2.2,1.81-3.1,2.35-1.8,1.08-3.05,1.34-4.1,1.37-.48.02-1.06.11-1.35.08-.5-.07-.03-.64,1.08-1.7,1.05-1.15,2.82-2.64,4.76-4.85,2.85-3.27,5.22-7.04,6.58-11.21,1.4-4.18,1.76-8.51,1.34-13.12-.36-4.6-1.31-9.4-1.63-14.53-.37-5.26.51-10.24.14-14.62-.29-3.21-1.23-6.26-2.95-9.03-1.72-2.74-4.05-5.16-6.78-7.08-2.74-1.9-5.85-3.31-9.09-4.12-3.23-.78-6.65-.89-10.04-.54l-.03-.09Z"/><path class="cls-4" d="m436.28,398.7c-.74.58-1.66,1.13-2.91,1.27-1.14.13-2.36-.31-3.14-.93-.6-.46-1.16-.98-1.45-1.71-.5-1.23-.42-2.46-.12-3.48.32-1.03.86-1.93,1.6-2.65.66-.63,1.46-1.2,2.45-1.32.62-.08,1.24-.01,1.81.24.56.25,1.05.71,1.27,1.29.12.38-.24.43-.67.45-.45,0-.96.21-1.23.24-.26,0-.52.08-.69.19-.15.11-.3.27-.49.39-.37.28-.77.77-1.08,1.34-.19.35-.23.76-.15,1.11.08.35.24.61.4.8.13.17.28.35.46.46.14.1.32.17.51.18.15,0,.33-.03.55-.13.48-.23.94-.63,1.25-1.14.47-.74.61-1.74.19-2.3-.31-.42-1.07-.45-1.46-.29-.09.02-.16.07-.22.09-.2.05-.33-.15-1.1-.59-.15-.09-.31-.14-.43-.21-.21-.11-.36-.26-.48-.63-.08-.21-.06-.39,0-.57.07-.2.18-.41.37-.59.55-.53,1.28-.87,2.01-1,.74-.08,1.48.02,2.19.3.71.29,1.4.77,1.93,1.48.13.18.25.38.37.57.09.18.17.36.25.55.14.37.24.76.3,1.15.17,1.15-.07,2.24-.48,3.15-.42.92-1.01,1.71-1.76,2.36l-.06-.06Z"/><path class="cls-4" d="m431.09,394.57s4.38,2.19,4.78-1.91c.26-2.62,2.5-.07.5,2.85s-3.49,4.37-4.94,2.11-.34-3.06-.34-3.06Z"/><g class="cls-6"><path class="cls-4" d="m153.94,340.99c-.98-.03-1.57-.78-1.88-1.79-.1-.33.26-1.08.53-1.1.54-.04,1.07-.08,1.57-.05.09.02.42.08.92.16.5.1,1.14.23,1.84.31,1.38.21,2.94.26,3.73.25,1.53-.02,3.05,0,4.61-.06,3.15-.09,6.37-.58,9.67-1,.73-.1,1.48-.15,2.23-.16,1.29-.02,2.56-.1,3.94-.14,1.35-.04,2.68-.03,4-.01.44,0,.88.07,1.31-.03.36-.09,2.3.02,4.23.22,1.93.21,3.84.47,4.27.58,2.15.51,4.29.91,6.41,1.23.3.05.63.02.9.18.63.36,1.3.35,1.95.35.92.05,1.82.04,2.74.09.45,0,.91.14,1.38.24.43.09.29.63.15.7-.4.21-.02.41.05.62.02.07.06.16.04.22,0,.03-.35.16-.89.33-.53.19-1.25.34-2,.51-.75.16-1.51.26-2.14.36-.62.07-1.09.11-1.24.1-.04,0-.59,0-1.39-.02-.81-.02-1.86-.07-2.95-.13-2.13-.15-4.36-.31-4.81-.34-.47-.02-.93-.16-1.39-.26-.11-.03-1.74-.15-3.35-.24-1.61-.09-3.19-.09-3.31-.11-1.25-.09-2.49.03-3.71-.22-.24-.04-.49-.01-.73.01-2.22.21-4.43.42-6.65.63-1.15.11-2.31.3-3.48.43-.21.02-.43,0-.64,0-.27,0-.54-.02-.81,0-2.8.29-5.65.25-8.55.15-.68,0-3.78-.82-4.52-1.02-.44-.04-1.63-.98-2.01-1Z"/></g><g class="cls-7"><path class="cls-4" d="m214.71,358.99c.76.26,1.01,1.03.87,1.9-.04.28-.58.74-.78.69-.4-.09-.75-.2-1.11-.3-.11-.03-.85-.48-1.78-.79-.92-.34-2.04-.48-2.6-.54-1.11-.08-2.22-.19-3.38-.22-2.35-.07-4.79.2-7.24.53-.55.08-1.1.11-1.66.13-1.91.06-3.82.36-5.72.72-.32.06-.65.09-.94.25-.24.13-1.67.4-3.14.61-1.47.21-2.99.34-3.35.33-1.75-.05-3.52-.1-5.29-.32-.25-.03-.52,0-.75-.14-.52-.35-1.06-.31-1.6-.42-.75-.12-1.5-.31-2.22-.57-.36-.15-.67-.42-.98-.64-.28-.21.03-.58.15-.59.35-.04.16-.32.19-.5,0-.06.02-.14.05-.19.04-.05,1.04.04,2.09.01,1.05-.03,2.14-.14,2.35-.13.02,0,.4.01.96,0,.56,0,1.31-.05,2.08-.1,1.54-.12,3.17-.38,3.5-.44.34-.06.7-.04,1.06-.04.16.04,4.86-.93,5.06-.98.99-.13,1.97-.41,3-.31.2.02.4-.03.6-.07,1.71-.33,3.46-.49,5.22-.63.9-.07,1.8-.21,2.71-.27.16-.01.33.02.5.02.21,0,.42.03.63.02,2.18-.14,4.39.04,6.67.34.26.06,1.01.25,1.73.59.74.28,1.43.71,1.73.81.34.14,1.1,1.1,1.36,1.24Z"/></g><g class="cls-6"><path class="cls-4" d="m172.12,392.92c-.12.38-.57.2-1.37-.23-.25-.14-.83-.73-.81-.9.03-.33.08-.68.2-.96.03-.09.51-.62,1.16-1.11.64-.51,1.42-.94,1.82-1.15.78-.42,1.62-.62,2.44-.73,1.67-.23,3.3-.26,4.86-.14.34.03.68.09,1.01.2,1.14.38,2.28.55,3.44.71.19.02.38.09.59,0,.35-.18,3.45.62,3.8.87.91.54,1.81,1.02,2.68,1.57.12.08.29.09.35.28.15.44.45.5.73.65.38.21.75.43,1.08.72.17.14.27.41.38.64.1.21-.22.63-.3.65-.24.07-.21.35-.29.55-.03.07-.06.16-.1.2-.08.08-2.54-.04-2.76-.12-.01,0-.22-.07-.53-.16-.31-.1-.73-.2-1.15-.31-.85-.21-1.75-.39-1.94-.41-.2-.02-.36-.15-.54-.25-.08-.07-2.7-.36-2.8-.36-.52-.13-1.08-.09-1.56-.47-.1-.08-.21-.07-.32-.08-.93-.07-1.85-.27-2.76-.39-.46-.06-.93-.02-1.38-.02-.08,0-.16-.04-.25-.06-.1-.02-.21-.06-.31-.06-1.06.1-2.13.07-3.02.52-.2.08-1.32.13-1.51.33-.1.08-.8-.14-.86.03Z"/></g><g class="cls-8"><path class="cls-4" d="m181.17,416.56c-.38.26-.77-.07-1.2-.75-.14-.22-.23-.92-.13-1.03.21-.22.42-.44.65-.6.13-.11,2.47-.75,3.3-.91.39-.1.79-.17,1.19-.22.4-.03.8-.05,1.21-.05l1.23-.03,1.24.03c.82,0,1.65.07,2.48.16.37.04.73.1,1.08.23,1.22.4,2.44.66,3.68.93.21.05.41.13.63.08.19-.05,1.11.18,2.02.52.91.33,1.8.76,1.98.89.91.68,1.83,1.31,2.67,2.04.12.1.28.16.33.34.11.43.41.57.67.78.36.28.7.59,1.01.94.15.17.22.44.32.68.09.22-.27.51-.35.5-.24,0-.24.26-.33.42-.03.05-.07.12-.11.16-.09.05-2.56-.76-2.77-.88-.01,0-.22-.12-.52-.28-.3-.17-.71-.36-1.14-.56-.85-.39-1.75-.72-1.94-.76-.2-.05-.36-.2-.54-.32-.04-.04-.73-.23-1.42-.41-.7-.17-1.41-.29-1.46-.31-.54-.19-1.13-.17-1.63-.57-.1-.07-.22-.09-.33-.1-.5-.05-.98-.14-1.47-.25-.49-.1-.99-.17-1.48-.25-.51-.1-1.03-.06-1.54-.08-.09,0-.18-.05-.28-.07-.12-.03-.23-.07-.35-.07-.61-.02-1.23,0-1.84,0-.62-.01-1.23.02-1.85.15-.28.06-1.67-.18-1.99-.06-.18.05-.84-.35-1-.24Z"/></g><g class="cls-7"><path class="cls-4" d="m190.09,443.3c-.39.07-.45-.41-.39-1.32.02-.29.32-1.06.47-1.12.28-.13.57-.25.85-.3.08,0,.68.11,1.33.33.66.21,1.37.52,1.73.67.7.31,1.32.75,1.86,1.26,1.13,1.02,2.15,2.13,3.03,3.34.19.27.35.56.46.88.4,1.09.9,2.06,1.43,3.02.09.16.15.34.33.45.15.09.54.82.83,1.6.3.77.53,1.57.54,1.77.05.97.14,1.91.16,2.85,0,.13.08.26-.04.41-.28.35-.16.61-.13.89.05.39.07.78.03,1.18-.02.2-.18.42-.3.63-.11.19-.64.19-.7.14-.19-.14-.41.04-.61.09-.07.02-.16.04-.22.04-.12,0-1.42-1.91-1.48-2.12,0-.01-.07-.2-.16-.49-.1-.28-.23-.66-.38-1.03-.29-.75-.63-1.51-.72-1.66-.09-.16-.07-.35-.08-.53.02-.11-1.15-2.16-1.2-2.22-.17-.45-.5-.8-.46-1.36,0-.11-.05-.19-.11-.27-.45-.67-.8-1.41-1.23-2.1-.22-.35-.52-.64-.79-.95-.05-.06-.06-.14-.1-.21-.04-.09-.08-.18-.14-.25-.7-.67-1.32-1.45-2.19-1.88-.19-.1-.87-.99-1.14-1.05-.13-.04-.31-.76-.47-.73Z"/></g><g class="cls-6"><path class="cls-4" d="m163.22,456.35c-.29.16-.34-.31-.29-1.18.02-.28.24-1.08.34-1.17.2-.18.4-.35.59-.45.11-.08,1.63,0,2.17.07.52.03.98.22,1.43.43.91.44,1.81.88,2.66,1.43.19.12.36.27.5.46.48.65,1.06,1.11,1.68,1.55.1.07.19.17.36.16.31-.05,1.8,1.42,1.89,1.7.3.69.55,1.27.82,1.9.04.09.13.14.06.3-.16.37,0,.49.09.67.14.24.23.51.29.8.03.14-.07.36-.13.55-.06.17-.53.39-.6.39-.2-.01-.36.2-.53.32-.06.04-.14.1-.19.12-.12.04-1.63-.6-1.72-.69,0-.06-1.47-1.36-1.69-1.44-.11-.06-.13-.19-.17-.31,0-.08-1.36-.89-1.4-.92-.21-.24-.55-.32-.61-.76-.01-.09-.08-.11-.13-.15-.48-.28-.86-.68-1.3-1.04-.22-.19-.49-.28-.74-.42-.04-.03-.07-.09-.1-.14-.04-.05-.08-.12-.14-.15-.61-.27-1.15-.72-1.84-.82-.15-.03-.72-.64-.91-.64-.1,0-.25-.64-.37-.57Z"/></g><g class="cls-6"><path class="cls-4" d="m312.24,446.08c.02.32-.42.14-1.16-.31-.24-.14-.84-.71-.88-.83-.08-.25-.14-.5-.16-.71-.02-.13.67-1.37.93-1.8.23-.43.57-.74.92-1.03.73-.58,1.46-1.17,2.24-1.68.17-.11.37-.2.59-.23.74-.14,1.35-.47,1.95-.84.1-.06.22-.09.26-.26.06-.29,1.85-1.04,2.13-1.02.67.02,1.3-.03,1.93-.02.09,0,.17-.07.28.05.27.29.43.18.61.16.25-.03.52-.03.79.03.13.03.3.19.45.32.14.12.18.64.16.7-.07.18.06.4.12.61.02.07.04.16.05.22,0,.13-1.05,1.3-1.17,1.34-.05-.02-1.71.84-1.86,1.01-.09.07-.22.04-.34.04-.07-.02-1.27.88-1.31.9-.29.1-.48.37-.9.24-.08-.02-.13.02-.18.06-.42.31-.92.48-1.4.71-.25.11-.43.32-.65.47-.04.03-.11.02-.16.03-.06.02-.14.02-.18.06-.48.42-1.09.69-1.46,1.24-.09.12-.85.33-.94.49-.05.08-.67-.08-.66.05Z"/></g><path class="cls-4" d="m80.48,169.71c.27.23-.05.55-.71.93-.21.12-.9.28-1.02.22-.23-.11-.45-.23-.61-.36-.1-.08-.79-1.58-1.04-2.08-.25-.49-.38-1.01-.49-1.53-.22-1.06-.48-2.11-.68-3.18-.05-.24-.06-.48-.04-.73.07-.85-.06-1.66-.25-2.47-.03-.13-.04-.28-.16-.39-.22-.18-.56-2.4-.51-2.7.11-.74.14-1.47.21-2.21,0-.1-.04-.21.07-.32.27-.25.19-.47.18-.69,0-.31,0-.62.07-.94.03-.16.18-.32.3-.49.11-.15.55-.13.61-.09.15.12.35-.01.53-.05.06-.01.14-.03.19-.03.11,0,1.09,1.63,1.11,1.82,0,.02.15.65.31,1.31.16.66.34,1.34.4,1.48.05.14,0,.3-.01.46-.01.07.57,2.03.58,2.1.04.42.23.81.04,1.27-.04.09,0,.17.01.25.18.7.21,1.42.29,2.14.04.37.15.72.22,1.08.01.06-.01.14-.02.21,0,.09-.02.18,0,.26.21.85.25,1.73.57,2.55.07.19-.03,1.19.07,1.41.05.12-.32.64-.21.74Z"/><path class="cls-4" d="m73.98,177.87c.28-.19.49.19.66.93.05.24.01.94-.07,1.04-.16.19-.31.37-.47.5-.1.07-1.56.35-2.05.49-.48.12-.95.14-1.43.14-.97,0-1.94.03-2.9.06-.21,0-.43-.03-.65-.08-.74-.2-1.48-.19-2.22-.1-.12.01-.25,0-.36.11-.19.18-2.18.29-2.45.23-.66-.17-1.31-.25-1.97-.36-.09-.02-.19.03-.28-.09-.22-.28-.42-.21-.62-.22-.28,0-.56-.03-.85-.1-.14-.04-.29-.19-.44-.31-.14-.11-.12-.56-.08-.61.11-.15-.01-.35-.04-.53-.01-.06-.02-.14-.02-.19,0-.11,1.55-1.04,1.73-1.05.02,0,.62-.12,1.25-.24.63-.12,1.29-.24,1.43-.28.14-.04.29.02.43.05.07,0,1.97-.36,2.05-.35.4.01.79-.12,1.2.13.08.05.16.03.24.02.68-.07,1.37,0,2.05.06.35.03.7-.02,1.05-.02.06,0,.13.04.19.06.08.02.16.06.24.06.83-.04,1.65.11,2.48,0,.19-.03,1.09.32,1.31.28.12-.02.51.47.62.39Z"/><path class="cls-4" d="m315.29,48.85c.09.26-.31.21-1.02-.02-.23-.07-.85-.42-.91-.51-.12-.18-.24-.36-.3-.52-.04-.09.15-1.14.2-1.51.04-.36.18-.66.34-.95.32-.59.61-1.21.93-1.8.07-.13.17-.25.3-.35.44-.35.7-.79.89-1.27.03-.08.09-.15.04-.27-.09-.2.58-1.43.74-1.55.4-.29.73-.63,1.09-.94.05-.04.05-.12.19-.12.33.02.35-.12.44-.23.12-.15.25-.3.43-.42.09-.06.28-.06.45-.08.15-.02.52.24.54.29.08.14.3.18.46.26.06.03.13.06.17.09.09.06.24,1.4.18,1.51-.01.03-.57,1.57-.6,1.76-.02.1-.13.15-.21.22-.04.03-.42,1.3-.45,1.34-.15.22-.18.51-.54.62-.07.02-.08.08-.1.13-.17.43-.48.79-.76,1.16-.14.19-.22.42-.33.63-.02.04-.08.06-.11.08-.04.04-.1.07-.13.11-.23.51-.62.93-.77,1.48-.03.13-.61.51-.64.66-.02.09-.57.09-.53.2Z"/><path class="cls-4" d="m325.39,63.05c-.19.29-.54.02-1.01-.57-.15-.19-.41-.85-.37-.97.08-.24.17-.48.28-.66.06-.12,1.53-1.01,2.06-1.29.5-.3,1.04-.46,1.58-.6,1.11-.27,2.23-.53,3.37-.68.25-.04.51-.04.77,0,.89.13,1.74.08,2.61,0,.14-.01.29,0,.43-.11.23-.22,2.6-.13,2.9,0,.79.27,1.47.51,2.19.76.1.04.22.02.3.16.17.33.41.32.63.38.31.08.61.2.9.36.14.08.26.28.37.44.11.15-.07.56-.12.6-.17.11-.1.33-.13.52,0,.06-.02.14-.04.19-.05.09-1.85.52-2.02.51-.04-.04-2.47-.07-2.74.01-.14.02-.28-.05-.42-.1-.07-.05-1.99.21-2.06.22-.4-.03-.78.12-1.19-.12-.08-.05-.16-.03-.24-.02-.68.11-1.36.09-2.05.13-.35.02-.69.13-1.04.19-.06.01-.13-.02-.2-.02-.08,0-.17-.02-.25,0-.8.21-1.65.27-2.41.64-.17.07-1.15.06-1.34.18-.11.06-.66-.25-.74-.13Z"/></svg>