<svg xmlns="http://www.w3.org/2000/svg" viewBox="0 0 520 520" width="100%" height="100%"><defs><style>.cls-1{opacity:.35;}.cls-1,.cls-2,.cls-3{fill:currentColor;}.cls-1,.cls-2,.cls-3,.cls-4{stroke-width:0px;}.cls-5{opacity:.45;}.cls-2{opacity:.55;}.cls-4{fill:#242021;}</style></defs><path class="cls-3" d="m191.26,85.92c-.72-.77-1.55-1.5-2.45-2.16-.33-.24-.72-.37-1.06-.6-1.22-.78-2.53-1.52-3.93-2.07-.62-.25-1.26-.43-1.91-.58-.83-.18-1.68-.26-2.48-.66-.25-.13-.14-.59.17-1.02.31-.43.82-.87,1.34-.84,1.83.15,3.67.5,5.33,1.41.5.27,1.03.46,1.56.67.54.19,1.09.39,1.6.66,1.14.56,2.21,1.27,3.23,2.05.61.51,1.2,1.03,1.75,1.61.86.84,1.55,1.84,2.28,2.79.26.39.56.74.87,1.1.29.37.56.76.84,1.16.13.17.26.34.34.54.26.74.1,1.06-.74,1.46-.19.09-.38.19-.57.26-.66.25-1.32.14-1.7-.2-1.1-1.04-1.69-2.13-2.51-3.21-.59-.79-1.22-1.61-2.01-2.31l.05-.07Z"/><path class="cls-3" d="m280.09,304c-1.61.6-11.03,3.62-8.01,6.63s18.29,2.46,18.29,2.46l-10.27-9.09Z"/><path class="cls-3" d="m460.34,293.34c2.45-.59,4.9-1.18,7.34-1.81.89-.23,1.74-.57,2.65-.76,3.17-.7,6.35-1.4,9.49-2.2,1.39-.37,2.78-.76,4.15-1.17l2.63-.8c.87-.28,1.8-.39,2.72-.53.58-.07.58.18.23.67-.36.46-1.01,1.31-1.97,1.79-1.72.77-3.45,1.52-5.2,2.19-1.77.64-3.58,1.14-5.42,1.58-2.21.51-4.38,1.43-6.58,2.12-2.44.71-4.89,1.37-7.35,2.04l-4.53,1.24c-2.28.65-4.59,1.22-6.84,1.92-1.75.54-3.39,1.3-5.11,1.91-.38.14-.74.3-1.12.42-1.44.42-1.97.29-2.52-.55-.12-.19-.27-.38-.37-.58-.32-.68.11-1.43,1.09-1.93,2.89-1.54,6.09-2.63,9.34-3.64,2.41-.75,4.89-1.33,7.34-2.01l.03.09Z"/><path class="cls-1" d="m173.65,153.02s3.67,8.18,11.31,17.22,20.16,17.84,32.92,15.33c12.76-2.51,21.36-4.77,23.06-18.22l1.7-13.45s5.19-1.61,5.81-7.81-2-12.04-6.58-13.28c-4.57-1.24-9.43,5.26-9.43,5.26,0,0-24.52-8.47-28.75-18.35-4.23-9.88-24.9,17.51-25.01,18.35s-5.03,14.96-5.03,14.96Z"/><path class="cls-3" d="m185.55,156.81c.79,2.29,2.5,4.55,4.73,5.6,1.24.58,2.64.82,3.97.41,1.61-.5,2.79-1.72,3.68-3.1.46-.71.17-1.83-.58-2.22-.81-.43-1.73-.18-2.22.58-.12.18-.23.36-.36.53.16-.22-.07.07-.12.13-.21.23-.43.44-.66.64.2-.17.09-.07-.06.03-.1.06-.19.12-.29.17-.06.03-.13.07-.2.1.21-.08.26-.1.14-.06-.12.03-.23.08-.35.11-.05.01-.26.03-.3.06.27-.03.31-.04.14-.02-.05,0-.1,0-.15,0-.11,0-.23,0-.34,0-.28-.02-.13-.1.04.01-.15-.1-.5-.11-.67-.18-.31-.11-.03-.08.01.01-.02-.05-.27-.13-.32-.16-.2-.11-.39-.23-.58-.35-.07-.05-.21-.11-.26-.19.19.15.21.16.08.05-.06-.05-.11-.09-.16-.14-.36-.31-.67-.66-.98-1.02-.23-.27.17.25-.01-.01-.08-.12-.17-.23-.25-.35-.12-.18-.23-.36-.34-.54-.12-.21-.23-.42-.33-.63-.08-.17-.05-.31,0,.03-.02-.11-.09-.24-.13-.35-.28-.8-1.13-1.42-2-1.13-.79.26-1.43,1.14-1.13,2h0Z"/><path class="cls-3" d="m195.38,145.29c1.29,2.11,2.05,4.31,2.64,6.55.21.82.46,1.63.56,2.47.18,1.47.26,2.95.18,4.41-.09,1.46-.29,2.9-.57,4.31-.25,1.25-.53,2.5-.86,3.72-.24.77-.44,1.56-.78,2.31-.35.74-.76,1.44-1.24,2.1-.3.41-.52.21-.65-.32-.07-.26-.12-.61-.14-1-.03-.39-.04-.83.06-1.25.81-2.96,1.3-5.93,1.53-8.99.15-1.83-.16-3.74-.6-5.54-.47-1.97-1.17-3.96-2.15-5.73-.6-1.1-1.33-2.09-2.18-2.95-1.29-1.25-2.92-2.2-4.7-2.18-1.38-.05-2.68.61-3.88,1.27-.27.16-.51.34-.79.47-.99.59-1.42.58-2.17-.1-.17-.15-.36-.3-.5-.46-.51-.55-.38-1.34.4-2.05.55-.55,1.25-.95,1.94-1.39.35-.22.76-.35,1.15-.51.4-.15.79-.33,1.23-.4,1.69-.49,3.71-.41,5.52.19.69.19,1.3.54,1.93.86.58.37,1.16.76,1.65,1.21,1.03.88,1.81,1.91,2.5,2.95l-.07.05Z"/><path class="cls-1" d="m167.97,318.74s-12.05,4.87-14.04,4.84c-1.99-.03,1.33-5.2,1.33-5.2l-.28-5.79s-8.4,7.25-8.67,9.35c-.27,2.1-5.19,1.73-4.75-2.45s13.69-13.45,13.69-13.45l21.19-2.6s8.19,9.42,4.86,11.56-13.35,3.75-13.35,3.75Z"/><path class="cls-1" d="m320.26,324.81s2.47,18.54,2.39,20.51-7.87,10.16-8.76,11.25,2.99,2.38,6.37,0,11.92,2.85,11.92,2.85l11.62,8.28s6.44-1.29,4.74-4.6,6.34,4.19,5.32-2.81c-.99-6.81,9.21-3.97,4-6.19-5.39-2.3-19.53-8.31-19.53-8.31l-4.37-15.16-7.61-2.56-6.09-3.26Z"/><path class="cls-3" d="m309.41,320.84c-1.55-1.52-2.89-3.26-4.03-5.06-.43-.65-.87-1.3-1.24-1.98-.65-1.21-1.26-2.43-1.74-3.7-.48-1.27-.9-2.56-1.31-3.84-.36-1.14-.72-2.27-1.08-3.4-.44-1.45-.81-2.92-1.13-4.4-.1-.46-.06-.41.12-.05.17.36.54,1.02.9,1.81,1.24,2.78,2.47,5.55,3.73,8.39.39.82.8,1.65,1.24,2.48.45.82.92,1.62,1.42,2.4,1.06,1.73,2.26,3.38,3.65,4.85.85.91,1.74,1.79,2.73,2.56,1.47,1.18,3.09,2.22,4.83,2.94,1.35.56,2.76.84,4.17,1.01.31.05.62.06.93.08.58.06.96.11,1.23.18.27.09.43.23.56.44.06.1.14.19.18.29.13.31-.37.6-1.32.7-2.8.18-5.81-.51-8.46-1.88-1.98-1-3.78-2.32-5.4-3.81l.03-.04Z"/><g class="cls-5"><path class="cls-3" d="m341.63,195.15c-.51.09-1.1.15-1.67.07-.57-.08-1.04-.25-1.5-.41-.32-.13-.66-.2-.95-.37-.52-.3-.99-.63-1.43-.99-.22-.17-.43-.37-.64-.55-.19-.21-.37-.44-.54-.66-.3-.4-.61-.76-.86-1.17-.34-.49-.68-1.01-.81-1.59-.05-.18.02-.18.18-.09.16.09.42.25.67.45.2.19.42.36.65.51.26.13.51.24.77.34.5.23,1.01.34,1.37.74.47.42,1.14.55,1.72.7.65.18,1.24.27,1.79.22.36-.03.76-.11,1.15-.27.59-.23,1.2-.55,1.69-1.01.37-.37.59-.87.82-1.32.05-.1.08-.21.13-.3.28-.27.53-.23,1.21.12l.45.23c.49.27.78.71.75,1.2-.16,1.38-1.1,2.31-2.16,3.03-.81.53-1.71.94-2.77,1.2l-.02-.07Z"/></g><path class="cls-3" d="m354.69,217.13c.22-.39.47-.78.78-1.16.34-.41.69-.73,1.05-1.01.26-.21.5-.44.79-.6,1.06-.52,2.2-.76,3.33-.7.5,0,1,.1,1.47.24.62.14,1.15.6,1.45,1.13.1.17-.02.25-.26.32-.24.06-.62.2-.9.23-.51.08-.85.03-1.24.11-.37.02-.77,0-1.21.02-.55.02-.99.44-1.42.75-.25.17-.47.37-.69.57-.19.2-.36.41-.52.69-.2.34-.38.72-.53,1.12-.21.61-.47,1.24-.55,1.91-.06.52.05,1.05,0,1.55,0,.11,0,.22-.01.34-.07.41-.26.53-.83.58-.13.01-.26.03-.39.03-.43.01-.78-.2-.94-.55-.22-.52-.44-1.06-.48-1.6,0-.53.06-1.07.17-1.61.14-.81.47-1.59.87-2.39l.06.02Z"/><g class="cls-5"><path class="cls-3" d="m317.21,240.14c-.03-.21-.06-.42-.07-.63v-.41c0-.27,0-.55.02-.83.02-.55.06-1.11.12-1.68.04-.41.01-.84.11-1.26.21-.75.45-1.49.88-2.21.43-.7.94-1.43,1.72-1.88.65-.41,1.34-.72,2.02-.87l.67-.07c.21,0,.43.02.64.04.21.03.42.02.61.18.17.15.35.31.54.48.21.22.17.23-.06.48-.11.13-.27.34-.44.63-.09.13-.18.32-.26.42-.09.07-.17.14-.25.19-.28.16-.55.29-.73.47-.21.11-.36.19-.51.26-.06.05-.13.09-.2.12-.06.05-.12.1-.2.14-.15.1-.35.19-.54.36-.5.41-.52,1.23-.64,2-.15.86-.23,1.81-.22,2.77,0,.35-.01.44.04.67.03.2.11.42.22.64.32.66.89,1.36,1.58,1.89.55.41,1.23.62,1.88.89.14.06.3.09.44.17.52.26.52.61.17,1.38-.08.18-.15.36-.25.53-.31.57-.81.9-1.31.86-1.42-.22-2.71-.96-3.9-2.1-.86-.85-1.75-1.96-2.15-3.64l.08-.02Z"/></g><path class="cls-3" d="m309.36,275.36c.22.35.44.68.59,1.06.17.36.32.72.42,1.1.08.27.2.52.22.81.1.99.03,1.98-.3,2.88-.16.39-.3.79-.58,1.12-.3.44-.79.75-1.29.85-.15.04-.16-.06-.12-.25.04-.18.11-.46.2-.66.16-.37.19-.72.21-1.05.03-.16.07-.31.07-.49.03-.17.05-.34.06-.53.08-.46-.22-.91-.4-1.33-.12-.23-.23-.46-.34-.7-.15-.21-.24-.47-.42-.67l-.3-.39c-.11-.12-.24-.23-.36-.34-.36-.33-.77-.66-1.26-.79-.18-.07-.39-.06-.59-.02-.2.04-.39.06-.58.11-.08.03-.17.08-.25.09-.3.02-.37-.24-.44-.99l-.05-.51c-.04-.57.12-1.05.47-1.25.25-.15.52-.2.79-.26.27-.03.55-.01.82.01.56.03,1.09.29,1.61.51.36.22.72.45,1.05.73.3.3.6.6.84.94l-.05.05Z"/><g class="cls-5"><path class="cls-3" d="m213.26,273.72c.27-.29.41-.75.45-1.26-.01-.19-.06-.36-.09-.55-.04-.67-.16-1.49-.63-2.12-.19-.31-.49-.46-.75-.69-.19-.09-.4-.16-.59-.27-.21-.06-.4-.17-.63-.34-.14-.11-.13-.33.03-.6.15-.24.51-.7.91-.71.34.01.68.08,1.04.14.33.1.66.23.97.41.29.19.54.44.78.68.24.25.4.55.57.84.18.36.36.71.59,1.06.15.38.34.75.41,1.15.17.88.12,1.82-.14,2.7-.2.53-.42,1.06-.78,1.49-.13.17-.24.35-.4.49l-.49.39c-.31.29-.69.42-1.01.65-.25.19-.52.3-.78.46-.26.14-.53.35-.81.43-.12.05-.24.1-.37.13-.48.09-.66-.08-.82-.75-.04-.15-.08-.3-.1-.45-.08-.51.04-.98.26-1.22.7-.66,1.21-1.01,1.62-1.33.2-.3.54-.42.69-.77l.07.02Z"/></g><path class="cls-3" d="m324.31,355.08c.17-.04.41-.06.61-.09.19-.03.43-.04.79-.06.32,0,.62.08.92.12l.41.2c.16,0,.27.14.41.2l.72.59.6.47c.33.26.72.43,1.06.69,1.16.95,2.46,1.77,3.74,2.78.56.45,1.13.89,1.66,1.37.67.62,1.25,1.34,1.67,2.14.13.25.02.3-.28.25-.29-.05-.8-.15-1.25-.37-.38-.22-.78-.4-1.15-.59-.36-.21-.72-.4-1.08-.59-.37-.19-.73-.38-1.1-.58-.36-.23-.71-.48-1.08-.75-.86-.65-1.96-1.04-2.91-1.67-.34-.23-.68-.46-1.01-.71-.17-.12-.33-.24-.49-.37l-.39-.3c-.11-.14-.3-.18-.49-.17-.57.04-1.31.23-2,.43-1.1.31-2.2.63-3.29.94-.86.26-1.7.66-2.66.83-.21.05-.42.1-.64.11-.82.05-1.11-.25-1.15-.98-.01-.17-.03-.34-.02-.51.04-.57.38-1.02.78-1.15.64-.25,1.25-.5,1.92-.71.71-.21,1.41-.41,2.12-.62,1.11-.32,2.24-.65,3.58-.96l.02.07Z"/><path class="cls-3" d="m239.14,430.69c3.77-2.04,7.6-3.94,11.37-5.9l4.09-2.21c4.86-2.51,9.63-5.13,14.23-8.04,1.01-.66,2.05-1.29,3.01-2.02.97-.72,1.94-1.43,2.9-2.14,1.21-.95,2.37-1.96,3.57-2.92.61-.47,1.15-1.02,1.74-1.51.57-.52,1.24-.93,1.86-1.4.8-.56.8-.38.43.4-.23.47-.5,1.02-.8,1.62-.37.64-.89,1.31-1.5,1.98-4.51,4.61-9.8,8.4-15.47,11.46-3.39,1.83-6.78,3.93-10.23,5.79l-11.37,6.06c-2.33,1.24-4.65,2.49-6.93,3.8-3.45,1.99-6.92,4.01-10.16,6.27-2.55,1.72-4.84,3.68-7.23,5.54-.52.42-.99.87-1.51,1.29-1.93,1.57-2.66,1.92-3.53,1.72-.2-.05-.43-.07-.58-.14-.53-.26-.02-1.25,1.31-2.56,1-.96,1.99-1.96,3.07-2.87,1.08-.91,2.18-1.83,3.32-2.72,1.13-.89,2.34-1.69,3.52-2.54l1.8-1.24,1.84-1.18,2.75-1.74,2.8-1.65c1.87-1.11,3.76-2.15,5.65-3.21l.04.06Z"/><path class="cls-3" d="m74.63,345c-3.7,1.77-7.35,3.63-10.97,5.55-1.33.69-2.59,1.49-3.91,2.2-4.63,2.52-9.19,5.17-13.71,7.9-2.01,1.21-3.96,2.52-5.88,3.82-1.24.83-2.48,1.66-3.72,2.5-1.22.86-2.5,1.65-3.83,2.36-.92.33-.74.35-.26-.32.24-.35.61-.79,1.05-1.33.44-.55.99-1.14,1.67-1.68,1.19-.97,2.41-1.9,3.62-2.85,1.22-.94,2.5-1.78,3.76-2.66,1.26-.88,2.56-1.71,3.86-2.53,1.29-.84,2.63-1.61,3.99-2.35,1.61-.91,3.23-1.87,4.87-2.84,1.62-.98,3.27-1.95,4.92-2.87,3.62-2.04,7.31-3.96,11.02-5.84,2.29-1.14,4.58-2.28,6.89-3.38,3.49-1.68,7.04-3.26,10.52-4.88,2.73-1.21,5.3-2.64,8.04-3.75.6-.25,1.18-.52,1.79-.75,1.13-.44,1.9-.68,2.48-.75.57-.09.93-.07,1.25.03.15.04.32.07.42.13.32.17-.48.83-2.01,1.77-2.34,1.22-4.67,2.62-7.17,3.72-2.47,1.16-4.98,2.33-7.5,3.5-3.73,1.76-7.47,3.53-11.17,5.37l-.03-.05Z"/><path class="cls-3" d="m220.07,386.77c3.22,0,3.22-5,0-5s-3.22,5,0,5h0Z"/><path class="cls-3" d="m88.21,378.38h-.17c-3.22,0-3.22,5,0,5h.17c3.22,0,3.22-5,0-5h-.17c-3.22,0-3.22,5,0,5h.17c3.22,0,3.22-5,0-5h0Z"/><polygon class="cls-3" points="144.51 337.69 148.52 338.84 151.16 321.93 144.51 337.69"/><path class="cls-2" d="m148.07,340.12s-4.45,5.21-10.71,7.83c-5.15,2.15,0,1.44,0,1.44,0,0,5.26,6.47,8.96-1.44,1.99-4.25,1.75-7.83,1.75-7.83Z"/><path class="cls-2" d="m440.3,287.01l-2,15.24s41.42-11.97,42.9-15.24c1.47-3.27-1.07-5.54-3.63-5.53-2.55.01-25.13,3.68-25.13,3.68l-12.14,1.85Z"/><path class="cls-3" d="m339.55,254.88s19.11-15.82,21.67-19.88c2.56-4.06,13.29-15.88,14.14-22.39s4.67-25.71,4.67-28.53,16.5,12.15,19.05,13.3,12.93,15.45,14.26,20.33,1.78,17.31,0,21.98-27.55,41.78-27.55,41.78l14.46-3.56s20.11-9.92,27.63-8.42c7.52,1.5,10.42-.95,9.8,2.39-.62,3.34,2.17,22.22,0,28.48-2.17,6.25-8.67,7.64-10.83,8.48s-31.41,10.26-36.33,11.5c-4.92,1.23-36.58,6.27-43.08,6.3-9.56.04-10.34-3.4-10.34-3.4,0,0,9.38-9.24,9.16-14.09-.21-4.84,1.75-23.47,0-27.68-1.75-4.21-6.7-26.59-6.7-26.59Z"/><path class="cls-3" d="m289.48,262.62s-8.81,10.48-10.55,16.21-3.76,12.02-2.06,17.21c1.7,5.2,5.27,10.59,8.13,11.98,2.86,1.39,17.53,3.37,17.53,3.37l-9.01-32.57-4.03-16.21Z"/><path class="cls-3" d="m176.97,305.9c.31.66.67,1.32,1.1,1.93.15.23.36.4.53.62.58.77,1.22,1.52,1.98,2.15.32.31.7.53,1.07.75.51.23.98.51,1.4.96.13.14.03.33-.21.51-.24.17-.66.4-1.04.38-1.24-.33-2.38-1.01-3.2-2.01-.5-.58-1.13-1.05-1.64-1.63-.56-.64-1.05-1.33-1.48-2.06-.27-.44-.51-.9-.75-1.36-.36-.7-.64-1.43-.94-2.14-.23-.56-.56-1.07-.81-1.64-.06-.12-.13-.24-.17-.37-.08-.24-.07-.41.05-.55.1-.14.28-.23.54-.33.12-.04.23-.09.34-.13.35-.1.81,0,1.08.28.58.84.92,1.72,1.31,2.62.27.67.54,1.35.89,2l-.04.03Z"/><path class="cls-3" d="m179.89,308.31l-.58-.9c-.18-.31-.34-.63-.5-.94-.35-.62-.6-1.29-.88-1.94-.21-.47-.38-.96-.54-1.45-.5-1.76-.54-3.62-.34-5.38l.17-1.17.26-1.15c.24-.97.62-1.91,1.18-2.73.17-.26.27-.15.33.16.05.31.08.82-.04,1.33-.38,1.85-.31,3.65-.24,5.48.04.55.14,1.11.29,1.65.07.27.14.55.22.82l.29.8c.17.6.48,1.16.71,1.74.29.56.59,1.12.92,1.66.44.65.88,1.3,1.4,1.89.37.47.79.9,1.22,1.32.41.44.89.81,1.37,1.16.37.28.76.52,1.19.71l1.24.6c.19.08.38.14.56.22.67.33.82.57.73,1.14-.02.13-.03.27-.06.39-.11.42-.55.59-1.14.44-.44-.11-.88-.24-1.31-.4-.42-.19-.83-.4-1.25-.62-.42-.21-.82-.47-1.2-.76-.38-.28-.78-.55-1.15-.87-1.07-.95-2.09-1.98-2.9-3.17l.04-.03Z"/><path class="cls-3" d="m329.18,330.09c-.8.1-1.61.13-2.4.17-.29.02-.57.07-.87.07-.51,0-1.03-.03-1.53-.05-.51-.06-1.02-.11-1.52-.17-.45-.04-.89-.07-1.33-.09-.28-.02-.57-.04-.85-.06-.28-.05-.56-.16-.83-.26-.17-.07-.13-.18.03-.34.16-.15.45-.4.77-.5,1.12-.12,2.21-.24,3.33-.2.67.05,1.36-.09,2.03-.18.74-.08,1.49-.17,2.23-.3.46-.07.92-.14,1.37-.25.69-.15,1.38-.31,2.03-.57.5-.21.95-.53,1.41-.81.1-.06.2-.13.31-.18.4-.17.59-.09.89.33.07.1.14.19.2.29.2.33.17.7-.08.98-.74.85-1.75,1.3-2.8,1.61-.78.24-1.58.39-2.38.54v-.05Z"/><path class="cls-3" d="m329.7,215.48c1.3,3.06,2.51,6.16,3.67,9.27.42,1.14.9,2.25,1.31,3.39,1.38,4.04,2.67,8.1,3.81,12.21.52,1.82,1.05,3.64,1.57,5.45.31,1.16.61,2.34.86,3.53.24,1.19.5,2.39.27,3.68-.11.78-.15.65-.47.04-.17-.31-.4-.7-.76-1.18-.31-.49-.51-1.07-.71-1.72-.36-1.16-.7-2.31-1.1-3.46l-1.04-3.49c-.69-2.34-1.38-4.68-2.07-7.04-.79-2.84-1.94-5.68-2.99-8.49-1.16-3.1-2.36-6.18-3.65-9.23-.8-1.87-1.59-3.75-2.49-5.58-.65-1.4-1.31-2.8-2.03-4.16-.7-1.37-1.4-2.74-2.21-4.04-1.19-2.06-2.59-3.92-3.89-5.86-.28-.43-.61-.81-.91-1.23-1.14-1.54-1.32-2.16-1.19-2.8.03-.15.05-.32.1-.43.17-.38.91.05,1.94,1.09,1.52,1.55,2.85,3.31,4.2,5.11.63.93,1.19,1.9,1.77,2.87.59.97,1.16,1.95,1.67,2.95,1.61,2.96,3.03,6.01,4.39,9.09l-.05.03Z"/><path class="cls-3" d="m281.96,191.81c-.73,1.52-1.15,3.21-1.48,4.91-.08.63-.08,1.27-.18,1.9-.27,2.23-.31,4.54-.02,6.82.15,1.01.33,2.02.62,3,.38,1.25.77,2.49,1.07,3.79.09.41-.07.42-.39.18-.31-.25-.86-.73-1.28-1.41-1.21-2.51-1.99-5.27-2.08-8.1,0-.85-.12-1.7-.11-2.57-.02-.87-.09-1.74.04-2.61l.17-1.42.3-1.41c.16-.94.52-1.84.79-2.76.45-1.09.88-2.19,1.52-3.19.84-1.58,2.1-2.91,3.34-4.17.53-.44,1.06-.88,1.58-1.34.55-.41,1.16-.74,1.75-1.11.26-.17.52-.31.81-.41,1.08-.38,1.48-.31,1.83.05.08.09.18.16.23.26.19.3-.13.75-.76,1.19-.97.55-1.84,1.26-2.7,1.92-.41.36-.84.71-1.26,1.05-.37.41-.75.81-1.14,1.2-1.02,1.28-2,2.66-2.6,4.25l-.05-.02Z"/><path class="cls-3" d="m242.1,199.42l-.13,1.53-.05.77c-.02.35-.01.91-.06,1.29-.05.61-.05,1.24-.09,1.78,0,.35-.11.45-.19.62-.22-.13-.52-.39-.77-.57l-.72-.57c-.47-.38-.86-.62-1.24-.91l-1.43-1.05c-.48-.37-1-.69-1.45-1.09-.59-.5-1.15-1.08-1.52-1.78-.11-.22-.01-.24.22-.16.22.08.59.22.94.44,1.25.76,2.53,1.46,3.81,2.34.12.17.29.24.48.4.03,0,.11.08.1,0,0-.05,0-.11,0-.16l.03-.24v-.14s.03-.08.03-.24l.04-1.58.09-1.95c.05-.99.16-1.97.23-2.96.06-.77.02-1.54.11-2.34.01-.17.02-.35.06-.53.12-.66.44-.8.98-.73.13.02.26.03.38.06.4.11.66.47.7.89.02,1.24-.07,2.51-.22,3.86-.1.99-.21,2.01-.27,3.03h-.05Z"/><path class="cls-3" d="m249.23,193.01c.22-.63.45-1.27.67-1.9.08-.23.11-.47.19-.7.29-.81.68-1.59.98-2.39.14-.35.24-.72.34-1.08.17-.45.35-.9.61-1.32.08-.13.15-.09.23.06.08.15.22.43.25.72l.05.76c0,.25-.06.48-.1.72-.09.48-.2.95-.36,1.41-.19.55-.21,1.17-.35,1.75-.15.63-.3,1.27-.46,1.91-.09.39-.19.78-.27,1.18-.12.6-.27,1.2-.31,1.8-.04.47.1.96.11,1.43,0,.1.02.21,0,.31-.03.38-.31.47-.83.48-.12,0-.25.01-.37,0-.39-.01-.73-.21-.92-.53-.46-.92-.24-1.8-.07-2.68.15-.66.35-1.3.54-1.95h.05Z"/><path class="cls-3" d="m196.72,90.34c-1.69-.32-26.99-3.63-38,19.8-11.01,23.44,9.36,43.44,17.28,46.26,0,0,6.01-19.33,8.9-23.21,2.89-3.88,14.51-13.8,14.51-13.8,0,0,1.12-.85,7.08,6.08,5.96,6.93,18.92,10.66,20.23,10.47,1.31-.19,8.36-.12,8.36-.12,0,0,5.32-4.38,9.28-2.63s4.83,6.24,4.95,8.64c.11,2.4-2.52,8.96-2.52,8.96l5.28,22.09s10.55-2.95,15.44-6.13c4.88-3.18,20.64-17.82,23.64-22.96,3-5.13,6.72-12.16,6.04-14.5-.68-2.34-11.93-23.94-30.24-37.55-24.09-17.91-43.2-17.46-50.54-17.46-11.29,0-19.68,16.05-19.68,16.05Z"/><path class="cls-3" d="m154.55,309.06c-2.55,1.96-5.05,4.04-7.37,6.26-.85.81-1.6,1.7-2.38,2.54-.23.26-.47.51-.69.77l-.51.58c-.2.23-.32.35-.48.59-.15.22-.31.48-.36.78-.07.29.12.7.4.58.46-.08.9-.41,1.39-.79l.32-.27.51-.46,1-.96c.65-.67,1.31-1.34,1.96-2,.84-.86,1.7-1.71,2.65-2.52.93-.8,2.01-1.53,3.32-1.85.88-.06.71.1.3.68-.19.3-.44.7-.71,1.17-.14.24-.27.5-.44.75-.18.24-.37.48-.6.71-.74.77-1.45,1.61-2.17,2.47l-2.31,2.5c-.4.42-.8.83-1.23,1.25l-.32.31-.52.48c-.35.33-.79.7-1.19,1.05-.83.66-1.68,1.21-2.4,1.42-.74.25-1.3.21-1.98.27-.28-.2-.57-.37-.93-.73-.32-.36-.6-.76-.68-1.19-.12-.42-.14-.84-.1-1.29.08-.89.46-1.9,1.07-2.95.62-1.07,1.42-2.07,1.82-2.58.5-.61,1.01-1.2,1.55-1.76,2.34-2.46,4.86-4.67,7.44-6.8.8-.65,1.6-1.3,2.43-1.93.42-.32.82-.62,1.28-.94.47-.29.94-.58,1.43-.84,2.99-1.52,6.24-1.9,9.28-2.3,2.38-.31,4.67-.73,6.84-1.32.48-.12.93-.29,1.4-.44,1.72-.54,2.24-.62,2.98-.03.16.13.36.25.5.4.23.25.22.57-.02.94-.24.36-.72.8-1.43,1.12-2.08,1.01-4.35,1.53-6.55,1.89-2.21.36-4.39.58-6.44.95-1.52.28-2.98.63-4.29,1.18-.31.15-.65.28-.95.45l-.89.53c-.57.39-1.24.91-1.87,1.41l-.05-.06Z"/><path class="cls-3" d="m158.25,306.23c-1.15,2.85-2.33,5.68-3.53,8.51-.43,1.04-.77,2.1-1.21,3.13l-4.69,10.89c-.68,1.61-1.29,3.27-1.88,4.9-.8,2.08-1.51,4.21-2.7,6.15-.51.55-.51.46-.69-.24-.1-.35-.15-.81-.19-1.37-.05-.55-.02-1.17.15-1.8.29-1.11.56-2.22.88-3.32.36-1.08.72-2.16,1.1-3.24.76-2.15,1.58-4.29,2.5-6.4,1.12-2.52,1.96-5.25,2.95-7.89,1.1-2.89,2.21-5.78,3.37-8.64l2.11-5.31c1.04-2.69,2.13-5.37,3.07-8.07.73-2.1,1.25-4.23,1.86-6.35.13-.47.24-.93.39-1.4.58-1.71,1.02-2.17,1.99-2.23.22-.01.44-.06.63-.04.64.05.99.96.75,2.28-.74,3.91-2.09,7.83-3.5,11.74-1.05,2.91-2.19,5.79-3.29,8.69l-.08-.03Z"/><path class="cls-3" d="m158.14,307.77c-.85,2.83-1.67,5.68-2.44,8.54-.29,1.02-.45,1.99-.81,3.06.04.08-.03.14-.04.21-.12.39-.38.78-.6,1.06-.19.24-.36.42-.5.58-.17.2-.17.18-.22.25-.04.06-.07.12-.08.2,0,.08,0,.14,0,.23.04.2.11.47.16.82.05.34.06.81-.05,1.25l-.2.69-1.57,5.52c-.47,1.63-.88,3.29-1.27,4.93-.53,2.1-.8,4.27-1.94,6.21-.33.61-.43.5-.63-.14-.13-.41-.28-.86-.43-1.32-.13-.54-.17-1.13-.11-1.76.71-4.37,1.55-8.69,2.95-12.93.17-.55.33-1.11.48-1.67.01-.05.05-.19.04-.16,0,0,0,0,0-.01,0-.02,0-.05,0-.13,0-.07-.04-.17-.07-.3l-.14-.53c-.11-.48-.15-.98-.04-1.46.1-.48.36-.92.64-1.31l.53-.7c.12-.15.1-.18.18-.28.02-.31.15-.72.23-1.07.72-2.91,1.56-5.8,2.39-8.69l1.57-5.32c.83-2.68,1.66-5.37,2.49-8.02.62-2.07,1.1-4.15,1.68-6.22.13-.45.23-.91.38-1.36.58-1.67.98-2.12,1.89-2.18.19-.02.39-.07.55-.06.5.01.9.93.62,2.18-.76,3.74-1.94,7.52-3.07,11.35-.84,2.84-1.71,5.69-2.5,8.57l-.08-.02Z"/><path class="cls-3" d="m276.35,301.32c-1.57-3.88-1.78-7.95-1.51-11.84.12-1.42.24-2.85.56-4.24,1.11-4.9,3.31-9.4,5.93-13.5,1.15-1.83,2.4-3.61,3.71-5.3,1.67-2.17,3.48-4.29,5.71-5.91.75-.45.79-.24.59.57-.09.41-.29.92-.56,1.5-.28.57-.55,1.28-1.06,1.84-1.7,2.1-3.21,4.33-4.71,6.54-1.49,2.22-2.86,4.52-4.09,6.91-1.47,2.87-2.29,6.15-2.77,9.36-.1.89-.25,1.77-.28,2.66-.02.45-.07.89-.06,1.34l.03,1.34.03,1.34.18,1.31c.06.44.1.88.19,1.31l.33,1.27c.13.53.26,1.05.49,1.54.21.5.4,1,.61,1.49.54.92,1.03,1.88,1.75,2.69.98,1.3,2.27,2.34,3.6,3.29.73.39,1.41.86,2.18,1.19.77.31,1.51.68,2.33.89,2.47.77,5.05.97,7.62.97.56.03,1.12-.05,1.69-.04,2.11,0,2.79.17,3.3,1.08.11.2.27.4.34.6.25.68-.63,1.29-2.29,1.57-2.46.29-5.05.3-7.68-.07-2.62-.41-5.28-1.2-7.78-2.51l-1.37-.77c-.44-.28-.86-.61-1.29-.92-.89-.58-1.62-1.39-2.39-2.12-.38-.38-.68-.83-1.02-1.24-.32-.43-.69-.82-.93-1.3-.53-.93-1.12-1.82-1.46-2.82l.07-.04Z"/><path class="cls-3" d="m449.49,282.85c1.6-.42,3.2-.91,4.71-1.44.26-.09.55-.21.74-.31.08-.04.28-.14.2-.09h0c.06.08.22.27.33.38.13.13.26.26.4.38l-.52-.54-.18-.17s0,0-.01-.01h0s.02,0,.02,0c.23-.23.56-.7.84-1.12.29-.44.57-.89.84-1.36.54-.93,1.06-1.88,1.54-2.86.42-.87.81-1.75,1.15-2.64l.64-1.72c.24-.56.53-1.11.81-1.67.19-.34.35-.25.51.13.15.38.38,1.08.32,1.83-.23,1.28-.53,2.52-.9,3.75-.37,1.23-.9,2.4-1.5,3.55-.36.69-.68,1.41-1,2.16-.16.37-.34.75-.54,1.15-.14.22-.19.38-.43.69-.1.14-.22.27-.38.39-.15.13-.33.25-.41.29-.91.53-1.68.85-2.53,1.14-.83.3-1.66.57-2.49.83l-3.07.91c-1.55.46-3.13.82-4.65,1.29-1.19.36-2.32.89-3.5,1.3-.26.09-.51.22-.78.28-1,.21-1.37.03-1.74-.79-.08-.19-.18-.37-.24-.56-.21-.65.09-1.28.74-1.64,1.94-1.08,4.07-1.61,6.23-2.24,1.6-.45,3.23-.87,4.82-1.36l.03.08Z"/><path class="cls-3" d="m463.46,293.12c3.67-1.03,7.32-2.17,10.75-3.65,1.25-.54,2.41-1.23,3.53-1.89.99-.58,1.92-1.23,2.63-1.96.17-.18.32-.37.48-.56l.37-.55c.13-.3.14-.24.12-.39-.07-.16-.42-.46-.86-.66-.44-.22-.97-.38-1.51-.51-1.1-.25-2.28-.38-3.48-.4-1.06-.03-2.13.04-3.2.16-1.07.11-2.13.26-3.18.47-2.7.55-5.3,1.43-8.01,2.14-.86.2-.83,0-.31-.64.5-.68,1.58-1.76,3.11-2.48,1.35-.65,2.78-1.09,4.22-1.52,1.45-.39,2.92-.76,4.43-.91,1.51-.15,3.05-.19,4.61-.07,1.56.15,3.15.37,4.83,1.24.49.26,1.03.62,1.52,1.19.49.55.86,1.47.78,2.32-.07.84-.41,1.45-.67,1.9-.13.26-.29.48-.46.69-.17.21-.32.44-.5.63-1.41,1.53-3.02,2.6-4.65,3.49-3.6,1.92-7.36,3.19-11.1,4.39-2.31.72-4.64,1.38-6.96,2.02-3.52.97-7.07,1.83-10.55,2.8-2.7.76-5.3,1.69-7.92,2.55-.58.19-1.14.4-1.72.57-2.18.64-2.93.61-3.65-.13-.16-.17-.36-.33-.48-.51-.41-.61.33-1.44,1.89-2.1,4.62-2.01,9.69-3.29,14.73-4.65,3.74-1,7.51-1.95,11.2-3.06l.03.08Z"/><path class="cls-3" d="m375.32,214.88l-1.43,3.07c-.48,1.02-1.06,2-1.58,2.99-.55.98-1.03,2-1.64,2.95l-1.77,2.87c-.82,1.42-1.75,2.78-2.68,4.12-3.42,4.66-7.19,9.06-11.48,12.9-.9.91-1.89,1.72-2.84,2.57-.97.83-1.87,1.74-2.87,2.51-1.27,1.01-2.57,2-3.87,2.97-1.37.88-2.76,1.75-4.29,2.34-.96.37-.9.19-.42-.62.25-.4.55-1.02,1.01-1.63.23-.31.46-.65.75-.96.29-.3.62-.6.98-.88,1.26-1.01,2.41-2.14,3.65-3.16l.94-.75.89-.81,1.79-1.6c1.23-1.03,2.35-2.19,3.51-3.31l1.75-1.68,1.67-1.76c.68-.7,1.36-1.41,2-2.15.6-.78,1.21-1.57,1.82-2.36,1.25-1.56,2.31-3.26,3.43-4.9l.92-1.35.85-1.41,1.7-2.81c.54-.95,1.03-1.93,1.54-2.9.5-.98,1.06-1.92,1.48-2.94l1.66-3.69c.51-1.25.96-2.52,1.44-3.79l.54-1.44.45-1.47.9-2.94c.56-1.97.96-3.98,1.39-5.97.23-1.56.4-3.12.56-4.67.12-1.55.12-3.11.2-4.66.04-.68.02-1.35.01-2.04.03-2.55.32-3.35,1.26-3.9.21-.13.43-.29.64-.37.72-.25,1.27.82,1.45,2.77.44,5.79-.26,11.95-1.79,17.9-.23,1.12-.59,2.2-.92,3.3-.34,1.09-.65,2.19-1.02,3.27l-1.21,3.21-.6,1.6c-.22.53-.46,1.04-.69,1.57l-.08-.03Z"/><path class="cls-3" d="m187.92,132.69c-.87.94-1.57,2-2.33,3.04-.8,1.01-1.44,2.13-2.12,3.22-.52.79-.85,1.67-1.3,2.51-.83,1.45-1.47,2.99-2.17,4.52-.58,1.57-1.24,3.12-1.71,4.74-.24.71-.42,1.44-.56,2.17-.15.73-.32,1.46-.4,2.2-.24,1.89-.55,3.75-.76,5.66-.05.6-.08.55-.32.06-.11-.24-.34-.6-.51-1.05-.2-.44-.42-.99-.47-1.57l-.15-1.55c-.05-.52.05-1.02.07-1.53.05-1.03.21-2.03.37-3.04.34-2.01.82-4,1.58-5.91.9-2.28,1.68-4.7,2.75-6.96.57-1.25,1.29-2.43,1.94-3.64.7-1.19,1.5-2.31,2.27-3.45.49-.69,1.05-1.33,1.57-2,.55-.65,1.02-1.35,1.62-1.95.88-.93,1.75-1.87,2.65-2.78.96-.85,1.91-1.7,2.83-2.58.72-.67,1.5-1.27,2.22-1.95.74-.64,1.43-1.37,2.27-1.9.36-.25.69-.52,1.06-.75.69-.44,1.19-.64,1.61-.66.44.03.77.19,1.11.48.16.13.33.24.45.38.2.23.23.54.12.93-.11.39-.32.91-.74,1.28-.61.59-1.25,1.11-1.9,1.64-.34.24-.63.55-.94.83-.31.29-.63.55-.96.82-.64.55-1.34,1.02-1.97,1.59-.62.58-1.25,1.15-1.89,1.71-.99.8-1.81,1.77-2.71,2.67-.93.88-1.7,1.9-2.51,2.89l-.07-.05Z"/><path class="cls-3" d="m226.72,185.31c.2.75,4.66,3.4,9.69,1.15,6.02-2.69,6.78-7.7,5.06-16.22,0,0-3.46,7.77-6.02,9.73-2.56,1.95-8.72,5.34-8.72,5.34Z"/><path class="cls-3" d="m225,186.88c-4.75,1.32-9.76,1.54-14.56.74-1.73-.38-3.5-.59-5.16-1.22-5.93-1.96-11.19-5.41-15.6-9.58l-2.87-2.85c-.9-1-1.79-2-2.68-2.99-1.13-1.28-2.1-2.69-3.12-4.07-.52-.68-.89-1.46-1.29-2.22-.4-.76-.78-1.52-1.06-2.34-.3-1.05-.24-.92.61-.4.86.51,2.42,1.41,3.65,2.85,1.1,1.27,2.3,2.45,3.3,3.77,1.15,1.19,2.23,2.46,3.39,3.62,2.41,2.25,4.7,4.65,7.42,6.56,3.19,2.39,7.05,4.04,10.95,5.05,4.3,1.12,8.83,1.36,13.23.58,1.37-.18,2.67-.61,4-.97.65-.22,1.28-.49,1.93-.74.32-.13.65-.24.96-.39l.91-.46c1.83-.95,3.57-2.1,5.03-3.57,1.47-1.45,2.7-3.13,3.64-4.97.76-1.41,1.23-2.95,1.64-4.47.34-1.55.62-3.11.73-4.7.08-.69.07-1.39.12-2.09.08-1.31.13-2.17.31-2.78.21-.61.49-.97.91-1.26.19-.13.38-.31.56-.39.31-.14.59.07.86.57.26.5.57,1.3.58,2.34.17,3.07-.07,6.3-.95,9.51-.89,3.19-2.41,6.35-4.64,9.03-1.63,2-3.66,3.68-5.86,4.98-.53.36-1.12.62-1.68.91l-.85.43-.87.35-1.74.69c-.58.23-1.19.37-1.79.55l-.03-.08Z"/><path class="cls-3" d="m218.97,135.86l-1.5-.63-1.45-.74c-.98-.46-1.88-1.07-2.82-1.61-.67-.41-1.35-.82-1.99-1.27-2.21-1.69-4.13-3.71-5.83-5.83l-1.11-1.43c-.38-.47-.77-.93-1.07-1.45-.4-.65-.88-1.26-1.23-1.95-.31-.71-.58-1.44-.81-2.17-.14-.46.15-.53.67-.36.51.18,1.35.52,1.94,1.12,2.04,2.16,3.68,4.43,5.64,6.63.59.65,1.24,1.27,1.99,1.77l1.09.8,1.13.73c1.62,1.12,3.39,2.04,5.2,2.87l1.71.68c.57.23,1.17.38,1.76.57,1.78.55,3.64.94,5.49,1.12.72.04,1.45.02,2.16-.01.71-.04,1.43-.16,2.13-.22.31-.03.62-.09.93-.12,1.16-.09,1.54.13,1.86,1.01.07.2.17.4.22.6.17.67-.29,1.27-1.2,1.53-2.7.78-5.69.7-8.58.2-1.08-.18-2.15-.44-3.21-.72-1.05-.34-2.11-.62-3.13-1.04l.02-.08Z"/><path class="cls-3" d="m163.83,106.38c-3.29,3.98-5.51,8.91-6.73,14.08-.43,1.89-.66,3.83-.8,5.76-.61,6.82.5,13.91,3.69,20.07,1.41,2.73,3.31,5.21,5.48,7.34,1.37,1.41,2.99,2.52,4.57,3.69,1.61,1.12,3.27,2.21,5.04,3.15,1.02.79.87.77-.3.78-.3.03-.64-.02-1.04-.04-.4-.03-.84-.09-1.32-.2-.48-.1-.99-.22-1.54-.38-.54-.16-1.08-.4-1.64-.66-2-.9-3.74-2.29-5.4-3.72-1.66-1.44-3.17-3.08-4.44-4.88-2.55-3.6-4.31-7.72-5.26-11.98-1.16-5.07-1.69-10.51-1.08-15.78.68-5.79,2.57-11.45,5.71-16.39.45-.78,1.02-1.48,1.53-2.23.57-.69,1.11-1.43,1.72-2.07,1.17-1.33,2.41-2.6,3.7-3.8,3.92-3.65,8.51-6.68,13.54-8.59,3.89-1.48,7.98-2.46,12.19-2.42.92.04,1.83.03,2.76.12,3.44.45,4.41,1.18,4.84,2.22.1.24.24.5.27.72.09.74-1.36.98-3.62.72-3.37-.34-6.8-.2-10.14.51-3.34.71-6.6,1.98-9.66,3.71-2.26,1.3-4.42,2.84-6.44,4.57-2,1.73-3.9,3.71-5.56,5.73l-.08-.05Z"/><path class="cls-3" d="m243.93,203.22c.02,1.14-.02,2.28-.14,3.26l-.12.43c-.04.14-.12.22-.17.33-.11.23-.25.38-.39.53-.08.07-.18.16-.32.22-.15.05-.27.07-.38.08-.23.02-.44,0-.69-.08-.56-.1-1.32-.56-2.04-1.28-.32-.3-.62-.63-.92-.95l-.43-.48-.24-.29-.95-1.16c-.63-.77-1.26-1.53-1.91-2.26-.58-.65-1.22-1.23-1.85-1.8-.81-.71-1.65-1.44-2.48-1.94-.25-.14-.22-.39.17-.59.38-.19,1.15-.25,1.79.07,2.28,1.1,3.87,2.83,5.38,4.58.44.54.94,1.03,1.44,1.51l.42.4.25.25c.16.16.33.38.58.51.17.07.17-.11.19-.19.02-.1.03-.21.04-.33.01-.11.02-.23.03-.36l.02-.34v-.18s0-.34,0-.34l-.03-1.44c-.02-1.46.04-2.93.06-4.4.02-1.14-.1-2.28,0-3.48.01-.26.01-.53.08-.8.25-.97.66-1.23,1.37-1.14.17.02.34.03.49.07.52.14.83.65.87,1.24.1.92.03,1.81.03,2.76-.01.97-.03,1.94-.04,2.92,0,1.54-.01,3.09-.02,4.64h-.07Z"/><path class="cls-3" d="m167.69,321.03c-2.38,1.15-4.88,2.31-7.54,3.14-.97.3-1.96.64-3.02.79-1.05.14-2.15.18-3.31-.02-.28-.03-.58-.13-.87-.2l-.52-.19c-.2-.07-.36-.16-.53-.27-.71-.35-1.21-.91-1.67-1.44l-.35-.7c-.07-.24-.1-.52-.05-.78.11-.52.38-.96.78-1.35.39-.39.91-.74,1.37-1.01.26-.17.39-.23.58-.33l.52-.27c1.38-.71,2.73-1.38,4.06-2.04,1.68-.9,3.36-1.71,4.93-2.62.45-.31.53-.24.42.36-.07.29-.2.71-.42,1.19-.23.46-.58.93-1.02,1.33-.77.73-1.61,1.3-2.45,1.85-.84.54-1.66,1.1-2.51,1.55l-1.26.67-1.11.61c-.13.05-.18.03-.3.08-.1.04-.26.15-.23.26,0,.03,0,.07.03.09.03.13.16.25.31.33,0,0,.25.1.45.14.2.05.43.08.65.09.92.05,1.94-.13,2.96-.37,2.39-.58,4.79-1.63,7.13-2.78l2.2-1.1c.19-.09.39-.19.63-.29.29-.08.67-.2.88-.2.51-.06.92-.04,1.35-.05,1.25.01,2.43.03,3.61-.08,1.17-.11,2.3-.39,3.37-.79,1.66-.67,3.02-1.81,4.18-3.1.26-.28.46-.61.71-.9.49-.52.77-.9,1.1-1.07.34-.17.67-.17,1.1-.06.2.05.41.08.59.15.6.22.67,1.07.08,2.17-.95,1.57-2.24,3.08-3.92,4.22-1.66,1.14-3.64,1.92-5.63,2.29-1.48.27-2.97.32-4.34.29-.66,0-1.38-.04-1.76,0-.04,0-.13,0-.13,0h.01s0,0,0,0c0,0,0,.02,0-.02l-.04-.14c-.06-.18-.13-.36-.22-.54l-.07-.13h0c-.31-.73.42.97.35.8h0s0,0,0,0h0s-.03.02-.03.02l-.16.07-.84.41-.04-.07Z"/><path class="cls-3" d="m406.27,207.65c-3.03-4.77-6.86-9.06-11.14-12.84-4.3-3.77-9.02-7.13-14.05-9.97-1.82-1.07-3.72-1.99-5.59-2.97-1.93-.87-3.81-1.82-5.76-2.66-13.65-6.05-28.22-10.04-42.97-12.84-6.55-1.24-13.2-2.15-19.78-2.8-2.11-.22-4.23-.39-6.36-.54-2.12-.16-4.24-.33-6.37-.46-4.25-.27-8.5-.44-12.74-.65-2.66-.29-2.31-.21-.07-.72,1.12-.26,2.72-.51,4.67-.76,1.95-.22,4.23-.33,6.7-.3,2.19.03,4.38.11,6.57.2,2.19.12,4.38.28,6.56.48,4.37.37,8.72.92,13.07,1.52,8.69,1.26,17.34,3,25.86,5.36,10.17,2.85,20.72,6.17,30.52,10.89,5.37,2.6,10.59,5.56,15.49,9.02,4.87,3.5,9.4,7.51,13.3,12.1,4.8,5.64,8.55,12.24,10.67,19.37,1.68,5.43,1.78,11.35.5,16.85-1.24,5.52-3.52,10.69-6.25,15.5-4.23,7.5-9.25,14.26-14.36,20.93-1.12,1.47-2.22,2.91-3.35,4.39-4.21,5.44-5.59,7.06-7.18,7.77-.36.17-.77.43-1.04.49-.89.25.02-2.62,2.97-6.82,4.38-6.2,9.26-12.15,13.73-18.44,4.46-6.27,8.61-12.91,11.08-20.09,1.84-5.31,2.59-10.94,1.61-16.36-.08-.68-.29-1.34-.43-2.01-.13-.67-.38-1.34-.6-2.01l-.68-2.01c-.23-.67-.43-1.35-.75-1.99-.6-1.29-1.15-2.59-1.78-3.87l-2.13-3.69.06-.05Z"/><path class="cls-3" d="m259.21,223.09c.82.81,1.71,1.54,2.58,2.31.92.7,1.8,1.47,2.77,2.12.7.48,1.43.92,2.15,1.37,2.47,1.73,5.08,3.31,7.79,4.73,1.19.64,2.46,1.16,3.69,1.73l2.39,1.03c.72.54,1.49.95,2.22,1.46.46.31.34.41-.18.48-.53.08-1.46.12-2.56.16-3.47-.93-6.77-2.39-9.91-4.25-1.87-1.12-3.95-2.04-5.86-3.22-1.02-.69-2.07-1.34-3.05-2.09l-1.48-1.11-1.43-1.18c-.6-.47-1.16-.98-1.71-1.5-.55-.52-1.14-1-1.66-1.56-1.63-1.61-3.16-3.34-4.63-5.07-1.18-1.32-2.39-2.57-3.52-3.93-.24-.31-.49-.59-.71-.92-.81-1.2-.86-1.72-.25-2.44.14-.17.26-.35.42-.49.52-.47,1.33-.29,2.06.43.55.53,1.05,1.11,1.58,1.66.54.55,1.06,1.11,1.53,1.72.47.61,1,1.16,1.49,1.77.49.6.98,1.2,1.51,1.77l1.14,1.3,1.19,1.25c.78.86,1.64,1.63,2.49,2.42l-.05.06Z"/><path class="cls-3" d="m439.87,295.51c-.27,1.82-.7,3.64-1.23,5.45-.15.46-.33.91-.49,1.37-.16.45-.33.91-.58,1.36-.24.46-.42.91-.71,1.36-.32.46-.61.88-.97,1.37-.48.52-.97.84-1.31,1.05-.38.23-.73.42-1.08.6-.7.36-1.39.66-2.08.97-1.37.59-2.74,1.13-4.12,1.65-2.75,1.03-5.5,1.98-8.27,2.9-3.25,1.07-6.48,2.18-9.75,3.13-11.54,3.36-23.22,6.24-35.04,8.44-5.24.97-10.54,1.85-15.83,2.39-3.39.35-6.82.6-10.28.48-1.73-.07-3.46-.28-5.18-.64-.86-.18-1.71-.42-2.54-.72-.83-.31-1.61-.78-2.35-1.28-.46-.31-.75-.6-.92-.8-.17-.19-.22-.3-.18-.33.05-.03.2,0,.43.1.23.1.56.23,1,.35,1.75.48,4.88.63,8.63.63,6.68.19,13.5-.75,20.24-1.87,6.77-1.1,13.53-2.5,20.3-4.01,8.1-1.81,16.38-4.36,24.46-6.95,3.73-1.2,7.45-2.45,11.13-3.8,1.84-.67,3.66-1.37,5.45-2.12.89-.37,1.78-.76,2.63-1.17.43-.2.84-.42,1.23-.64.38-.22.76-.46.84-.57.31-.5.74-.97,1-1.62.14-.31.31-.6.44-.92l.36-.99c.89-2.57,1.37-5.38,1.67-8.17.3-2.81.41-5.65.28-8.47-.09-2.14-.26-4.28-.64-6.36-.35-2.07-.89-4.19-1.82-5.86-.15-.34-.37-.51-.68-.63-.35-.16-.83-.25-1.3-.32-.97-.12-2.02-.11-3.07-.05-2.1.14-4.22.48-6.31.92-6.51,1.39-12.72,3.62-18.81,6.13-1.34.55-2.63,1.15-3.97,1.74-2.48,1.09-4.1,1.82-5.31,2.2-1.21.38-1.99.44-2.72.3-.33-.07-.75-.09-.98-.2-.4-.19-.17-.67.6-1.38.77-.71,2.09-1.62,3.9-2.57,5.36-2.81,11.12-5.19,17.14-7.13,3.01-.96,6.09-1.82,9.26-2.49,1.59-.33,3.19-.62,4.84-.82,1.66-.2,3.34-.34,5.21-.2.35.03.7.06,1.08.13.36.05.76.14,1.18.27.19.05.42.13.65.24.24.11.54.22.77.39.24.16.48.34.7.52l.56.67c.22.22.27.44.39.64l.24.48c.16.32.33.64.46.96l.67,1.89c.72,2.49,1.08,4.95,1.32,7.4.4,4.9.28,9.76-.45,14.62h-.09Z"/><path class="cls-3" d="m323.42,347.8c-.71,1.72-1.67,2.81-2.62,3.91-.94,1.06-1.98,2.08-2.9,2.97-.2.16-.29.34-.52.51-.2.16-.43.35-.67.59-.12.12-.25.26-.33.43-.1.18,0,.33.11.36.44.13,1.04-.16,1.79-.5.17-.08.3-.15.51-.26l1.01-.56c.67-.39,1.35-.77,2.02-1.15,1.73-.96,3.44-2.12,5.69-2.27.73,0,.6.36.21.88-.19.27-.43.6-.73.98-.15.18-.31.38-.48.57l-.27.29c-.11.07-.21.15-.33.22-1.65.96-3.27,2.14-5.02,3.16l-1.9,1.13c-.86.49-1.72.95-2.54,1.31-1.66.73-2.75.73-3.48.54-.34-.09-.62-.2-1.02-.36-.38-.15-.87-.84-.83-1.25-.02-.43.07-.8.2-1.23.13-.42.37-.91.74-1.45.37-.55.91-1.16,1.49-1.77.39-.41.8-.82,1.2-1.22l1.14-1.12,1.44-1.41c.93-.95,1.84-1.92,2.55-2.94.42-.62.8-1.29.89-1.83.04-.14.03-.26.03-.44l-.02-.6-.08-1.24c-.2-2.52-.41-5.07-.76-7.57-.27-1.94-.74-3.82-1.14-5.72-.09-.42-.21-.82-.28-1.24-.29-1.56-.14-2.09.62-2.56.17-.11.34-.24.52-.31.58-.25,1.24.31,1.6,1.45,1.05,3.39,1.58,7.02,2,10.69.16,1.36.29,2.73.4,4.11l.15,2.1.03.56v.29s0,.41,0,.41c0,.27-.06.57-.11.84-.07.24-.13.51-.22.73l-.07-.02Z"/><path class="cls-3" d="m337.99,341.04c.31.99.7,1.94,1.15,2.73.11.21.22.39.34.53l.08.12.04.06.02.03h0s0,0,0,0c.71-.68-.97.93-.79.76l.04-.03.08-.07.31-.29.3-.29.07-.07h0s0,0,0,0h0s0,.02,0,.02c0,.01.08.06.11.09.34.29.79.61,1.22.91.65.43,1.36.78,2.03,1.21,2.37,1.52,4.9,2.84,7.52,3.97,1.16.51,2.38.91,3.59,1.24.78.23,1.57.39,2.34.64l1.16.37c.39.11.75.38,1.13.56.46.28.37.42-.13.7-.25.14-.6.32-1.03.53-.42.16-.89.23-1.38.19-1.73-.12-3.41-.56-5.07-1.05-.83-.24-1.64-.54-2.45-.85-.8-.34-1.58-.72-2.35-1.14-1.83-.99-3.85-1.77-5.7-2.84-1.02-.62-1.96-1.23-3-2.07-.4-.34-.53-.59-.76-.87-.23-.28-.35-.56-.53-.83-.31-.56-.59-1.11-.81-1.68-.57-1.38-.99-2.78-1.33-4.18-.53-2.12-.82-4.29-1.07-6.43-.18-1.67-.46-3.31-.52-5.01-.02-.37-.03-.74-.02-1.12.02-.35.03-.64.1-.88.07-.24.18-.42.29-.57.23-.29.51-.43.91-.51.18-.04.36-.09.52-.1.55-.03.99.59,1.19,1.53.27,2.76.46,5.59.93,8.44.35,2.1.79,4.23,1.5,6.19l-.07.03Z"/><path class="cls-3" d="m345.11,354.31c.79.58,1.55,1.23,2.37,1.77.3.21.63.34.93.54,1.06.71,2.16,1.36,3.3,1.93.51.26,1.05.43,1.58.61.7.17,1.38.43,2.04.78.21.12.14.29-.1.47-.24.18-.66.43-1.12.45-.8.03-1.55-.19-2.3-.37-.75-.21-1.49-.45-2.17-.85-.82-.46-1.75-.73-2.6-1.15-.93-.46-1.84-.98-2.72-1.53l-1.59-1.06c-.8-.53-1.56-1.13-2.38-1.62-.63-.38-1.35-.63-2.02-.94-.15-.07-.31-.11-.45-.19-.51-.32-.54-.6-.18-1.31.08-.16.16-.33.25-.48.32-.52.81-.78,1.27-.68,1.35.32,2.43,1.08,3.52,1.84.81.57,1.59,1.18,2.4,1.74l-.03.06Z"/><path class="cls-3" d="m341.37,357.84c.82.66,1.67,1.29,2.54,1.9.32.23.68.37,1,.59,1.14.78,2.33,1.48,3.57,2.11.54.3,1.13.5,1.7.71.75.22,1.49.49,2.19.92.22.13.15.29-.11.47-.26.17-.73.42-1.22.44-.85-.04-1.67-.23-2.49-.43-.41-.1-.8-.24-1.2-.38-.39-.16-.76-.37-1.13-.58-.88-.51-1.88-.82-2.8-1.29-1.01-.52-1.98-1.11-2.91-1.75-.58-.39-1.14-.81-1.7-1.21-.85-.62-1.65-1.31-2.5-1.92-.66-.48-1.41-.82-2.07-1.31-.15-.1-.31-.18-.44-.31-.5-.45-.51-.74-.08-1.37.1-.14.19-.29.3-.43.37-.45.9-.61,1.35-.43.67.28,1.33.56,1.9.96.57.39,1.11.84,1.66,1.28.81.66,1.61,1.34,2.47,1.97l-.04.06Z"/><path class="cls-3" d="m333.77,358.81c.75.83,1.51,1.64,2.31,2.42.29.29.62.51.92.8,1.04.98,2.08,1.98,3.18,2.89.49.41,1.01.78,1.53,1.14.69.42,1.34.92,1.98,1.45.2.17.16.17-.07.15-.23-.03-.69,0-1.19-.09-1.67-.48-3.25-1.23-4.56-2.35-.78-.66-1.69-1.23-2.51-1.87-.9-.72-1.76-1.47-2.6-2.24l-1.55-1.43c-.78-.72-1.53-1.48-2.33-2.17-.62-.54-1.34-.95-2-1.43-.14-.11-.31-.19-.44-.31-.5-.44-.52-.72-.12-1.33.09-.14.17-.28.28-.41.34-.44.86-.57,1.32-.36,1.4.62,2.49,1.64,3.57,2.68.77.81,1.55,1.62,2.32,2.43l-.04.05Z"/><path class="cls-3" d="m132.71,330.6c-1.17-.61-2.34-1.22-3.53-1.79-.43-.21-.9-.35-1.33-.56-1.52-.78-3.06-1.51-4.58-2.3-.68-.34-1.38-.63-2.08-.9-.9-.34-1.77-.79-2.57-1.36-.25-.18-.12-.38.22-.54.34-.16.92-.34,1.47-.26,1,.12,1.93.41,2.85.72.92.32,1.85.64,2.72,1.13,1.05.57,2.25.86,3.38,1.3,1.24.49,2.47,1,3.69,1.53l2.26.98c1.14.49,2.27,1.04,3.43,1.48.9.35,1.86.51,2.79.81.2.06.42.1.61.2.71.37.84.69.64,1.44-.05.17-.08.35-.14.51-.2.54-.71.84-1.3.8-1.77-.09-3.34-.79-4.97-1.47-1.2-.52-2.4-1.06-3.6-1.64l.02-.07Z"/><path class="cls-3" d="m232.44,373.95c-6.58-3.11-13.23-6.1-19.9-9.06-2.43-1.08-4.92-2.05-7.35-3.13-8.58-3.81-17.14-7.68-25.69-11.59-3.81-1.7-7.64-3.41-11.42-5.1-4.85-2.17-9.66-4.52-14.2-7.33-1.42-.87-1.09-1.03.37-.85.73.09,1.76.25,2.97.49,1.22.22,2.61.58,4.03,1.14,5.1,1.85,10.08,3.95,15,6.21,4.92,2.26,9.86,4.54,14.79,6.9,5.9,2.82,12.23,5.31,18.37,7.99,6.74,2.94,13.47,5.96,20.17,9.01,4.12,1.91,8.23,3.82,12.32,5.79,6.21,2.94,12.34,6.12,18.42,9.22,2.35,1.23,4.69,2.43,7.03,3.6,2.34,1.18,4.62,2.47,6.94,3.71,1.02.56,2.03,1.07,3.02,1.69,1.85,1.12,3,1.97,3.76,2.66.73.72,1.06,1.26,1.24,1.85.08.27.22.56.23.77.02.35-.41.4-1.22.22-.8-.19-2-.58-3.39-1.3-4.13-2.15-8.36-4.35-12.65-6.58-2.14-1.12-4.3-2.25-6.47-3.38-2.18-1.11-4.37-2.22-6.57-3.33-6.55-3.25-13.15-6.47-19.84-9.51l.03-.09Z"/><path class="cls-3" d="m251.97,424.77c-4.59,2.56-9.16,5.16-13.63,7.88-1.65.97-3.18,2.11-4.8,3.12-5.64,3.65-11.15,7.53-16.22,11.97-1.15.95-2.2,2.02-3.3,3.04-1.08,1.04-2.18,2.04-3.16,3.15-1.29,1.4-2.59,2.79-3.89,4.19-1.24,1.45-2.58,2.81-3.97,4.15-.93.78-.86.64-.46-.33.19-.49.5-1.17.88-1.99.19-.41.39-.86.65-1.3.26-.44.55-.9.88-1.35,4.81-6.3,10.56-11.88,16.95-16.65.96-.71,1.91-1.44,2.87-2.19.97-.72,1.95-1.44,2.93-2.17,1.94-1.49,3.95-2.89,5.97-4.25,2.2-1.52,4.49-2.89,6.74-4.33,2.29-1.35,4.57-2.75,6.88-4.07,2.84-1.63,5.67-3.26,8.51-4.89,4.28-2.47,8.61-4.92,12.74-7.55,1.6-1.03,3.16-2.09,4.7-3.17,1.51-1.11,3.03-2.22,4.54-3.33.68-.48,1.29-1.01,1.96-1.5,1.24-.91,2.11-1.45,2.81-1.7.71-.23,1.25-.19,1.79,0,.24.08.52.12.7.22.3.17.27.53,0,1.12-.27.6-.84,1.33-1.72,2.07-5.19,4.45-11.27,8.32-17.43,11.98-4.58,2.73-9.25,5.31-13.85,7.96l-.05-.07Z"/><path class="cls-3" d="m81.6,343.63c-4.52,2.23-9.05,4.44-13.48,6.82-1.63.84-3.17,1.84-4.79,2.72-5.65,3.14-11.2,6.48-16.58,10.07-1.19.8-2.35,1.66-3.52,2.5-1.16.84-2.32,1.69-3.43,2.59-2.9,2.25-5.65,4.68-8.72,6.73-1.01.58-.99.38-.5-.54.24-.47.63-1.06,1.14-1.77.25-.35.53-.72.85-1.1.16-.19.32-.38.49-.58.19-.18.38-.35.57-.54,5.69-4.97,11.68-9.64,18.17-13.64,1.95-1.18,3.89-2.45,5.88-3.68,1.97-1.26,3.97-2.49,5.98-3.66,4.42-2.58,8.94-4.98,13.47-7.33,2.8-1.42,5.6-2.84,8.4-4.25,4.24-2.14,8.53-4.23,12.67-6.46,3.23-1.73,6.28-3.63,9.38-5.48.69-.4,1.33-.84,2.03-1.24,1.29-.74,2.16-1.18,2.85-1.36.7-.15,1.2-.08,1.69.16.23.11.49.19.66.32.29.22.23.6-.11,1.1-.34.5-.96,1.15-1.88,1.75-5.39,3.68-11.44,6.91-17.54,10.04-4.54,2.29-9.1,4.59-13.66,6.88l-.04-.07Z"/><path class="cls-3" d="m96.87,411.78c8.41,4.6,16.81,9.2,25.24,13.73,3.1,1.62,6.19,3.24,9.28,4.85,10.85,5.82,21.73,11.56,32.73,17.07,4.87,2.46,9.86,4.75,14.8,6.96,3.17,1.42,6.35,2.84,9.53,4.27,3.14,1.5,6.32,2.91,9.45,4.46,1.94.98,1.64.99-.22.7-.93-.15-2.27-.3-3.84-.63-1.57-.34-3.4-.77-5.33-1.38-3.43-1.07-6.7-2.51-10.03-3.83-3.29-1.39-6.53-2.91-9.76-4.44-6.47-3.06-12.86-6.28-19.17-9.73-7.56-4.1-15.59-8.03-23.35-12.13-8.54-4.52-17.03-9.12-25.52-13.72-5.23-2.83-10.45-5.66-15.67-8.48-7.92-4.25-15.86-8.57-23.82-12.59-6.19-3.13-12.37-5.97-18.63-8.69-1.38-.58-2.74-1.14-4.13-1.72-5.13-2.18-6.62-3-7.53-4.16-.21-.27-.51-.56-.63-.79-.46-.73,2.16-.93,6.2.38,3.01.92,5.88,2.17,8.81,3.4,2.9,1.26,5.8,2.59,8.7,3.98,5.79,2.77,11.57,5.73,17.33,8.74,8.56,4.47,17.08,9.1,25.6,13.67l-.03.09Z"/><path class="cls-3" d="m139.45,353.7c-3.62-.55-6.77-3.62-8.32-5.13-.06-.09-.12-.17-.2-.26l-.41-.41c1.56-.3,3.11-.6,4.67-.89.37-.11.79-.19,1.11-.32.28-.15.59-.27.85-.44l.26-.17c.06-.04.12-.07.17-.12.11-.08.23-.16.33-.25.43-.35.82-.76,1.14-1.21.65-.86,1.01-2.21,1.7-3.64.31-.64.71-1.31,1.3-1.88.55-.56,1.39-1.09,2.22-1.16,1.06-.14,2.1.07,2.93.61.41.27.76.64,1.04,1.03.13.21.25.41.34.64.1.22.09.49.12.71-.04.6-.06.47-.46.19-.46-.28-1.33-.38-1.94-.38-.29,0-.54.01-.77.03-.23.04-.44.12-.59.21-.29.27-.34.22-.61.56-.21.28-.53.78-.84,1.44-.32.67-.63,1.47-1.13,2.33-.6,1.05-1.33,2.04-2.2,2.87-.21.21-.44.41-.68.6l-.22.17-.1.07c-.14.09-.28.16-.46.22-.08.03-.17.05-.26.07-.16.06-.46.05-.57.11.08.12.19.24.31.36.24.23.56.45.96.62.14.06.26.11.45.16.28.09.57.13.86.18.58.06,1.16.07,1.72-.02,1.7-.22,3.2-1.36,3.95-2.99.59-1.27.62-2.75.66-4.2.01-.32-.02-.64,0-.97.03-.61.1-1.01.29-1.3.22-.28.52-.44.95-.56.2-.06.39-.13.57-.16.31-.05.6.06.86.3.26.24.52.63.59,1.12.26,1.46.35,3.05-.02,4.72-.36,1.65-1.11,3.46-2.53,4.89-1.02,1.05-2.41,1.89-3.84,2.23-1.44.37-2.88.34-4.22.11v-.08Z"/><path class="cls-4" d="m209.72,417.23l-.36-.07c-.41-.07-.8-.18-1.2-.26-.4-.07-.8-.15-1.19-.24-.78-.18-1.56-.38-2.31-.63-.75-.25-1.48-.52-2.19-.85-.73-.35-1.58-.76-2.31-1.16-3.02-1.63-5.43-3.58-6.52-5.51-.54-.98-.88-1.95-1.01-3.23-.15-1.27-.05-2.78.11-4.52.3-3.52,1.27-7.71,1.34-12.7.02-2.48-.23-5.18-1.01-7.84-.86-2.92-2.62-5.82-4.89-7.83-2.27-2.02-4.77-3.37-7.18-4.24-2.42-.89-4.79-1.4-7.1-1.73-4.62-.63-9.02-.58-13.32-.31-2.15.14-4.28.35-6.37.61l-3.13.41-1.46.21-1.38.17c-3.69.4-7.47.48-10.85.03-1.66-.18-3.29-.45-4.46-.93-.61-.22-1.09-.48-1.43-.73-.09-.06-.19-.12-.24-.18-.08-.04-.21-.06-.29-.11-.08-.04-.17-.08-.27-.13l-.24-.17h0c-.16-.12-.3-.26-.46-.37-.12-.13-.26-.23-.33-.25-.42-.06-.72-.2-1.05-.35-.31-.16-.64-.34-.9-.55-.35-.37-.73-.79-.94-1.24-.3-.46-.49-.95-.54-1.41-.05-.46-.04-.93.09-1.36.1-.44.23-.86.41-1.28.08-.18-.05-.02-.39.47-.37.62-1.04,1.16-1.71,1.79-.35.3-.65.66-1.01,1.02-.11.09-.12.19-.32.27-.02.1-.11.2-.16.3l-.34.64c-.12.23-.26.51-.39.86-.11.35-.23.77-.35,1.22-.07.23-.07.48-.14.74.02.26,0,.53.02.8,0,.55.14,1.15.26,1.75.24.9.57,1.8,1.03,2.64.21.44.49.8.73,1.21.3.37.61.69.94,1,1.29,1.24,2.71,2.14,4.07,2.81,2.75,1.3,5.39,2.01,7.97,2.34,5.14.62,9.97.44,14.85-.14,4.35-.55,8.6-.92,12.76-.94,4.12,0,8.22.36,11.47,1.45.81.27,1.56.58,2.19.93.67.33,1.18.73,1.6,1.14.83.83,1.19,1.6,1.43,2.69.27,1.41.32,2.93.13,4.71-.19,1.78-.58,3.73-1.04,5.92-.44,2.18-1.02,4.57-1.24,7.32-.23,2.71-.13,5.87.74,9.06.88,3.19,2.61,6.2,4.65,8.54,2.04,2.36,4.33,4.14,6.59,5.61,1.32.86,2.59,1.31,3.1,1.26.83-.13,1.65-.27,2.45-.41.66-.12,1.05-.43,1.1-.89.05-.48.13-.97.19-1.45.02-.13.21-.15.56-.09,1.02.19,2.04.34,3.05.42.83.06,1.3-.08,1.33-.38.1-.78,1.9-.88,4.56-.74.38.02.76.05,1.14.05.82.03,1.45-.09,1.74-.28.29-.2.22-.43-.18-.69-.35-.23-.17-.42.41-.49,1.25-.15,1.47-.62.57-1.06-.31-.16-.61-.31-.9-.48-.28-.16-.34-.32-.17-.43.17-.11.56-.15,1.04-.14.9.04,1.81.04,2.72,0,.74-.03,1.23-.21,1.2-.42-.03-.2-.56-.4-1.29-.5-.54-.07-1.07-.16-1.6-.26-.78-.15-1.59-.31-2.39-.46"/><path class="cls-3" d="m223.01,385c-.12.74-.45,1.48-.92,2.05-.46.54-1,.96-1.61,1.25-.44.21-.9.43-1.43.45-.9.07-1.93-.29-2.53-.9-.62-.61-.97-1.43-.95-2.3.02-.76.48-1.52,1.04-1.87.36-.24.76-.42,1.19-.43.43-.02.89.12,1.19.43.19.2-.02.32-.28.45-.28.12-.52.42-.65.54-.14.1-.25.24-.3.38-.05.15,0,.27.05.29h-.03s0-.01,0-.01h0s0,0,0,0h0s-.08-.02.08.02h0s0,0,0,0h.01s.03.03.04.03c0,.01,0,.04,0,.07,0,.07.02.18.07.31.14.38.46.35.84.25.43-.08.94-.49,1.11-.89.12-.28.16-.64.08-.87-.06-.18-.13-.27-.25-.34-.12-.07-.34-.09-.55,0-.35.16-.44.57-.53,1-.02.1,0,.21-.04.3-.1.36-.37.42-1.2.25-.19-.04-.38-.07-.57-.11-.63-.15-1.1-.52-1.12-1.05,0-.75.25-1.64.98-2.42.79-.81,1.9-1.33,3.32-1.18,1.05.09,2.12.86,2.6,1.76.49.9.56,1.77.46,2.54h-.08Z"/><path class="cls-3" d="m147.69,405.18c-.41.58-.98,1.05-1.59,1.33-.54.25-1.1.38-1.65.42-.4.03-.8.08-1.2,0-1.36-.3-2.46-1.32-2.86-2.57-.18-.56-.23-1.12-.16-1.66.09-.68.49-1.41,1.19-1.65.22-.07.33.22.43.57.09.35.29.74.31.9,0,.15.04.3.07.42.01.12.03.25.06.35.06.19.12.36.29.64.21.33.72.35,1.08.37.21.01.44-.01.65-.07.11-.03.21-.07.3-.12.07-.01.15-.06.22-.1.18-.11.35-.3.41-.54.05-.18.07-.37.02-.57-.03-.18-.19-.4-.29-.43-.16-.08-.47.16-.48.34-.01.03.03.13.01.09-.06-.1-.12-.15-.13-.16-.07-.06-.35-.24-.73-.42-.18-.09-.36-.16-.55-.23-.31-.13-.57-.29-.71-.55-.15-.25-.16-.6.02-.92.56-.95,1.63-1.42,2.72-1.37.55.03,1.14.2,1.67.55.28.18.49.37.68.59.15.17.31.38.43.6.74,1.3.62,3.01-.19,4.22l-.07-.03Z"/><path class="cls-3" d="m91.94,381.53c-.18.75-.61,1.43-1.15,1.9-.54.47-1.16.73-1.74.84-.42.09-.82.18-1.23.14-.71-.1-1.35-.38-1.9-.79-.56-.43-.95-.97-1.15-1.59-.18-.54-.3-1.13-.1-1.74.06-.19.15-.36.26-.52.12-.15.28-.26.45-.34.31-.18.71-.26,1.04-.15.21.08.12.19,0,.36-.15.16-.21.51-.2.69.11.51.23.39.36.52.11.1.32.26.41.5.17.3.64.22.96.2.39-.02.64-.13.78-.3.08-.1.15-.29.1-.51-.06-.32-.28-.65-.56-.63-.23-.01-.46.3-.48.51-.01.05.01.11,0,.14.01.09-.21-.12-1.05-.47l-.58-.23c-.64-.23-1.11-.74-.91-1.39.33-.89,1.12-1.58,2.09-1.86.49-.14,1.03-.19,1.59-.1.56.09,1.13.36,1.58.7,1.34,1.06,1.8,2.61,1.52,4.14h-.08Z"/><path class="cls-3" d="m268.91,91.46c8.94,7.25,17.07,15.49,23.71,24.98,1.18,1.75,2.37,3.51,3.39,5.39l.77,1.41.7,1.46c.24.48.46.98.65,1.49l.3.76.15.38c.05.13.1.23.15.46.38,1.48.16,2.52-.02,3.55-.2,1.02-.51,1.95-.83,2.86-.66,1.82-1.47,3.52-2.35,5.18-1.78,3.3-3.85,6.39-6.12,9.32-4.54,5.85-9.88,11.05-15.9,15.35-5.32,3.82-11.24,6.92-17.49,8.85-.5.16-1,.34-1.51.46l-2.24.58-.59.15-.29.08c-.09.02-.23.1-.21-.05l-.24-1.18-.44-2.17c-.4-2.01-.89-4.01-1.27-6.02l-1.24-6.03-.65-3.01c-.21-1.01-.33-2.03-.53-3.04-.46-2.53-.28-2.23.69-.24.46,1,1.28,2.38,1.97,4.13.72,1.74,1.51,3.81,2.18,6.11.29,1.02.59,2.03.86,3.06l.71,3.09.34,1.55.04.17h0s0,0,0,0h0s0,.02,0,.02h-.01s0,0,0,0h0s.09-.02.09-.02l.37-.08c3.94-.93,7.67-2.63,11.24-4.56,3.57-1.96,6.95-4.29,10.11-6.92,3.17-2.62,6.14-5.51,8.87-8.62,3.27-3.72,6.22-7.9,8.53-12.39,1.14-2.23,2.14-4.59,2.62-6.88.11-.56.18-1.12.17-1.59l-.02-.33c0-.12-.04-.15-.05-.24l-.02-.11s-.05-.13-.08-.2l-.18-.42c-.45-1.14-1.02-2.25-1.58-3.36-2.64-4.83-5.97-9.38-9.6-13.66-3.65-4.27-7.63-8.29-11.82-12.05-2.6-2.29-5.26-4.54-8.04-6.61-1.37-1.07-2.8-2.04-4.21-3.06-1.45-.95-2.87-1.95-4.36-2.83-4.46-2.76-9.13-5.21-13.99-7.15-4.85-1.94-9.93-3.32-15.05-3.78-3.97-.36-7.95-.12-11.71.84l-1.4.39c-.47.12-.93.26-1.35.45-.88.31-1.7.74-2.51,1.2-1.61.93-3.07,2.15-4.35,3.52-1.13,1.22-2.1,2.54-3,3.97-1.64,2.67-2.39,4.6-3.05,5.91-.65,1.32-1.14,2.07-1.77,2.65-.28.27-.59.65-.85.8-.44.26-.69-.31-.73-1.62.01-1.29.3-3.32,1.27-5.74,1.42-3.58,3.58-6.97,6.53-9.79,1.48-1.41,3.19-2.62,5.07-3.59.93-.5,1.94-.87,2.94-1.23.98-.27,1.95-.53,2.93-.8,7.96-1.77,16.28-.73,23.85,1.65,5.65,1.79,10.99,4.33,16.07,7.23,5.08,2.92,9.89,6.24,14.44,9.87l-.05.08Z"/><path class="cls-3" d="m243.6,131.53c1.56.59,2.95,1.54,4,2.73,1.04,1.19,1.81,2.54,2.34,3.93.37,1.02.74,2.04.87,3.09.28,1.95-.02,3.91-.66,5.64-.64,1.74-1.63,3.3-2.86,4.63-1.1,1.17-2.38,2.2-3.85,2.86-1.88.84-4.2.96-6.01.01-.56-.29-.39-.44.18-.63.28-.09.67-.22,1.07-.29.42-.15.86-.21,1.32-.29.82-.14,1.59-.38,2.29-.78.18-.09.37-.15.54-.26l.51-.33c.36-.19.65-.5.97-.75,1.25-1.08,2.24-2.53,2.98-4.08.49-.92.68-1.99.75-3.02.05-1.05-.16-2.01-.44-3.07-.61-2.26-1.94-4.29-3.81-5.49-1.13-.76-2.5-1.12-3.88-1.06-1.08.06-2.02.36-2.86.96-.83.6-1.5,1.47-1.98,2.46-.77,1.55-.93,3.35-1.03,5.08,0,.39,0,.77,0,1.16-.05,1.44-.24,1.89-1.12,2.23-.2.08-.4.18-.6.23-.67.18-1.28-.45-1.46-1.66-.26-1.79-.21-3.68.19-5.61.41-1.92,1.23-3.95,2.81-5.7,1.19-1.28,2.96-2.24,4.72-2.51,1.67-.29,3.44-.14,5.05.42l-.02.08Z"/><path class="cls-3" d="m250.02,197.29s.1.13.16.12c.05-.02.08-.06.11-.12l.04-.1.02-.06s0,0,.02-.15l.1-1.33c.05-.66.02-1.32.08-1.98.21-2.34.51-4.7.93-7.03.17-1.04.38-2.07.63-3.09.31-1.3.67-2.62,1.47-3.75.28-.34.3-.27.41.14.14.42.32,1.14.25,1.87-.11,1.31-.31,2.58-.42,3.88-.21,1.28-.43,2.57-.64,3.88-.27,1.57-.18,3.24-.21,4.88-.02.92-.04,1.79-.1,2.78-.04.73-.09,1.47-.26,2.08-.2.6-.4,1.08-.93,1.37-.27.13-.5.04-.75-.02-.25-.07-.49-.08-.75-.23-.45-.25-.9-.5-1.32-.82-.49-.33-.73-.54-1.01-.77-1.36-1.14-2.51-2.44-3.7-3.68-.91-.96-1.9-1.84-2.82-2.79-.2-.21-.42-.4-.61-.62-.68-.85-.65-1.29-.25-1.88.09-.13.17-.28.28-.39.33-.37.97-.31,1.63.15,1.82,1.47,3.32,3.3,4.94,4.97.59.61,1.18,1.22,1.8,1.77.15.14.3.28.46.41l.4.34s.02.04.04.07h0s0,.09,0,.09Z"/><path class="cls-3" d="m338.08,320.32c.62-.59,1.14-1.36,1.69-2.11.29-.36.47-.8.72-1.2.23-.41.49-.8.66-1.25l.58-1.3c.19-.44.32-.91.49-1.36.35-.9.55-1.86.82-2.8.89-3.83,1.2-7.87,1.21-11.93.01-2.03-.07-4.08-.16-6.14l-.34-6.19c-.31-4.03-.94-8.12-1.68-12.17-1.08-5.93-2.51-11.8-3.98-17.65-2.62-10.32-5.71-20.53-9.44-30.5-1.86-4.98-3.9-9.9-6.16-14.7-2.27-4.79-4.77-9.48-7.7-13.87-2.6-3.87-5.57-7.56-9.19-10.34-1.8-1.39-3.79-2.49-5.89-3.08-1.05-.26-2.12-.46-3.19-.42-1.09.03-2.21.15-3.28.37-1.35.33-2.7.76-3.86,1.5-1.17.72-2.22,1.61-3.11,2.67-1.75,2.16-2.86,4.87-3.48,7.71-1.3,5.7-1.05,11.79-.26,17.69.19,1.86.4,2.64.29,2.62-.1-.02-.5-.85-1.1-2.37-.6-1.51-1.33-3.73-1.82-6.5-.51-2.77-.84-6.1-.48-9.78.38-3.23,1.21-6.54,2.99-9.56.89-1.49,2-2.93,3.4-4.08,1.41-1.14,3.02-2.01,4.7-2.61,1.69-.54,3.42-.87,5.13-.94,1.76-.12,3.64.12,5.32.64,3.42,1.05,6.24,3.07,8.67,5.28,2.42,2.24,4.49,4.73,6.36,7.32,1.88,2.59,3.54,5.3,5.09,8.05,3.09,5.52,5.7,11.25,8.04,17.09,5.55,13.97,10.35,28.83,13.88,43.76.96,4.11,1.83,8.24,2.57,12.4.73,4.17,1.37,8.35,1.62,12.66.48,8.29,1.12,17.01-1.21,25.46-.74,2.58-1.78,5.12-3.28,7.42l-1.21,1.68c-.48.51-.94,1.07-1.46,1.53-1.05.93-2.17,1.77-3.39,2.41-2.41,1.34-5.02,2.18-7.68,2.66-2.66.48-5.37.56-8.06.26-2.03-.23-4.08-.7-6.01-1.56-1.8-.79-3.65-1.71-5.34-2.89-3.47-2.29-6.03-5.68-7.97-9.19-1.91-3.55-3.33-7.29-4.45-11.08-.57-1.89-1.03-3.81-1.51-5.71-.4-1.92-.86-3.83-1.21-5.75-.27-1.49-.54-2.99-.81-4.47-.26-1.49-.46-2.98-.69-4.47-.45-2.96-.9-5.92-1.35-8.86-.9-5.89-1.8-11.75-2.7-17.65-.4-2.6-.79-5.13-1.19-7.75-1.39-9.71-1.56-12.84-.83-15.07.17-.51.31-1.17.5-1.47.63-1.04,1.86,2.83,3.06,9.93,1.79,10.52,3.48,21.35,5.1,32.34.4,2.74.81,5.48,1.21,8.24.21,1.36.39,2.74.62,4.1l.73,4.08c1.05,5.41,2.33,10.8,4.18,15.87,1.37,3.76,3.12,7.35,5.51,10.25.56.77,1.26,1.37,1.9,2.04.71.59,1.4,1.2,2.19,1.7.37.28.79.51,1.19.75.4.25.82.48,1.26.69.43.22.87.44,1.33.65.46.22.93.44,1.32.58,3.3,1.3,7.35,1.51,11.11.92,3.76-.62,7.46-2.1,9.93-4.6l.08.05Z"/><path class="cls-3" d="m195.89,315.51c-.79.14-1.62.14-2.44.18-.8,0-1.58-.04-2.37-.09-1.58-.16-3.17-.39-4.72-.86-3.1-.89-6.08-2.59-8.33-5.04-1.12-1.22-2.07-2.61-2.77-4.13-.71-1.45-1.15-3.35-1.14-5.07.12-3.47,1.4-6.45,2.82-9.16,2.13-3.95,4.73-7.48,7.49-10.83,4.91-5.86,10.28-11.21,15.55-16.58,2.64-2.68,5.27-5.36,7.8-8.11,1.26-1.37,2.49-2.77,3.64-4.2,1.15-1.43,2.24-2.92,3.02-4.44.65-1.24.98-2.95,1.43-4.55l1.26-4.86c.82-3.25,1.71-6.47,2.61-9.68.59-2.05,1.18-4.11,1.77-6.17.63-2.05,1.3-4.08,2.01-6.11,1.42-4.05,2.96-8.07,4.95-11.88,1.33-2.34,1.23-1.97.7.25-.55,2.21-1.32,6.3-2.61,11-2.19,8.38-4.38,16.76-6.57,25.15-.57,2.12-1.09,4.17-1.74,6.39-.18.56-.46,1.27-.73,1.82-.3.54-.57,1.13-.91,1.61-.63,1.02-1.32,1.95-2.02,2.85-2.82,3.57-5.91,6.71-9.01,9.85-7.41,7.45-15.08,15.24-21.47,23.63-1.73,2.32-3.34,4.71-4.61,7.22-.35.62-.57,1.27-.87,1.9-.27.64-.45,1.29-.68,1.93l-.22.97c-.09.33-.15.65-.16.97l-.1.96.05.94c-.01.32.07.61.14.91.09.3.1.59.23.9.22.62.48,1.23.82,1.8.64,1.16,1.47,2.23,2.44,3.15.97.92,2.08,1.71,3.29,2.34,1.22.61,2.51,1.07,3.86,1.41,1.66.38,3.39.55,5.12.57,1.68,0,3.39-.32,5.07-.74,3.36-.94,6.58-2.49,9.62-4.33,9.19-5.7,17.01-13.7,23.18-22.54,4.78-6.91,8.42-14.39,10.95-22.23.52-1.74,1.02-3.44,1.45-5.22.85-3.28,1.26-5.46,1.68-6.98.23-.76.41-1.35.62-1.85.22-.49.46-.87.73-1.21.25-.31.51-.73.73-.9.38-.29.63.27.74,1.57.14,1.3.01,3.31-.38,5.87-1.26,7.57-3.87,15.13-7.5,22.26-3.66,7.12-8.32,13.84-13.78,19.88-4.06,4.47-8.56,8.6-13.6,12.08-2.52,1.74-5.16,3.33-7.98,4.65-2.82,1.3-5.81,2.4-9.05,2.85l-.03-.08Z"/><path class="cls-3" d="m251.98,204.96c0,.45-.11.9-.35,1.31-.25.42-.64.73-1.02.88-.28.11-.54.22-.81.21-.47-.02-.89-.18-1.23-.45-.36-.26-.59-.68-.64-1.05-.05-.33-.06-.63,0-.92.06-.36.23-.76.62-.89.12-.04.26.2.41.44.14.25.37.49.4.55.05.11.12.18.16.2.05,0-.04.01-.08.04-.04.03.01-.02-.08.06.01,0,.03-.03.05-.05.03-.05,0,.04.05,0,.03,0,.05-.04.06-.04,0,.02.08.16.09.14.12.07-.16-.05-.09-.02.02-.01.04-.08.04-.1-.02,0,.07-.08.07-.1.03-.12,0,.05.03.1,0,.02.01.08.06.14,0,0-.04-.04-.11-.08-.03-.02-.06-.03-.09-.04-.06-.01-.08-.01-.09-.01-.01,0-.02,0-.04,0-.1.01-.21.04-.34.07-.12.03-.24.07-.35.11-.37.13-.8.11-1.03-.33-.15-.31-.23-.68-.2-1.05.08-.33.2-.68.46-.92.47-.48,1.27-.82,2.18-.61.66.15,1.19.56,1.49,1.01.3.45.43.92.46,1.38h-.06Z"/><path class="cls-3" d="m174.33,396.02c2.41,0,2.42-3.75,0-3.75s-2.42,3.75,0,3.75h0Z"/><path class="cls-3" d="m55.74,374.28c2.41,0,2.42-3.75,0-3.75s-2.42,3.75,0,3.75h0Z"/><path class="cls-3" d="m315.91,242c-.89-1.84-1.14-3.98-.71-5.94.15-.7.3-1.41.61-2.06,1.12-2.26,3.28-4,5.76-4.39,1.08-.18,2.16-.09,3.17.16.65.17,1.3.4,1.85.8.54.42.98.96,1.26,1.57.17.39-.11.48-.58.49-.46-.02-1.18.06-1.71,0-.89-.2-1.74-.32-2.57-.17-.4.09-.8.09-1.19.18-.38.08-.79.22-1.2.42-1.02.47-1.58,1.64-1.98,2.71-.45,1.21-.53,2.53-.13,3.83.25.78.65,1.54,1.2,2.15.84.93,1.97,1.55,3.24,1.49.99-.03,1.92-.52,2.85-1.02.21-.11.39-.26.61-.36.78-.42,1.2-.21,1.74.54.13.18.26.34.37.52.36.6.25,1.31-.31,1.85-.87.69-1.93,1.27-3.21,1.61-1.27.34-2.81.41-4.31-.07-2.26-.7-3.91-2.4-4.85-4.24l.07-.04Z"/><path class="cls-3" d="m312.85,276.12c.43.88.63,1.95.55,2.87-.07.93-.3,1.71-.64,2.44-.11.27-.22.55-.35.8-.13.26-.25.53-.44.75-1.26,1.62-2.98,2.61-4.74,3.1-.79.19-1.57.35-2.37.41-1.01.06-2.07-.14-2.93-.68-.27-.16-.14-.35.18-.55.16-.1.36-.21.58-.3.22-.11.46-.22.68-.25.41-.07.8-.19,1.18-.31.38-.1.74-.22,1.09-.36.35-.14.7-.3,1.04-.47.35-.15.71-.29,1.06-.46.87-.41,1.4-1.29,1.79-2.08.46-.86.75-1.92.55-2.67-.11-.49-.41-.99-.85-1.39-.68-.62-1.57-1.08-2.59-1.08-.79-.02-1.55.37-2.31.64-.17.06-.33.17-.5.2-.32.09-.57.07-.78-.1-.21-.16-.39-.41-.59-.8-.09-.18-.19-.35-.27-.52-.25-.57-.13-1.23.35-1.75,1.46-1.25,3.73-1.69,6.12-.99,1.76.55,3.33,1.72,4.28,3.51l-.07.05Z"/><path class="cls-3" d="m357.5,215.41c-.73.43-1.37,1.19-1.77,2.08-.13.33-.16.69-.22,1.03-.3,1.21.06,2.52.88,3.71.38.52.91.92,1.48,1.2.7.46,1.46.74,2.32,1.15.27.13.25.31-.01.61-.13.14-.33.34-.6.51-.26.19-.59.33-.93.34-.6.02-1.22-.03-1.82-.17-.6-.16-1.11-.51-1.62-.85-.97-.73-1.84-1.71-2.19-2.94-.46-1.4-.84-2.96-.56-4.43.3-1.6,1.12-3.05,2.31-4.11.72-.66,1.59-1.16,2.52-1.46,1.43-.47,2.92-.3,4.25.07,1.03.31,2.1.67,3.01,1.42.2.16.41.31.58.52.61.78.44,1.26-.13,1.7-.13.11-.26.22-.4.3-.48.27-1.02.19-1.47,0-1.13-.63-2.19-1.1-3.34-1.18-.85-.06-1.58.08-2.27.57l-.05-.06Z"/><path class="cls-3" d="m341.39,196.48c-1.45.3-2.9.19-4.2-.28-.47-.16-.96-.31-1.39-.58-.75-.48-1.41-1.11-1.9-1.82-.49-.71-.79-1.5-.99-2.27-.17-.69-.3-1.37-.33-2.06-.02-.44-.02-.89.07-1.32.12-.43.3-.84.57-1.2.17-.22.37-.08.59.21.21.3.51.73.6,1.11.14,1.34.61,2.48,1.21,3.54.32.7,1.06,1.03,1.75,1.3.77.29,1.64.47,2.51.39.53-.05,1.06-.19,1.53-.44.72-.39,1.41-.97,1.86-1.76.35-.61.48-1.33.66-2.03.05-.15.07-.31.13-.46.23-.55.51-.66,1.28-.54.18.03.35.04.52.08.57.12.97.53,1.03,1.08.04.41.05.82.03,1.24-.06.41-.15.82-.28,1.23-.24.83-.75,1.62-1.4,2.34-.94,1.07-2.34,1.94-3.81,2.31l-.03-.08Z"/><path class="cls-3" d="m198.4,298.54c.86-.77,1.89-1.39,2.98-1.66.4-.1.78-.23,1.18-.25,1.42-.05,2.72.31,3.84.88.5.24.99.49,1.44.78.61.33,1.11.89,1.35,1.56.08.21-.11.31-.43.36-.31.04-.78.12-1.1.05-.3-.06-.52-.17-.76-.26-.24-.09-.48-.18-.72-.24-.47-.13-.95-.27-1.45-.41-.6-.19-1.25.04-1.8.22-.61.21-1.23.4-1.77.83-.34.25-.65.55-.9.91-.38.54-.71,1.17-.81,1.84-.1.53.18,1.04.26,1.49.02.1.07.2.09.3.01.19-.02.33-.14.47-.14.14-.35.27-.63.43l-.38.21c-.21.11-.42.14-.65.12-.23-.03-.52-.12-.69-.31-.52-.56-.94-1.3-1.01-2.07-.11-.77-.03-1.57.18-2.33.37-1.11,1.04-2.11,1.86-2.95l.06.05Z"/><path class="cls-3" d="m218.33,272.83c-.26,1.63-1.19,2.88-2.16,3.75-.36.32-.69.67-1.08.92-1.37.85-2.98,1.4-4.63,1.39-.73-.01-1.47-.12-2.15-.39-.87-.3-1.71-.98-1.97-1.92-.08-.29.19-.34.55-.31.36.04.84.05,1.15.18.56.23,1.1.47,1.71.49.58.04,1.22-.04,1.9-.2.82-.19,1.56-.84,2.23-1.4.73-.62,1.33-1.36,1.59-2.16.15-.49.18-1.01.06-1.55-.19-.8-.63-1.63-1.33-2.17-.55-.43-1.27-.6-1.96-.75-.15-.03-.32-.03-.47-.07-.14-.04-.25-.08-.34-.14-.08-.07-.13-.17-.17-.27-.07-.21-.07-.49-.02-.88.02-.18.03-.36.07-.53.1-.55.52-1,1.13-1.1,1.67.02,3.5.93,4.75,2.62.9,1.22,1.39,2.85,1.2,4.5h-.07Z"/><path class="cls-3" d="m200.02,154.13c1.45,2.8,4.02,5.48,7.45,4.91,2.89-.48,4.72-3.36,5.44-5.97.57-2.1.56-4.26.26-6.41-.12-.85-1.24-1.38-2-1.13-.93.3-1.26,1.09-1.13,2-.04-.28.03.29.04.36.02.21.03.41.05.62.02.4.03.79.02,1.19,0,.35-.03.71-.07,1.06,0,.05-.04.35-.01.12s-.01.07-.02.12c-.03.2-.07.39-.11.58-.07.31-.14.62-.24.92-.04.14-.09.27-.13.41-.04.12-.29.67-.1.27-.25.52-.53.98-.83,1.47-.11.18.21-.24.07-.09-.04.05-.08.1-.13.15-.07.09-.15.17-.23.26-.09.09-.18.18-.27.27-.05.04-.1.08-.14.12-.2.19.24-.15.08-.05-.19.12-.37.25-.57.36-.05.03-.11.05-.16.08-.16.09-.07-.07.15-.06-.09,0-.23.08-.32.11-.11.03-.22.06-.33.08-.39.09.24,0,.01,0-.19,0-.5-.05-.68-.01.28-.06.34.06.17.02-.06-.02-.12-.02-.17-.04-.12-.03-.23-.07-.35-.1-.04-.01-.09-.04-.13-.05-.2-.04.31.16.13.06-.13-.07-.26-.13-.39-.2-.13-.08-.26-.16-.39-.25-.05-.03-.25-.16-.05-.03.21.14-.07-.06-.09-.08-.27-.23-.52-.49-.76-.76-.07-.08-.35-.45-.16-.18-.12-.17-.25-.34-.36-.51-.27-.4-.51-.83-.73-1.26-.39-.76-1.51-1.04-2.22-.58-.77.5-1,1.41-.58,2.22h0Z"/><path class="cls-3" d="m199.19,139.04c.02-.09.19-.59.09-.35.09-.21.21-.42.33-.61.06-.09.11-.17.17-.26.15-.21-.14.16.03-.04.16-.17.32-.35.49-.5.08-.07.16-.14.24-.2-.13.11-.03.02.05-.03.2-.13.4-.26.61-.37.09-.05.19-.1.28-.15.03-.01.3-.13.17-.08s.15-.05.18-.06c.12-.04.25-.08.38-.12.86-.24,1.82-.27,2.71-.14,1.01.14,2.16.52,3.17.94.79.33,1.82-.35,2-1.13.22-.95-.29-1.65-1.13-2-2.45-1.02-5.33-1.56-7.91-.71-2.33.77-4.32,2.53-4.98,4.95-.22.82.28,1.8,1.13,2s1.76-.26,2-1.13h0Z"/><path class="cls-3" d="m207.96,176.76c2.43,1,5.15.25,7.08-1.42s2.84-4.21,2.35-6.67c-.17-.84-1.21-1.39-2-1.13-.89.29-1.31,1.1-1.13,2,.01.06.03.13.04.19-.03-.27-.04-.32-.02-.14,0,.1.02.19.02.29,0,.21-.05.46-.02.67.04-.27.05-.32.02-.15l-.02.09c-.02.13-.05.25-.08.37-.06.21-.18.43-.21.64.03-.18.13-.28,0-.04-.05.1-.1.2-.16.3-.1.18-.22.36-.34.53-.1.14-.08.11.08-.1-.04.05-.08.1-.12.15-.06.07-.13.15-.19.22-.16.17-.32.33-.49.48-.05.04-.1.08-.15.13l.17-.13c-.11.04-.22.16-.32.23-.18.12-.36.22-.55.32-.09.05-.23.08-.31.15.24-.1.28-.12.12-.05l-.09.03c-.22.08-.44.14-.66.19-.06.01-.13.03-.19.04-.18.03-.13.02.14-.01-.09,0-.2.02-.3.03-.23.01-.46,0-.7,0-.36-.01.38.08.03,0-.14-.03-.27-.05-.4-.09-.24-.06-.48-.14-.71-.24-.79-.32-1.82.35-2,1.13-.22.95.29,1.65,1.13,2h0Z"/><path class="cls-3" d="m77.74,136.15c.15.21-.08.4-.56.6-.15.06-.62.09-.69.04-.14-.11-.27-.22-.37-.34-.06-.07-.37-1.24-.5-1.64-.12-.38-.17-.77-.2-1.16-.06-.79-.15-1.59-.22-2.38-.01-.18,0-.35.02-.53.1-.62.06-1.22-.02-1.82-.01-.1,0-.2-.09-.3-.13-.15-.26-1.79-.22-2.01.1-.54.14-1.07.21-1.61,0-.08-.02-.15.06-.23.18-.18.14-.34.14-.5,0-.23.02-.46.06-.69.02-.11.13-.23.21-.35.07-.11.37-.08.41-.04.1.09.23,0,.35-.02.04,0,.09-.01.13-.01.07,0,.69,1.27.7,1.41,0,.03.32,1.92.38,2.14.03.11,0,.23-.03.34,0,.05.29,1.56.29,1.62,0,.32.11.63-.04.95-.03.06-.01.13,0,.19.08.54.06,1.09.06,1.63,0,.28.05.55.07.83,0,.05-.02.1-.03.15,0,.06-.03.13-.02.19.08.65.03,1.32.17,1.96.03.15-.12.89-.08,1.06.03.1-.27.44-.21.52Z"/><path class="cls-3" d="m70.74,130.64c-.2.14-.36-.11-.51-.6-.05-.15-.04-.63.01-.69.11-.13.22-.26.33-.35.07-.05,1.14-.29,1.5-.39.35-.1.7-.12,1.05-.14.71-.03,1.43-.08,2.14-.13.16,0,.32,0,.48.04.55.11,1.1.09,1.64,0,.09-.01.18,0,.27-.09.14-.13,1.61-.25,1.8-.21.49.1.97.14,1.46.2.07,0,.14-.03.21.05.16.18.31.13.46.13.21,0,.41,0,.63.05.1.02.22.12.33.2.1.07.09.37.06.4-.08.1.01.23.03.35,0,.04.02.09.02.13,0,.08-1.13.73-1.26.74-.01,0-.45.09-.91.19-.46.09-.94.19-1.04.22-.1.03-.21,0-.32-.02-.07.01-1.44.27-1.49.28-.29,0-.58.1-.88-.05-.06-.03-.12-.02-.17,0-.5.07-1,.03-1.5.02-.26,0-.51.03-.76.04-.05,0-.09-.02-.14-.03-.06-.01-.12-.03-.18-.03-.6.05-1.21-.02-1.81.08-.14.03-.81-.18-.96-.14-.09.02-.39-.3-.47-.24Z"/><path class="cls-3" d="m72.14,127.35c-.22.02-.21-.27-.07-.75.04-.16.29-.56.37-.59.16-.06.31-.11.45-.12.09-.02,1.09.38,1.43.52.34.12.62.32.89.52.55.42,1.11.82,1.65,1.25.12.09.22.21.31.34.31.44.7.78,1.12,1.08.07.05.13.12.24.11.18,0,1.25.89,1.35,1.05.25.39.54.75.81,1.12.04.05.11.07.1.18-.02.24.1.3.2.4.13.14.26.28.37.45.05.08.06.23.07.36.02.12-.2.32-.25.33-.13.02-.16.17-.23.27-.02.03-.05.08-.08.1-.05.06-1.25-.25-1.34-.33-.01,0-.36-.24-.72-.48-.36-.24-.74-.49-.82-.53-.09-.05-.13-.14-.19-.23-.03-.04-1.13-.73-1.16-.76-.19-.19-.45-.29-.54-.6-.02-.06-.07-.09-.11-.12-.37-.26-.68-.6-1.01-.91-.17-.16-.37-.28-.55-.42-.03-.03-.05-.07-.07-.11-.03-.04-.06-.1-.1-.13-.45-.31-.82-.71-1.31-.95-.11-.06-.47-.57-.61-.62-.07-.03-.12-.44-.21-.43Z"/><path class="cls-3" d="m73.21,134.49c0,.23-.29.22-.77.07-.15-.05-.55-.31-.57-.4-.05-.16-.09-.32-.1-.47,0-.09.43-1.11.58-1.46.14-.34.34-.64.56-.92.44-.58.87-1.17,1.33-1.73.1-.13.22-.24.36-.33.47-.33.83-.74,1.16-1.18.06-.07.13-.14.13-.25,0-.19,1.02-1.3,1.19-1.4.43-.25.83-.54,1.25-.81.06-.04.09-.11.2-.09.24.04.32-.09.44-.18.16-.13.33-.25.52-.35.1-.05.25-.04.38-.04.12,0,.29.25.29.29,0,.13.15.18.24.26.03.03.07.06.09.09.04.06-.42,1.23-.5,1.31,0,.01-.27.34-.55.69-.27.35-.55.73-.6.81-.05.09-.15.13-.24.18-.05.02-.8,1.13-.83,1.17-.2.19-.32.46-.63.55-.06.02-.09.07-.12.11-.28.39-.63.71-.96,1.05-.17.17-.3.38-.45.57-.03.03-.08.05-.11.08-.05.03-.1.06-.13.11-.33.47-.76.87-1.02,1.38-.06.12-.6.5-.66.65-.03.08-.46.13-.45.22Z"/><path class="cls-3" d="m138.45,172.74c.15.19-.09.37-.57.55-.15.06-.62.08-.69.03-.14-.1-.27-.21-.36-.31-.06-.07-.35-1.15-.47-1.51-.11-.35-.15-.71-.18-1.08-.05-.73-.12-1.47-.18-2.2-.01-.16,0-.33.03-.49.11-.57.08-1.13,0-1.68-.01-.09,0-.19-.08-.27-.13-.14-.23-1.66-.18-1.86.11-.5.16-.99.24-1.49.01-.07-.02-.14.06-.21.19-.16.15-.31.15-.46,0-.21.02-.42.08-.64.03-.11.13-.22.21-.32.08-.1.37-.07.41-.04.1.09.23,0,.35-.01.04,0,.1-.01.13-.01.07,0,.67,1.17.68,1.3,0,.03.29,1.78.34,1.97.03.1-.01.21-.03.32,0,.05.26,1.44.26,1.5,0,.29.1.58-.06.88-.03.06-.02.12,0,.18.07.5.04,1,.03,1.51,0,.26.04.51.06.77,0,.05-.02.09-.03.14-.01.06-.03.12-.03.18.07.6.01,1.21.14,1.81.03.14-.14.82-.1.98.02.09-.28.4-.22.48Z"/><path class="cls-3" d="m131.93,167.69c-.18.14-.34-.11-.48-.6-.04-.15-.04-.63.01-.69.1-.13.2-.26.31-.35.06-.05,1.06-.29,1.4-.39.33-.1.66-.12.99-.13l2.02-.1c.15,0,.3,0,.45.04.52.12,1.03.11,1.54.04.08-.01.17,0,.25-.08.13-.12,1.51-.21,1.69-.17.45.11.91.16,1.36.23.06.01.13-.02.2.06.15.18.29.14.42.14.19,0,.39.01.58.06.1.02.2.12.31.2.09.07.08.37.06.4-.08.1.01.23.03.35,0,.04.02.09.02.13,0,.08-1.07.71-1.19.72-.03,0-1.62.32-1.84.36-.1.03-.2-.01-.3-.03-.05,0-1.35.25-1.4.25-.27,0-.54.09-.82-.07-.05-.03-.11-.02-.16-.01-.46.06-.93.01-1.4,0-.24-.01-.48.03-.71.03-.04,0-.09-.02-.13-.03-.05-.01-.11-.04-.16-.03-.56.05-1.13-.03-1.69.07-.13.02-.75-.18-.9-.14-.08.02-.36-.3-.44-.24Z"/><path class="cls-3" d="m133.85,165.11c-.19.04-.15-.23.01-.7.05-.15.3-.55.37-.59.14-.07.27-.13.39-.16.08-.02.89.25,1.17.34.28.08.5.23.71.39.43.33.87.64,1.29.97.09.07.17.17.24.27.22.37.53.63.86.86.06.04.1.09.2.08.16-.02.99.68,1.06.81.17.33.38.62.58.92.03.04.09.06.07.15-.05.22.06.26.13.34.1.11.2.23.27.37.04.07.02.2.02.32,0,.1-.21.31-.25.33-.11.03-.15.17-.23.27-.02.03-.06.08-.08.1-.05.06-1.05-.09-1.13-.15,0,0-.28-.18-.57-.36-.29-.18-.59-.36-.66-.39-.07-.03-.1-.12-.14-.18-.02-.03-.9-.54-.93-.56-.15-.15-.35-.22-.4-.48,0-.05-.05-.07-.08-.09-.29-.2-.53-.47-.77-.72-.13-.13-.28-.22-.42-.33-.03-.02-.03-.06-.05-.09-.02-.04-.04-.08-.07-.1-.35-.23-.63-.56-1.01-.73-.09-.04-.34-.47-.45-.5-.06-.02-.05-.4-.13-.38Z"/><path class="cls-3" d="m134.9,170.61c.03.2-.24.16-.71-.02-.15-.06-.54-.32-.57-.39-.06-.14-.12-.28-.14-.41-.02-.08.29-.9.39-1.19.09-.28.25-.51.42-.74.35-.45.68-.92,1.03-1.36.08-.1.18-.18.29-.25.39-.24.67-.56.93-.91.04-.06.1-.1.09-.2-.02-.17.78-1.03.92-1.1.36-.18.68-.39,1.03-.58.05-.03.07-.09.16-.06.22.06.28-.04.37-.12.13-.1.27-.19.43-.25.08-.03.21,0,.33,0,.11.01.28.25.29.29.01.12.15.18.24.26.03.03.07.07.09.09.04.06-.23,1.04-.29,1.11,0,0-.2.27-.41.55-.2.28-.41.58-.44.64-.04.07-.12.1-.19.13-.04.02-.59.9-.62.93-.16.15-.23.36-.5.41-.05,0-.07.05-.1.08-.21.3-.49.54-.76.8-.14.13-.23.3-.34.44-.02.03-.06.04-.09.06-.04.02-.08.04-.11.08-.25.37-.6.66-.78,1.07-.04.09-.5.36-.54.48-.02.06-.41.06-.4.14Z"/><path class="cls-3" d="m142.74,72.62c.15.19-.09.37-.57.55-.15.06-.62.08-.69.03-.14-.1-.27-.21-.36-.31-.06-.07-.35-1.15-.47-1.51-.11-.35-.15-.71-.18-1.08-.05-.73-.12-1.47-.18-2.2-.01-.16,0-.33.03-.49.11-.57.08-1.13,0-1.68-.01-.09,0-.19-.08-.27-.13-.14-.23-1.66-.18-1.86.11-.5.16-.99.24-1.49.01-.07-.02-.14.06-.21.19-.16.15-.31.15-.46,0-.21.02-.42.08-.64.03-.11.13-.22.21-.32.08-.1.37-.07.41-.04.1.09.23,0,.35-.01.04,0,.1-.01.13-.01.07,0,.67,1.17.68,1.3,0,.03.29,1.78.34,1.97.03.1-.01.21-.03.32,0,.05.26,1.44.26,1.5,0,.29.1.58-.06.88-.03.06-.02.12,0,.18.07.5.04,1,.03,1.51,0,.26.04.51.06.77,0,.05-.02.09-.03.14-.01.06-.03.12-.03.18.07.6.01,1.21.14,1.81.03.14-.14.82-.1.98.02.09-.28.4-.22.48Z"/><path class="cls-3" d="m135.27,67.58c-.2.14-.37-.11-.52-.6-.05-.15-.04-.63.01-.69.11-.13.22-.26.33-.35.07-.05,1.16-.29,1.53-.39.36-.1.72-.12,1.08-.13l2.19-.1c.16,0,.33,0,.49.04.56.12,1.12.11,1.67.04.09-.01.19,0,.27-.08.14-.12,1.65-.21,1.84-.17.49.11.98.16,1.47.23.07.01.14-.02.21.06.16.19.31.14.46.14.21,0,.42.01.63.05.1.02.22.12.33.2.1.07.09.37.06.4-.08.1,0,.23.03.35,0,.04.02.09.02.13,0,.08-1.17.72-1.31.72-.03,0-1.76.32-2,.36-.1.03-.21-.01-.32-.03-.05,0-1.46.25-1.52.25-.3,0-.59.09-.89-.07-.06-.03-.12-.02-.18-.01-.5.06-1.01.01-1.52-.01-.26-.01-.52.03-.77.03-.05,0-.09-.02-.14-.03-.06-.01-.12-.04-.18-.03-.61.05-1.22-.03-1.83.07-.14.02-.82-.18-.98-.14-.09.02-.39-.3-.47-.24Z"/><path class="cls-3" d="m138.14,64.99c-.19.04-.15-.23.01-.7.05-.15.3-.55.37-.59.14-.07.27-.13.39-.16.08-.02.89.25,1.17.34.28.08.5.23.71.39.43.33.87.64,1.29.97.09.07.17.17.24.27.22.37.53.63.86.86.06.04.1.09.2.08.16-.02.99.68,1.06.81.17.33.38.62.58.92.03.04.09.06.07.15-.05.22.06.26.13.34.1.11.2.23.27.37.04.07.02.2.02.32,0,.1-.21.31-.25.33-.11.03-.15.17-.23.27-.02.03-.06.08-.08.1-.05.06-1.05-.09-1.13-.15,0,0-.28-.18-.57-.36-.29-.18-.59-.36-.66-.39-.07-.03-.1-.12-.14-.18-.02-.03-.9-.54-.93-.56-.15-.15-.35-.22-.4-.48,0-.05-.05-.07-.08-.09-.29-.2-.53-.47-.77-.72-.13-.13-.28-.22-.42-.33-.03-.02-.03-.06-.05-.09-.02-.04-.04-.08-.07-.1-.35-.23-.63-.56-1.01-.73-.09-.04-.34-.47-.45-.5-.06-.02-.05-.4-.13-.38Z"/><path class="cls-3" d="m139.19,70.49c.03.2-.24.16-.71-.02-.15-.06-.54-.32-.57-.39-.06-.14-.12-.28-.14-.41-.02-.08.29-.9.39-1.19.09-.28.25-.51.42-.74.35-.45.68-.92,1.03-1.36.08-.1.18-.18.29-.25.39-.24.67-.56.93-.91.04-.06.1-.1.09-.2-.02-.17.78-1.03.92-1.1.36-.18.68-.39,1.03-.58.05-.03.07-.09.16-.06.22.06.28-.04.37-.12.13-.1.27-.19.43-.25.08-.03.21,0,.33,0,.11.01.28.25.29.29.01.12.15.18.24.26.03.03.07.07.09.09.04.06-.23,1.04-.29,1.11,0,0-.2.27-.41.55-.2.28-.41.58-.44.64-.04.07-.12.1-.19.13-.04.02-.59.9-.62.93-.16.15-.23.36-.5.41-.05,0-.07.05-.1.08-.21.3-.49.54-.76.8-.14.13-.23.3-.34.44-.02.03-.06.04-.09.06-.04.02-.08.04-.11.08-.25.37-.6.66-.78,1.07-.04.09-.5.36-.54.48-.02.06-.41.06-.4.14Z"/><path class="cls-3" d="m364.68,69.84c.15.22-.09.43-.57.63-.15.06-.62.08-.69.02-.14-.12-.27-.24-.36-.37-.06-.08-.35-1.33-.47-1.76-.11-.41-.15-.83-.18-1.25-.05-.85-.12-1.7-.18-2.55-.01-.19,0-.38.03-.57.11-.66.08-1.3,0-1.95-.01-.11,0-.22-.08-.32-.13-.16-.23-1.92-.18-2.15.11-.57.16-1.14.24-1.72.01-.08-.02-.17.06-.24.19-.18.15-.35.15-.53,0-.24.02-.49.08-.73.03-.12.13-.25.21-.37.08-.11.37-.07.41-.03.1.1.23,0,.36,0,.04,0,.1-.01.13,0,.07,0,.67,1.37.68,1.52,0,.04.29,2.06.34,2.29.03.12-.01.24-.03.37,0,.06.26,1.67.26,1.74,0,.34.1.67-.06,1.02-.03.07-.02.14,0,.2.07.58.04,1.16.03,1.74,0,.3.04.59.06.89,0,.05-.02.11-.03.16-.01.07-.03.14-.03.2.07.7.01,1.41.14,2.1.03.16-.14.94-.1,1.13.02.1-.28.46-.22.55Z"/><path class="cls-3" d="m357.21,63.86c-.2.14-.37-.11-.52-.6-.05-.15-.04-.63.01-.69.11-.13.22-.26.33-.35.07-.05,1.16-.29,1.53-.39.36-.1.72-.12,1.08-.13l2.19-.1c.16,0,.33,0,.49.04.56.12,1.12.11,1.67.04.09-.01.19,0,.27-.08.14-.12,1.65-.21,1.84-.17.49.11.98.16,1.47.23.07.01.14-.02.21.06.16.19.31.14.46.14.21,0,.42.01.63.05.1.02.22.12.33.2.1.07.09.37.06.4-.08.1,0,.23.03.35,0,.04.02.09.02.13,0,.08-1.17.72-1.31.72-.03,0-1.76.32-2,.36-.1.03-.21-.01-.32-.03-.05,0-1.46.25-1.52.25-.3,0-.59.09-.89-.07-.06-.03-.12-.02-.18-.01-.5.06-1.01.01-1.52-.01-.26-.01-.52.03-.77.03-.05,0-.09-.02-.14-.03-.06-.01-.12-.04-.18-.03-.61.05-1.22-.03-1.83.07-.14.02-.82-.18-.98-.14-.09.02-.39-.3-.47-.24Z"/><path class="cls-3" d="m360.08,61.28c-.19.04-.15-.23.01-.7.05-.15.3-.55.37-.59.14-.07.27-.13.39-.16.08-.02.89.25,1.17.34.28.08.5.23.71.39.43.33.87.64,1.29.97.09.07.17.17.24.27.22.37.53.63.86.86.06.04.1.09.2.08.16-.02.99.68,1.06.81.17.33.38.62.58.92.03.04.09.06.07.15-.05.22.06.26.13.34.1.11.2.23.27.37.04.07.02.2.02.32,0,.1-.21.31-.25.33-.11.03-.15.17-.23.27-.02.03-.06.08-.08.1-.05.06-1.05-.09-1.13-.15,0,0-.28-.18-.57-.36-.29-.18-.59-.36-.66-.39-.07-.03-.1-.12-.14-.18-.02-.03-.9-.54-.93-.56-.15-.15-.35-.22-.4-.48,0-.05-.05-.07-.08-.09-.29-.2-.53-.47-.77-.72-.13-.13-.28-.22-.42-.33-.03-.02-.03-.06-.05-.09-.02-.04-.04-.08-.07-.1-.35-.23-.63-.56-1.01-.73-.09-.04-.34-.47-.45-.5-.06-.02-.05-.4-.13-.38Z"/><path class="cls-3" d="m361.13,66.78c.03.2-.24.16-.71-.02-.15-.06-.54-.32-.57-.39-.06-.14-.12-.28-.14-.41-.02-.08.29-.9.39-1.19.09-.28.25-.51.42-.74.35-.45.68-.92,1.03-1.36.08-.1.18-.18.29-.25.39-.24.67-.56.93-.91.04-.06.1-.1.09-.2-.02-.17.78-1.03.92-1.1.36-.18.68-.39,1.03-.58.05-.03.07-.09.16-.06.22.06.28-.04.37-.12.13-.1.27-.19.43-.25.08-.03.21,0,.33,0,.11.01.28.25.29.29.01.12.15.18.24.26.03.03.07.07.09.09.04.06-.23,1.04-.29,1.11,0,0-.2.27-.41.55-.2.28-.41.58-.44.64-.04.07-.12.1-.19.13-.04.02-.59.9-.62.93-.16.15-.23.36-.5.41-.05,0-.07.05-.1.08-.21.3-.49.54-.76.8-.14.13-.23.3-.34.44-.02.03-.06.04-.09.06-.04.02-.08.04-.11.08-.25.37-.6.66-.78,1.07-.04.09-.5.36-.54.48-.02.06-.41.06-.4.14Z"/></svg>