<svg xmlns="http://www.w3.org/2000/svg" viewBox="0 0 520 520" width="100%" height="100%"><defs><style>.cls-1{opacity:.35;}.cls-1,.cls-2,.cls-3,.cls-4,.cls-5,.cls-6,.cls-7{fill:currentColor;stroke-width:0px;}.cls-2{opacity:.75;}.cls-3{opacity:.25;}.cls-4{opacity:.45;}.cls-5{opacity:.08;}.cls-6{opacity:.31;}</style></defs><path class="cls-2" d="m148.7,165.49c-5.2,3.41-7.48,15.29-1.72,21.45,0,0,.44,15.58,9.72,8.97,8.11-5.77,10.49-21.24,31.25-29.03,20.75-7.79,30.01-12.14,38.93-11.28,8.93.86,11.4-.95,11.4-.95,0,0-20.86-15.22-38.78-14.88-24.32.46-49.68,24.99-50.8,25.73Z"/><path class="cls-5" d="m266.97,207.9s1.52,24.05,16.99,34.49c15.47,10.44,39.43-3.33,44.32-9.54,4.89-6.21,14.4-22.37,16.87-32.07,2.47-9.69-.57-29.27-5.83-32.85-5.26-3.58-33.29,2.45-39.6,6.21-6.32,3.76-17.24,12.42-17.8,17.13-.56,4.71,4.33,15.89,0,14.06-4.33-1.83-11.12-17.26-12.81-20.65-1.68-3.39-8.96-4.3-12.52,2.78-3.56,7.07-2.46,12.37,1.1,15.43,3.56,3.06,9.27,5,9.27,5Z"/><path class="cls-7" d="m337.57,190.45c.02.94,0,1.88-.06,2.81-.03.39-.07.78-.11,1.16.05-.47-.03.2-.05.29-.04.22-.08.44-.13.65-.07.35-.16.69-.27,1.03-.05.15-.1.3-.15.44,0,0-.09.19-.08.21.1-.23.12-.29.07-.17-.02.05-.04.1-.07.14-.13.26-.28.49-.43.73-.11.18.26-.27.1-.13-.05.05-.1.11-.15.17-.06.06-.4.36-.15.15s-.11.04-.18.09c-.17.12-.01-.17.19-.07-.01,0-.13.05-.16.05-.05.01-.11.03-.16.04-.24.08.17-.03.21-.02-.12-.03-.32.02-.45,0-.3-.02-.59-.07-.89-.09.13.01.53.09.21.02-.07-.01-.14-.03-.22-.04-.19-.04-.37-.1-.55-.15-.4-.13.3.16.09.04-.08-.04-.17-.08-.25-.12-.09-.05-.17-.1-.25-.15-.04-.03-.08-.06-.13-.08-.28-.19.07,0,.1.08-.03-.08-.25-.22-.32-.28-.11-.11-.22-.22-.32-.34-.04-.05-.08-.1-.13-.15-.24-.27.23.34.02.02-.1-.16-.21-.31-.31-.47-.21-.35-.38-.72-.57-1.09-.13-.25.15.39-.02-.05-.05-.12-.09-.24-.14-.36-.11-.29-.2-.58-.29-.87-.27-.87-1.23-1.52-2.15-1.22s-1.51,1.22-1.22,2.15c.88,2.81,2.54,5.91,5.72,6.46,1.25.22,2.5.33,3.67-.26,1.48-.74,2.3-2.36,2.76-3.88.65-2.16.75-4.52.7-6.76-.02-.91-.79-1.79-1.75-1.75s-1.77.77-1.75,1.75h0Z"/><path class="cls-7" d="m332.31,183.25c-.8,1.82-1.18,4.21-1.3,6.48-.02.84.05,1.67.1,2.51.04,1.48.24,2.96.48,4.44.27,1.48.69,2.93,1.22,4.35.51,1.24,1.14,2.45,1.9,3.54.42.75.95,1.42,1.44,2.13.25.35.46.73.69,1.11.24.37.47.74.71,1.12.29.48.08.6-.5.52-.57-.09-1.65-.3-2.56-.96-.4-.3-.71-.67-1.05-1.01-.34-.35-.67-.71-.97-1.09-.61-.76-1.06-1.63-1.54-2.47-.89-1.73-1.56-3.57-1.96-5.47-.49-2.26-1.07-4.6-1.14-6.97-.07-2.61.17-5.16.84-7.73.43-1.58,1.11-3.16,2.19-4.49.8-1,1.8-1.89,2.97-2.47.56-.34,1.18-.51,1.78-.74.62-.13,1.24-.33,1.87-.36,1.94-.23,3.89-.13,5.76.41.41.12.83.2,1.22.39.71.36,1.13.69,1.34,1.04.22.33.24.68.15,1.11-.04.19-.06.39-.12.56-.21.55-1.03.74-1.97.49-.74-.1-1.4-.31-2.08-.44-.33-.1-.68-.11-1.01-.17-.33-.07-.66-.08-.99-.11-1.31-.1-2.58.03-3.68.47-.81.33-1.58.77-2.18,1.45-.17.14-.32.33-.45.52-.13.19-.29.36-.42.57-.22.44-.5.83-.66,1.32l-.08-.03Z"/><path class="cls-7" d="m326.67,173.88c-2.95-2.22-7.2-2.54-10.76-2.36-3.06.16-7,.57-9.53,2.5-.75.57-1.15,1.51-.63,2.39.43.74,1.64,1.2,2.39.63.38-.29,1.03-.63,1.28-.74.35-.15,1.22-.43,1.79-.57,1.57-.41,3.08-.62,4.69-.71,3.08-.16,6.53.03,8.99,1.88.76.57,1.96.12,2.39-.63.52-.9.13-1.82-.63-2.39h0Z"/><path class="cls-7" d="m207.15,172.84c.86.53,1.66,1.17,2.48,1.75.78.65,1.57,1.27,2.31,1.96.53.51,1.13.94,1.64,1.47,1.75,1.93,3.16,4.15,4.3,6.44.24.52.53,1.01.7,1.56.18.54.35,1.08.53,1.62.21.69.3,1.42.43,2.12.1.71.04,1.45.05,2.15-.01.44-.07.38-.28.04-.2-.34-.66-.94-1.02-1.63l-1.09-1.75c-.4-.55-.77-1.1-1.13-1.64-.42-.51-.64-1.13-.95-1.71-.34-.56-.67-1.13-.98-1.73-.45-.66-.94-1.33-1.52-1.91-.62-.55-1.16-1.18-1.8-1.72-.67-.62-1.33-1.25-2.06-1.8-.7-.6-1.46-1.12-2.22-1.64-.46-.34-.95-.63-1.44-.91-.5-.28-.97-.6-1.49-.84-1.55-.77-3.14-1.5-4.81-1.93-.65-.15-1.3-.29-1.96-.34-.66-.04-1.32-.07-1.97-.13-.29-.04-.58.01-.86-.02-1.06-.14-1.36-.44-1.52-1.35-.04-.21-.09-.41-.1-.62-.05-.68.46-1.19,1.35-1.35,2.65-.47,5.39.19,7.97,1.13.48.18.96.35,1.43.55l1.39.67c.94.42,1.8.98,2.7,1.48l-.04.07Z"/><path class="cls-7" d="m181.92,182.99c.04-.14.37-.97.18-.54.14-.31.29-.61.45-.91.33-.6.7-1.18,1.1-1.74.12-.16.23-.32.36-.48-.19.25.2-.24.2-.24.27-.33.55-.65.83-.96.57-.63,1.17-1.22,1.8-1.79,2.43-2.2,5.37-4.04,8.54-4.82,1.05-.26,1.68-1.44,1.4-2.46s-1.41-1.66-2.46-1.4c-3.87.95-7.38,3.19-10.31,5.85-2.51,2.28-4.91,5.13-5.94,8.42-.32,1.03.38,2.18,1.4,2.46,1.07.3,2.14-.36,2.46-1.4h0Z"/><path class="cls-7" d="m167.1,212.79c1.28.86,2.8,1.33,4.34,1.13,1.41-.19,2.65-.9,3.66-1.89,2.09-2.05,3.16-5.03,3.5-7.89.16-1.39.1-2.92-.42-4.23-.32-.81-1.09-1.39-2-1.13-.78.21-1.46,1.18-1.13,2,.08.21.16.43.21.65.03.11.05.22.07.32.02.08.08.55.05.27s0,.12.01.19c.01.14.02.28.02.42,0,.29,0,.57-.01.86,0,.15-.02.3-.03.44,0,.06-.06.5-.02.23s-.03.17-.04.24c-.03.17-.06.34-.1.51-.13.59-.3,1.17-.5,1.74-.05.15-.11.29-.17.44-.11.27.13-.28-.04.09-.13.28-.27.56-.41.83-.14.25-.28.49-.44.73-.07.11-.15.21-.22.32-.03.05-.18.24-.04.05.16-.21-.06.07-.08.09-.17.2-.35.4-.54.58-.09.08-.18.16-.27.24-.05.05-.11.09-.16.13.11-.1.25-.18.05-.04s-.41.27-.63.38c-.07.03-.42.16-.16.08s-.19.06-.26.07c-.12.03-.25.05-.37.09-.28.08.14-.05.15-.02,0,0-.23.02-.24.02-.15,0-.29,0-.44,0-.05,0-.16,0-.2-.02.06.02.35.07.13.01-.15-.04-.31-.07-.46-.12-.11-.04-.57-.25-.19-.06-.33-.18-.66-.34-.97-.55-.73-.49-1.8-.14-2.22.58-.47.8-.15,1.73.58,2.22h0Z"/><path class="cls-7" d="m173.73,191.63c1.99,2.24,3.28,4.82,4.24,7.42l.55,1.41c.16.48.32.96.45,1.44.87,3.43,1.25,6.93,1.13,10.4-.05.77-.08,1.54-.11,2.31-.07.77-.14,1.53-.21,2.29-.25,1.95-.74,3.92-1.83,5.6-.31.53-.52.33-.66-.27-.15-.61-.24-1.57-.21-2.62.09-.91.15-1.83.26-2.73.05-.91.11-1.83.11-2.75,0-1.84-.11-3.69-.22-5.57-.16-2.25-.84-4.52-1.65-6.65-.85-2.36-1.98-4.6-3.42-6.58l-.68-.9-.77-.8c-.49-.58-1.11-.96-1.68-1.43-.87-.6-1.77-.93-2.72-.87-.95.06-1.92.55-2.79,1.2-1.36,1.07-2.37,2.57-3.36,4.08-.21.34-.42.67-.66,1-.89,1.21-1.36,1.47-2.29,1.23-.21-.05-.43-.09-.62-.17-.64-.26-.76-1.11-.3-2.2.68-1.63,1.61-3.19,2.86-4.67.61-.75,1.34-1.46,2.17-2.13.87-.65,1.82-1.3,3.07-1.65.44-.16.95-.22,1.42-.3.5-.02,1.01-.06,1.51,0,1,.12,1.97.42,2.76.86.88.43,1.37.93,2.03,1.4l.46.36.41.4.8.81-.06.07Z"/><path class="cls-5" d="m217.9,344.88s-14.42-8.35-21.24-10.78c-6.83-2.43-16.29-7.25-20.76-14.55-4.47-7.29.36-20.63,3.17-25.09,2.81-4.46,4.99-10.76,6.44-9.2,1.45,1.56,12.79,13.65,14.6,11.74s-2.58-9.54-3.15-12.22c-.57-2.68-.14-6.09,3.82-3.17s8.18,10.25,12.73,21.5c4.55,11.25,7.59,17.99,12.37,20.9s5.24,2.32,3.86,5.72-11.84,15.15-11.84,15.15Z"/><path class="cls-5" d="m350.44,295.5c.29-7.66,16.94-1.03,16.94-1.03,0,0-1.98-14.34-13.5-20.15-11.52-5.81-15.52-2.38-15.52-2.38,0,0,10.53,9.79,10.85,15.02.32,5.23,1.23,8.55,1.23,8.55Z"/><path class="cls-7" d="m361.14,357.94c.62-.63,1.25-1.27,1.83-1.95.6-.66,1.16-1.37,1.7-2.08.41-.51.74-1.08,1.12-1.62,1.34-1.89,2.57-3.87,3.65-5.94.5-.91.88-1.88,1.28-2.83.44-1.25.93-2.47,1.52-3.67.19-.37.32-.28.4.12.08.39.16,1.11.03,1.89-.71,2.67-1.8,5.24-3.22,7.64-.87,1.42-1.68,2.96-2.62,4.38-.51.79-1.09,1.53-1.64,2.29-.6.72-1.17,1.47-1.8,2.17l-1.17,1.28-1.24,1.21c-1.26,1.22-2.66,2.29-4.03,3.36-.56.39-1.09.79-1.63,1.2-.54.4-1.11.75-1.68,1.12-.25.16-.49.33-.77.45-1.01.48-1.39.5-1.79.14-.09-.08-.2-.16-.27-.25-.23-.31.04-.79.68-1.22,1.89-1.29,3.87-2.54,5.7-4.07.69-.55,1.34-1.16,2.02-1.74.63-.64,1.31-1.22,1.89-1.9l.04.03Z"/><path class="cls-7" d="m249.43,171.7c-.07-1.22.06-2.45.09-3.66.13-1.21.21-2.43.41-3.63.16-.87.22-1.76.41-2.62.65-3.06,1.65-6,2.79-8.87.57-1.25,1.04-2.55,1.63-3.76.67-1.61,1.55-3.13,2.52-4.58.38-.41.37-.33.36.18-.02.51-.15,1.38-.51,2.3-.34.81-.6,1.65-.96,2.44-.34.8-.68,1.6-.97,2.43-.62,1.62-1.23,3.25-1.86,4.89-.32,1-.64,2.02-.87,3.07-.19,1.06-.45,2.11-.59,3.17-.18,1.16-.37,2.32-.45,3.5-.14,1.17-.15,2.35-.18,3.53-.04.73.04,1.45.05,2.17l.05,1.09.12,1.08.18,1.64.29,1.63c.16,1.09.49,2.15.76,3.2.5,1.63,1.17,3.16,1.89,4.67.15.34.31.66.49.99.6,1.24.64,1.7.33,2.19-.07.11-.13.24-.22.33-.28.29-.81-.09-1.38-.98-1.64-2.66-2.81-5.79-3.56-9.03-.49-2.42-.88-4.88-.89-7.36h.05Z"/><path class="cls-7" d="m255.03,153.43c1.3-1.6,2.67-3.14,4.12-4.6.54-.53.97-1.14,1.55-1.63,1.93-1.81,4.05-3.41,6.26-4.86l1.47-.96c.51-.29,1.02-.58,1.53-.86,1.33-.66,2.69-1.44,4.25-1.44.48-.02.45.18.18.61-.14.22-.33.5-.56.81-.24.29-.54.48-.89.67-.61.36-1.22.68-1.82,1.05-.58.4-1.16.79-1.75,1.17-.58.41-1.16.8-1.76,1.2-.57.43-1.15.86-1.75,1.27-.69.53-1.34,1.13-1.97,1.76-.6.66-1.21,1.33-1.81,1.99-1.31,1.47-2.58,2.97-3.78,4.54-.76.95-1.47,1.94-2.15,2.95-1.03,1.53-2.03,3.1-2.86,4.74-.61,1.29-1.02,2.65-1.43,3.99-.09.29-.18.59-.27.88-.38,1.08-.74,1.32-1.68,1.23-.21-.02-.43-.03-.64-.07-.7-.14-1.05-.8-.91-1.71.4-2.69,1.65-5.23,3.08-7.63.52-.9,1.12-1.75,1.69-2.62l1.83-2.53.06.04Z"/><path class="cls-7" d="m335.44,134.14c-.8-.77-1.69-1.47-2.59-2.14-.33-.25-.7-.44-1.03-.68-1.2-.83-2.43-1.63-3.71-2.35-.56-.34-1.14-.64-1.71-.94-.74-.38-1.49-.76-2.2-1.19-.22-.14-.15-.2.09-.2.24,0,.67.04,1.13.2,1.61.59,3.21,1.2,4.68,2.14.88.54,1.86,1,2.77,1.55,1,.6,1.97,1.27,2.91,1.97.56.46,1.14.9,1.67,1.4.84.72,1.57,1.55,2.3,2.39.55.66,1.13,1.3,1.6,2.05.1.17.24.31.32.49.3.67.27.94-.15,1.23-.09.07-.18.14-.28.19-.34.17-.73.01-.99-.36-.77-1.13-1.59-2.21-2.5-3.35-.71-.81-1.45-1.63-2.3-2.36l.02-.03Z"/><path class="cls-7" d="m257.02,185.54s-1.7-7.97,1.96-16.83,12.75-18.69,22.9-22.89c10.15-4.2,25.99-7.06,31.42-5.56,5.43,1.5,13.13,7.05,13.13,7.05,0,0,8.5-8.53,17.67-7.88,9.17.65,32.04,11.38,25.92,36.23-3.1,12.57-16.18,23.01-24.86,25.13,0,0,1.5-18.56-1.4-23.48-2.9-4.92-6.78-7.89-10.49-8.15-3.71-.26-18.14,1.62-22.85,3.39s-26.74,10.91-27.6,14.36c-.86,3.45.9,17.98-.88,18.43-1.78.45-5.47-2.51-7.21-7.01-1.74-4.5-3.11-10.71-7.74-13.31-4.63-2.6-9.96.51-9.96.51Z"/><path class="cls-1" d="m278.94,239.75l13.82,23.71s6.69-6.49,13.97-6.68c7.28-.19,27.79,4.42,27.79,4.42,0,0,2.94-6.04-2.14-11.71s-9.46-11.57-9.46-11.57c0,0-12.19,7.79-15.76,8.2-3.58.4-24.6-.44-28.21-6.37Z"/><path class="cls-7" d="m290.29,258.3c-.43-.99-.92-1.94-1.36-2.92-.5-.95-.95-1.93-1.5-2.85-.39-.68-.82-1.34-1.24-2-1.42-2.37-2.94-4.7-4.64-6.92-.74-1-1.61-1.88-2.4-2.83-1.09-1.14-2.1-2.37-3.08-3.65-.3-.4-.22-.39.18-.21.39.2,1.2.47,2,.98,2.76,1.87,5.01,4.35,6.93,7.07,1.15,1.63,2.42,3.27,3.52,4.98,1.18,1.91,2.29,3.85,3.26,5.87.61,1.23,1.16,2.49,1.71,3.75.83,1.91,1.57,3.85,2.33,5.76.62,1.47,1.23,2.92,1.82,4.39.13.32.22.65.32.99.32,1.26.27,1.71-.1,2.12-.09.09-.16.2-.25.27-.3.22-.76-.18-1.27-1-.77-1.21-1.42-2.49-2.02-3.81-.67-1.29-1.12-2.67-1.7-4.01-.81-2.01-1.64-4.01-2.57-5.96l.06-.03Z"/><path class="cls-7" d="m365.16,294.28c-.93-.46-1.9-.89-2.93-1.2-.38-.11-.76-.18-1.14-.29-1.33-.44-2.71-.77-4.12-1.01-.62-.1-1.26-.17-1.89-.21-.4-.02-.81-.04-1.21-.13-.2-.04-.4-.09-.61-.13-.2-.04-.4-.1-.61-.23-.25-.16-.22-.12,0-.28.22-.21.62-.55,1.1-.69,1.69-.44,3.4-.34,5.09.05,1.01.24,2.09.27,3.13.48,1.14.28,2.27.62,3.36,1.07.68.26,1.33.59,1.99.91.49.25.96.56,1.43.84.46.32.91.64,1.36.96.34.27.7.51,1.06.75l1.03.83c.16.12.3.25.43.4.41.61.37.92-.09,1.38-.11.11-.21.22-.32.31-.38.3-.89.31-1.31.08-.6-.36-1.11-.74-1.6-1.15-.54-.36-1.02-.78-1.58-1.15-.79-.57-1.67-1.09-2.61-1.54l.02-.06Z"/><path class="cls-7" d="m353.31,301.78c-.43,1.38-.95,2.71-1.49,4.02-.19.48-.33.97-.57,1.43-.82,1.62-1.69,3.19-2.52,4.78-.36.71-.71,1.41-1.07,2.11-.41.91-1.03,1.74-1.51,2.63-.16.27-.21.21-.22-.08-.02-.29-.02-.82.03-1.43.19-2.17,1.04-4.03,1.99-5.85.58-1.09.92-2.32,1.34-3.49.5-1.27,1.01-2.54,1.42-3.84.26-.8.49-1.6.66-2.41.26-1.22.46-2.47.35-3.68-.08-.94-.43-1.8-.87-2.5-.11-.15-.22-.29-.31-.44-.39-.52-.37-.77.04-1.37.08-.13.15-.26.22-.36.13-.17.3-.26.6-.29.3-.04.62.06.87.33.8.76,1.34,1.8,1.62,2.86.29,1.07.33,2.15.28,3.18-.08,1.55-.42,3.01-.8,4.42h-.06Z"/><path class="cls-7" d="m261.57,421.59c.19-1.2.39-2.39.63-3.58.08-.43.11-.88.21-1.31.34-1.52.74-3.03,1.29-4.49.21-.66.43-1.31.62-1.97l.41-1.25c.18-.4.43-.78.66-1.16.15-.23.19-.18.25.08.04.26.19.75.19,1.26-.3,1.73-.55,3.44-1.01,5.14-.35,1-.45,2.1-.63,3.16-.2,1.17-.4,2.34-.56,3.52-.1.73-.19,1.45-.26,2.18-.12,1.1-.23,2.22-.24,3.32,0,.86.13,1.7.15,2.54,0,.19.03.37.03.56,0,.7-.13.92-.55,1.08-.1.04-.19.08-.29.11-.32.08-.6-.2-.75-.72-.21-.77-.4-1.56-.48-2.37-.06-.81-.05-1.63-.03-2.45.04-1.22.15-2.44.3-3.65h.05Z"/><path class="cls-7" d="m316.28,401.57c-2.42,1.02-4.97,1.7-7.5,2.36-.94.2-1.86.46-2.79.65-1.66.26-3.33.51-5.01.56-1.67.14-3.35.11-5.02.12-1.48-.08-2.97-.05-4.43-.23-.94-.11-1.88-.17-2.81-.32-.92-.21-1.83-.51-2.73-.76-.56-.17-.48-.18.03-.23.51-.03,1.45-.23,2.53-.29,1.88.03,3.75.08,5.61.01.93.02,1.86.03,2.8-.03.93-.05,1.87-.01,2.81-.1,1.12-.09,2.27-.16,3.4-.42,1.14-.21,2.28-.4,3.4-.68l1.86-.41,1.83-.51c1.23-.31,2.42-.77,3.63-1.16.74-.25,1.46-.56,2.2-.84.74-.27,1.45-.59,2.16-.93l1.62-.75,1.58-.84c1.06-.54,2.06-1.19,3.06-1.83,1.52-1.04,2.94-2.15,4.32-3.31.31-.26.61-.5.91-.76,1.17-.92,1.63-1.13,2.09-1.1.11,0,.23,0,.31.02.27.07-.04.65-.75,1.53-2.17,2.57-4.93,4.86-7.98,6.7-2.28,1.34-4.63,2.6-7.09,3.6l-.02-.05Z"/><path class="cls-7" d="m280.97,344.26l2.25,1.8,2.3,1.73c1.52,1.18,3.11,2.25,4.69,3.35,1.14.82,2.39,1.47,3.56,2.24,4.17,2.65,8.48,5.11,12.94,7.29.98.51,1.99.95,3.01,1.37,1.02.42,2.03.86,3.05,1.25,1.32.48,2.64.96,3.96,1.44,1.33.45,2.67.88,3.99,1.37.82.3.66.47-.12.5-.78.02-2.19-.05-3.8-.42-1.41-.37-2.8-.8-4.2-1.21-1.39-.43-2.74-.98-4.12-1.48-1.38-.49-2.69-1.12-4.03-1.71-1.34-.59-2.65-1.24-3.92-1.98-.77-.42-1.55-.85-2.33-1.27-.78-.44-1.56-.87-2.34-1.31-1.59-.84-3.13-1.78-4.66-2.72-1.7-1-3.29-2.17-4.94-3.25-1.61-1.13-3.2-2.3-4.77-3.48-1.9-1.51-3.81-3-5.63-4.59-2.81-2.35-5.46-4.91-8.09-7.43-2.01-1.99-4.05-3.88-5.95-5.95-.42-.46-.87-.86-1.26-1.35-1.49-1.77-1.79-2.47-1.58-3.26.03-.17.03-.35.07-.46.06-.19.29-.14.76.03.48.15.99.57,1.56,1.17,3.42,3.54,7,7.25,10.81,10.78,2.86,2.58,5.75,5.17,8.82,7.53l-.03.05Z"/><path class="cls-7" d="m251.49,312.95s6.53,11.98,2.23,9.53c-1.85-1.05,8.43,5.51,8.81,3.17s-11.04-12.71-11.04-12.71Z"/><path class="cls-7" d="m300.64,275.55c.73,1.91,1.48,3.82,2.34,5.69.3.69.69,1.33,1,2.02,1.07,2.42,2.23,4.82,3.46,7.19.52,1.07,1.12,2.09,1.71,3.1.38.65.8,1.28,1.16,1.95.18.34.35.68.51,1.02.18.33.21.76.33,1.13.11.49.11.42-.27.19-.19-.11-.5-.25-.9-.41-.36-.18-.68-.45-.99-.77-1.02-1.19-1.9-2.47-2.79-3.76-.43-.65-.87-1.3-1.23-1.99-.36-.69-.7-1.41-1.02-2.13-.77-1.72-1.81-3.38-2.66-5.11-.91-1.91-1.75-3.86-2.53-5.83-.49-1.21-.93-2.44-1.38-3.66-.67-1.85-1.26-3.75-1.88-5.6-.23-.72-.51-1.43-.78-2.13l-.78-2.13c-.12-.31-.24-.62-.33-.94-.17-.6-.22-1.01-.14-1.32.04-.16.1-.29.18-.4.11-.12.24-.23.37-.32.12-.09.23-.19.32-.25.26-.18,1.05.15,1.43.97,1.06,2.44,1.89,5.06,2.8,7.67.66,1.94,1.36,3.89,2.12,5.8l-.06.03Z"/><path class="cls-7" d="m326.31,262.64c-.81-.42-1.61-.87-2.46-1.23-.83-.4-1.7-.72-2.57-1.04-.63-.25-1.31-.35-1.95-.57-2.27-.77-4.62-1.41-7.03-1.81-.53-.11-1.07-.16-1.61-.22-.54-.07-1.07-.16-1.61-.21l-2.07-.22c-.69-.04-1.38-.21-2.07-.37-.43-.11-.37-.15,0-.3.26-.11.53-.22.77-.32.32-.15.7-.27,1.1-.29,1.44-.1,2.89-.24,4.33-.16.72.05,1.44.14,2.16.24.72.1,1.44.23,2.15.4.85.18,1.73.34,2.61.51.89.14,1.78.32,2.64.56.96.25,1.88.62,2.82.92.91.39,1.85.72,2.74,1.16l1.64.81,1.59.9c.8.46,1.55,1.01,2.32,1.5.73.57,1.49,1.09,2.2,1.66.55.45,1.12.87,1.68,1.3.54.45,1.08.91,1.59,1.41.23.21.45.43.63.68.68.95.77,1.36.52,1.87-.06.12-.1.25-.17.34-.23.32-.8.19-1.51-.26-.53-.32-1.03-.68-1.54-1.02-.52-.33-.99-.71-1.46-1.09-1.01-.68-1.9-1.49-2.9-2.2-.7-.57-1.49-1.03-2.23-1.56-.78-.47-1.56-.95-2.38-1.37l.03-.06Z"/><path class="cls-7" d="m301.85,247.89s16.37,0,22.05-6.72c3.46-4.1-3.92-3.24-3.92-3.24,0,0-13.03,8.25-18.13,9.96Z"/><path class="cls-7" d="m227.55,333.35c-.74,1.43-1.56,2.83-2.41,4.21-.3.51-.6,1.01-.93,1.51-1.2,1.7-2.54,3.31-3.96,4.82-.64.66-1.26,1.35-1.9,1.99-.42.41-.85.8-1.3,1.18-.46.36-.94.7-1.42,1.03-.3.2-.35.06-.24-.27.12-.33.38-.88.82-1.37.4-.43.74-.91,1.13-1.33.41-.4.78-.85,1.18-1.27.4-.42.78-.86,1.15-1.3.38-.44.77-.87,1.14-1.32.92-1.06,1.64-2.33,2.4-3.54.85-1.33,1.62-2.71,2.36-4.11.45-.87.89-1.74,1.29-2.63.61-1.35,1.24-2.7,1.79-4.08.41-1.07.73-2.16,1.09-3.24.08-.24.14-.48.23-.71.33-.88.53-1.12.97-1.17.1-.01.2-.04.3-.03.31.02.41.47.26,1.15-.45,2.01-1.11,4.06-1.88,6.09-.56,1.52-1.3,2.97-2.01,4.44l-.04-.02Z"/><path class="cls-7" d="m220.72,318.57s9.88-5.71,11.45-3.15c1.94,3.15-1.51,11.5-1.51,11.5,0,0-6.31-2.27-9.94-8.34Z"/><path class="cls-7" d="m204.46,336.04s-7.5,14.96-4.35,18.63c4.1,4.78,19.02-7.64,19.02-7.64,0,0-3.55-5.15-6.62-6.73-3.06-1.57-8.05-4.27-8.05-4.27Z"/><path class="cls-7" d="m193.87,295.4c-.8-.52-1.52-1.18-2.19-1.84-.24-.25-.5-.48-.72-.74-.7-1.02-1.19-2.14-1.55-3.25-.12-.5-.29-.99-.35-1.49-.14-.63-.15-1.28-.1-1.91.01-.2.08-.17.2-.02.12.15.35.42.49.74.1.29.28.56.42.83.13.27.28.53.45.78.25.5.5,1.01.76,1.54.31.63.88,1.09,1.39,1.57.53.56,1.16,1.03,1.82,1.47.42.25.84.51,1.3.7.68.31,1.4.61,2.14.76.59.1,1.19.04,1.78,0,.13,0,.26-.04.39-.04.48,0,.61.19.65.89,0,.16.03.32.03.48,0,.54-.24.96-.65,1.07-1.2.32-2.47.14-3.68-.25-.91-.28-1.77-.73-2.59-1.24l.03-.05Z"/><path class="cls-1" d="m278.94,238.4l-3.05,2.34c-18.65-14.83-32.72-4.89-36.23-4.68s-33.33,25.04-35.63,27.41c-2.3,2.36-18.52,21.8-18.52,21.8l-8.9,18.75-7.55,12.51s-10.62-19.46-14.78-29.99c-4.16-10.53-15.89-50.22-19.17-65.91-3.28-15.68-5.64-37.69-5.02-41.55.63-3.86,5.01-15.5,7.18-19.64,2.16-4.14,17.78-28.39,48.35-26.89,9.23.45,18.71,3.44,27.44,7.38-.18-.06-.36-.11-.54-.16-12.29-3.36-13.02,0-13.02,0,0,0-37.56,7.69-53.39,27.33-15.83,19.63-11.69,25.92-10.13,28.81,1.57,2.9,6.14,2.43,6.14,2.43,0,0,3.92,12.06,12.76,2.33,0,0,11.38,19.72,21.73,29.12,10.35,9.4,24.99,15.93,36.23,12.62,11.24-3.3,17.23-5.07,21.27-10.54,4.04-5.46,7-11.87,7-11.87,0,0-2.41-22.46-14.12-32.01-11.71-9.55-28.14-22.19-43.4-18.11,0,0,8.37-7.15,23.23-10.28,14.87-3.14,20.89-5.75,29.74-4.87.81.08,1.38.05,1.72-.08,6.87,4.87,11.13,8.61,11.13,8.61,0,0-1.18,14.38,1.12,19.28,2.31,4.91,1.65,8.65,3.19,15.8,1.54,7.15,13.25,9.56,13.25,9.56,1.41,21.22,11.97,30.5,11.97,30.5Z"/><path class="cls-7" d="m234.11,231.87s-1.36,8.23-6.58,11.98c-4.36,3.13,14.8-10.74,14.8-10.74l-1.22-11.71-7,10.47Z"/><path class="cls-7" d="m174.22,178.33c-1.48,1.23-2.92,2.54-4.29,3.91-.51.49-.95,1.05-1.44,1.56-1.72,1.81-3.36,3.72-4.92,5.69-.7.87-1.34,1.79-1.99,2.69-.8,1.18-1.59,2.37-2.46,3.5-.27.36-.25.3-.12-.06.15-.35.33-1.05.69-1.8,1.41-2.57,2.88-5.14,4.79-7.4,1.13-1.37,2.23-2.85,3.42-4.21,1.31-1.51,2.71-2.93,4.15-4.31.92-.82,1.83-1.65,2.79-2.42,1.42-1.2,2.96-2.28,4.46-3.36,1.19-.81,2.32-1.68,3.54-2.44.27-.17.52-.35.81-.49,1.07-.52,1.47-.56,1.9-.2.1.08.21.15.29.25.25.31-.04.81-.72,1.28-2.02,1.42-4.23,2.7-6.32,4.24-1.55,1.14-3.1,2.31-4.55,3.6l-.03-.03Z"/><path class="cls-7" d="m212.84,175.66c-6.02-4.04-12.73-6.95-18.45-8.61-2.35-.68,2.3-2.7,5.72-5.29,0,0-13.18,6-16.53,8.13-3.35,2.12,10.81,1.15,10.81,1.15l18.45,4.63Z"/><path class="cls-7" d="m190.24,133.87c1.14,0,14.12,2.97,9.61,5.56-3.23,1.85,9.22,0,9.22,0,0,0-5.61-4.28-9.42-5.04-4.58-.91-9.42-.52-9.42-.52Z"/><path class="cls-7" d="m135.03,191.47c-.21-1.3-.17-2.59-.09-3.86.01-.46.04-.92.1-1.38.1-.81.31-1.59.5-2.37.24-.77.5-1.53.8-2.27.12-.33.25-.66.38-.99.13-.33.25-.66.41-.97.21-.4.42-.79.64-1.18.26-.37.63-.68.87-1.04.17-.22.19-.16.17.09-.06.23-.01.74-.04,1.26-.07.44-.16.87-.25,1.29-.05.21-.06.43-.11.64l-.19.61c-.24.8-.47,1.61-.72,2.45-.33.98-.38,2.06-.44,3.1-.1,1.15-.07,2.29.02,3.44.1.7.17,1.4.38,2.07.25,1.04.68,2.02,1.25,2.9.25.32.54.61.82.89.29.27.64.47.94.71.13.11.28.19.43.27.54.33.6.58.39,1.18-.05.14-.09.28-.14.42-.19.45-.65.61-1.2.38-1.63-.67-3-2.14-3.79-3.79-.6-1.23-.99-2.54-1.2-3.84h.05Z"/><path class="cls-7" d="m145.04,197.64c-.03.76-.06,1.54,0,2.32.04.28.11.56.17.83.16,1,.51,1.99,1.08,2.87.23.41.6.71.94,1.03.24.17.47.37.7.57.25.18.5.36.74.56.15.13.1.2-.1.26-.2.05-.59.13-1,.05-.34-.1-.68-.22-1.03-.36-.32-.17-.6-.4-.9-.61-.56-.46-1.05-1.02-1.4-1.66-.22-.38-.39-.78-.62-1.16-.19-.39-.4-.79-.54-1.21-.27-.92-.5-1.86-.46-2.81-.03-.58.05-1.16.08-1.73.1-.87.28-1.71.46-2.55.12-.65.17-1.33.31-2,.02-.15.07-.29.13-.43.25-.5.48-.59,1.06-.41.13.04.27.07.39.12.42.17.68.53.71.92.04.58,0,1.1-.11,1.6-.06.51-.2,1-.27,1.52-.15.75-.24,1.51-.27,2.28h-.06Z"/><path class="cls-7" d="m206.95,139.52c1.92.31,3.83.65,5.72,1.11.69.15,1.39.25,2.07.45,2.41.68,4.74,1.61,7,2.64,1.01.44,1.99.97,2.97,1.44.61.34,1.23.68,1.83,1.04.58.41,1.09.9,1.61,1.38.31.31.24.3-.15.24-.39-.08-1.14-.14-1.89-.38-2.54-1.12-5.12-1.94-7.7-2.99-1.55-.62-3.28-.87-4.94-1.26-1.83-.39-3.68-.75-5.55-.99-1.15-.16-2.31-.29-3.47-.38-1.76-.13-3.53-.25-5.28-.2-1.36.06-2.69.28-4.02.48-.29.04-.58.11-.87.14-1.1.12-1.46-.03-1.76-.7-.07-.15-.16-.3-.2-.46-.16-.52.26-1,1.07-1.24,2.42-.7,5.05-.87,7.69-.83.98,0,1.96.06,2.94.14.98.1,1.95.19,2.93.32v.06Z"/><path class="cls-7" d="m252.53,323.71c-1.67-1.07-3.32-2.18-4.94-3.32-.6-.41-1.23-.76-1.8-1.2-2.03-1.54-4-3.15-5.95-4.77-.87-.72-1.77-1.39-2.62-2.11-1.09-.93-2.22-1.82-3.06-3.03-.28-.36-.16-.4.26-.31.21.04.5.12.84.21.17.05.38.07.55.15.17.08.34.18.51.29,2.45,1.54,4.75,3.22,7.02,5.03,1.35,1.09,2.95,1.95,4.44,2.9,1.64,1.06,3.28,2.1,4.96,3.1,1.04.61,2.07,1.22,3.13,1.78,1.6.86,3.21,1.72,4.87,2.43,1.29.54,2.64.87,3.96,1.25.29.08.58.16.87.24,1.07.34,1.34.65,1.34,1.45,0,.18.02.37,0,.55-.07.6-.67.91-1.56.8-2.62-.28-5.16-1.3-7.61-2.44-1.8-.89-3.54-1.92-5.25-2.95l.03-.06Z"/><path class="cls-7" d="m364.58,287.07c-1.11-1.96-2.55-3.72-4.05-5.44-.56-.62-1.23-1.12-1.81-1.73-2.11-2.06-4.44-3.95-7.02-5.48-.56-.37-1.18-.63-1.77-.92-.61-.27-1.2-.59-1.83-.78l-2.38-.95c-.81-.26-1.59-.64-2.39-1.01-.49-.25-.37-.52.17-.77.53-.24,1.51-.6,2.58-.52.93.1,1.83.34,2.76.52.92.19,1.76.61,2.63.96.43.18.86.37,1.29.57l1.23.69c.8.48,1.6.99,2.32,1.6.88.7,1.84,1.32,2.74,2.03l1.39,1.02c.44.37.87.75,1.3,1.14,1.9,1.66,3.45,3.67,4.94,5.68.83,1.31,1.7,2.58,2.38,3.97,1.15,2.04,1.93,4.26,2.72,6.43.29.85.55,1.71.87,2.55.32.85.5,1.73.74,2.61.1.39.19.77.19,1.18.03.75-.05,1.25-.26,1.6-.19.35-.46.55-.85.71-.18.07-.35.16-.52.2-.56.13-1.14-.44-1.59-1.38l-.37-1.06c-.13-.35-.3-.69-.39-1.05-.24-.7-.34-1.42-.6-2.11-.24-.7-.43-1.41-.66-2.11-.27-.69-.52-1.39-.77-2.1-.87-2.04-1.79-4.1-3.06-5.97l.07-.05Z"/><path class="cls-7" d="m360.22,361.02c-2.07,2.18-4.39,4.2-7.06,5.75-2.66,1.55-5.62,2.67-8.69,3.15-6.02.84-11.87.39-17.62-.73-4.18-.83-8.29-1.97-12.24-3.5-3.47-1.37-6.83-2.97-10.11-4.7-3.26-1.77-6.43-3.68-9.51-5.72-6.14-4.1-11.94-8.65-17.44-13.53-4.89-4.31-9.63-8.83-14.12-13.48-2.9-2.97-5.68-6.07-8.34-9.27-2.7-3.16-5.11-6.57-7.3-10.1-1.36-2.2-1.14-1.93.45-.41.79.76,1.98,1.8,3.43,3.03.72.61,1.45,1.32,2.23,2.07.39.37.77.77,1.2,1.16.38.42.78.84,1.18,1.28,1.41,1.55,2.83,3.09,4.28,4.59.73.75,1.44,1.52,2.18,2.25l2.14,2.29c2.87,3.04,5.84,5.98,8.87,8.86,6.06,5.77,12.47,11.17,19.25,16.14,8.12,5.91,17.47,10.87,27.19,13.89,5.34,1.64,10.86,2.77,16.43,2.87,1.39,0,2.78.05,4.16-.08.69-.05,1.4-.06,2.06-.15l1.98-.3c2.61-.57,5.11-1.68,7.37-3.17,5.61-3.7,9.77-9.47,12.85-15.6,1.18-2.33,2.2-4.75,3.1-7.22.92-2.46,1.65-4.99,2.31-7.54.64-2.55,1.13-5.14,1.52-7.73.35-2.6.58-5.2.64-7.8.03-4.02-.27-8.07-1.49-11.7-.62-1.82-1.43-3.44-2.69-4.71-1.26-1.31-2.84-2.44-4.49-3.42-1.47-.86-2.98-1.58-4.58-2.24-2.95-1.24-4.98-1.75-6.35-2.26-1.38-.5-2.17-.92-2.84-1.43-.31-.22-.74-.43-.94-.64-.34-.33.17-.67,1.49-.95,1.32-.26,3.41-.25,5.92.41,3.71.97,7.31,2.47,10.67,4.67,1.68,1.11,3.32,2.38,4.74,4.14,1.46,1.84,2.3,3.89,2.87,5.88.59,2.01.94,4.03,1.13,6.04.23,2.01.25,4.01.24,6.01-.06,4-.53,7.95-1.25,11.86-1.09,5.8-2.79,11.49-5.17,16.93-2.4,5.42-5.43,10.67-9.6,15.14l-.08-.05Z"/><path class="cls-7" d="m346.57,280.47c1.75,3.3,3.29,6.74,4.41,10.37.19.67.41,1.32.63,1.98.18.68.35,1.35.5,2.04.52,2.69.14,5.23-.36,7.6-.52,2.38-1.26,4.66-2.08,6.9-.73,1.98-1.45,3.97-2.27,5.89-1.06,2.46-2.15,4.94-3.86,7.05-.65.59-.75.4-.88-.46-.08-.44-.07-.99-.03-1.64.06-.64.1-1.38.4-2.06,1.84-4.97,3.91-9.81,5.35-14.85.43-1.5.69-3.08.72-4.61.06-1.56-.2-2.87-.63-4.48-.86-3.39-2.27-6.7-3.85-9.93-.99-1.98-2.04-3.94-3.22-5.83-1.76-2.88-3.65-5.71-5.73-8.35-1.62-2.05-3.45-3.86-5.24-5.72-.4-.4-.82-.77-1.21-1.19-1.43-1.56-1.69-2.24-1.36-3.18.07-.21.12-.44.21-.62.3-.57,1.36-.36,2.64.62,3.69,3.02,6.92,6.86,9.91,10.91,2.2,3.02,4.21,6.21,6.04,9.5l-.07.05Z"/><path class="cls-7" d="m335.76,261.53c-.26.28-.59.46-.89.64-.34.12-.67.23-1.03.28h-.53s-.54-.04-.54-.04c-.36-.03-.72-.07-1.08-.16l-.53-.11c-.18-.04-.37-.08-.44-.1l-.61-.17-2.33-.71c-1.53-.47-3.04-.94-4.55-1.35-1.26-.35-2.54-.56-3.81-.85-4.44-.98-9.02-1.58-13.51-.97-1.98.27-3.93.83-5.75,1.59-.57.28-1.16.51-1.71.84-.56.3-1.14.56-1.68.9l-.84.48-.81.53c-.26.19-.57.32-.85.49l-.85.51c-.76.39-.68.32-.38-.37.15-.35.35-.87.64-1.5.34-.56.77-1.21,1.39-1.75,1.07-.98,2.25-1.87,3.57-2.49,1.3-.66,2.66-1.23,4.07-1.59,2.83-.7,5.73-.93,8.57-.72,3.39.22,6.87.53,10.21,1.23,1.83.39,3.64.86,5.42,1.36l2.65.75,1.31.36.99.25c.16.04.31.08.48.09.22.03.49.04.64-.15.14-.18.16-.42.16-.65,0-.23-.04-.46-.1-.73-.09-.35-.24-.83-.38-1.24-1.12-3.05-2.73-6.09-4.56-8.87-1.46-2.16-3.11-4.12-4.79-6.05-.37-.43-.77-.81-1.11-1.27-.64-.83-1.03-1.4-1.18-1.91-.12-.53-.05-.96.17-1.45.1-.22.17-.46.28-.65.19-.31.54-.39,1.04-.29.5.09,1.15.36,1.76.91,3.73,3.15,6.7,7.32,9.06,11.87.88,1.7,1.7,3.44,2.38,5.31.17.47.34.94.48,1.44.08.25.15.49.21.76l.1.39c.04.15.09.4.13.59.16.81.2,1.73.13,2.53-.12.79-.41,1.51-.94,2.09l-.07-.05Z"/><path class="cls-7" d="m268.87,152.47c4-3.58,8.46-6.61,13.25-8.99.87-.44,1.77-.83,2.65-1.26.44-.2.88-.43,1.33-.61l1.38-.5c6.52-2.32,13.42-3.17,20.24-2.79,3.02.2,6.07.57,9.02,1.37,1.9.5,3.79,1.17,5.53,2.2.45.22.85.55,1.27.84l.61.45.3.23.26.29,1.01,1.16c.19.17.27.45.38.68.1.25.23.47.31.72.22.61.27.89.16.94-.11.06-.39-.1-.95-.27-.29-.08-.6-.18-.99-.26-.42-.04-.78-.18-1.21-.27-.82-.22-1.7-.46-2.49-.96-2.98-1.53-6.39-2.53-9.94-3.04-3.56-.5-7.25-.58-10.97-.4-2.23.09-4.48.53-6.7,1.08-2.22.58-4.37,1.37-6.48,2.22-4.63,1.92-9.01,4.55-12.97,7.72-1.19,1.01-2.44,1.96-3.53,3.08l-1.69,1.63-1.57,1.74c-3.12,3.55-5.85,7.53-7.69,11.84-.32.85-.65,1.7-.97,2.54-.27.86-.46,1.74-.68,2.6l-.32,1.3-.18,1.32c-.11.88-.28,1.75-.35,2.63-.03.78-.02,1.54-.07,2.32-.03.36-.07.69-.11.99-.03.3-.02.58-.04.83-.02.5-.07.91-.15,1.25-.15.68-.42,1.09-.83,1.45-.19.16-.37.38-.56.48-.62.36-1.23-.84-1.62-3.18-.18-.87-.17-1.74-.18-2.63.02-.88-.03-1.79.07-2.68.25-1.77.39-3.6.93-5.35.82-3.58,2.43-6.93,4.18-10.16,2.74-4.74,6.28-8.96,10.27-12.63l.07.06Z"/><path class="cls-7" d="m209.54,244.66c-5.71.03-11.36-.99-16.67-2.92-1.93-.72-3.88-1.43-5.69-2.44-3.22-1.78-6.07-3.86-8.84-6.14-2.75-2.28-5.3-4.77-7.66-7.42-1.05-1.17-2.07-2.38-3.07-3.59-.98-1.23-1.9-2.5-2.8-3.77-1.13-1.65-2.25-3.31-3.24-5.05-.5-.87-.93-1.77-1.34-2.68-.21-.46-.42-.9-.61-1.37-.19-.46-.33-.95-.5-1.42-.38-1.2-.22-1.08.59-.33.84.73,2.33,2.08,3.72,3.85,2.26,3.26,4.7,6.34,7.24,9.31,2.48,3.02,5.16,5.88,8.06,8.57,1.75,1.59,3.67,3.06,5.71,4.37,2.06,1.33,4.12,2.52,6.29,3.5,4.77,2.18,9.98,3.49,15.26,3.85,3.25.23,6.53.06,9.74-.5,4.84-.87,9.58-2.71,13.45-5.68,1.53-1.12,2.82-2.5,4.04-3.9,1.16-1.46,2.22-2.97,3.1-4.6.43-.69.7-1.45,1.1-2.17,1.31-2.74,1.79-3.58,3.01-3.86.27-.06.56-.18.81-.19.83-.04,1.04,1.44.24,3.79-1.2,3.45-3.12,6.83-5.7,9.76-2.61,2.9-5.8,5.4-9.35,7.15-5.26,2.66-11.13,3.85-16.89,3.96v-.09Z"/><path class="cls-7" d="m231.62,197.41c-1.28-2.19-2.79-4.25-4.36-6.26-1.64-1.95-3.33-3.87-5.23-5.58l-1.03-.94-1.1-.87c-.73-.58-1.45-1.17-2.21-1.7-2.6-2-5.42-3.74-8.38-5.18-2.96-1.45-6.04-2.7-9.27-3.5-.71-.21-1.43-.36-2.15-.49-.73-.13-1.45-.29-2.18-.39-1.47-.15-2.92-.37-4.39-.38-1.88-.1-3.76-.02-5.64.04-.94.06-1.88.14-2.82.16-.95.04-1.88.17-2.84.15-1.24-.21-1.09-.23-.19-.91.45-.36,1.13-.71,1.97-1.12.83-.44,1.86-.68,2.99-.85,4.01-.55,8.11-.46,12.13.16,4.03.6,7.97,1.79,11.68,3.49,4.42,2.03,8.88,4.48,12.76,7.58,4.26,3.41,8.03,7.4,11.13,11.86,1.95,2.72,3.6,5.63,5.05,8.63,2.18,4.55,3.78,9.39,4.79,14.29.82,3.8,1.38,7.61,1.48,11.5.02.43.03.85.05,1.28,0,.42-.02.85-.04,1.28-.05.8-.1,1.46-.17,2.01-.1.55-.22.99-.35,1.34-.27.71-.61,1.09-1.11,1.35-.23.12-.46.28-.68.34-.74.17-1.15-1.16-1.08-3.36-.04-3.29-.22-6.61-.6-9.95-.38-3.35-1.09-6.69-2.05-9.98-.68-2.45-1.61-4.83-2.61-7.18-1.08-2.31-2.2-4.62-3.59-6.78l.07-.05Z"/><path class="cls-7" d="m166.42,181.52c2.16-2.32,4.47-4.52,6.94-6.52,2.48-2.02,5.11-3.79,7.78-5.47l2.95-1.78c.99-.57,2-1.11,3.01-1.65,3.61-1.81,7.29-3.45,11.07-4.84,3.78-1.37,7.61-2.59,11.5-3.54,3.44-.9,6.94-1.63,10.41-2.24,1.11-.19,2.24-.33,3.36-.49l1.68-.24,1.7-.15c1.13-.08,2.26-.22,3.39-.23,1.14.02,2.27.02,3.4.08,1.41.19,1.22.13.04.47-.59.18-1.42.37-2.42.61-1,.23-2.16.5-3.44.65-2.26.25-4.49.69-6.73,1.07-2.22.49-4.45.91-6.64,1.5-2.21.51-4.38,1.19-6.58,1.8-2.16.71-4.35,1.37-6.49,2.16-5.18,1.78-10.3,4.33-15.14,7.11-5.33,3.07-10.31,6.63-14.64,10.98-2.7,2.63-5.18,5.5-7.47,8.51-1.73,2.29-3.38,4.66-5,7.07-1.64,2.4-3.2,4.86-5.09,7.18-.74.9-1.53,1.78-2.48,2.56-.94.78-2.09,1.45-3.39,1.75-.32.08-.65.14-.99.16l-.5.04-.55-.04-.55-.06c-.18-.04-.36-.11-.54-.16l-.53-.19c-.17-.08-.32-.18-.48-.28-1.28-.78-2.09-1.98-2.62-3.17-.48-1.06-.72-2.14-.84-3.28-.15-2.1.29-3.54.83-4.43.28-.44.56-.76.89-.95.31-.2.6-.3.94-.3.3,0,.61-.03.81.06.34.15.36.62.23,1.12-.08.58-.26,1.32-.34,2.41-.08.79-.01,1.64.16,2.43.16.8.43,1.57.81,2.16.37.6.82,1,1.2,1.13.11,0,.19.07.29.08.11,0,.21,0,.32.02.16-.02.32-.03.48-.05l.47-.11c1.22-.34,2.53-1.49,3.74-2.95,1.22-1.45,2.37-3.15,3.53-4.86,3.41-5.15,7.08-10.47,11.42-15.19l.07.05Z"/><path class="cls-7" d="m294.24,124.11c-7.25,1.01-14.39,3.46-20.65,7.33-2.28,1.43-4.39,3.1-6.44,4.83-7.17,6.16-12.59,14.48-15.07,23.73-1.07,4.1-1.57,8.39-1.36,12.59.07,2.7.54,5.38,1.04,8.02.5,2.66,1.29,5.23,1.88,7.92.05.89.02,1.32-.13,1.35-.15.04-.45-.29-1.1-.82-.67-.53-1.39-1.39-2.17-2.5-.39-.56-.73-1.19-1.02-1.9-.29-.7-.61-1.45-.8-2.27-2.94-11.55-.98-24.22,5.02-34.44,3.54-6.13,8.21-11.96,13.95-16.37,6.29-4.85,13.65-8.19,21.29-10.01,4.73-1.08,9.57-1.56,14.4-1.55,7.32.14,14.58,1.66,21.38,4.15,5.27,1.97,10.31,4.41,14.81,7.9.97.8,1.99,1.49,2.86,2.44,1.73,1.62,2.57,3.02,3.12,3.97.46,1.04.48,1.78.3,2.43-.08.3-.12.65-.25.85-.21.34-.68.18-1.35-.32-.34-.25-.69-.61-1.07-1.05-.42-.42-.92-.9-1.43-1.48-3.11-3.35-7.11-6.09-11.4-8.36-4.31-2.26-8.97-4.04-13.8-5.2-7.16-1.76-14.68-2.19-21.99-1.16l-.02-.09Z"/><path class="cls-7" d="m251,392.54c3.98,1.65,8.01,3.18,12.08,4.59,4.08,1.37,8.19,2.65,12.36,3.69,1.52.39,3.05.69,4.58,1.03l4.6.86c5.41.96,10.9,1.54,16.32,1.32.68-.04,1.36-.04,2.03-.1l2.01-.23,1.01-.12.97-.2c.65-.15,1.31-.23,1.95-.45,2.6-.67,5.1-1.77,7.57-2.93,4.33-2.19,8.43-4.97,12.17-8.06,2.4-1.99,4.63-4.18,6.87-6.34.56-.55,1.09-1.12,1.63-1.67.58-.52,1.11-1.1,1.66-1.66.55-.55,1.09-1.12,1.6-1.71.53-.58,1.1-1.13,1.58-1.76,1.27-1.5,1.14-1.31.54.3-.58,1.6-1.59,4.8-3.89,7.81-.5.67-1.06,1.29-1.6,1.93-.54.64-1.08,1.28-1.69,1.84-1.18,1.18-2.42,2.29-3.67,3.38-2.54,2.16-5.19,4.18-8,6-2.83,1.8-5.82,3.37-8.96,4.66l-2.4.89c-.82.26-1.65.49-2.48.73-1.68.41-3.42.74-5.1.87-8.1.78-16.4.04-24.34-1.52-8.72-1.77-17.19-4.45-25.44-7.6-5.08-1.94-10.08-4.08-15-6.36-7.45-3.47-14.74-7.38-21.74-11.59-5.45-3.26-10.74-6.59-15.72-10.57-1.07-.92-2.17-1.75-3.19-2.76-.46-.48-.87-.92-1.26-1.33-.37-.42-.68-.84-.97-1.2-.28-.37-.54-.7-.76-1.02-.2-.34-.38-.64-.52-.92-.59-1.11-.7-1.92-.62-2.61.03-.31.02-.69.11-.89.33-.67,1.64.88,4.24,3.32,3.89,3.64,8.39,7.01,13.11,10.18,4.74,3.16,9.74,6.13,14.85,8.93,7.6,4.15,15.47,7.92,23.52,11.2l-.02.09Z"/><path class="cls-7" d="m178.67,298.31c-.32,1.45-.39,3.06-.11,4.12.19.54.47,1.03.7,1.56.81,1.87,1.93,3.65,3.3,5.24.62.68,1.34,1.29,2.09,1.79,1,.6,1.97,1.17,3.06,1.49.33.11.32.36-.03.64-.18.14-.46.31-.79.39-.34.1-.75.14-1.15.05-1.46-.25-2.66-1.04-3.75-1.84-1.08-.84-2.05-1.8-2.81-2.92-.9-1.34-1.97-2.62-2.73-4.1-.21-.41-.39-.82-.58-1.25l-.26-.79c-.05-.25-.09-.5-.13-.75-.1-.98-.09-1.93.03-2.84.13-1.12.35-2.22.66-3.28.45-1.62,1.14-3.15,1.89-4.63.57-1.16,1.16-2.31,1.93-3.41.18-.23.34-.48.54-.7.36-.42.69-.61.98-.65.32-.02.59.1.91.33.14.1.3.2.42.31.2.19.3.45.32.75.02.3-.01.67-.21.92-1.07,1.67-2.03,3.37-2.85,5.24-.58,1.39-1.08,2.86-1.32,4.36h-.08Z"/><path class="cls-7" d="m177.42,309.58c.02.67.08,1.4.2,1.92l.08.41.15.41c.08.28.24.54.38.82.22.4.56.72.85,1.11.97,1.41,2.37,2.72,3.91,3.84.69.48,1.42.94,2.17,1.34.98.48,1.91,1.08,2.78,1.83.27.24.09.48-.33.67-.42.18-1.12.4-1.77.27-1.17-.2-2.22-.69-3.29-1.17-1.04-.53-2.02-1.25-2.93-2.06-1.06-.99-2.39-1.8-3.38-3.05-.26-.36-.53-.69-.74-1.09-.23-.38-.44-.78-.61-1.2-.37-.83-.55-1.77-.65-2.56-.13-1.01-.16-2-.17-2.99,0-1.5.17-2.99.38-4.48.17-1.15.25-2.34.62-3.54.09-.26.13-.54.27-.79.12-.24.24-.42.35-.57.12-.14.29-.21.43-.26.29-.09.6-.02.98.15.17.08.34.14.49.23.46.29.73.96.7,1.54-.3,1.61-.59,3.27-.74,5.1-.11,1.34-.18,2.76-.06,4.12h-.08Z"/><path class="cls-7" d="m185.58,327.44c2.68,1.56,5.63,2.9,8.68,4.08,1.11.43,2.26.76,3.39,1.19,3.96,1.5,8.02,2.98,11.91,4.93,1.72.87,3.47,1.74,5.07,2.87,1,.75,2.03,1.52,2.85,2.51.41.49.77,1.03,1.09,1.58l.44.86c.14.29.18.63.27.93.17.78.03.7-.56.29-.29-.21-.73-.46-1.19-.76-.44-.32-.97-.63-1.44-1.04-3.42-2.8-7.72-4.71-12.2-6.66-2.67-1.21-5.65-1.99-8.53-2.99-3.16-1.12-6.33-2.31-9.39-3.87-1.87-.97-3.7-2.09-5.37-3.46-1.27-1.03-2.44-2.22-3.36-3.62-.91-1.35-1.68-2.76-2.3-4.28-.97-2.34-1.45-4.93-1.32-7.44.03-.55.04-1.09.11-1.63.14-1.01.3-1.64.54-2.06.27-.41.58-.62.98-.75.19-.06.37-.15.54-.17.29-.04.5.16.66.56.16.39.3.98.24,1.68-.09,2.08-.14,4.09.23,5.93.37,1.85,1.13,3.61,2.21,5.34.21.31.41.65.62.94l.64.84.72.79.79.75c1.1.97,2.37,1.83,3.73,2.6l-.04.07Z"/><path class="cls-7" d="m157.64,350.52l-1.26,3.78-1.18,3.81c-.81,2.53-1.51,5.1-2.23,7.67-.54,1.87-.89,3.78-1.38,5.66-1.71,6.63-3.26,13.32-4.51,20.06-.62,2.98-.99,6.02-1.42,9.01l-.32,2.9c-.12.96-.27,1.92-.42,2.89l-.44,2.88-.25,1.44c-.09.48-.3.95-.43,1.42-.37,1.18-.53,1.01-.89-.06-.16-.53-.57-1.3-.69-2.21-.17-.91-.3-1.97-.27-3.1.06-4.02.67-7.99,1.23-11.95.59-3.97,1.38-7.91,2.38-11.83,1.15-4.69,2.05-9.62,3.25-14.41.62-2.64,1.4-5.24,2.09-7.86.76-2.6,1.53-5.2,2.34-7.79,1.04-3.17,2.07-6.35,3.21-9.48,1.66-4.77,3.59-9.47,5.47-14.12.74-1.81,1.47-3.6,2.2-5.38.7-1.8,1.57-3.52,2.37-5.28.37-.77.67-1.55,1.1-2.3,1.53-2.8,2.25-3.56,3.26-3.77.23-.05.48-.14.67-.13.64.02.49,1.42-.41,3.53-.34.78-.68,1.56-1.03,2.35-.32.8-.64,1.6-.97,2.41-.65,1.61-1.36,3.21-1.98,4.87-.66,1.64-1.39,3.25-2.05,4.91-.66,1.66-1.33,3.32-1.99,4.98-1.88,4.99-3.76,10.01-5.37,15.12l-.09-.02Z"/><path class="cls-7" d="m143.6,244.5l1.11,4.01,1.18,3.99c.77,2.66,1.61,5.31,2.45,7.96.6,1.94,1.34,3.83,1.96,5.75l3.35,10.18c1.16,3.38,2.3,6.77,3.52,10.13,1.08,2.99,2.23,5.96,3.37,8.9,1.47,3.77,3.12,7.49,4.22,11.41.29,1.24-.05,1.2-.91.4-.44-.4-.96-1-1.54-1.76-.59-.75-1.17-1.68-1.64-2.75-1.68-3.79-3.32-7.59-4.88-11.44-1.46-3.89-2.86-7.81-4.14-11.79-1.54-4.76-3.45-9.6-5.06-14.45-.9-2.66-1.73-5.35-2.59-8.03l-2.44-8.08c-.94-3.33-1.91-6.66-2.78-10.01-.7-2.53-1.32-5.08-1.93-7.64-.65-2.54-1.18-5.11-1.77-7.65-.86-3.96-1.83-7.82-2.5-11.8-.15-.87-.36-1.72-.47-2.61-.38-3.3-.28-4.38.45-5.15.17-.18.33-.4.5-.51.59-.36,1.24.92,1.68,3.26,1.34,6.93,2.94,14.18,4.67,21.46,1.34,5.4,2.69,10.82,4.27,16.19l-.07.03Z"/><path class="cls-7" d="m164.34,154.02c-3.14,1.88-6.12,4.01-8.98,6.3-2.85,2.3-5.57,4.76-8.03,7.46-1.78,1.98-3.44,4.07-4.95,6.24-2.73,3.78-4.95,7.94-6.24,12.34-.26,1.11-.59,2.22-.7,3.34-.19,1.17-.24,2.15-.08,3.16.17,1,.59,1.94,1.19,2.73.59.77,1.41,1.41,2.2,1.54.69.12,1.27-.06,1.76-.65.43-.52.87-1.66,1.33-2.63.94-1.97,1.99-3.88,3.17-5.7,3.03-4.69,7.33-8.56,12.17-11.12,1.52-.79,1.3-.69.18.22-1.12.91-2.97,2.86-4.97,5.16-3.53,4.11-6.21,8.72-8.25,13.69l-.19.47c-.07.17-.1.27-.23.53-.24.44-.39.88-.77,1.31-.58.88-1.72,1.61-2.88,1.86-1.22.27-2.32-.05-3.25-.44-.44-.23-.89-.46-1.25-.76-.39-.28-.72-.6-1.03-.94-1.24-1.34-1.98-2.98-2.28-4.68-.06-.42-.1-.85-.14-1.27-.01-.42.02-.85.03-1.27.07-.8.22-1.5.33-2.25,1.36-7.04,4.87-13.51,9.18-19.04,4.78-6.08,10.57-11.23,16.85-15.58,3.87-2.68,7.95-5.04,12.18-7.09,3.19-1.58,6.52-2.87,9.87-4.06,3.37-1.14,6.8-2.07,10.25-2.83,5.36-1.16,10.74-1.89,16.22-1.93,1.2.02,2.39-.02,3.6.05,2.25.18,3.72.39,4.73.74,1,.33,1.55.68,1.95,1.16.18.22.43.44.52.64.3.69-1.56.88-4.71.74-9.36-.47-19.21.6-28.66,3.53-3.5,1.09-6.94,2.4-10.31,3.9-3.36,1.51-6.61,3.28-9.75,5.21l-.05-.06Z"/><path class="cls-7" d="m265.64,418.94c-.46,1.46-.87,2.94-1.17,4.44-.12.55-.13,1.11-.23,1.66-.36,1.94-.66,3.92-.74,5.91-.05.88-.03,1.77.02,2.65.05.56.07,1.13.08,1.69.01.28.02.57,0,.85,0,.28-.12.59-.18.88-.11.37-.27.35-.63.09-.18-.13-.43-.31-.72-.54-.25-.23-.43-.53-.53-.86-.77-2.34-.79-4.8-.37-7.21.24-1.44.22-2.95.42-4.42.23-1.61.55-3.21.95-4.78.24-.97.51-1.93.79-2.89.42-1.45.96-2.87,1.4-4.29.37-1.1.6-2.24.96-3.35.07-.25.14-.49.25-.72.41-.86.77-1.03,1.49-.9.17.03.34.05.49.09.52.16.78.71.73,1.41-.11,1.03-.32,2.03-.6,3-.24.99-.6,1.94-.94,2.91-.5,1.44-1.01,2.89-1.41,4.37h-.07Z"/><path class="cls-7" d="m279.19,416.73c.1,1.02.2,2.05.3,3.07.04.37.15.73.17,1.1.1,1.31.02,2.65.05,3.96,0,.58.08,1.15.15,1.72.04.36.13.73.14,1.09,0,.37-.05.74-.15,1.12-.07.24-.46.24-.9.08-.44-.15-.99-.45-1.16-.85-.4-1.42-.6-2.85-.59-4.34,0-.89-.29-1.77-.42-2.66-.15-.98-.29-1.96-.46-2.94-.1-.6-.2-1.21-.34-1.8-.21-.9-.37-1.82-.67-2.69-.24-.67-.68-1.27-1.01-1.89-.07-.14-.17-.26-.23-.41-.05-.29.01-.51.17-.71.14-.19.33-.34.6-.5.12-.07.23-.15.34-.21.35-.19.84-.11,1.42.15.38.21.59.49.79.78.21.28.37.59.52.9.3.62.53,1.28.73,1.95.3.99.43,2.03.62,3.05l-.07.02Z"/><path class="cls-7" d="m393.73,365.35c.8,1.91,1.58,3.82,2.32,5.75.76,1.92,1.49,3.86,2.2,5.8.54,1.41,1.12,2.8,1.61,4.23.89,2.5,1.63,5.07,2.37,7.62l1.07,3.84,1,3.85c.58,2.28,1.21,4.56,1.75,6.83.33,1.46.72,2.91.98,4.39.25,1.48.45,2.97.64,4.46.11.93-.1.84-.54.13-.42-.72-1.18-2.03-1.74-3.65-1.97-5.76-3.61-11.55-5.32-17.4-.49-1.76-1.12-3.51-1.8-5.25-.64-1.76-1.36-3.5-2.02-5.25-1.46-3.83-3-7.65-4.64-11.42-1-2.33-2.01-4.65-3.07-6.96-1.61-3.48-3.24-6.99-5.02-10.36-1.38-2.63-2.96-5.08-4.44-7.62-.32-.56-.68-1.09-.99-1.66-1.04-2.18-1.16-2.99-.67-3.84.11-.19.19-.41.31-.55.39-.47,1.38.12,2.48,1.54,3.23,4.24,5.77,9.18,8.29,14.17,1.86,3.71,3.59,7.51,5.29,11.32l-.08.04Z"/><path class="cls-7" d="m194.16,134.57l-1.53-.31-1.55-.19-3.1-.38c-1.03-.13-2.08-.1-3.11-.16l-1.56-.06c-.52-.03-1.04-.04-1.56,0-2.07.1-4.16.11-6.22.45-2.08.19-4.1.67-6.14,1.09-1.47.38-2.91.86-4.35,1.31-1.39.59-2.83,1.08-4.2,1.72-4.89,2.17-9.35,5.15-13.18,8.94-3.8,3.81-7.12,8.14-9.77,12.87-2.37,4.19-4.18,8.73-5.46,13.34-1.71,5.93-2.44,12.08-3.04,18.25-.38,1.93-.39,1.68-.8.02-.2-.83-.45-2.01-.57-3.46-.13-1.44-.25-3.15-.04-4.97.08-.81.13-1.62.24-2.43l.35-2.42c.22-1.62.6-3.21.97-4.8.83-3.16,1.83-6.28,3.11-9.31,2.54-6.04,6.05-11.73,10.54-16.59,2.67-2.89,5.61-5.7,8.98-8.02l1.25-.88,1.31-.79c.88-.51,1.72-1.09,2.65-1.52l2.73-1.35c.94-.38,1.88-.75,2.82-1.13,1.02-.44,2.09-.74,3.15-1.06,1.06-.31,2.11-.68,3.21-.88l3.25-.7c1.09-.17,2.19-.3,3.29-.45l1.64-.21,1.66-.08,3.31-.16,3.31.1,1.65.05c.55.02,1.1.11,1.64.16l4.04.45,3.98.77c.66.13,1.33.24,1.99.4l1.95.54,3.9,1.07c7.82,2.43,15.13,6.17,22.12,10.2,5.37,3.26,10.44,6.76,15.27,10.68,1.06.86,2.11,1.7,3.15,2.61,3.83,3.4,4.75,4.79,4.88,6.2.03.32.11.7.07.94-.15.82-2.01-.22-4.81-2.59-4.16-3.5-8.51-6.97-13.09-10.22-4.59-3.26-9.38-6.24-14.51-8.72-7.54-3.78-15.53-6.77-23.81-8.25v-.08Z"/><path class="cls-7" d="m262.21,231.32c6.27,1.22,11.96,4.65,16.31,8.98,4.42,4.32,7.84,9.36,10.86,14.5,2.2,3.76,4.29,7.55,6.2,11.41,3.36,6.81,6.46,13.68,9.85,20.38,3.38,6.7,7.05,13.24,11.47,19.23,3.91,5.31,8.59,10.11,13.94,13.76,3.43,2.35,7.16,4.26,11.08,5.65.98.34,1.96.68,2.97.96.99.34,2,.58,3.01.86,1.01.26,2.04.47,3.06.69,1.03.18,2.05.53,3.09.69,2.59.55,2.27.64-.04,1.04-2.28.46-6.72.98-11.72-.41-4.37-1.29-8.6-3.18-12.44-5.67-3.82-2.52-7.28-5.53-10.35-8.85-6.16-6.64-10.87-14.33-14.94-22.21-4.88-9.43-9.52-19.36-14.46-28.83-2.72-5.19-5.62-10.28-9.1-14.9-3.46-4.61-7.61-8.71-12.62-11.31-1.55-.78-3.16-1.41-4.82-1.91-1.67-.45-3.39-.78-5.1-.9-3.44-.26-6.97.32-10.38,1.23-2.59.69-5.14,1.62-7.63,2.71-2.5,1.06-4.93,2.29-7.31,3.63-4.77,2.65-9.3,5.71-13.61,9.02-6.68,5.16-12.68,10.93-18.21,17.14-1.21,1.37-2.35,2.76-3.52,4.17-2.22,2.59-3.58,4.36-4.66,5.52-1.05,1.18-1.8,1.78-2.53,2.18-.34.18-.74.46-1,.53-.45.12-.4-.48.06-1.71.46-1.22,1.4-3.03,2.85-5.17,2.13-3.2,4.58-6.21,7.18-9.13,2.61-2.92,5.38-5.74,8.29-8.45,5.83-5.41,12.2-10.43,19.08-14.79,2.57-1.6,5.2-3.11,7.92-4.49,2.73-1.36,5.55-2.59,8.46-3.62,2.91-1.04,5.96-1.83,9.1-2.26,1.57-.21,3.18-.34,4.8-.3.81-.03,1.63.08,2.44.15.83.05,1.6.22,2.4.36v.09Z"/><path class="cls-7" d="m340.96,202.37c.88-3.6,1.52-7.28,1.8-10.95.29-3.67.27-7.38-.39-10.87-.33-1.73-.82-3.42-1.58-4.81-.36-.72-.83-1.28-1.3-1.79l-.9-.72c-.3-.25-.68-.41-1.01-.62-1.41-.76-3.05-1.24-4.78-1.5-1.74-.22-3.53-.31-5.35-.2-5.33.29-10.66,1.7-15.86,3.35-4.6,1.48-9.12,3.27-13.53,5.3-2.2,1.02-4.37,2.1-6.49,3.26-2.1,1.16-4.21,2.39-6.03,3.77-.45.34-.88.71-1.18,1.02-.13.14-.26.28-.32.41-.08.15-.16.32-.22.55-.27.86-.31,2.03-.31,3.17.04,2.33.35,4.76.54,7.26.09,1.28.18,2.48.09,3.96-.08.94-.25,1.9-.67,2.68-.41.77-1.1,1.41-1.97,1.6-.22.02-.43.06-.65.07l-.66-.04c-.42-.13-.88-.18-1.26-.43-.4-.22-.8-.42-1.14-.77l-.53-.46c-.16-.15-.26-.29-.39-.44-.53-.61-.85-1.15-1.21-1.73-.34-.57-.65-1.15-.93-1.72-1.01-2.05-1.79-4.13-2.55-6.21-.78-2.06-1.4-4.22-2.36-5.86-.97-1.72-2.44-3.07-4.14-3.78-.86-.31-1.75-.5-2.65-.46-.89.08-1.78.26-2.59.69-1.05.53-1.98,1.33-2.79,2.26-.75.92-1.29,2-1.59,3.16-.62,2.32-.34,4.94.64,7.23.49,1.15,1.16,2.22,1.98,3.12.2.23.42.43.63.66.22.22.5.46.75.69.51.45,1.01.89,1.53,1.29,2.04,1.62,4.35,2.4,7.05,2.33,1.67-.05,2.43-.21,2.41-.06-.02.1-.77.5-2.2,1.07-.72.27-1.63.55-2.76.69-.28.05-.58.03-.89.09-.31,0-.62-.04-.95-.07-.65-.08-1.34-.23-2.03-.46-1.38-.46-2.75-1.23-4.01-2.09-.31-.22-.62-.43-.94-.65-.32-.23-.69-.57-1.05-.84-.33-.33-.64-.67-.96-1.02-.28-.37-.58-.74-.84-1.14-1.85-2.81-2.78-6.15-2.53-9.61.12-1.72.64-3.47,1.53-5.03.22-.39.45-.78.73-1.13.27-.36.54-.74.84-1.03.3-.31.59-.63.9-.93l1.03-.84c1.43-1.05,3.18-1.83,5.06-2.06,1.87-.24,3.81.09,5.48.86,1.67.77,3.09,1.93,4.19,3.26,1.08,1.35,1.91,2.83,2.52,4.36,1.05,2.76,1.94,5.38,3.03,7.89.54,1.24,1.11,2.46,1.76,3.5l.49.74.38.48c.05.06.1.13.18.16.18.11.36-.07.38-.27,0-.04.01,0,.02-.12l.02-.38c0-.3.02-.62,0-.95,0-.65-.04-1.34-.09-2.03-.17-2.79-.56-5.66-.41-8.83.07-.96.17-1.95.54-3.06.1-.28.22-.57.36-.85.17-.29.34-.61.55-.83.42-.53.8-.84,1.18-1.19,1.51-1.25,3.01-2.19,4.55-3.12,3.07-1.84,6.24-3.47,9.47-4.99,6.46-3.01,13.18-5.61,20.14-7.32,3.82-.94,7.75-1.59,11.79-1.7,2.02,0,4.06.05,6.11.5,2.04.43,4.08,1.15,5.91,2.39l1.3,1.02c.39.41.84.82,1.15,1.28.33.46.67.91.9,1.39l.39.72.32.73c.83,1.95,1.28,3.96,1.58,5.95.57,3.99.49,7.97.12,11.9-1,9.65-3.81,19.03-8.22,27.63-1.69,3.25-3.65,6.37-5.9,9.28-2.24,2.92-4.86,5.56-7.63,7.95-2.78,2.39-5.81,4.53-9.1,6.21-3.29,1.68-6.84,2.89-10.51,3.43-5.7.83-11.54.11-16.83-1.88-1.31-.46-2.69-1.04-3.94-1.77-.62-.37-1.26-.72-1.84-1.16-.58-.42-1.19-.82-1.73-1.29-2.23-1.81-4.2-3.89-5.93-6.15-1.5-2.01-2.87-4.05-4.02-6.31-.52-1.05-.97-2.02-1.36-2.93-.35-.92-.69-1.75-.93-2.53-.23-.78-.44-1.49-.61-2.14-.13-.66-.25-1.25-.33-1.79-.27-2.16-.16-3.45.21-4.48.16-.47.31-1.07.48-1.33.7-.9,1.17,2.74,3.43,8.64,1.7,4.37,4.16,8.52,7.25,12.13,1.56,1.78,3.28,3.42,5.15,4.79.93.69,1.91,1.28,2.91,1.8.52.22.98.49,1.54.69l1.69.62c4.52,1.56,9.33,2.16,14.01,1.48,4.68-.67,9.19-2.56,13.24-5.28,3.01-2,5.82-4.44,8.38-7.07,2.51-2.64,4.76-5.57,6.71-8.72,3.87-6.32,6.7-13.36,8.43-20.64h.1Z"/><path class="cls-7" d="m362.93,146.85c4.73,4.41,8.28,9.96,9.96,16.21.59,2.26,1.03,4.56,1.12,6.88.25,8.19-2.42,16.23-7.19,22.63-2.14,2.82-4.63,5.43-7.53,7.45-1.85,1.29-3.83,2.45-5.96,3.24-2.13.8-4.4,1.15-6.63,1.17-1.42-.16-1.19-.04-.12-.6.26-.16.59-.29.96-.48.37-.21.77-.43,1.2-.68.44-.23.89-.54,1.37-.81.49-.25,1-.52,1.54-.79,7.7-3.4,13.65-9.95,16.87-17.88,1.97-4.75,2.38-10.26,1.7-15.39-.39-2.83-1.2-5.6-2.41-8.18-1.25-2.59-2.86-5.02-4.76-7.21-1.18-1.33-2.47-2.57-3.85-3.7-1.39-1.11-2.88-2.11-4.44-2.97-2.37-1.29-4.92-2.28-7.56-2.87-2.64-.57-5.37-.75-8.04-.49-4.16.45-8.03,2.01-11.46,4.21-.39.22-.74.51-1.1.76-.36.27-.74.49-1.1.77-1.38.96-2.26,1.64-3.01,1.98-.71.39-1.24.5-1.8.46-.26-.02-.55,0-.75-.05-.34-.1-.34-.49-.05-1.13.29-.65.87-1.56,1.81-2.55.69-.74,1.47-1.42,2.24-2.11.8-.66,1.65-1.28,2.54-1.84,1.78-1.14,3.7-2.14,5.76-2.87,4.11-1.47,8.67-1.95,13.09-1.4,6.59.77,12.8,3.79,17.66,8.15l-.06.08Z"/><path class="cls-7" d="m206.15,289.38c-.28-.44-.59-.87-.89-1.3-.33-.41-.64-.84-.98-1.24-.35-.39-.7-.82-1.04-1.18-.33-.35-.71-.68-1.09-1-.77-.63-1.63-1.18-2.49-1.59-.21-.1-.43-.19-.64-.26l-.24-.09c-.1-.03-.22-.05-.34-.02-.19.05-.19.28-.16.45,0,.06,0,.06.03.17.04.17.1.36.15.54.11.37.24.74.38,1.12.74,2.06,1.77,4.12,2.51,6.39.32,1.01.63,2.05.77,3.27l.03.48c.01.15.02.32,0,.55-.01.43-.08.85-.21,1.26-.26.8-.77,1.51-1.49,1.93-.71.44-1.6.53-2.36.53-.7-.02-1.26-.12-1.79-.26-1.09-.22-2.18-.6-3.2-1.12-2.07-1.04-3.74-2.84-4.79-4.77-.5-.97-.95-1.95-1.3-2.91l-.53-1.4-.26-.66-.21-.48c-.18-.37-.43-.77-.85-.91-.45-.04-.77.37-.99.72-.05.09-.11.19-.15.28-.06.12-.15.33-.22.5-.14.36-.27.74-.37,1.13-.19.77-.37,1.63-.44,2.38-.23,2,.35,3.89,1.42,5.59.52.86,1.16,1.69,1.89,2.47.37.39.74.78,1.15,1.15.38.39.73.85,1.12,1.26.93,1.1.78,1.04-.53.81-1.34-.15-3.82-.73-5.93-2.99-1.9-1.93-2.96-4.98-2.87-7.83.05-1.47.28-2.7.68-4,.2-.65.45-1.31.77-1.97.47-.96,1.16-1.96,1.97-2.58.81-.63,1.77-.99,2.77-.88.5.03.91.33,1.36.53.22.11.4.3.6.45.19.17.41.29.57.51.31.45.65.85.93,1.32.13.23.26.54.35.73.07.16.15.32.2.46.23.6.44,1.16.63,1.71.38,1.07.75,2.06,1.2,2.96.46.88,1.01,1.67,1.66,2.35.81.78,1.82,1.38,2.97,1.79.58.16,1.23.33,1.79.43l.4.05h.23c.13-.01.23-.04.34-.09.21-.11.29-.36.29-.59v-.09s-.01-.2-.01-.2c0-.13-.02-.26-.04-.41-.03-.29-.11-.6-.18-.9-.32-1.25-.8-2.56-1.3-3.87-.54-1.43-1.13-2.86-1.65-4.4-.13-.38-.25-.78-.37-1.18-.06-.2-.1-.39-.19-.74-.07-.31-.09-.61-.14-.92-.06-.61-.02-1.2.17-1.72.06-.13.1-.26.17-.38l.24-.35c.22-.18.41-.4.65-.53,1.04-.52,2.37-.4,3.56,0,.9.31,1.66.71,2.41,1.16,1.46.9,2.81,2.07,3.89,3.35,2.69,3,4.61,6.67,5.86,10.4.98,2.83,1.67,5.69,2.5,8.48.79,2.81,1.76,5.49,2.99,8.08,1.92,4,4.48,7.58,7.61,10.45.71.6,1.41,1.19,2.18,1.72,2.83,1.96,3.82,2.4,4.33,3.3.12.2.3.42.36.59.1.29-.23.41-.96.37-.73-.02-1.84-.26-3.17-.83-3.89-1.83-7.18-4.96-9.64-8.56-2.49-3.6-4.39-7.59-5.78-11.75-2.06-6.12-3.09-12.3-6.33-17.14l.06-.05Z"/><path class="cls-7" d="m229.94,335.05c-2.04,4-4.57,7.75-7.57,11.09-1.12,1.2-2.2,2.44-3.47,3.5-2.21,1.88-4.64,3.52-7.26,4.78-2.63,1.24-5.42,2.11-8.3,2.48-1.36.18-2.84.04-4.14-.56-1.3-.61-2.32-1.65-3.03-2.77-1.83-2.93-2.19-6.37-1.69-9.53.16-.99.36-.82.61.01.22.84.74,2.32,1.16,3.94.34,1.45.87,2.84,1.64,3.95.77,1.12,1.76,1.84,2.8,2.18.55.12,1.11.22,1.73.15.57-.01,1.38-.24,2.1-.37.73-.17,1.45-.38,2.18-.59.7-.27,1.44-.46,2.13-.78,3.4-1.34,6.46-3.8,9.1-6.5,2.94-2.96,5.45-6.39,7.54-10.06,1.27-2.27,2.39-4.64,3.28-7.09,1.34-3.69,2.39-7.62,2.28-11.43-.02-.73-.11-1.46-.27-2.12l-.12-.5-.17-.46c-.11-.33-.25-.55-.39-.77-.3-.41-.6-.54-1.04-.62-.45-.07-1.06-.02-1.7.09-.58.12-1.16.3-1.79.47-2.34.64-3.31.37-4.04-.25-.17-.14-.38-.27-.49-.41-.2-.24-.08-.54.29-.95.37-.4.96-.93,1.83-1.35.63-.36,1.32-.59,2.04-.83.74-.22,1.48-.45,2.38-.56.88-.1,1.92-.15,3.13.27,1.22.4,2.31,1.48,2.84,2.49.12.25.24.5.36.75.09.24.15.45.23.68.16.46.25.89.34,1.32.1.44.14.86.19,1.29.06.43.07.84.08,1.26.04,1.65-.08,3.25-.34,4.8-.74,4.62-2.35,8.92-4.33,13l-.08-.03Z"/><path class="cls-6" d="m239.06,154.73c.46.09.83.23,1.08.43.35.28-.1.08-1.08-.43Z"/><path class="cls-7" d="m238.28,154.65c-6.52-4.64-15.4-10.29-25.22-14.72,11.19,3.22,28.58,13.48,25.22,14.72Z"/><path class="cls-7" d="m185.67,199.67c1.25,1.11,2.77,1.97,4.49,1.95,1.55-.02,2.91-.71,4.08-1.68,2.36-1.95,3.78-5.14,4.57-8.03.44-1.6.73-3.3.68-4.97-.03-.91-.78-1.79-1.75-1.75s-1.78.77-1.75,1.75c.02.57,0,1.15-.07,1.72,0,.08-.02.16-.03.24,0-.05.06-.41.01-.1-.02.15-.05.29-.07.44-.06.32-.12.64-.2.96-.16.68-.35,1.35-.58,2-.1.3-.22.6-.33.9-.16.41.07-.14-.06.15-.08.19-.17.37-.25.55-.29.6-.6,1.18-.96,1.73-.17.27-.36.52-.54.78.2-.27.05-.07-.07.08-.1.12-.21.24-.32.36-.2.21-.4.41-.62.6-.05.05-.4.31-.17.14.22-.16-.14.09-.22.14-.06.04-.65.41-.69.37,0,0,.43-.15,0-.02-.14.05-.29.07-.43.11-.22.06.41-.01-.03,0-.13,0-.27,0-.4,0-.47,0,.28.08-.09,0-.14-.03-.28-.06-.41-.11-.07-.02-.14-.06-.21-.07-.19-.04.37.19.05.02-.14-.08-.29-.14-.42-.23-.15-.09-.29-.19-.43-.28-.26-.17-.02-.01.03.03-.11-.09-.22-.18-.33-.28-.71-.63-1.78-.7-2.47,0-.64.64-.71,1.84,0,2.47h0Z"/><path class="cls-7" d="m207.22,214.63c.1.27.18.54.25.81.01.05.1.31.07.36-.03-.26-.04-.3-.01-.1,0,.08.02.16.02.25.02.25.02.5,0,.75,0,.15-.02.3-.03.44-.03.47.06-.25-.01.11-.11.56-.24,1.1-.44,1.64-.03.08-.06.16-.1.25.08-.19.1-.23.05-.11-.07.14-.13.28-.2.42-.13.26-.27.51-.42.76s-.32.48-.49.71c.25-.34,0-.01-.06.06-.11.13-.23.27-.35.39-.18.19-.37.37-.56.55-.07.06-.53.41-.15.14-.1.08-.21.15-.31.22-.25.17-.5.32-.77.45-.09.05-.46.2-.04.03-.12.05-.23.09-.35.13-.28.1-.56.16-.85.22-.41.09.39-.02-.04,0-.17,0-.34.02-.51.02-.92.01-1.79.8-1.75,1.75s.77,1.76,1.75,1.75c3.13-.04,5.8-1.99,7.44-4.56,1.53-2.4,2.27-5.65,1.24-8.38-.32-.85-1.2-1.53-2.15-1.22-.84.27-1.57,1.23-1.22,2.15h0Z"/><path class="cls-7" d="m309.58,189.65c.4,1.53,1.24,2.99,2.18,4.26,1.18,1.6,2.56,3.05,4.26,4.12s3.7,1.62,5.71,1.29c2.14-.34,4.17-1.78,4.91-3.85.33-.93.34-1.98.24-2.96-.07-.63-.16-1.26-.26-1.89-.04-.27-.08-.53-.12-.8,0-.04-.04-.34-.01-.08-.02-.19-.04-.37-.06-.56-.1-.94-.74-1.75-1.75-1.75-.87,0-1.85.8-1.75,1.75s.25,1.87.39,2.8c.02.11.03.23.05.34,0-.03-.03-.26,0-.05.02.19.04.37.06.56.03.38.03.76,0,1.14-.01.21.02-.09.02-.11-.02.09-.03.19-.05.28-.02.07-.16.52-.08.32s-.1.17-.13.23c-.03.04-.2.29-.07.12.12-.16-.09.09-.11.11-.05.05-.41.36-.22.21-.18.13-.37.24-.56.35-.08.04-.6.27-.32.17-.2.08-.41.14-.62.19-.08.02-.16.03-.23.05-.27.07.27-.02,0,0-.15.01-.31.02-.46.03-.18,0-.36-.01-.53-.02-.08,0-.33-.07.01,0-.1-.02-.2-.04-.3-.06-.35-.08-.7-.19-1.03-.33.29.12-.15-.08-.23-.12-.17-.09-.33-.18-.49-.27-.33-.2-.65-.41-.95-.64.23.18-.17-.15-.23-.2-.17-.15-.34-.3-.5-.45-.28-.27-.56-.55-.82-.84-.11-.12-.22-.25-.33-.38-.07-.08-.14-.17-.21-.25-.02-.02-.22-.28-.12-.14.12.16-.08-.11-.11-.15-.06-.09-.13-.17-.19-.26-.12-.17-.24-.34-.35-.52-.21-.33-.42-.67-.6-1.02-.09-.16-.17-.33-.25-.49-.04-.09-.24-.54-.15-.32s-.07-.2-.1-.29c-.05-.15-.1-.3-.14-.46-.57-2.18-3.95-1.25-3.37.93h0Z"/><path class="cls-7" d="m304.67,214.08c-.24,5.86,5.53,10.59,11.22,9.45.9-.18,1.5-1.3,1.22-2.15-.31-.95-1.19-1.42-2.15-1.22-.18.04-.56,0-.05.02-.12,0-.25.03-.37.03-.25.02-.5.02-.74,0-.12,0-.25-.02-.37-.03-.32-.02.43.08-.07-.01-.25-.04-.5-.1-.74-.17s-.49-.16-.73-.24c-.37-.13.36.17.01,0-.13-.06-.27-.13-.4-.19-.23-.12-.45-.25-.67-.39-.09-.06-.19-.12-.28-.19-.06-.04-.12-.09-.18-.13.21.16.24.18.09.07-.4-.34-.77-.71-1.12-1.1-.12-.15-.1-.12.06.09-.05-.06-.09-.12-.13-.18-.07-.09-.13-.19-.19-.28-.14-.22-.28-.45-.4-.69-.03-.07-.07-.14-.1-.21-.08-.17-.06-.14.04.1-.03-.01-.11-.29-.12-.32-.09-.26-.17-.52-.23-.79-.01-.06-.13-.43-.09-.47.03.27.04.3.02.11v-.12c-.04-.33-.04-.66-.03-.99.04-.92-.83-1.79-1.75-1.75-.98.04-1.71.77-1.75,1.75h0Z"/><path class="cls-7" d="m159.96,242.95c.66,2.83,1.34,5.66,2.05,8.47l.84,3.07c.92,3.62,1.8,7.26,2.8,10.86.44,1.6.94,3.19,1.43,4.76.59,2.03,1.27,4.04,1.68,6.13.13.65,0,.6-.34.13-.32-.48-1.01-1.34-1.45-2.48l-1.17-3.03c-.37-1.02-.68-2.06-1.01-3.09-.65-2.07-1.25-4.16-1.79-6.27-.65-2.53-1.52-5.1-2.22-7.68-.77-2.83-1.51-5.67-2.23-8.52l-1.31-5.26c-.65-2.66-1.3-5.33-1.94-7.96-.52-2.05-1.13-4.03-1.68-6.04-.12-.44-.26-.87-.36-1.33-.37-1.68-.35-2.24.04-2.71.09-.11.17-.24.27-.31.32-.24.78.37,1.21,1.56,1.27,3.53,2.19,7.33,3.18,11.14.68,2.84,1.37,5.7,2.06,8.55l-.05.02Z"/><path class="cls-7" d="m175.53,247.98l1.3,7.18c.16.87.38,1.73.54,2.6.55,3.08,1.09,6.16,1.64,9.23.27,1.36.54,2.72.81,4.07.35,1.73.79,3.45.91,5.23.05.55-.03.49-.27.07-.16-.28-.33-.59-.5-.88-.21-.36-.41-.8-.55-1.29-.51-1.73-1.02-3.47-1.48-5.21-.44-1.75-.81-3.52-1.14-5.31-.4-2.14-1.01-4.32-1.48-6.49l-1.53-7.17-.94-4.42c-.49-2.22-.94-4.47-1.44-6.67-.39-1.71-.94-3.35-1.35-5.04-.09-.37-.21-.73-.26-1.11-.21-1.42-.15-1.9.18-2.3.07-.09.13-.2.2-.26.21-.19.65.3,1.08,1.27.7,1.43,1.18,2.96,1.62,4.52.44,1.56.85,3.15,1.24,4.75.55,2.38.96,4.81,1.45,7.22l-.05.02Z"/><path class="cls-7" d="m187.2,254.08c.11,1.18.23,2.36.37,3.54.07.43.13.85.2,1.28.18,1.52.38,3.03.63,4.54.1.67.27,1.33.39,1.99.15.85.29,1.71.38,2.57.03.27-.03.25-.18.05-.14-.2-.39-.57-.59-1.04-.75-1.64-1.07-3.38-1.37-5.14-.16-1.06-.46-2.12-.68-3.19-.24-1.17-.45-2.36-.65-3.54l-.35-2.19c-.18-1.1-.32-2.22-.53-3.31-.16-.85-.43-1.66-.65-2.49-.05-.18-.12-.36-.15-.54-.15-.69-.05-.93.44-1.15.11-.05.22-.11.34-.15.39-.12.76.11.94.6.54,1.45.8,3.02,1.03,4.61.16,1.18.32,2.37.47,3.55h-.04Z"/><path class="cls-7" d="m174.22,251.27l-6.38-2.46c-.78-.3-1.56-.56-2.33-.87-2.7-1.13-5.38-2.32-8.06-3.48-1.19-.51-2.4-1-3.59-1.48-1.54-.6-3.07-1.25-4.53-2.02-.46-.24-.32-.4.17-.43.49-.03,1.33.02,2.24.31,3.19,1.1,6.32,2.31,9.45,3.63,1.86.81,3.89,1.4,5.83,2.14l6.43,2.36c1.32.47,2.65.95,3.98,1.39,2.02.68,4.04,1.37,6.07,1.96,1.58.45,3.17.76,4.74,1.14.35.09.69.15,1.04.24,1.29.35,1.66.6,1.79,1.2.03.14.08.28.08.41.01.43-.61.62-1.59.48-2.92-.39-5.88-1.25-8.81-2.21-2.18-.71-4.35-1.49-6.52-2.26v-.05Z"/><path class="cls-7" d="m176.67,266.49l-6.31-2.03c-.77-.24-1.55-.42-2.32-.67-2.69-.89-5.39-1.78-8.08-2.67-1.19-.4-2.41-.75-3.6-1.09-1.54-.44-3.1-.84-4.59-1.45-.46-.19-.32-.46.18-.65.49-.19,1.34-.33,2.24-.14,3.19.71,6.39,1.37,9.5,2.49,1.86.65,3.88,1.05,5.82,1.57l6.41,1.76,3.94,1.08c1.99.54,3.99,1.11,5.99,1.56,1.55.36,3.13.49,4.67.79.34.07.68.12,1.01.21,1.25.36,1.6.65,1.74,1.29.03.15.08.29.09.43.02.45-.58.71-1.56.72-1.46.03-2.92-.09-4.36-.39-1.45-.27-2.9-.61-4.35-.97-2.15-.55-4.31-1.12-6.44-1.76v-.06Z"/><path class="cls-7" d="m244.88,202.37l-1.77-9.78c-.21-1.19-.51-2.36-.73-3.55-.75-4.2-1.6-8.37-2.4-12.57-.35-1.86-.79-3.71-1.21-5.54-.55-2.35-1.2-4.68-1.48-7.1-.07-.76.01-.68.37-.11.37.56,1.04,1.6,1.49,2.92.73,2.36,1.45,4.73,2.1,7.11.66,2.38,1.27,4.79,1.66,7.25.52,2.93,1.31,5.93,1.93,8.91.69,3.28,1.3,6.57,1.89,9.87l1.08,6.09c.54,3.07,1.07,6.16,1.6,9.21.42,2.37.95,4.67,1.4,7.01.1.51.22,1.01.28,1.54.25,1.94.2,2.58-.17,3.07-.08.11-.16.25-.25.32-.29.24-.71-.5-1.12-1.89-.65-2.04-1.1-4.18-1.59-6.33-.47-2.16-.96-4.35-1.35-6.56-.6-3.28-1.21-6.57-1.81-9.86l.06-.02Z"/><path class="cls-7" d="m257.49,218.59c0-.78-.02-1.55-.07-2.33-.01-.28-.1-.55-.1-.84-.02-1-.05-2.01-.15-3-.04-.44-.14-.87-.24-1.3-.12-.55-.23-1.1-.2-1.69.01-.18.23-.21.51-.13.27.09.64.28.79.58.13.27.26.54.36.81.09.28.16.56.23.84.13.57.23,1.14.27,1.73.04.71.3,1.4.43,2.1.13.78.23,1.56.32,2.34.06.48.11.96.17,1.44.09.73.14,1.46.29,2.18.12.55.37,1.08.54,1.62.04.12.1.23.12.36.06.46-.1.62-.73.8-.14.04-.29.08-.43.11-.49.1-.93-.04-1.14-.35-.32-.46-.5-.94-.65-1.44-.13-.5-.17-1.01-.22-1.53-.07-.77-.08-1.55-.14-2.32h.06Z"/><path class="cls-7" d="m237.55,180.09l-3.1-2.16c-.38-.26-.78-.48-1.14-.76-1.28-.99-2.56-1.98-3.83-2.97-.58-.43-1.15-.85-1.72-1.27l-1.1-.81c-.35-.29-.68-.62-1-.95-.2-.21-.08-.31.24-.34.31-.02.85-.02,1.34.18.83.42,1.64.86,2.44,1.32.78.49,1.51,1.06,2.24,1.63.87.7,1.9,1.23,2.86,1.84l3.13,2.06c.65.42,1.29.83,1.95,1.23,1,.6,1.99,1.23,3.02,1.75.81.39,1.64.7,2.47,1.04.18.08.37.13.54.22.66.32.8.56.69,1.12-.03.13-.04.26-.08.38-.13.41-.56.58-1.1.46-1.62-.36-3.19-1.04-4.65-1.92-1.1-.63-2.17-1.32-3.24-2l.03-.05Z"/><path class="cls-7" d="m255.28,214.68c-1.15-.95-2.29-1.9-3.42-2.87-.42-.35-.85-.67-1.26-1.03-1.44-1.26-2.81-2.59-4.2-3.9-.62-.58-1.25-1.15-1.88-1.7-.82-.7-1.58-1.47-2.28-2.3-.22-.26-.11-.31.2-.23.31.09.84.28,1.35.63,1.76,1.32,3.39,2.76,5.03,4.24.97.89,2.09,1.69,3.13,2.54,1.15.93,2.31,1.86,3.49,2.76.72.56,1.45,1.11,2.18,1.65,1.12.82,2.23,1.64,3.39,2.38.9.58,1.86,1.02,2.78,1.54.2.11.41.21.61.33.74.44.91.7.82,1.2-.02.11-.03.23-.07.34-.12.35-.58.42-1.19.18-1.81-.7-3.49-1.81-5.13-2.99-1.22-.87-2.41-1.8-3.59-2.72l.02-.03Z"/><path class="cls-7" d="m243.29,194.86l-2.35-1.72c-.29-.2-.6-.37-.88-.58-1.01-.73-2.03-1.46-3.03-2.19-.45-.33-.91-.63-1.37-.92-.6-.37-1.2-.73-1.74-1.19-.17-.14-.06-.26.18-.31.25-.05.65-.05,1.02.12,1.3.63,2.62,1.22,3.76,2.12.7.52,1.51.92,2.27,1.38l2.47,1.56,1.51.97c.76.49,1.52,1.01,2.3,1.45.61.34,1.26.59,1.88.9.14.07.28.12.41.2.49.28.59.48.47.91-.03.1-.05.2-.08.29-.12.31-.47.43-.88.31-1.24-.34-2.39-.96-3.5-1.65-.83-.51-1.66-1.03-2.45-1.6l.02-.04Z"/><path class="cls-7" d="m320.83,253.25c-.63-.3-1.26-.59-1.89-.89-.23-.11-.48-.17-.7-.28-.79-.42-1.58-.85-2.37-1.27-.36-.17-.71-.34-1.07-.51-.46-.21-.91-.42-1.33-.72-.13-.1-.06-.21.13-.31.18-.09.49-.19.77-.13.5.11,1.01.21,1.49.37.47.18.94.39,1.39.63.54.3,1.17.42,1.75.66.64.26,1.28.51,1.92.77.4.15.79.31,1.19.46.6.22,1.21.45,1.82.62.48.13.98.15,1.47.21.11.01.22.01.32.03.39.08.48.23.44.7,0,.11-.01.22-.03.32-.06.36-.3.59-.62.61-.94.05-1.86-.16-2.75-.46-.66-.23-1.31-.51-1.96-.77v-.04Z"/><path class="cls-7" d="m321.96,252.19c-.07-.5-.15-.99-.22-1.49-.03-.18-.1-.35-.13-.53-.11-.63-.1-1.3-.21-1.93-.04-.28-.11-.56-.17-.83-.09-.35-.18-.7-.21-1.07,0-.11.07-.12.19-.06.11.06.29.19.39.38.35.66.68,1.33.86,2.05.11.43.33.85.44,1.29.12.48.25.97.38,1.45.08.3.15.6.23.89.12.45.23.91.39,1.34.12.34.34.64.51.96.04.07.09.13.12.21.11.27.03.39-.38.58l-.28.13c-.32.13-.63.09-.79-.08-.46-.52-.71-1.15-.86-1.8-.12-.49-.2-.99-.29-1.48h.04Z"/><polygon class="cls-7" points="66.09 300.19 69.33 282.41 79.95 295.46 66.09 300.19"/><path class="cls-4" d="m69.33,282.41l16.62-2.8s-.13,10.44-6.01,14.15-10.61-11.35-10.61-11.35Z"/><path class="cls-7" d="m71.26,282.6l-.35.02c-.12,0-.26.02-.25,0l-.19-.03c-.14-.01-.2-.06-.3-.05-.02.05-.15.09-.07.22.02.06.04.11.06.18l-.14.72c-.12.7-.14,1.42-.32,2.12-.59,2.46-1.19,4.93-1.68,7.41-.21,1.1-.4,2.21-.54,3.31-.1.71-.17,1.42-.28,2.12-.06.35-.18.7-.29,1.05-.12.35-.2.7-.42,1.03-.46.4-.3.36-.68-.05-.37-.41-.88-1.16-1.06-2-.09-1.47-.09-2.94-.05-4.41.05-1.47.32-2.91.63-4.36.39-1.73.35-3.58.54-5.37l.49-3.52c.04-.41.16-.75.24-1.11l.14-.53.07-.26c.03-.08,0-.21.14-.19.78-.11,1.56-.24,2.27-.3l.67-.07.33-.03h.24s.94-.03.94-.03l1.87-.02c1.88-.03,3.74.08,5.58-.01,1.43-.07,2.83-.36,4.25-.53.31-.04.62-.11.93-.13,1.17-.05,1.53.18,1.76,1.32.05.24.12.47.16.69.11.68-.39,1.58-1.23,1.75-2.5.68-5.11.69-7.71.82-1.93.12-3.86.18-5.72.37v-.1Z"/><path class="cls-7" d="m66.31,274.91c1.12,1.7,2.27,3.39,3.46,5.05.43.61.95,1.15,1.38,1.76,1.5,2.18,3.01,4.35,4.51,6.53.67.96,1.43,1.87,2.14,2.79.88,1.21,1.84,2.37,2.4,3.82.18.45-.1.58-.67.52-.28-.03-.65-.11-1.04-.23-.4-.12-.8-.3-1.1-.6-2.34-1.99-4.16-4.38-5.9-6.91-1.01-1.54-2.36-2.89-3.55-4.35-1.29-1.61-2.56-3.25-3.81-4.9-.78-1.01-1.53-2.05-2.27-3.09-1.14-1.56-2.21-3.19-3.39-4.72-.9-1.2-1.97-2.25-2.91-3.41-.2-.26-.43-.49-.61-.78-.33-.52-.51-.89-.47-1.25.05-.19.11-.37.21-.54.11-.18.26-.35.4-.51.13-.15.23-.3.33-.4.18-.17.41-.21.86-.22.47-.03.92.09,1.23.4.5.44.98.9,1.47,1.36.46.48.87.99,1.31,1.5.85,1.03,1.66,2.11,2.48,3.19,1.2,1.63,2.41,3.27,3.62,4.91l-.07.06Z"/><path class="cls-7" d="m59.2,296.46c4.87,2.12,10.87,2.02,15.97-.23,1.85-.84,3.51-2.04,5-3.35,1.36-1.14,2.41-2.56,3.31-4.06.89-1.51,1.37-3.2,1.69-4.94.49-3.57-.07-7.31-1.66-10.66-1.46-2.94-3.74-5.49-6.42-7.37-.42-.31-.86-.61-1.33-.85-.46-.25-.91-.52-1.39-.75l-1.46-.61c-.24-.11-.49-.2-.74-.26l-.75-.26c-.49-.19-.99-.36-1.51-.46-.51-.11-1.03-.27-1.55-.36l-1.59-.2c-.54-.11-1.07,0-1.62-.08-1.39-.26-1.24-.19-.11-.76.57-.31,1.41-.64,2.48-.84,1.08-.28,2.37-.33,3.79-.23,4.96.73,9.45,3.58,12.69,7.4,1.6,1.95,2.82,4.19,3.71,6.55.84,2.39,1.22,4.93,1.21,7.45-.11,1.5-.21,3.01-.58,4.54-.35,1.52-.91,2.99-1.62,4.38-1.43,2.78-3.56,5.16-6.04,6.93-5.48,3.84-12.44,5.33-18.93,3.93-3.99-.86-7.72-2.93-10.51-5.87-4.26-4.45-6.33-10.72-5.85-16.72.33-4.66,2.12-9.23,5.33-12.7.36-.37.72-.74,1.07-1.11.36-.36.77-.69,1.16-1.02.74-.63,1.44-1.02,2.02-1.36.6-.29,1.1-.5,1.53-.64.86-.27,1.44-.21,1.96-.02.24.09.53.16.69.28.28.21.14.58-.32,1.09-.23.25-.54.52-.92.84-.36.33-.79.69-1.28,1.07-2.85,2.31-5.22,5.15-6.48,8.52-1.29,3.34-1.49,7.09-.68,10.61,1.19,5.24,4.81,9.94,9.76,12.01l-.03.09Z"/><path class="cls-3" d="m176.61,410.91l10.21-6.8s2.08,10.14,1.34,11.11c-2.33,3.04-11.55-4.31-11.55-4.31Z"/><polygon class="cls-7" points="173.29 402.54 185.1 403.72 175.49 410.91 173.29 402.54"/><path class="cls-7" d="m184.88,405.11c-.02-.13-.06-.4-.04-.37l.03-.08c.01-.05.04-.14.03-.2-.04-.02-.07-.1-.14-.06l-.12.06s-.02.03-.09.02l-.26-.03c-.5-.05-1.01,0-1.51-.1-1.77-.29-3.54-.59-5.32-.79-.79-.09-1.58-.16-2.36-.19-.5-.02-1.01-.03-1.51-.07-.5-.09-1.01-.17-1.51-.41-.31-.34-.27-.21,0-.55.27-.33.76-.79,1.34-.99,1.03-.18,2.07-.29,3.1-.36,1.04-.07,2.07.05,3.11.18,1.24.19,2.54.02,3.82.03l2.66.14c.27.03.52.09.78.13l.38.07.19.03c.06.02.15,0,.14.09.12.55.26,1.07.36,1.61.05.31.16.7.16.92l.07.67.13,1.32c.13,1.32.16,2.65.35,3.94.15,1,.46,1.97.69,2.96.05.22.13.43.16.65.11.82-.04,1.09-.93,1.33-.19.05-.36.12-.54.16-.53.12-1.29-.16-1.47-.74-.71-1.71-.88-3.54-1.14-5.36-.22-1.35-.38-2.7-.63-3.99l.08-.02Z"/><path class="cls-7" d="m190.46,401.34c-1.14.88-2.28,1.77-3.39,2.7-.41.34-.75.74-1.16,1.08-1.46,1.17-2.93,2.35-4.39,3.52-.65.52-1.23,1.12-1.84,1.67-.8.69-1.56,1.45-2.59,1.89-.31.14-.46-.08-.49-.53,0-.42-.04-1.2.33-1.69,1.19-1.83,2.76-3.26,4.46-4.61,1.04-.78,1.89-1.84,2.84-2.76,1.05-1.01,2.14-2,3.23-2.98.67-.61,1.36-1.2,2.05-1.78,1.04-.9,2.13-1.74,3.13-2.68.79-.71,1.43-1.57,2.18-2.33.17-.16.31-.35.5-.49.35-.26.6-.41.87-.38.15.04.29.09.43.17.15.09.3.21.44.32.13.11.26.19.35.27.15.14.21.33.28.69.08.37.06.74-.13.99-.26.4-.54.79-.82,1.17-.3.36-.62.7-.95,1.04-.65.68-1.36,1.31-2.07,1.96-1.06.95-2.14,1.89-3.23,2.83l-.06-.06Z"/><path class="cls-7" d="m174.98,397.58c-1.16,3.43-.76,7.55,1.08,10.93.69,1.23,1.62,2.28,2.6,3.23.86.87,1.89,1.51,2.96,2.04,1.08.53,2.26.76,3.47.88,2.49.13,5.05-.45,7.28-1.74,1.96-1.18,3.59-2.93,4.73-4.9.4-.62.64-1.32.94-1.99l.33-1.05c.13-.35.16-.71.28-1.06.23-.71.29-1.44.42-2.18l.06-1.12c.06-.38-.06-.74-.01-1.14.16-1,.11-.9.66-.15.29.37.62.94.88,1.69.31.75.48,1.68.52,2.7-.14,3.62-1.9,7.05-4.43,9.63-1.3,1.28-2.84,2.3-4.48,3.09-1.67.75-3.48,1.18-5.29,1.32-2.14.1-4.48-.15-6.57-1.03-2.09-.85-3.95-2.23-5.38-3.89-3.1-3.69-4.6-8.57-4-13.31.37-2.91,1.62-5.71,3.55-7.89,2.92-3.33,7.26-5.18,11.56-5.23,3.34-.07,6.73.88,9.44,2.94.58.46,1.17.91,1.68,1.45.98.99,1.39,1.83,1.62,2.43.22.61.18,1.05.02,1.47-.08.19-.13.41-.23.55-.37.48-1.21-.24-2.46-1.43-1.84-1.78-3.94-3.19-6.32-3.81-2.36-.65-4.91-.53-7.26.24-3.49,1.14-6.45,3.88-7.56,7.35l-.08-.02Z"/><path class="cls-3" d="m439.65,148.14l16.09,1.44-10.3,10.04s-6.42-7.55-5.78-11.48Z"/><path class="cls-7" d="m446.47,159.62l10.39-9.51,2.58,14.53s-10.34,1.67-12.97-5.02Z"/><path class="cls-7" d="m455.51,151.25l-.04-.29-.02-.14s0-.02,0-.04c.01-.03.02-.06.03-.09.02-.06.05-.17.03-.24-.04-.02-.09-.12-.18-.07-.13.04-.05.14-.61.05-.61-.05-1.22-.01-1.83-.12-2.15-.34-4.3-.7-6.45-.94-.96-.11-1.92-.19-2.87-.23-.61-.03-1.22-.04-1.83-.08-.31-.03-.61-.11-.92-.18-.31-.09-.61-.12-.92-.31-.38-.4-.33-.25,0-.65.32-.39.92-.93,1.63-1.18,1.25-.21,2.51-.34,3.76-.43,1.26-.08,2.51.05,3.77.22,1.51.22,3.08.02,4.63.04l3.2.16c.34.03.63.1.95.15l.46.08.23.04c.07.02.18,0,.18.1.15.66.31,1.3.43,1.95l.12.59.06.29c0,.09.01.14.02.21l.09.81.15,1.6c.16,1.6.19,3.21.42,4.78.18,1.22.55,2.39.83,3.59.06.26.16.52.2.79.14.99-.05,1.32-1.11,1.61-.22.07-.43.15-.64.19-.63.15-1.53-.2-1.75-.9-.84-2.08-1.05-4.3-1.37-6.51-.26-1.63-.45-3.28-.76-4.84l.1-.02Z"/><path class="cls-7" d="m462.18,146.64c-1.38,1.07-2.75,2.16-4.1,3.28-.49.41-.91.9-1.4,1.31-1.77,1.43-3.54,2.86-5.3,4.29-.78.64-1.49,1.36-2.23,2.03-.97.84-1.89,1.75-3.13,2.3-.38.18-.54-.09-.57-.62-.02-.27,0-.61.05-.98.04-.38.15-.75.38-1.04,1.46-2.21,3.36-3.94,5.42-5.59,1.26-.96,2.29-2.24,3.45-3.36,1.28-1.23,2.59-2.42,3.91-3.62.81-.74,1.64-1.45,2.48-2.17,1.25-1.09,2.58-2.12,3.79-3.25.95-.86,1.74-1.89,2.66-2.81.2-.2.38-.42.61-.59.42-.32.73-.5,1.05-.47.18.04.35.1.52.2.18.1.36.24.52.37.15.12.3.22.41.31.18.17.25.39.33.82.09.44.06.87-.17,1.18-.32.48-.66.95-1,1.41-.37.44-.76.84-1.16,1.26-.8.82-1.65,1.59-2.51,2.37-1.29,1.15-2.6,2.3-3.92,3.44l-.07-.07Z"/><path class="cls-7" d="m443.02,141.99c-1.43,4.31-.89,9.42,1.42,13.6.86,1.52,2.01,2.83,3.24,4.01,1.07,1.07,2.37,1.86,3.71,2.51,1.36.65,2.84.93,4.34,1.06,3.08.14,6.23-.62,8.96-2.23,2.4-1.47,4.4-3.62,5.8-6.04.23-.39.46-.78.62-1.2.17-.42.38-.82.53-1.24l.41-1.29c.08-.21.13-.43.17-.65l.16-.66c.12-.44.24-.88.28-1.33.06-.45.15-.9.19-1.35l.05-1.37c.06-.47-.09-.91-.05-1.39.12-1.21.07-1.07.65-.15.31.46.67,1.15.92,2.06.33.9.48,2.01.5,3.22-.24,4.3-2.33,8.37-5.35,11.43-1.54,1.52-3.37,2.73-5.32,3.68-1.98.9-4.12,1.42-6.28,1.61-2.55.14-5.33-.15-7.8-1.2-2.49-1.01-4.69-2.65-6.4-4.64-3.71-4.39-5.52-10.23-4.82-15.89.43-3.48,1.91-6.83,4.21-9.45,3.48-3.99,8.68-6.24,13.85-6.29,4.01-.08,8.06,1.1,11.28,3.58.35.28.69.56,1.03.83.34.28.65.6.97.92.59.58.98,1.16,1.32,1.62.3.49.51.9.66,1.26.29.71.28,1.22.15,1.68-.06.21-.1.46-.19.62-.16.26-.5.17-.96-.18-.24-.17-.49-.42-.79-.71-.31-.28-.66-.62-1.02-1.01-2.2-2.24-4.8-4.04-7.77-4.86-2.95-.84-6.15-.72-9.09.24-4.37,1.42-8.09,4.86-9.48,9.23l-.08-.02Z"/><path class="cls-7" d="m433.01,294.68s1.1-4.59,3.85-6.46c3.96-2.69,9.61-4.7,10.92-6.46,3.04-4.09.06-5.79-1.8-4.77-1.86,1.02-7.17,5.2-7.17,5.2,0,0-2.55-16.27-3.93-16.57s-4.79,2.6-4.83,6.83c-.04,4.22.95,12.57,1.48,14.69.53,2.12,1.48,7.55,1.48,7.55Z"/><path class="cls-7" d="m433.64,268.48s-.2-.04-.41.08c-.22.12-.51.42-.75.86-.52.83-.84,2.04-1.07,3.25-.16.89-.17,1.82-.24,2.75-.25,3.3-.08,6.72.39,10.09.22,1.49.53,2.99.92,4.43.23.94.58,1.84.8,2.77.26.92.23,1.96.48,2.9.11.61-.05.59-.5.21-.29-.25-.6-.53-.91-.8-.19-.17-.4-.35-.61-.56-.11-.1-.19-.22-.32-.32-.07-.12-.16-.24-.23-.37-1.74-3.76-2.58-7.83-2.77-11.97-.09-2.47-.44-5.03-.29-7.61.09-1.42.27-2.85.67-4.3.23-.73.46-1.45.88-2.17.4-.71.95-1.43,1.75-1.97.51-.32,1.05-.55,1.69-.64.64-.1,1.33.02,1.87.27,1.12.5,1.77,1.31,2.33,2.07,1.59,2.39,2.2,4.98,2.75,7.53.4,1.99.81,3.96.84,6.07.01.46.03.93-.02,1.4-.22,1.77-.73,2.3-1.81,2.27-.25,0-.5,0-.74-.04-.8-.19-1.17-.94-1.16-1.93,0-2.99-.32-6.34-1.14-9.49-.32-1.16-.73-2.28-1.23-3.22-.25-.46-.53-.87-.78-1.13-.26-.27-.43-.35-.4-.35v-.08Z"/><path class="cls-7" d="m453.67,274.77c.42.22.85.54,1.19.91.36.38.53.71.77,1.11.43.81.58,1.83.46,2.71-.31,1.77-1.23,2.81-2.06,3.71-.62.65-1.21,1.27-1.88,1.78-2.36,1.78-4.88,3.05-7.35,4.36-1.1.58-2.17,1.2-3.22,1.82l-1.01.61c-.35.19-.7.35-1.05.52-.7.35-1.44.62-2.17.91-.46.18-.49.03-.3-.42.1-.23.25-.54.45-.9.2-.36.46-.75.8-1.06l.92-.83c.31-.27.66-.46.99-.69l2.02-1.28c1.35-.83,2.72-1.63,4.1-2.4,1.64-.93,3.18-2.18,4.5-3.43.72-.68,1.41-1.41,1.8-2.13.22-.36.3-.69.33-.98.04-.29-.06-.52-.21-.81-.13-.19-.21-.32-.34-.41-.12-.11-.3-.17-.49-.25-.42-.12-.97-.13-1.54-.05-1.75.22-3.64.96-5.3,1.93-1.3.76-2.41,1.79-3.47,2.8-.23.22-.43.47-.66.69-.85.81-1.19.88-2.07.45-.2-.1-.41-.17-.6-.28-.65-.34-.73-1.22-.11-2.09,1.84-2.51,4.41-4.28,7.32-5.64,1.1-.49,2.24-.92,3.55-1.18.65-.14,1.35-.2,2.12-.18.76.03,1.64.16,2.53.61l-.03.08Z"/><path class="cls-7" d="m118.17,104.25s-.72-9.61-1.99-13.98c-.9-3.11-3.55-4.32-3.98,0-.19,1.91,1.04,6.25,1.04,6.25,0,0-12.45-2.76-13.55-.78-1.1,1.97,2.04,4.71,4.63,5.58s13.86,2.92,13.86,2.92Z"/><path class="cls-7" d="m100.06,95.96s-.04,0-.07.02c0,.03-.02.05-.04.07,0,.02,0,.05-.02.07-.02.1.03.34.22.64.36.61,1.16,1.27,2,1.82.63.4,1.34.7,2.04,1.05,2.47,1.23,5.21,2.17,7.98,2.84,1.24.29,2.5.51,3.75.64.8.11,1.62.1,2.42.22.8.09,1.6.46,2.42.57.51.11.45.25.01.52-.3.17-.61.35-.91.53-.19.11-.4.23-.63.34-.11.06-.23.09-.35.17-.12.02-.24.06-.36.08-3.5.26-6.97-.32-10.28-1.48-1.97-.7-4.1-1.21-6.1-2.15-1.09-.52-2.17-1.12-3.19-1.95-.5-.43-.99-.9-1.42-1.5-.42-.61-.76-1.41-.76-2.29-.02-.54.11-1.05.34-1.56.26-.49.61-.9,1-1.2.78-.6,1.6-.85,2.37-1.04,2.37-.5,4.6-.2,6.79.13,1.69.29,3.4.53,5.09,1.15.37.14.75.26,1.12.45,1.35.75,1.61,1.38,1.14,2.28-.1.21-.2.43-.34.61-.49.6-1.22.69-1.97.41-2.27-.84-4.97-1.59-7.66-1.88-.99-.1-1.99-.12-2.87-.02-.88.07-1.64.44-1.68.5l-.07-.05Z"/><path class="cls-7" d="m112.67,81.85c.3-.24.64-.45,1.01-.63.19-.08.39-.15.58-.21.18-.04.35-.07.53-.11.33-.08.76-.07,1.14-.06.41.06.82.13,1.2.31.76.33,1.35.88,1.71,1.4.39.53.62,1.05.83,1.56.28.74.52,1.43.65,2.13.41,2.48.32,4.83.3,7.17-.02,1.04.02,2.07.06,3.09.13,1.3-.01,2.61-.22,3.91-.06.41-.2.38-.49.06-.25-.32-.85-.93-1.06-1.69l-.27-1c-.09-.33-.08-.67-.12-1l-.15-1.99c-.08-1.32-.13-2.63-.14-3.95-.03-1.57-.37-3.17-.79-4.59-.22-.78-.53-1.5-.89-1.95-.38-.43-.6-.52-1.2-.41-.55.06-1.09.71-1.43,1.61-.53,1.35-.77,3.01-.72,4.6.05,1.25.39,2.46.74,3.61.08.25.19.49.26.74.27.92.16,1.18-.58,1.71-.17.12-.33.26-.5.37-.56.4-1.33.14-1.76-.67-1.23-2.37-1.53-4.98-1.35-7.7.08-1.01.24-2.04.58-3.12.35-1.05.88-2.22,2.05-3.27l.06.06Z"/><path class="cls-7" d="m376.56,376.45s1.87-3.42,3.4-.88.16,11.92,1.7,13.79c1.53,1.87-10.88-3.45-14.28-6.23s-3.77-3.35-1.13-4.9c2.64-1.55,10.31,1.85,10.31,1.85v-3.63Z"/><path class="cls-7" d="m365.4,378.64s-.05.02-.05.04c-.04.06-.07.03-.04.28.02.21.16.51.33.81.38.61.96,1.25,1.62,1.83.54.47,1.16.85,1.76,1.28,2.13,1.52,4.53,2.82,7.01,3.88,1.11.47,2.25.86,3.4,1.18.73.22,1.49.35,2.22.58.73.21,1.42.68,2.17.91.46.18.38.3-.06.48-.31.12-.63.24-.93.35-.2.07-.41.15-.64.22-.11.04-.23.05-.35.11-.11,0-.23.02-.35.02-3.3-.3-6.44-1.39-9.35-2.98-1.73-.96-3.63-1.76-5.35-2.92-.94-.64-1.85-1.36-2.69-2.23-.79-.9-1.67-1.93-1.79-3.6,0-.2.01-.39.03-.58l.12-.57c.24-.8.84-1.41,1.58-1.79.68-.33,1.34-.44,1.96-.49,2.32-.11,4.34.54,6.32,1.2,1.53.53,3.07,1.04,4.55,1.87.33.18.66.35.97.58,1.14.88,1.29,1.47.75,2.27-.12.18-.24.38-.38.53-.52.52-1.23.51-1.91.13-2.05-1.14-4.44-2.27-6.89-2.98-.91-.25-1.83-.43-2.65-.47-.4-.02-.78,0-1.03.06-.3.08-.21.03-.26.07l-.06-.04Z"/><path class="cls-7" d="m377.55,367.18c.34-.21.76-.38,1.17-.46.44-.1.74-.08,1.12-.07.77.04,1.57.37,2.14.84,1.13.98,1.47,2.07,1.74,3.01.19.7.38,1.36.45,2.04.24,2.36.06,4.6-.07,6.83-.06.99-.07,1.97-.07,2.95.06,1.25-.12,2.49-.37,3.72-.08.39-.21.35-.46.04-.23-.32-.76-.92-.92-1.65l-.21-.97c-.07-.32-.05-.64-.07-.96l-.06-1.91c-.02-1.26,0-2.52.04-3.78.04-1.5-.19-3.05-.51-4.45-.17-.76-.38-1.52-.7-2.06-.15-.28-.33-.46-.49-.59-.16-.13-.33-.16-.56-.17-.17,0-.28,0-.37.05-.11.03-.22.12-.34.21-.24.22-.46.58-.64.99-.55,1.26-.84,2.85-.84,4.37,0,1.2.27,2.37.54,3.49.06.25.16.48.21.72.21.9.09,1.15-.64,1.61-.17.1-.33.23-.5.32-.56.33-1.26.04-1.62-.75-1.03-2.3-1.21-4.79-.95-7.36.12-.96.29-1.93.65-2.96.18-.51.43-1.03.77-1.56.35-.53.81-1.1,1.52-1.55l.04.06Z"/><path class="cls-7" d="m365.64,118.94c.29.21-.09.52-.88.9-.25.12-1.06.29-1.19.24-.25-.1-.5-.21-.68-.33-.11-.07-.8-1.48-1.05-1.97-.25-.46-.36-.96-.45-1.45-.17-1.01-.38-2.01-.53-3.03-.03-.23-.03-.46.02-.69.15-.81.07-1.58-.07-2.34-.02-.13-.02-.26-.16-.37-.24-.18-.42-2.29-.34-2.57.2-.7.3-1.38.46-2.07.02-.1-.03-.2.11-.29.34-.22.27-.43.29-.64.02-.29.07-.58.17-.87.05-.14.24-.29.4-.44.14-.13.66-.08.71-.04.17.12.41.01.62,0,.07,0,.17-.01.23-.01.13.01,1.09,1.59,1.1,1.76,0,.02.11.61.23,1.23.13.62.26,1.26.31,1.38.05.13-.02.28-.06.42-.03.07.47,1.89.48,1.97,0,.39.19.75-.07,1.17-.05.08-.02.16,0,.23.14.65.12,1.32.14,1.99.01.34.11.67.17,1.01,0,.06-.03.13-.04.19-.01.08-.04.16-.03.24.18.79.15,1.61.45,2.37.07.17-.13,1.12-.03,1.32.05.11-.42.61-.3.7Z"/><path class="cls-7" d="m380.4,124.93c-.07.31-.44.02-1.01-.63-.18-.21-.59-.93-.59-1.06,0-.26-.01-.51.02-.7.02-.12.85-1.05,1.12-1.39.26-.33.58-.55.92-.74.69-.4,1.35-.83,2.04-1.24.15-.09.32-.14.51-.17.65-.08,1.18-.37,1.68-.73.08-.06.18-.09.2-.25.03-.26,1.46-1.08,1.69-1.1.58-.05,1.12-.18,1.67-.28.08-.01.12-.1.26,0,.31.22.42.09.58.03.21-.08.44-.15.69-.16.13,0,.32.11.49.19.16.07.37.55.37.61,0,.19.19.36.3.54.04.06.09.14.11.19.06.12-.62,1.55-.75,1.62-.03.02-1.53,1.22-1.68,1.39-.08.09-.22.08-.34.09-.06,0-1.22,1.04-1.27,1.06-.29.13-.49.41-.92.3-.08-.02-.13.03-.18.06-.44.32-.96.5-1.47.7-.26.11-.47.29-.71.43-.04.03-.11,0-.16.02-.07,0-.14,0-.2.04-.54.37-1.2.55-1.68,1.01-.11.11-.92.14-1.05.28-.07.08-.62-.25-.65-.12Z"/><path class="cls-7" d="m94.67,162.47c-.35.09-.34-.4-.14-1.25.07-.27.45-1,.57-1.07.24-.14.47-.26.67-.33.13-.04,1.61.28,2.13.36.5.08.94.27,1.38.49.88.44,1.77.85,2.65,1.29.2.1.37.23.53.4.55.57,1.21.92,1.91,1.2.12.05.22.12.38.07.27-.1,2.08.83,2.27,1.04.47.52.98.95,1.48,1.42.07.07.18.07.19.24.02.4.22.44.39.55.23.16.46.34.66.57.1.11.13.35.18.55.05.18-.25.61-.31.64-.19.09-.21.35-.29.55-.03.07-.07.15-.1.2-.07.11-1.91.19-2.07.1-.04-.02-2.27-.82-2.54-.88-.14-.03-.23-.17-.33-.27-.05-.05-1.87-.62-1.93-.66-.33-.21-.74-.26-.95-.71-.04-.09-.12-.11-.19-.14-.62-.25-1.17-.65-1.74-1.02-.29-.19-.62-.3-.92-.45-.06-.03-.09-.1-.13-.14-.06-.06-.11-.13-.18-.16-.74-.32-1.39-.84-2.18-1.07-.18-.05-.81-.79-1.02-.84-.12-.03-.22-.71-.36-.67Z"/><path class="cls-7" d="m96.16,185.12c.05.33-.41.2-1.2-.18-.25-.12-.9-.63-.95-.76-.1-.24-.18-.49-.22-.69-.03-.13.54-1.44.75-1.9.19-.45.48-.81.81-1.14.65-.68,1.32-1.36,2.04-1.99.16-.14.35-.24.56-.32.73-.25,1.32-.66,1.88-1.13.1-.08.21-.12.25-.29.03-.3,1.81-1.3,2.1-1.31.7-.06,1.35-.18,2.02-.22.1,0,.17-.09.3.03.3.27.46.15.65.12.27-.05.54-.07.83-.02.14.02.32.18.47.3.14.11.2.63.17.69-.07.19.07.4.13.61.02.07.05.16.05.22,0,.06-.26.4-.52.72-.26.33-.52.66-.58.67-.05,0-1.62.96-1.75,1.16-.08.08-.21.06-.33.07-.07,0-1.17,1.02-1.21,1.06-.27.14-.44.43-.87.36-.08-.01-.12.04-.17.09-.39.37-.88.62-1.34.92-.23.16-.41.38-.61.57-.04.04-.1.04-.16.06-.06.03-.14.04-.18.09-.45.49-1.03.86-1.36,1.47-.08.13-.84.46-.92.63-.04.09-.68,0-.67.13Z"/></svg>